<?xml version="1.0" encoding="UTF-8"?>
<svg width="226px" height="226px" viewBox="0 0 226 226" version="1.1" xmlns="http://www.w3.org/2000/svg" xmlns:xlink="http://www.w3.org/1999/xlink">
    <!-- Generator: Sketch 53.2 (72643) - https://sketchapp.com -->
    <title>Group 8</title>
    <desc>Created with Sketch.</desc>
    <g id="Page-1" stroke="none" stroke-width="1" fill="none" fill-rule="evenodd">
        <g id="Artboard-Copy-9" transform="translate(-567.000000, -394.000000)">
            <g id="Group-8" transform="translate(568.000000, 395.000000)">
                <circle id="Oval-Copy-2" stroke="#000000" cx="112" cy="112" r="112"></circle>
                <circle id="Oval-Copy-3" fill="#000000" cx="52.5" cy="85.5" r="5.5"></circle>
                <circle id="Oval-Copy-4" fill="#000000" cx="106.5" cy="111.5" r="5.5"></circle>
                <circle id="Oval-Copy-5" fill="#000000" cx="126.419941" cy="182.5" r="5.5"></circle>
                <g id="Group-5" transform="translate(117.476645, 189.582966) rotate(-115.000000) translate(-117.476645, -189.582966) translate(107.476645, 181.582966)">
                    <path d="M4.33029628,16 C-1.64291493,12.6065958 -1.64291493,4.01892143 5.62185108,0.815515054 C12.8866171,-2.38789132 19.58557,4.465602 17.6678261,10.611957" id="Path-17" stroke="#0000A6" stroke-linecap="round" stroke-linejoin="round"></path>
                    <polygon id="Path-16" fill="#0000A6" transform="translate(17.800017, 10.700264) rotate(97.000000) translate(-17.800017, -10.700264) " points="15.4603383 9.20026356 15.4603383 12.2002636 20.1396955 10.7002636"></polygon>
                </g>
                <g id="Group-5" transform="translate(151.072646, 52.143966)">
                    <path d="M4.33029628,16 C-1.64291493,12.6065958 -1.64291493,4.01892143 5.62185108,0.815515054 C12.8866171,-2.38789132 19.58557,4.465602 17.6678261,10.611957" id="Path-17" stroke="#0000A6" stroke-linecap="round" stroke-linejoin="round"></path>
                    <polygon id="Path-16" fill="#0000A6" transform="translate(17.800017, 10.700264) rotate(97.000000) translate(-17.800017, -10.700264) " points="15.4603383 9.20026356 15.4603383 12.2002636 20.1396955 10.7002636"></polygon>
                </g>
                <g id="Group-5-Copy" transform="translate(39.050544, 86.706518) rotate(-89.000000) translate(-39.050544, -86.706518) translate(29.050544, 78.706518)">
                    <path d="M4.33029628,16 C-1.64291493,12.6065958 -1.64291493,4.01892143 5.62185108,0.815515054 C12.8866171,-2.38789132 19.58557,4.465602 17.6678261,10.611957" id="Path-17" stroke="#0000A6" stroke-linecap="round" stroke-linejoin="round"></path>
                    <polygon id="Path-16" fill="#0000A6" transform="translate(17.800017, 10.700264) rotate(97.000000) translate(-17.800017, -10.700264) " points="15.4603383 9.20026356 15.4603383 12.2002636 20.1396955 10.7002636"></polygon>
                </g>
                <g id="Group-5-Copy-2" transform="translate(109.619795, 98.586697) rotate(22.000000) translate(-109.619795, -98.586697) translate(99.619795, 90.586697)">
                    <path d="M4.33029628,16 C-1.64291493,12.6065958 -1.64291493,4.01892143 5.62185108,0.815515054 C12.8866171,-2.38789132 19.58557,4.465602 17.6678261,10.611957" id="Path-17" stroke="#0000A6" stroke-linecap="round" stroke-linejoin="round"></path>
                    <polygon id="Path-16" fill="#0000A6" transform="translate(17.819555, 10.541137) rotate(97.000000) translate(-17.819555, -10.541137) " points="15.3195552 9.04113721 15.3195552 12.0411372 20.3195552 10.5411372"></polygon>
                </g>
                <circle id="Oval-Copy-7" fill="#000000" cx="163.5" cy="72.5" r="5.5"></circle>
                <path d="M52.5,85.5 L161.116604,72.5" id="Path-18" stroke="#000000"></path>
                <path d="M126.419941,178.5 L163.5,72.5" id="Path-18" stroke="#000000"></path>
                <path d="M106.808302,111.5 L126.419941,179.5" id="Path-18" stroke="#000000"></path>
                <path d="M106.808302,111.5 L52.5,85.5" id="Path-18" stroke="#000000"></path>
                <polygon id="Path-16" fill="#000000" transform="translate(114.905645, 78.107270) scale(1, -1) rotate(9.000000) translate(-114.905645, -78.107270) " points="110.905645 75.5428156 110.905645 80.6717251 118.905645 78.1072704"></polygon>
                <polygon id="Path-16-Copy-3" fill="#000000" transform="translate(146.415668, 121.095435) scale(1, -1) rotate(-112.000000) translate(-146.415668, -121.095435) " points="142.915668 118.82561 142.915668 123.36526 149.915668 121.095435"></polygon>
                <polygon id="Path-16-Copy-4" fill="#000000" transform="translate(115.567662, 142.551906) scale(1, -1) rotate(-74.000000) translate(-115.567662, -142.551906) " points="111.567662 139.987452 111.567662 145.116361 119.567662 142.551906"></polygon>
                <polygon id="Path-16-Copy-4" fill="#000000" transform="translate(81.623756, 99.371674) scale(1, -1) rotate(-27.000000) translate(-81.623756, -99.371674) " points="77.6237559 96.8072195 77.6237559 101.936129 85.6237559 99.3716742"></polygon>
                <text id="C" font-family="MerriweatherSans-LightItalic, Merriweather Sans" font-size="17" font-style="italic" font-weight="300" letter-spacing="1.267273" fill="#000000">
                    <tspan x="186" y="215">C</tspan>
                </text>
                <text id="X" font-family="MerriweatherSans-LightItalic, Merriweather Sans" font-size="13" font-style="italic" font-weight="300" letter-spacing="0.9690909" fill="#000000">
                    <tspan x="48" y="74">X</tspan>
                </text>
                <text id="f" font-family="MerriweatherSans-LightItalic, Merriweather Sans" font-size="13" font-style="italic" font-weight="300" letter-spacing="0.9690909" fill="#000000">
                    <tspan x="108" y="74">f</tspan>
                </text>
                <text id="$f-\circ-g$" font-family="MerriweatherSans-LightItalic, Merriweather Sans" font-size="13" font-style="italic" font-weight="300" letter-spacing="0.9690909" fill="#000000">
                    <tspan x="153" y="131">$f \circ g$</tspan>
                </text>
                <text id="g" font-family="MerriweatherSans-LightItalic, Merriweather Sans" font-size="13" font-style="italic" font-weight="300" letter-spacing="0.9690909" fill="#000000">
                    <tspan x="101" y="151">g</tspan>
                </text>
                <text id="h" font-family="MerriweatherSans-LightItalic, Merriweather Sans" font-size="13" font-style="italic" font-weight="300" letter-spacing="0.9690909" fill="#000000">
                    <tspan x="73" y="114">h</tspan>
                </text>
                <text id="Y" font-family="MerriweatherSans-LightItalic, Merriweather Sans" font-size="13" font-style="italic" font-weight="300" letter-spacing="0.9690909" fill="#000000">
                    <tspan x="175" y="78">Y</tspan>
                </text>
                <text id="W" font-family="MerriweatherSans-LightItalic, Merriweather Sans" font-size="13" font-style="italic" font-weight="300" letter-spacing="0.9690909" fill="#000000">
                    <tspan x="135" y="198">W</tspan>
                </text>
                <text id="Z" font-family="MerriweatherSans-LightItalic, Merriweather Sans" font-size="13" font-style="italic" font-weight="300" letter-spacing="0.9690909" fill="#000000">
                    <tspan x="116" y="119">Z</tspan>
                </text>
            </g>
        </g>
    </g>
</svg>