<?xml version="1.0" encoding="UTF-8"?>
<svg width="344px" height="344px" viewBox="0 0 344 344" version="1.1" xmlns="http://www.w3.org/2000/svg" xmlns:xlink="http://www.w3.org/1999/xlink">
    <!-- Generator: Sketch 53.2 (72643) - https://sketchapp.com -->
    <title>Group 11</title>
    <desc>Created with Sketch.</desc>
    <g id="Page-1" stroke="none" stroke-width="1" fill="none" fill-rule="evenodd">
        <g id="Artboard" transform="translate(-736.000000, -65.000000)">
            <g id="Group-11" transform="translate(737.000000, 66.000000)">
                <g id="Group-10">
                    <circle id="Oval" stroke="#C7C8EC" stroke-width="2" fill="#E5ECF6" cx="171" cy="171" r="171"></circle>
                    <g id="Group-6" transform="translate(199.376443, 192.026492) rotate(33.000000) translate(-199.376443, -192.026492) translate(117.376443, 57.026492)">
                        <g id="Group-9" transform="translate(95.000000, 218.000000)">
                            <g id="Group-5" transform="translate(6.159617, 4.380765)" stroke="#0000A6" stroke-width="1.4">
                                <path d="M0.299720617,1.27922738 L7.65352418,12.9448112" id="Path-144"></path>
                                <ellipse id="Oval-Copy-15" fill="#E5ECF6" cx="13.8888889" cy="22.4" rx="11.1111111" ry="11.2"></ellipse>
                            </g>
                            <circle id="Oval" fill="#AB63FA" transform="translate(8.500000, 8.500000) rotate(-30.000000) translate(-8.500000, -8.500000) " cx="8.5" cy="8.5" r="5.5"></circle>
                        </g>
                        <g id="Group-9" transform="translate(35.524632, 96.065896) rotate(-33.000000) translate(-35.524632, -96.065896) translate(19.524632, 76.065896)">
                            <g id="Group-5" transform="translate(6.159617, 4.380765)" stroke="#0000A6" stroke-width="1.4">
                                <path d="M0.299720617,1.27922738 L7.65352418,12.9448112" id="Path-144"></path>
                                <ellipse id="Oval-Copy-15" fill="#E5ECF6" cx="13.8888889" cy="22.4" rx="11.1111111" ry="11.2"></ellipse>
                            </g>
                            <circle id="Oval" fill="#AB63FA" transform="translate(8.500000, 8.500000) rotate(-30.000000) translate(-8.500000, -8.500000) " cx="8.5" cy="8.5" r="5.5"></circle>
                        </g>
                        <g id="Group-9-Copy" transform="translate(0.175041, 0.905125)">
                            <g id="Group-5" transform="translate(6.159617, 4.380765)" stroke="#0000A6" stroke-width="1.4">
                                <path d="M0.299720617,1.27922738 L7.65352418,12.9448112" id="Path-144"></path>
                                <ellipse id="Oval-Copy-15" fill="#E5ECF6" cx="13.8888889" cy="22.4" rx="11.1111111" ry="11.2"></ellipse>
                            </g>
                            <circle id="Oval" fill="#AB63FA" transform="translate(8.500000, 8.500000) rotate(-30.000000) translate(-8.500000, -8.500000) " cx="8.5" cy="8.5" r="5.5"></circle>
                        </g>
                        <g id="Group-8" transform="translate(34.405770, 227.879357)">
                            <g id="Group-5-Copy-3" transform="translate(7.810818, 6.824783)" stroke="#0000A6" stroke-width="1.4">
                                <path d="M0.299720617,1.27922738 L7.65352418,12.9448112" id="Path-144"></path>
                                <ellipse id="Oval-Copy-15" fill="#E5ECF6" cx="13.8888889" cy="22.4" rx="11.1111111" ry="11.2"></ellipse>
                            </g>
                            <circle id="Oval-Copy-11" fill="#AB63FA" transform="translate(8.500000, 8.500000) rotate(-30.000000) translate(-8.500000, -8.500000) " cx="8.5" cy="8.5" r="5.5"></circle>
                        </g>
                        <g id="Group-8" transform="translate(130.351671, 160.801908)">
                            <g id="Group-5-Copy-3" transform="translate(7.810818, 6.824783)" stroke="#0000A6" stroke-width="1.4">
                                <path d="M0.299720617,1.27922738 L7.65352418,12.9448112" id="Path-144"></path>
                                <ellipse id="Oval-Copy-15" fill="#E5ECF6" cx="13.8888889" cy="22.4" rx="11.1111111" ry="11.2"></ellipse>
                            </g>
                            <circle id="Oval-Copy-11" fill="#AB63FA" transform="translate(8.500000, 8.500000) rotate(-30.000000) translate(-8.500000, -8.500000) " cx="8.5" cy="8.5" r="5.5"></circle>
                        </g>
                    </g>
                    <path d="M207.517714,46.7581316 C226.526837,47.6799611 235.405738,58.7526129 234.154418,79.9760872 C232.903097,101.199561 213.684958,114.460243 176.5,119.758132" id="Path-141" stroke="#AB63FA" stroke-linecap="round" stroke-linejoin="round" stroke-dasharray="4"></path>
                    <path d="M173.013803,119.758116 C127.883032,129.714225 107.336467,174.454127 111.374108,253.977821" id="Path-143" stroke="#AB63FA" stroke-linecap="round" stroke-linejoin="round" stroke-dasharray="4"></path>
                    <path d="M173.013803,119.758116 C127.611012,145.251527 125.528622,197.998822 166.766632,278" id="Path-143" stroke="#AB63FA" stroke-linecap="round" stroke-linejoin="round" stroke-dasharray="4"></path>
                    <path d="M173.013803,123.159252 C135.774213,159.987649 152.127683,201.250573 222.074215,246.948024" id="Path-143" stroke="#AB63FA" stroke-linecap="round" stroke-linejoin="round" stroke-dasharray="4"></path>
                </g>
                <text id="$i’$" font-family="Merriweather-Regular, Merriweather" font-size="10" font-weight="normal" letter-spacing="0.7454544" fill="#4E586A">
                    <tspan x="176.698182" y="50">$i’$</tspan>
                </text>
                <text id="$i$" font-family="Merriweather-Regular, Merriweather" font-size="10" font-weight="normal" letter-spacing="0.7454544" fill="#4E586A">
                    <tspan x="161.253637" y="113">$i$</tspan>
                </text>
                <text id="$R(i)$" font-family="Merriweather-Regular, Merriweather" font-size="10" font-weight="normal" letter-spacing="0.7454544" fill="#4E586A">
                    <tspan x="200.377274" y="149">$R(i)$</tspan>
                </text>
                <text id="$P(i)$" font-family="Merriweather-Regular, Merriweather" font-size="10" font-weight="normal" letter-spacing="0.7454544" fill="#4E586A">
                    <tspan x="71.9272736" y="185">$P(i)$</tspan>
                </text>
                <polygon id="Path-145" stroke="#AB63FA" fill="#AB63FA" stroke-linecap="round" stroke-linejoin="round" points="182.115786 116.338214 178.488949 119.530961 183.097221 120.997093"></polygon>
                <polygon id="Path-145" stroke="#AB63FA" fill="#AB63FA" stroke-linecap="round" stroke-linejoin="round" transform="translate(110.609135, 247.474950) rotate(-80.000000) translate(-110.609135, -247.474950) " points="111.931836 245.145511 108.304999 248.338257 112.913272 249.804389"></polygon>
                <polygon id="Path-145" stroke="#AB63FA" fill="#AB63FA" stroke-linecap="round" stroke-linejoin="round" transform="translate(163.896990, 273.065303) rotate(-102.000000) translate(-163.896990, -273.065303) " points="165.219691 270.735864 161.592854 273.92861 166.201126 275.394742"></polygon>
                <polygon id="Path-145" stroke="#AB63FA" fill="#AB63FA" stroke-linecap="round" stroke-linejoin="round" transform="translate(222.074215, 247.303243) rotate(-135.000000) translate(-222.074215, -247.303243) " points="223.396916 244.973804 219.770079 248.166551 224.378351 249.632682"></polygon>
                <text id="$H$" font-family="Merriweather-Regular, Merriweather" font-size="10" font-weight="normal" letter-spacing="0.7454544" fill="#4E586A">
                    <tspan x="294.303637" y="304">$H$</tspan>
                </text>
            </g>
        </g>
    </g>
</svg>