<?xml version="1.0" encoding="UTF-8"?>
<svg width="156px" height="156px" viewBox="0 0 156 156" version="1.1" xmlns="http://www.w3.org/2000/svg" xmlns:xlink="http://www.w3.org/1999/xlink">
    <!-- Generator: Sketch 53.2 (72643) - https://sketchapp.com -->
    <title>Group 47</title>
    <desc>Created with Sketch.</desc>
    <g id="Page-1" stroke="none" stroke-width="1" fill="none" fill-rule="evenodd">
        <g id="Artboard-Copy-9" transform="translate(-278.000000, -6955.000000)">
            <g id="Group-47" transform="translate(279.000000, 6956.000000)">
                <polygon id="Path-16" fill="#8A8AC8" transform="translate(48.089391, 64.429181) scale(1, -1) rotate(-122.000000) translate(-48.089391, -64.429181) " points="45.7497121 62.9291813 45.7497121 65.9291813 50.4290694 64.4291813"></polygon>
                <g id="Group-46" opacity="0.272902716" transform="translate(77.000000, 24.000000)">
                    <polygon id="Path-16" fill="#8A8AC8" transform="translate(27.000000, 39.913341) scale(-1, 1) translate(-27.000000, -39.913341) " points="26.2875146 37.4133414 29 39.0821335 25 42.4133414"></polygon>
                    <path d="M28,0 L0.482758621,39.5" id="Path-80" stroke="#8A8AC8" transform="translate(14.000000, 20.000000) scale(-1, 1) translate(-14.000000, -20.000000) "></path>
                </g>
                <g id="Group-46-Copy-2" opacity="0.272902716" transform="translate(99.000000, 90.500000) scale(-1, 1) translate(-99.000000, -90.500000) translate(90.000000, 69.000000)">
                    <polygon id="Path-16" fill="#8A8AC8" transform="translate(15.000000, 39.500000) scale(-1, 1) rotate(-14.000000) translate(-15.000000, -39.500000) " points="14.2875146 37 17 38.6687921 13 42"></polygon>
                    <path d="M15.5,0.5 L0.534482759,39.5" id="Path-80" stroke="#8A8AC8" transform="translate(8.000000, 20.000000) scale(-1, 1) translate(-8.000000, -20.000000) "></path>
                </g>
                <g id="Group-46-Copy-3" opacity="0.272902716" transform="translate(37.000000, 90.500000) scale(-1, 1) translate(-37.000000, -90.500000) translate(28.000000, 69.000000)">
                    <polygon id="Path-16" fill="#8A8AC8" transform="translate(15.000000, 39.500000) scale(-1, 1) rotate(-14.000000) translate(-15.000000, -39.500000) " points="14.2875146 37 17 38.6687921 13 42"></polygon>
                    <path d="M15.5,0.5 L0.534482759,39.5" id="Path-80" stroke="#8A8AC8" transform="translate(8.000000, 20.000000) scale(-1, 1) translate(-8.000000, -20.000000) "></path>
                </g>
                <g id="Group-46-Copy-2" opacity="0.272902716" transform="translate(107.000000, 69.000000)">
                    <polygon id="Path-16" fill="#8A8AC8" transform="translate(15.000000, 39.500000) scale(-1, 1) rotate(-14.000000) translate(-15.000000, -39.500000) " points="14.2875146 37 17 38.6687921 13 42"></polygon>
                    <path d="M15.5,0.5 L0.534482759,39.5" id="Path-80" stroke="#8A8AC8" transform="translate(8.000000, 20.000000) scale(-1, 1) translate(-8.000000, -20.000000) "></path>
                </g>
                <g id="Group-46-Copy-4" opacity="0.272902716" transform="translate(45.000000, 69.000000)">
                    <polygon id="Path-16" fill="#8A8AC8" transform="translate(15.000000, 39.500000) scale(-1, 1) rotate(-14.000000) translate(-15.000000, -39.500000) " points="14.2875146 37 17 38.6687921 13 42"></polygon>
                    <path d="M15.5,0.5 L0.534482759,39.5" id="Path-80" stroke="#8A8AC8" transform="translate(8.000000, 20.000000) scale(-1, 1) translate(-8.000000, -20.000000) "></path>
                </g>
                <text id="c" font-family="Merriweather-Regular, Merriweather" font-size="8" font-weight="normal" letter-spacing="0.5963636" fill="#4E586A">
                    <tspan x="69.2996364" y="19">c</tspan>
                </text>
                <text id="c'" font-family="Merriweather-Regular, Merriweather" font-size="8" font-weight="normal" letter-spacing="0.5963636" fill="#4E586A">
                    <tspan x="36.8792728" y="64">c'</tspan>
                </text>
                <text id="H" font-family="Merriweather-Regular, Merriweather" font-size="8" font-weight="normal" letter-spacing="0.5963636" fill="#4E586A">
                    <tspan x="22.7796364" y="9">H</tspan>
                </text>
                <path d="M77,24 L48.5,63.5" id="Path-80" stroke="#8A8AC8"></path>
                <circle id="Oval-Copy-134" stroke="#0000A6" fill="#0000A6" cx="77" cy="24" r="3"></circle>
                <circle id="Oval-Copy-135" fill="#9494DB" cx="107" cy="69" r="3"></circle>
                <circle id="Oval-Copy-136" fill="#9494DB" cx="91" cy="114" r="3"></circle>
                <circle id="Oval-Copy-138" fill="#9494DB" cx="29" cy="114" r="3"></circle>
                <circle id="Oval-Copy-137" fill="#9494DB" cx="123" cy="114" r="3"></circle>
                <circle id="Oval-Copy-139" fill="#9494DB" cx="61" cy="114" r="3"></circle>
                <circle id="Oval-Copy-126" stroke="#0000A6" fill="#0000A6" cx="45" cy="69" r="3"></circle>
                <circle id="Oval" stroke="#0000A6" cx="77" cy="77" r="77"></circle>
            </g>
        </g>
    </g>
</svg>