<?xml version="1.0" encoding="UTF-8"?>
<svg width="219px" height="285px" viewBox="0 0 219 285" version="1.1" xmlns="http://www.w3.org/2000/svg" xmlns:xlink="http://www.w3.org/1999/xlink">
    <!-- Generator: Sketch 53.2 (72643) - https://sketchapp.com -->
    <title>Group 53</title>
    <desc>Created with Sketch.</desc>
    <g id="Page-1" stroke="none" stroke-width="1" fill="none" fill-rule="evenodd">
        <g id="Artboard-Copy-9" transform="translate(-259.000000, -5788.000000)">
            <g id="Group-53" transform="translate(190.000000, 5787.000000)">
                <path d="M130.840531,234 L287.142978,234" id="Line-2-Copy-6" stroke="#E2E2E2" stroke-width="0.8" stroke-linecap="square"></path>
                <path d="M130.840531,128 L287.142978,128" id="Line-2-Copy-7" stroke="#E2E2E2" stroke-width="0.8" stroke-linecap="square"></path>
                <path d="M130.840531,42 L287.142978,42" id="Line-2-Copy-8" stroke="#E2E2E2" stroke-width="0.8" stroke-linecap="square"></path>
                <path d="M131,43.2937045 C132.589686,25.7645682 134.286162,17 136.089429,17 C138.794328,17 140.33454,69 143.978652,69 C147.622764,69 147.721714,17 151.961958,17 C156.202203,17 155.063468,69 159.487013,69 C163.910558,69 163.022443,17 167.477619,17 C171.932796,17 170.189818,69 174.494948,69 C178.800078,69 178.981756,17 182.465277,17 C185.948799,17 186.942353,69 190.321247,69 C193.700141,69 194.517439,17 198.362815,17 C202.208191,17 202.477573,69 206.118485,69 C209.759397,69 210.523861,17 213.639356,17 C216.75485,17 218.220073,69 221.339208,69 C224.458343,69 224.841789,17 229.364868,17 C233.887947,17 233.444436,69 236.835381,69 C240.226325,69 241.729771,17 245.17714,17 C248.624509,17 248.208301,69 252.190188,69 C256.172075,69 256.477861,17 260.12848,17 C263.7791,17 263.798515,69 268.044931,69 C272.291347,69 272.341704,17 275.963808,17 C279.585912,17 279.516139,69 282.733562,69 C284.878511,69 286.300657,60.4312348 287,43.2937045" id="Path-81" stroke="#0000A6"></path>
                <path d="M131,128.011092 C132.87402,111.52839 134.762186,102.865421 136.664499,102.022185 C139.517969,100.75733 143.747447,154 148.206019,154 C152.664592,154 152.785657,102.022185 157.973598,102.022185 C163.161538,102.022185 161.768296,154 167.180505,154 C172.592714,154 171.506104,102.022185 176.957014,102.022185 C182.407924,102.022185 180.275391,154 185.542718,154 C190.810046,154 191.032329,102.022185 195.294419,102.022185 C199.556509,102.022185 200.772122,154 204.9062,154 C209.040278,154 210.040243,102.022185 214.745062,102.022185 C219.44988,102.022185 219.77947,154 224.234127,154 C228.688784,154 229.624106,102.022185 233.435915,102.022185 C237.247723,102.022185 239.040424,154 242.856687,154 C246.672949,154 247.142095,102.022185 252.676084,102.022185 C258.210073,102.022185 257.667438,154 261.816259,154 C265.965081,154 267.804547,102.022185 272.022405,102.022185 C276.240262,102.022185 276.996364,154 280.602871,154 C283.007209,154 285.139585,145.434891 287,128.304672" id="Path-81-Copy" stroke="#0000A6"></path>
                <path d="M132,234.597097 C132.828478,200.865699 134.30145,184 136.418915,184 C139.595112,184 140.672861,279.034686 144.423916,279.034686 C148.174971,279.034686 149.589735,201.098213 152.954627,201.098213 C156.319518,201.098213 157.549099,252.553458 161.090397,252.553458 C164.631695,252.553458 165.818271,231.517343 168.150174,231.517343 C170.482077,231.517343 170.683058,238.235822 173.086928,238.235822 C175.490798,238.235822 177.142526,216.552435 180.33891,216.552435 C183.535293,216.552435 184.481395,268.277707 188.051655,268.277707 C191.621916,268.277707 193.547469,190.242401 196.773693,190.242401 C199.999916,190.242401 202.008846,285 204.95159,285 C207.894334,285 209.358508,184 213.972904,184 C218.5873,184 217.995152,279.034686 221.814663,279.034686 C225.634175,279.034686 226.287143,201.098213 230.65606,201.098213 C235.024978,201.098213 234.417647,252.553458 238.448671,252.553458 C242.479696,252.553458 242.442834,231.517343 245.479487,231.517343 C248.516139,231.517343 248.286196,238.235822 250.574217,238.235822 C252.862237,238.235822 254.112882,216.552435 257.321552,216.552435 C260.530223,216.552435 261.903738,268.277707 265.029032,268.277707 C268.154326,268.277707 270.148336,190.242401 274.109148,190.242401 C278.069961,190.242401 279.625148,285 282.301088,285 C284.085048,285 285.651352,268.199032 287,234.597097" id="Path-82" stroke="#0000A6"></path>
                <text id="1" font-family="Merriweather-Regular, Merriweather" font-size="6" font-weight="normal" letter-spacing="0.4472727" fill="#4E586A">
                    <tspan x="134.456364" y="176">1</tspan>
                </text>
                <text id="1-copy" font-family="Merriweather-Regular, Merriweather" font-size="6" font-weight="normal" letter-spacing="0.4472727" fill="#4E586A">
                    <tspan x="134.456364" y="96">1</tspan>
                </text>
                <text id="1-copy-2" font-family="Merriweather-Regular, Merriweather" font-size="6" font-weight="normal" letter-spacing="0.4472727" fill="#4E586A">
                    <tspan x="136.456364" y="6">1</tspan>
                </text>
                <text id="2" font-family="Merriweather-Regular, Merriweather" font-size="6" font-weight="normal" letter-spacing="0.4472727" fill="#4E586A">
                    <tspan x="211.982364" y="176">2</tspan>
                </text>
                <text id="2-copy" font-family="Merriweather-Regular, Merriweather" font-size="6" font-weight="normal" letter-spacing="0.4472727" fill="#4E586A">
                    <tspan x="152.982364" y="96">2</tspan>
                </text>
                <text id="2" font-family="Merriweather-Regular, Merriweather" font-size="6" font-weight="normal" letter-spacing="0.4472727" fill="#4E586A">
                    <tspan x="152.982364" y="6">2</tspan>
                </text>
                <text id="$f_1$-(10Hz)" font-family="Merriweather-Regular, Merriweather" font-size="6" font-weight="normal" letter-spacing="0.4472727" fill="#4E586A">
                    <tspan x="79.3027276" y="46">$f_1$ (10Hz)</tspan>
                </text>
                <text id="$f_2$-(8Hz)" font-family="Merriweather-Regular, Merriweather" font-size="6" font-weight="normal" letter-spacing="0.4472727" fill="#4E586A">
                    <tspan x="82.5020003" y="128">$f_2$ (8Hz)</tspan>
                </text>
                <text id="$f_{diff}$-(2Hz)" font-family="Merriweather-Regular, Merriweather" font-size="6" font-weight="normal" letter-spacing="0.4472727" fill="#4E586A">
                    <tspan x="68.8909095" y="234">$f_{diff}$ (2Hz)</tspan>
                </text>
                <text id="3" font-family="Merriweather-Regular, Merriweather" font-size="6" font-weight="normal" letter-spacing="0.4472727" fill="#4E586A">
                    <tspan x="170.096364" y="96">3</tspan>
                </text>
                <text id="3-copy" font-family="Merriweather-Regular, Merriweather" font-size="6" font-weight="normal" letter-spacing="0.4472727" fill="#4E586A">
                    <tspan x="168.096364" y="6">3</tspan>
                </text>
                <text id="4" font-family="Merriweather-Regular, Merriweather" font-size="6" font-weight="normal" letter-spacing="0.4472727" fill="#4E586A">
                    <tspan x="188.844364" y="96">4</tspan>
                </text>
                <text id="4-copy" font-family="Merriweather-Regular, Merriweather" font-size="6" font-weight="normal" letter-spacing="0.4472727" fill="#4E586A">
                    <tspan x="182.844364" y="6">4</tspan>
                </text>
                <text id="5" font-family="Merriweather-Regular, Merriweather" font-size="6" font-weight="normal" letter-spacing="0.4472727" fill="#4E586A">
                    <tspan x="208.994364" y="96">5</tspan>
                </text>
                <text id="5-copy" font-family="Merriweather-Regular, Merriweather" font-size="6" font-weight="normal" letter-spacing="0.4472727" fill="#4E586A">
                    <tspan x="196.994364" y="6">5</tspan>
                </text>
                <text id="6" font-family="Merriweather-Regular, Merriweather" font-size="6" font-weight="normal" letter-spacing="0.4472727" fill="#4E586A">
                    <tspan x="228.784364" y="96">6</tspan>
                </text>
                <text id="6-copy" font-family="Merriweather-Regular, Merriweather" font-size="6" font-weight="normal" letter-spacing="0.4472727" fill="#4E586A">
                    <tspan x="212.784364" y="6">6</tspan>
                </text>
                <text id="7" font-family="Merriweather-Regular, Merriweather" font-size="6" font-weight="normal" letter-spacing="0.4472727" fill="#4E586A">
                    <tspan x="246.012364" y="96">7</tspan>
                </text>
                <text id="7-copy" font-family="Merriweather-Regular, Merriweather" font-size="6" font-weight="normal" letter-spacing="0.4472727" fill="#4E586A">
                    <tspan x="228.012364" y="6">7</tspan>
                </text>
                <text id="8" font-family="Merriweather-Regular, Merriweather" font-size="6" font-weight="normal" letter-spacing="0.4472727" fill="#4E586A">
                    <tspan x="264.877364" y="96">8</tspan>
                </text>
                <text id="8-copy" font-family="Merriweather-Regular, Merriweather" font-size="6" font-weight="normal" letter-spacing="0.4472727" fill="#4E586A">
                    <tspan x="240.877364" y="6">8</tspan>
                </text>
                <text id="9" font-family="Merriweather-Regular, Merriweather" font-size="6" font-weight="normal" letter-spacing="0.4472727" fill="#4E586A">
                    <tspan x="256.796364" y="6">9</tspan>
                </text>
                <text id="10" font-family="Merriweather-Regular, Merriweather" font-size="6" font-weight="normal" letter-spacing="0.4472727" fill="#4E586A">
                    <tspan x="273.303727" y="6">10</tspan>
                </text>
            </g>
        </g>
    </g>
</svg>