<?xml version="1.0" encoding="UTF-8"?>
<svg width="375px" height="387px" viewBox="0 0 375 387" version="1.1" xmlns="http://www.w3.org/2000/svg" xmlns:xlink="http://www.w3.org/1999/xlink">
    <!-- Generator: Sketch 53.2 (72643) - https://sketchapp.com -->
    <title>Group 25</title>
    <desc>Created with Sketch.</desc>
    <defs>
        <linearGradient x1="50%" y1="0%" x2="50%" y2="100%" id="linearGradient-1">
            <stop stop-color="#CBDEFA" offset="0%"></stop>
            <stop stop-color="#FEFEFE" offset="100%"></stop>
        </linearGradient>
    </defs>
    <g id="Page-1" stroke="none" stroke-width="1" fill="none" fill-rule="evenodd">
        <g id="Artboard" transform="translate(-99.000000, -4282.000000)">
            <g id="Group-25" transform="translate(98.000000, 4283.000000)">
                <g id="Group-24">
                    <path d="M33.6306911,246.094326 C45.7167391,234.231439 52.8473969,226.763278 55.0226646,223.689842 C58.2855661,219.079689 63.6410906,220.314799 67.619875,214.997049 C71.5986595,209.679298 90.306477,171.268749 95.8208003,142.113397 C101.335124,112.958045 105.026827,-3.65162523 110.16311,0.183691181 C115.299392,4.0190076 118.775676,194.944269 123.901399,190.388775 C129.027122,185.83328 130.095082,174.828411 134.047503,180.330846 C137.999924,185.83328 153.807401,212.176147 160.214302,206.011374 C166.621202,199.8466 170.982478,191.68119 174.429052,190.388775 C177.875626,189.096359 182.206067,177.232759 184.817597,180.330846 C187.429127,183.428932 191.915008,211.94797 193.443497,207.35752 C194.971986,202.767071 194.87932,185.243251 198.770292,185.243251 C202.661263,185.243251 203.578955,188.769537 207.131148,183.516477 C210.68334,178.263416 212.167988,182.858848 212.167988,188.533389 C212.167988,194.20793 214.192688,224.590317 217.67015,219.793683 C221.147612,214.997049 230.542739,67.157 235.561644,69.9359806 C240.580549,72.7149613 237.508624,91.1674326 239.976726,97.8981656 C242.444827,104.628899 242.423903,146.426202 245.374266,153.108111 C248.324628,159.79002 248.02172,183.739822 250.561563,190.388775 C253.101406,197.037727 251.38061,239.626179 256.91964,244.268441 C262.458669,248.910704 261.29088,300.024419 264.101745,293.370409 C266.912611,286.716399 265.691015,272.722852 268.712123,274.861142 C271.733231,276.999433 270.896249,302.079011 274.378693,293.370409 C277.861137,284.661807 280.110029,213.84513 283.509772,207.35752 C286.909514,200.869911 286.825816,193.550301 289.382598,188.533389 C291.939379,183.516477 293.393048,171.513578 297.446524,159.579778 C301.5,147.645979 301.296643,69.9758369 308.39505,71.575071 C315.493457,73.1743051 319.703279,253.221163 323.703856,253.221163 C327.704432,253.221163 331.864562,225.979094 336.378671,227.932051 C340.89278,229.885008 338.56733,235.890141 342.59846,235.890141 C346.629591,235.890141 344.838918,242.54284 346.878791,239.21649 C348.918663,235.890141 348.041197,229.44501 349.368719,230.277187 C350.69624,231.109365 352.270961,232.091561 353.134746,227.064058 C353.998531,222.036555 355.429572,85.9802088 358.714786,85.9802088 C362,85.9802088 362.909766,234.16454 367.413343,239.21649 C370.415728,242.584458 370.415728,277.750193 367.413343,344.713695 L33.5,344.713695 L33.6306911,246.094326 Z" id="Path-127" fill="url(#linearGradient-1)"></path>
                    <path d="M33.6306911,154.5 L375.158473,154.5" id="Path-128" stroke="#E2E2E2"></path>
                    <path d="M33.5,344.713695 L33.5,0.0912386524" id="Path-128" stroke="#E2E2E2"></path>
                    <text id="Frequency" font-family="Merriweather-Regular, Merriweather" font-size="9" font-weight="normal" letter-spacing="0.670909" fill="#4E586A">
                        <tspan x="170.283409" y="382.214772">Frequency</tspan>
                    </text>
                    <text id="Power-(dB)" transform="translate(5.500000, 156.714772) rotate(-90.000000) translate(-5.500000, -156.714772) " font-family="Merriweather-Regular, Merriweather" font-size="9" font-weight="normal" letter-spacing="0.670909" fill="#4E586A">
                        <tspan x="-22.609045" y="160.214772">Power (dB)</tspan>
                    </text>
                    <path d="M109.694047,0.0912386524 L109.694047,343.590161" id="Path-129" stroke="#00CC96" stroke-width="2" stroke-linecap="round" stroke-linejoin="round" stroke-dasharray="7"></path>
                    <path d="M235.5,70.9924565 L235.5,344.713695" id="Path-129-Copy-5" stroke="#00CC96" stroke-width="2" stroke-linecap="round" stroke-linejoin="round" stroke-dasharray="7"></path>
                    <path d="M132.5,179.333063 L132.5,343.713695" id="Path-129-Copy" stroke="#646FFB" stroke-width="2" stroke-linecap="round" stroke-linejoin="round" stroke-dasharray="7"></path>
                    <path d="M268.5,275.401055 L268.5,343.713695" id="Path-129-Copy-6" stroke="#646FFB" stroke-width="2" stroke-linecap="round" stroke-linejoin="round" stroke-dasharray="7"></path>
                    <path d="M336.5,228.528396 L336.5,343.713695" id="Path-129-Copy-9" stroke="#646FFB" stroke-width="2" stroke-linecap="round" stroke-linejoin="round" stroke-dasharray="7"></path>
                    <path d="M307.5,73.2557266 L307.5,343.713695" id="Path-129-Copy-7" stroke="#00CC96" stroke-width="2" stroke-linecap="round" stroke-linejoin="round" stroke-dasharray="7"></path>
                    <path d="M359.5,86.7203121 L359.5,343.713695" id="Path-129-Copy-8" stroke="#00CC96" stroke-width="2" stroke-linecap="round" stroke-linejoin="round" stroke-dasharray="7"></path>
                    <path d="M184.5,181.730145 L184.5,343.713695" id="Path-129-Copy-2" stroke="#646FFB" stroke-width="2" stroke-linecap="round" stroke-linejoin="round" stroke-dasharray="7"></path>
                    <path d="M200.5,185.664178 L200.5,343.713695" id="Path-129-Copy-3" stroke="#646FFB" stroke-width="2" stroke-linecap="round" stroke-linejoin="round" stroke-dasharray="7"></path>
                    <path d="M210.5,181.730145 L210.5,343.713695" id="Path-129-Copy-4" stroke="#646FFB" stroke-width="2" stroke-linecap="round" stroke-linejoin="round" stroke-dasharray="7"></path>
                </g>
                <path d="M34,246.003087 C46.0860479,234.1402 53.2167058,226.672039 55.3919734,223.598603 C58.654875,218.98845 64.0103995,220.223561 67.9891839,214.90581 C71.9679683,209.588059 90.6757858,171.17751 96.1901092,142.022158 C101.704432,112.866806 105.396136,-3.74286389 110.532418,0.0924525282 C115.668701,3.92776894 119.144985,194.85303 124.270708,190.297536 C129.396431,185.742042 130.464391,174.737172 134.416812,180.239607 C138.369233,185.742042 154.17671,212.084909 160.583611,205.920135 C166.990511,199.755362 171.351787,191.589952 174.798361,190.297536 C178.244934,189.005121 182.575375,177.14152 185.186906,180.239607 C187.798436,183.337694 192.284317,211.856731 193.812806,207.266282 C195.341295,202.675832 195.248629,185.152013 199.139601,185.152013 C203.030572,185.152013 203.948263,188.678299 207.500456,183.425238 C211.052649,178.172178 212.537297,182.767609 212.537297,188.44215 C212.537297,194.116691 214.561997,224.499078 218.039459,219.702444 C221.516921,214.90581 230.912048,67.0657613 235.930953,69.8447419 C240.949858,72.6237226 237.877933,91.076194 240.346035,97.8069269 C242.814136,104.53766 242.793212,146.334964 245.743574,153.016873 C248.693937,159.698782 248.391029,183.648583 250.930872,190.297536 C253.470715,196.946489 251.749919,239.53494 257.288949,244.177203 C262.827978,248.819466 261.660189,299.93318 264.471054,293.27917 C267.28192,286.625161 266.060324,272.631613 269.081432,274.769904 C272.10254,276.908194 271.265557,301.987772 274.748002,293.27917 C278.230446,284.570568 280.479338,213.753891 283.879081,207.266282 C287.278823,200.778672 287.195125,193.459062 289.751907,188.44215 C292.308688,183.425238 293.762357,171.42234 297.815833,159.48854 C301.869309,147.55474 301.665952,69.8845983 308.764359,71.4838324 C315.862766,73.0830665 320.072588,253.129925 324.073165,253.129925 C328.073741,253.129925 332.233871,225.887856 336.74798,227.840813 C341.262089,229.79377 338.936639,235.798902 342.967769,235.798902 C346.9989,235.798902 345.208227,242.451602 347.2481,239.125252 C349.287972,235.798902 348.410506,229.353771 349.738027,230.185949 C351.065549,231.018126 352.64027,232.000322 353.504055,226.972819 C354.36784,221.945316 355.798881,85.8889701 359.084095,85.8889701 C362.369309,85.8889701 363.279075,234.073301 367.782652,239.125252" id="Path-127" stroke="#0000A6" stroke-width="1.5"></path>
            </g>
        </g>
    </g>
</svg>