<?xml version="1.0" encoding="UTF-8"?>
<svg width="300px" height="153px" viewBox="0 0 300 153" version="1.1" xmlns="http://www.w3.org/2000/svg" xmlns:xlink="http://www.w3.org/1999/xlink">
    <!-- Generator: Sketch 53.2 (72643) - https://sketchapp.com -->
    <title>Group 22</title>
    <desc>Created with Sketch.</desc>
    <g id="Page-1" stroke="none" stroke-width="1" fill="none" fill-rule="evenodd">
        <g id="Artboard" transform="translate(-136.000000, -3514.000000)">
            <g id="Group-22" transform="translate(136.000000, 3511.000000)">
                <path d="M4.13077956,18.8265534 C104.868211,-1.05729496 201.984861,-1.05729496 295.480729,18.8265534 C201.747433,38.2062521 104.630783,38.2062521 4.13077956,18.8265534 Z" id="Path-115" stroke="#0102CC"></path>
                <circle id="Oval" stroke="#0102CC" fill="#0102CC" cx="3.5" cy="18.5" r="1.5"></circle>
                <circle id="Oval" stroke="#0102CC" fill="#0102CC" cx="296.5" cy="18.5" r="1.5"></circle>
                <circle id="Oval" stroke="#0102CC" fill="#0102CC" cx="4.5" cy="60.5" r="1.5"></circle>
                <circle id="Oval" stroke="#0102CC" fill="#0102CC" cx="4.5" cy="101.5" r="1.5"></circle>
                <circle id="Oval" stroke="#0102CC" fill="#0102CC" cx="4.5" cy="143.5" r="1.5"></circle>
                <circle id="Oval" stroke="#0102CC" fill="#0102CC" cx="295.5" cy="60.5" r="1.5"></circle>
                <circle id="Oval" stroke="#0102CC" fill="#0102CC" cx="295.5" cy="101.5" r="1.5"></circle>
                <circle id="Oval" stroke="#0102CC" fill="#0102CC" cx="295.5" cy="143.5" r="1.5"></circle>
                <path d="M4.13077956,60.5730968 C52.4069973,43.4882632 100.965322,43.4882632 149.805754,60.5730968 C198.646187,77.6579303 247.204512,77.6579303 295.480729,60.5730968 C249.052644,43.5644365 200.494319,43.5644365 149.805754,60.5730968 C99.1171903,77.581757 50.5588654,77.581757 4.13077956,60.5730968 Z" id="Path-120" stroke="#0102CC"></path>
                <path d="M4.13077956,101.912237 C35.0527516,87.4396156 67.0624071,87.4396156 100.159746,101.912237 C133.257085,116.384858 166.345791,116.384858 199.425863,101.912237 C233.932092,86.4929273 265.950381,86.4929273 295.480729,101.912237 C267.869812,117.40245 235.851523,117.475535 199.425863,102.13149 C165.459889,86.3532432 132.371184,86.3532432 100.159746,102.13149 C67.9483083,117.909737 35.9386528,117.836652 4.13077956,101.912237 Z" id="Path-121" stroke="#0102CC"></path>
                <path d="M4.13077956,143.909639 C24.5472943,129.802607 48.5596101,129.802607 76.1677269,143.909639 C103.775844,158.01667 128.321853,158.01667 149.805754,143.909639 C174.599701,130.590874 199.25302,130.590874 223.765714,143.909639 C248.278408,157.228403 272.183413,157.228403 295.480729,143.909639 C272.930122,129.902481 249.025117,129.902481 223.765714,143.909639 C185.87661,164.920375 162.854988,149.263621 149.805754,143.909639 C136.756521,138.555656 110.194925,123.758555 76.1677269,143.909639 C53.482928,157.343694 29.4706122,157.343694 4.13077956,143.909639 Z" id="Path-122" stroke="#0102CC"></path>
                <text id="0" font-family="Merriweather-Regular, Merriweather" font-size="12" font-weight="normal" letter-spacing="0.894545317" fill="#4E586A">
                    <tspan x="0.194727342" y="12">0</tspan>
                </text>
                <text id="1" font-family="Merriweather-Regular, Merriweather" font-size="12" font-weight="normal" letter-spacing="0.894545317" fill="#4E586A">
                    <tspan x="294.412727" y="12">1</tspan>
                </text>
                <text id="1/2" font-family="Merriweather-Regular, Merriweather" font-size="9" font-weight="normal" letter-spacing="0.670908988" fill="#4E586A">
                    <tspan x="142.383137" y="54">1/2</tspan>
                </text>
                <text id="1/3" font-family="Merriweather-Regular, Merriweather" font-size="9" font-weight="normal" letter-spacing="0.670908988" fill="#4E586A">
                    <tspan x="94.5541365" y="94">1/3</tspan>
                </text>
                <text id="1/4" font-family="Merriweather-Regular, Merriweather" font-size="9" font-weight="normal" letter-spacing="0.670908988" fill="#4E586A">
                    <tspan x="68.1761365" y="135">1/4</tspan>
                </text>
            </g>
        </g>
    </g>
</svg>