<?xml version="1.0" encoding="UTF-8"?>
<svg width="214px" height="190px" viewBox="0 0 214 190" version="1.1" xmlns="http://www.w3.org/2000/svg" xmlns:xlink="http://www.w3.org/1999/xlink">
    <!-- Generator: Sketch 53.2 (72643) - https://sketchapp.com -->
    <title>Group 54</title>
    <desc>Created with Sketch.</desc>
    <g id="Page-1" stroke="none" stroke-width="1" fill="none" fill-rule="evenodd">
        <g id="Artboard-Copy-9" transform="translate(-286.000000, -7211.000000)" fill="#F0F7FF" stroke="#0000A6">
            <g id="Group-54" transform="translate(287.000000, 7212.000000)">
                <path d="M84.6785233,65 C74.6612296,58.7820259 68,47.7479328 68,35.1723842 C68,15.7472128 83.8938914,0 103.5,0 C123.106109,0 139,15.7472128 139,35.1723842 C139,47.7479328 132.33877,58.7820259 122.321477,65 L103.5,34.9229346 L84.6785233,65 Z" id="Combined-Shape"></path>
                <path d="M52.2891319,120.626164 L33.2628209,151.751773 L70,151.751773 C69.8665318,171.241996 54.2478243,187 35.0004309,187 C15.6702267,187 0,171.106109 0,151.5 C0,131.893891 15.6702267,116 35.0004309,116 C41.2884166,116 47.1891191,117.681824 52.2891319,120.626164 Z" id="Combined-Shape"></path>
                <path d="M141.000874,152.248227 L176.751773,152.248227 L158.086421,122.14282 C163.455117,118.879379 169.758082,117 176.5,117 C196.106109,117 212,132.893891 212,152.5 C212,172.106109 196.106109,188 176.5,188 C156.893891,188 141,172.106109 141,152.5 C141,152.416007 141.000292,152.332083 141.000874,152.248227 Z" id="Combined-Shape"></path>
            </g>
        </g>
    </g>
</svg>