<?xml version="1.0" encoding="UTF-8"?>
<svg width="327px" height="213px" viewBox="0 0 327 213" version="1.1" xmlns="http://www.w3.org/2000/svg" xmlns:xlink="http://www.w3.org/1999/xlink">
    <!-- Generator: Sketch 53.2 (72643) - https://sketchapp.com -->
    <title>Group 39</title>
    <desc>Created with Sketch.</desc>
    <g id="Page-1" stroke="none" stroke-width="1" fill="none" fill-rule="evenodd">
        <g id="Artboard-Copy-9" transform="translate(-73.000000, -6216.000000)">
            <g id="Group-39" transform="translate(73.000000, 6216.000000)">
                <g id="Group-41-Copy">
                    <text id="DRS" font-family="Merriweather-Regular, Merriweather" font-size="8" font-weight="normal" letter-spacing="0.5963636" fill="#4E586A">
                        <tspan x="60.7629092" y="60">DRS</tspan>
                    </text>
                    <path d="M87,157 L327,157" id="Path-77" stroke="#E2E2E2" opacity="0.353004092"></path>
                    <path d="M87,190.5 L327,190.5" id="Path-77-Copy-3" stroke="#E2E2E2" opacity="0.353004092"></path>
                    <path d="M86,120.5 L326,120.5" id="Path-77-Copy" stroke="#E2E2E2" opacity="0.353004092"></path>
                    <path d="M87,57 L326,57" id="Path-77-Copy-2" stroke="#E2E2E2" opacity="0.353004092"></path>
                    <path d="M44.5,57 L0,57" id="Path-77-Copy-2" stroke="#E2E2E2" opacity="0.353004092"></path>
                    <path d="M44.5,121 L0,121" id="Path-77-Copy-4" stroke="#E2E2E2" opacity="0.353004092"></path>
                    <path d="M44.5,156 L0,156" id="Path-77-Copy-5" stroke="#E2E2E2" opacity="0.353004092"></path>
                    <path d="M29.5,191 L0,191" id="Path-77-Copy-6" stroke="#E2E2E2" opacity="0.353004092"></path>
                    <text id="Constituents" font-family="Merriweather-Black, Merriweather" font-size="8" font-weight="700" letter-spacing="0.5963636" fill="#4E586A">
                        <tspan x="19.6836368" y="23">Constituents</tspan>
                    </text>
                    <text id="Slice" font-family="Merriweather-Regular, Merriweather" font-size="8" font-weight="normal" letter-spacing="0.5963636" fill="#4E586A">
                        <tspan x="57.482182" y="122">Slice</tspan>
                    </text>
                    <text id="Pair" font-family="Merriweather-Regular, Merriweather" font-size="8" font-weight="normal" letter-spacing="0.5963636" fill="#4E586A">
                        <tspan x="59.6065456" y="159">Pair</tspan>
                    </text>
                    <text id="Resonance" font-family="Merriweather-Regular, Merriweather" font-size="8" font-weight="normal" letter-spacing="0.5963636" fill="#4E586A">
                        <tspan x="36.1767276" y="192">Resonance</tspan>
                    </text>
                    <polyline id="Path-73-Copy-16" stroke="#000000" stroke-width="0.5" opacity="0.366768973" points="279.5 187.565388 286 156.565388 292.5 187.565388"></polyline>
                    <polyline id="Path-73-Copy-18" stroke="#6CA3D8" stroke-width="0.5" opacity="0.366768973" points="253.5 187.565388 260 156.565388 266.5 187.565388"></polyline>
                    <polyline id="Path-73-Copy-20" stroke="#6CA3D8" stroke-width="0.5" opacity="0.366768973" points="227.5 187.512329 234 156.512329 240.5 187.450288"></polyline>
                    <polyline id="Path-73-Copy-23" stroke="#6CA3D8" stroke-width="0.5" opacity="0.366768973" points="149.5 187.512329 155.5 156.512329 162.5 187.512329"></polyline>
                    <polyline id="Path-73-Copy-24" stroke="#6CA3D8" stroke-width="0.5" opacity="0.366768973" points="123.5 187.512329 130 156.512329 136.5 186.974243"></polyline>
                    <polyline id="Path-73-Copy-25" stroke="#6CA3D8" stroke-width="0.5" opacity="0.366768973" points="97.5 187.451532 104 156.512329 110.5 187.512329"></polyline>
                    <polyline id="Path-73-Copy-21" stroke="#6CA3D8" stroke-width="0.5" opacity="0.366768973" points="201.5 187.512329 208 156.512329 214.5 187.512329"></polyline>
                    <polyline id="Path-73-Copy-22" stroke="#6CA3D8" stroke-width="0.5" opacity="0.366768973" points="175.5 187.450288 182 156.512329 188.5 187.512329"></polyline>
                    <polyline id="Path-73-Copy-19" stroke="#8A8AC8" points="118 113.9915 195 57.9915003 273 113.9915"></polyline>
                    <polyline id="Path-73-Copy-19" stroke="#8A8AC8" points="169 113.9915 194.5 58.9915003 221 113.9915"></polyline>
                    <polyline id="Path-73-Copy-11" stroke="#A1A1DE" stroke-width="0.75" points="156 153.460076 169 120.460076 182 153.460076"></polyline>
                    <polyline id="Path-73-Copy-12" stroke="#A1A1DE" stroke-width="0.75" points="208 153.460076 221 120.460076 234 153.460076"></polyline>
                    <polyline id="Path-73-Copy-13" stroke="#A1A1DE" stroke-width="0.75" points="260 153 273 120 286 153"></polyline>
                    <polyline id="Path-73-Copy-14" stroke="#A1A1DE" stroke-width="0.75" points="104 153 117 120 130 153"></polyline>
                    <rect id="Rectangle" stroke="#E2E2E2" x="0.5" y="0.5" width="326" height="212"></rect>
                </g>
                <circle id="Oval-Copy-57" stroke="#6CA3D8" fill="#F2F2F2" cx="97.5" cy="190.5" r="3.5"></circle>
                <circle id="Oval-Copy-78" stroke="#6CA3D8" fill="#F2F2F2" cx="149.5" cy="190.5" r="3.5"></circle>
                <circle id="Oval-Copy-79" stroke="#6CA3D8" fill="#F2F2F2" cx="188.5" cy="190.5" r="3.5"></circle>
                <circle id="Oval-Copy-80" stroke="#6CA3D8" fill="#F2F2F2" cx="253.5" cy="190.5" r="3.5"></circle>
                <circle id="Oval-Copy-81" stroke="#6CA3D8" fill="#F2F2F2" cx="123.5" cy="190.5" r="3.5"></circle>
                <circle id="Oval-Copy-82" stroke="#6CA3D8" fill="#F2F2F2" cx="175.5" cy="190.5" r="3.5"></circle>
                <circle id="Oval-Copy-83" stroke="#6CA3D8" fill="#F2F2F2" cx="227.5" cy="190.5" r="3.5"></circle>
                <circle id="Oval-Copy-84" stroke="#6CA3D8" fill="#F2F2F2" cx="279.5" cy="190.5" r="3.5"></circle>
                <circle id="Oval-Copy-58" stroke="#6CA3D8" fill="#F2F2F2" cx="110.5" cy="190.5" r="3.5"></circle>
                <circle id="Oval-Copy-86" stroke="#6CA3D8" fill="#F2F2F2" cx="162.5" cy="190.5" r="3.5"></circle>
                <circle id="Oval-Copy-89" stroke="#6CA3D8" fill="#F2F2F2" cx="214.5" cy="190.5" r="3.5"></circle>
                <circle id="Oval-Copy-90" stroke="#6CA3D8" fill="#F2F2F2" cx="266.5" cy="190.5" r="3.5"></circle>
                <circle id="Oval-Copy-103" stroke="#6CA3D8" fill="#F2F2F2" cx="136.5" cy="190.5" r="3.5"></circle>
                <circle id="Oval-Copy-104" stroke="#6CA3D8" fill="#F2F2F2" cx="201.5" cy="190.5" r="3.5"></circle>
                <circle id="Oval-Copy-105" stroke="#6CA3D8" fill="#F2F2F2" cx="240.5" cy="190.5" r="3.5"></circle>
                <circle id="Oval-Copy-106" stroke="#6CA3D8" fill="#F2F2F2" cx="292.5" cy="190.5" r="3.5"></circle>
                <circle id="Oval-Copy-107" stroke="#0000A6" fill="#F0F7FF" cx="234" cy="157" r="5"></circle>
                <circle id="Oval-Copy-108" stroke="#0000A6" fill="#F0F7FF" cx="260" cy="157" r="5"></circle>
                <circle id="Oval-Copy-109" stroke="#0000A6" fill="#F0F7FF" cx="286" cy="157" r="5"></circle>
                <circle id="Oval-Copy-110" stroke="#0000A6" fill="#F0F7FF" cx="208" cy="157" r="5"></circle>
                <circle id="Oval-Copy-111" stroke="#0000A6" fill="#F0F7FF" cx="182" cy="157" r="5"></circle>
                <circle id="Oval-Copy-112" stroke="#0000A6" fill="#F0F7FF" cx="156" cy="157" r="5"></circle>
                <circle id="Oval-Copy-113" stroke="#0000A6" fill="#F0F7FF" cx="130" cy="157" r="5"></circle>
                <circle id="Oval-Copy-114" stroke="#0000A6" fill="#F0F7FF" cx="104" cy="157" r="5"></circle>
                <circle id="Oval-Copy-115" stroke="#0000A6" fill="#F0F7FF" cx="195" cy="57" r="12"></circle>
                <circle id="Oval-Copy-116" stroke="#0000A6" fill="#F0F7FF" cx="273" cy="120" r="7"></circle>
                <circle id="Oval-Copy-117" stroke="#0000A6" fill="#F0F7FF" cx="221" cy="120" r="7"></circle>
                <circle id="Oval-Copy-118" stroke="#0000A6" fill="#F0F7FF" cx="169" cy="120" r="7"></circle>
                <circle id="Oval-Copy-119" stroke="#0000A6" fill="#F0F7FF" cx="118" cy="120" r="7"></circle>
            </g>
        </g>
    </g>
</svg>