<?xml version="1.0" encoding="UTF-8"?>
<svg width="257px" height="169px" viewBox="0 0 257 169" version="1.1" xmlns="http://www.w3.org/2000/svg" xmlns:xlink="http://www.w3.org/1999/xlink">
    <!-- Generator: Sketch 53.2 (72643) - https://sketchapp.com -->
    <title>Group 38</title>
    <desc>Created with Sketch.</desc>
    <defs>
        <linearGradient x1="50%" y1="0%" x2="50%" y2="100%" id="linearGradient-1">
            <stop stop-color="#FFFFFF" offset="0%"></stop>
            <stop stop-color="#E2F0FF" offset="100%"></stop>
        </linearGradient>
    </defs>
    <g id="Page-1" stroke="none" stroke-width="1" fill="none" fill-rule="evenodd">
        <g id="Artboard-Copy-9" transform="translate(-52.000000, -6018.000000)">
            <g id="Group-38" transform="translate(51.000000, 6019.000000)">
                <rect id="Rectangle" fill="url(#linearGradient-1)" x="137" y="0" width="40" height="130"></rect>
                <path d="M57.5,129.5 L57.5,0" id="Line-2" stroke="#E2E2E2" stroke-linecap="square"></path>
                <path d="M97.5,129.5 L97.5,3" id="Line-2-Copy" stroke="#E2E2E2" stroke-linecap="square"></path>
                <path d="M137.5,129.5 L137.5,3" id="Line-2-Copy-2" stroke="#E2E2E2" stroke-linecap="square"></path>
                <path d="M177.5,129.5 L177.5,3" id="Line-2-Copy-3" stroke="#E2E2E2" stroke-linecap="square"></path>
                <path d="M217.5,129.5 L217.5,3" id="Line-2-Copy-4" stroke="#E2E2E2" stroke-linecap="square"></path>
                <path d="M257.5,129.5 L257.5,3" id="Line-2-Copy-5" stroke="#E2E2E2" stroke-linecap="square"></path>
                <path d="M25.0229122,47.8579216 C24.87694,56.0448559 25.4284534,60.138323 26.6774522,60.138323 C28.5509503,60.138323 31.1895242,27.4249489 34.8317273,27.4249489 C38.4739305,27.4249489 36.535682,68.148614 38.8931033,68.148614 C41.2505246,68.148614 40.8066444,51.9286693 42.62732,51.9286693 C44.4479956,51.9286693 43.5099685,76.421314 46.1766576,76.421314 C48.8433467,76.421314 51.5049239,24 56.0016604,24 C60.4983968,24 58.1060444,90.4959797 61.9407944,90.4959797 C65.7755445,90.4959797 64.327183,75.3043717 67.3653342,75.3043717 C70.4034854,75.3043717 68.2045319,85.7325744 70.6164797,85.7325744 C73.0284276,85.7325744 75.3635485,70.7251065 78.8932907,70.7251065 C82.4230328,70.7251065 81.1150933,41.0124862 83.683805,41.0124862 C86.2525167,41.0124862 86.7405966,51.9286693 91.4358437,51.9286693 C96.1310909,51.9286693 92.5847155,68.148614 95.4822905,68.148614 C98.3798654,68.148614 97.943653,51.9286693 100.084672,51.9286693 C102.225691,51.9286693 99.7285456,76.421314 102.768401,76.421314 C105.808256,76.421314 107.115734,43.5558657 111.068908,43.5558657 C115.022083,43.5558657 115.049482,58.7625803 118.367933,58.7625803 C121.686385,58.7625803 121.801799,101 124.139625,101 C126.477451,101 124.715337,85.7325744 127.549866,85.7325744 C130.384394,85.7325744 130.83509,46.2050855 134.791673,46.2050855 C138.748256,46.2050855 138.037178,81.6344816 141.182679,81.6344816 C144.328179,81.6344816 143.27396,27.4249489 148.043329,27.4249489 C152.812698,27.4249489 148.508508,68.148614 151.561995,68.148614 C154.615482,68.148614 154.502742,58.7625803 156.203048,58.7625803 C157.903353,58.7625803 155.962458,76.421314 158.933303,76.421314 C161.904148,76.421314 163.013875,46.2050855 167.40667,46.2050855 C171.799465,46.2050855 171.111142,90.4959797 174.895,90.4959797 C178.678857,90.4959797 176.636809,75.3043717 179.440272,75.3043717 C182.243735,75.3043717 181.445865,60.138323 184.310009,60.138323 C187.174154,60.138323 187.771331,74.5951903 191.063936,73.8972611 C194.356541,73.1993319 193.661793,60.138323 196.828815,60.138323 C199.995836,60.138323 199.293969,41.0124862 203.266729,41.0124862 C207.239489,41.0124862 206.089266,68.148614 208.404115,68.148614 C210.718964,68.148614 210.703921,90.4959797 212.864693,90.4959797 C215.025465,90.4959797 213.103465,76.421314 215.571335,76.421314 C218.039206,76.421314 216.546744,70.7251065 220.57016,70.7251065 C224.593576,70.7251065 228.274775,90.4959797 231.715653,90.4959797 C235.156531,90.4959797 236.346552,112.817543 238.678814,112.817543 C241.011076,112.817543 244.346447,51.9286693 246.446538,51.9286693 C248.546629,51.9286693 254.128246,87.7143907 257.5,87.7143907" id="Path-41-Copy" stroke="#0000A6"></path>
                <polyline id="Path-76" stroke="#E2E2E2" points="25 3 25 129.5 257.5 129.5"></polyline>
                <text id="$t_0$" font-family="Merriweather-Regular, Merriweather" font-size="7" font-weight="normal" letter-spacing="0.521818161" fill="#4E586A">
                    <tspan x="53.4849546" y="145">$t_0$</tspan>
                </text>
                <text id="$t_1$" font-family="Merriweather-Regular, Merriweather" font-size="7" font-weight="normal" letter-spacing="0.521818161" fill="#4E586A">
                    <tspan x="93.6954546" y="145">$t_1$</tspan>
                </text>
                <text id="Amplitude" transform="translate(4.500000, 64.500000) rotate(-90.000000) translate(-4.500000, -64.500000) " font-family="Merriweather-Regular, Merriweather" font-size="7" font-weight="normal" letter-spacing="0.521818161" fill="#4E586A">
                    <tspan x="-15.9956817" y="67">Amplitude</tspan>
                </text>
                <text id="Time" font-family="Merriweather-Regular, Merriweather" font-size="7" font-weight="normal" letter-spacing="0.521818161" fill="#4E586A">
                    <tspan x="127.482364" y="167">Time</tspan>
                </text>
                <text id="$t_2$" font-family="Merriweather-Regular, Merriweather" font-size="7" font-weight="normal" letter-spacing="0.521818161" fill="#4E586A">
                    <tspan x="133.142455" y="145">$t_2$</tspan>
                </text>
                <text id="$t_3$" font-family="Merriweather-Regular, Merriweather" font-size="7" font-weight="normal" letter-spacing="0.521818161" fill="#4E586A">
                    <tspan x="173.775455" y="145">$t_3$</tspan>
                </text>
                <text id="$t_4$" font-family="Merriweather-Regular, Merriweather" font-size="7" font-weight="normal" letter-spacing="0.521818161" fill="#4E586A">
                    <tspan x="212.981455" y="145">$t_4$</tspan>
                </text>
            </g>
        </g>
    </g>
</svg>