<?xml version="1.0" encoding="UTF-8"?>
<svg width="295px" height="207px" viewBox="0 0 295 207" version="1.1" xmlns="http://www.w3.org/2000/svg" xmlns:xlink="http://www.w3.org/1999/xlink">
    <!-- Generator: Sketch 53.2 (72643) - https://sketchapp.com -->
    <title>Group 70</title>
    <desc>Created with Sketch.</desc>
    <g id="Page-1" stroke="none" stroke-width="1" fill="none" fill-rule="evenodd">
        <g id="Artboard-Copy-9" transform="translate(-95.000000, -3465.000000)">
            <g id="Group-70" transform="translate(95.544667, 3465.560481)">
                <g id="Group-69">
                    <path d="M4.04856502,76.3129616 C10.0416281,66.5662172 13.4713681,61.6928449 14.337785,61.6928449 C15.6374103,61.6928449 23.9233011,52.1153457 25.2674647,50.6954672 C26.6116282,49.2755887 28.5677469,52.224019 34.1840167,46.7493807 C39.8002864,41.2747425 48.8005703,33.2765686 50.4288877,33.2765686 C52.0572051,33.2765686 53.4824282,34.5610509 58.2293119,32.0767089 C61.393901,30.4204809 74.8699792,22.5253388 98.6575466,8.39128256 C101.304305,28.1003365 104.110806,39.4206163 107.077052,42.3521221 C111.52642,46.7493807 109.379678,49.2657903 112.321873,50.6954672 C115.264068,52.1251441 121.428457,67.8204135 123.941895,67.8204135 C126.455333,67.8204135 128.362759,67.190643 132.848649,72.4221026 C137.334538,77.6535621 146.137073,88.1049012 147.644246,88.1049012 C149.151419,88.1049012 150.784191,82.4289502 155.487427,85.2669257 C160.190663,88.1049012 166.741345,92.2683342 170.039845,92.2683342 C173.338346,92.2683342 176.014203,98.0983874 179.131878,99.5173752 C182.249554,100.936363 194.963434,110.121035 196.564138,110.121035 C198.164842,110.121035 196.820678,101.38201 199.847496,98.304154 C202.874313,95.2262983 203.943906,96.0910588 205.437962,94.9628075 C206.932018,93.8345562 207.817427,91.3429209 209.299919,91.3429209 C210.782411,91.3429209 212.812262,92.1078075 215.536717,90.1063544 C218.261172,88.1049012 220.614899,86.7675999 222.955509,87.4362506 C225.29612,88.1049012 228.722505,88.7735519 231.253792,88.1049012 C233.785079,87.4362506 244.070024,82.9017035 245.348019,84.5201369 C246.626014,86.1385703 250.38975,88.1049012 252.543544,88.1049012 C253.979407,88.1049012 267.67756,88.1049012 293.638003,88.1049012" id="Path-171" stroke="#0000A6"></path>
                    <path d="M4.04856502,85.1122739 C16.7392775,80.222231 24.4906671,77.7772096 27.3027338,77.7772096 C31.5208338,77.7772096 43.0165231,74.0210119 51.150305,74.0210119 C59.2840869,74.0210119 94.7944366,66.6600139 98.1132641,66.6600139 C101.432091,66.6600139 100.872142,103.31277 105.587669,110.121035 C110.303196,116.9293 108.235042,124.757339 111.438134,127.216699 C114.641226,129.676059 122.576493,147.980491 122.576493,150.925063 C122.576493,153.869636 124.799521,149.604343 128.832363,156.11748 C131.520925,160.459572 137.925675,172.026109 148.046613,190.817093 C149.604088,150.865599 151.329622,127.027081 153.223214,119.30154 C156.063601,107.713228 158.988912,97.9037714 158.988912,93.8600134 C158.988912,89.8162553 160.311535,87.4112427 162.715565,82.5942262 C165.119596,77.7772096 170.145384,47.951253 171.83751,49.8132247 C173.529637,51.6751965 174.943507,57.0352538 177.973615,49.8132247 C181.003723,42.5911957 185.711503,38.7705851 185.711503,34.391654 C185.711503,31.4723666 189.445385,22.8055761 196.913147,8.39128256 C198.123142,31.4616517 199.169918,45.2689658 200.053474,49.8132247 C201.378807,56.6296132 207.571828,69.2091082 207.571828,74.0210119 C207.571828,78.8329156 211.711444,73.8670852 212.636407,75.8221474 C213.561371,77.7772096 219.420413,94.3210136 220.553836,92.8226857 C221.687259,91.3243578 224.357315,86.1967377 226.324173,87.7184518 C228.291031,89.2401659 230.346382,91.0640262 232.314235,91.0640262 C234.282089,91.0640262 242.110929,101.607057 244.432138,102.67662 C246.753347,103.746184 245.747279,93.0898686 250.681632,91.0640262 C255.615985,89.0381839 257.289551,86.3987197 259.59445,87.7184518 C261.899349,89.0381839 267.734227,84.2140475 270.759852,86.6261157 C272.776935,88.2341612 280.402985,88.7270897 293.638003,88.1049012" id="Path-172" stroke="#AB63FA"></path>
                    <polyline id="Path-173" stroke="#C9C9C9" points="0 9.09494702e-13 0 205.318692 293.638003 205.318692"></polyline>
                    <text id="scaling-function" font-family="Merriweather-Regular, Merriweather" font-size="9" font-weight="normal" letter-spacing="0.670909226" fill="#4E586A">
                        <tspan x="164.954785" y="181.439519">scaling function</tspan>
                    </text>
                    <text id="wavelet-function" font-family="Merriweather-Regular, Merriweather" font-size="9" font-weight="normal" letter-spacing="0.670909226" fill="#4E586A">
                        <tspan x="162.434785" y="194.439519">wavelet function</tspan>
                    </text>
                    <path d="M251.663041,192.333191 L281.830881,192.333191" id="Path-174" stroke="#AB63FA"></path>
                    <path d="M251.455333,178.939519 L281.623173,178.939519" id="Path-174-Copy" stroke="#0000A6"></path>
                </g>
            </g>
        </g>
    </g>
</svg>