<?xml version="1.0" encoding="UTF-8"?>
<svg width="241px" height="292px" viewBox="0 0 241 292" version="1.1" xmlns="http://www.w3.org/2000/svg" xmlns:xlink="http://www.w3.org/1999/xlink">
    <!-- Generator: Sketch 53.2 (72643) - https://sketchapp.com -->
    <title>Group 24</title>
    <desc>Created with Sketch.</desc>
    <g id="Page-1" stroke="none" stroke-width="1" fill="none" fill-rule="evenodd">
        <g id="Artboard-Copy-9" transform="translate(-522.000000, -5797.000000)">
            <g id="Group-24" transform="translate(522.000000, 5798.000000)">
                <path d="M2.27373675e-13,41.0109228 C11.210772,41.0109228 15.6143855,2.25914062e-15 28.3801889,0 C41.1459924,0 43.3521282,41.0109228 59.2418478,41.0109228 C75.1315673,41.0109228 72.667414,8.83112782e-16 88.1709732,0 C103.674532,0 103.137717,41.0109228 119.091508,41.0109228 C135.045299,41.0109228 131.815752,5.35138349e-16 147.535769,0 C163.255786,0 163.255786,41.0109228 178.79571,41.0109228 C194.335634,41.0109228 190.957164,3.87327031e-16 206.914418,0 C222.871672,0 219.952596,41.0109228 240.776431,41.0109228" id="Path-40" stroke="#0000A6"></path>
                <path d="M8.02291215,110.857922 C7.87694004,119.044856 8.42845337,123.138323 9.67745216,123.138323 C11.5509503,123.138323 14.1895242,90.4249489 17.8317273,90.4249489 C21.4739305,90.4249489 19.535682,131.148614 21.8931033,131.148614 C24.2505246,131.148614 23.8066444,114.928669 25.62732,114.928669 C27.4479956,114.928669 26.5099685,139.421314 29.1766576,139.421314 C31.8433467,139.421314 34.5049239,87 39.0016604,87 C43.4983968,87 41.1060444,153.49598 44.9407944,153.49598 C48.7755445,153.49598 47.327183,138.304372 50.3653342,138.304372 C53.4034854,138.304372 51.2045319,148.732574 53.6164797,148.732574 C56.0284276,148.732574 58.1421834,109.205086 61.6719255,109.205086 C65.2016676,109.205086 64.4519276,123.138323 67.0206393,123.138323 C69.589351,123.138323 69.1412109,90.4249489 73.836458,90.4249489 C78.5317052,90.4249489 75.5847155,131.148614 78.4822905,131.148614 C81.3798654,131.148614 80.943653,114.928669 83.0846721,114.928669 C85.2256912,114.928669 82.7285456,139.421314 85.7684007,139.421314 C88.8082559,139.421314 92.227241,87 96.1804159,87 C100.133591,87 97.9218575,153.49598 101.240309,153.49598 C104.558761,153.49598 104.675482,138.304372 107.013308,138.304372 C109.351134,138.304372 107.715337,148.732574 110.549866,148.732574 C113.384394,148.732574 113.83509,109.205086 117.791673,109.205086 C121.748256,109.205086 121.268593,123.138323 124.414093,123.138323 C127.559593,123.138323 126.27396,90.4249489 131.043329,90.4249489 C135.812698,90.4249489 131.508508,131.148614 134.561995,131.148614 C137.615482,131.148614 137.009115,114.928669 138.709421,114.928669 C140.409726,114.928669 138.962458,139.421314 141.933303,139.421314 C144.904148,139.421314 147.661147,87 152.053942,87 C156.446737,87 154.111142,153.49598 157.895,153.49598 C161.678857,153.49598 159.636809,138.304372 162.440272,138.304372 C165.243735,138.304372 163.994234,148.732574 166.858378,148.732574 C169.722522,148.732574 171.526068,109.903015 174.818673,109.205086 C178.111278,108.507156 176.661793,123.138323 179.828815,123.138323 C182.995836,123.138323 183.073402,90.4249489 187.046163,90.4249489 C191.018923,90.4249489 189.089266,131.148614 191.404115,131.148614 C193.718964,131.148614 193.5823,114.928669 195.743072,114.928669 C197.903844,114.928669 196.103465,139.421314 198.571335,139.421314 C201.039206,139.421314 204.520714,87 208.544129,87 C212.567545,87 211.274775,153.49598 214.715653,153.49598 C218.156531,153.49598 216.862706,138.304372 219.194968,138.304372 C221.52723,138.304372 220.701968,148.732574 222.802059,148.732574 C224.90215,148.732574 229.384631,106.555866 232.756385,106.555866" id="Path-41" stroke="#0000A6"></path>
                <path d="M8,253.043154 C11.1806374,217.777307 14.1739663,199.873268 16.9799867,199.331037 C21.1890173,198.517689 19.3122608,208.218556 23.0157988,210.020831 C26.7193368,211.823106 36.0516619,208.218556 39.5043295,212.020813 C42.9569971,215.823069 41.3019558,258.115898 47.1589068,259.571228 C53.0158579,261.026558 54.0553045,253.510375 57.2507768,256.021022 C60.446249,258.531668 57.4892101,269.490029 61.4484663,269.490029 C65.4077224,269.490029 67.7128538,200.144384 73.0590807,200.144384 C78.4053075,200.144384 76.0470994,208.020849 79.7761055,210.020831 C83.5051116,212.020813 91.3470848,206.553202 95.2984445,210.020831 C99.2498041,213.48846 98.2664055,258.18553 104.797181,259.571228 C111.327956,260.956926 109.939392,252.811795 113.799633,254.416409 C117.659873,256.021022 114.468413,269.490029 118.481091,269.490029 C122.49377,269.490029 125.62162,203.431548 130.067544,200.144384 C134.513468,196.857219 132.354691,208.020849 136.098597,210.020831 C139.842503,212.020813 148.489648,206.825413 152.395734,210.020831 C156.301821,213.216249 154.910392,257.196401 159.991285,259.571228 C165.072178,261.946055 167.000005,254.058809 170.498635,256.021022 C173.997265,257.983234 171.73476,269.490029 175.637981,269.490029 C179.541203,269.490029 185.358498,201.700554 188.937358,199.331037 C192.516218,196.961519 190.576356,208.020849 194.7558,210.020831 C198.935244,212.020813 206.14626,206.599048 210.689607,210.020831 C215.232955,213.442614 213.368165,256.250825 218.833019,259.571228 C224.297872,262.891631 226.595334,254.416409 229.997687,256.021022 C233.40004,257.625635 230.252075,265.243535 235.334171,267.366782" id="Path-42" stroke="#0000A6"></path>
                <text id="(a)-Sine-wave" font-family="Merriweather-Regular, Merriweather" font-size="8" font-weight="normal" letter-spacing="0.5963637" fill="#000000">
                    <tspan x="90.455636" y="61">(a) Sine wave</tspan>
                </text>
                <text id="(b)-Violin" font-family="Merriweather-Regular, Merriweather" font-size="8" font-weight="normal" letter-spacing="0.5963637" fill="#000000">
                    <tspan x="98.4381815" y="173">(b) Violin</tspan>
                </text>
                <text id="(c)-Piano" font-family="Merriweather-Regular, Merriweather" font-size="8" font-weight="normal" letter-spacing="0.5963637" fill="#000000">
                    <tspan x="99.1163634" y="289">(c) Piano</tspan>
                </text>
            </g>
        </g>
    </g>
</svg>