<?xml version="1.0" encoding="UTF-8"?>
<svg width="291px" height="167px" viewBox="0 0 291 167" version="1.1" xmlns="http://www.w3.org/2000/svg" xmlns:xlink="http://www.w3.org/1999/xlink">
    <!-- Generator: Sketch 53.2 (72643) - https://sketchapp.com -->
    <title>Group 14</title>
    <desc>Created with Sketch.</desc>
    <g id="Page-1" stroke="none" stroke-width="1" fill="none" fill-rule="evenodd">
        <g id="Artboard-Copy-9" transform="translate(-79.000000, -898.000000)">
            <g id="Group-14" transform="translate(79.000000, 899.000000)">
                <path d="M53,50.7525862 C62.9495652,34.052259 71.785792,26.9680618 79.5086803,29.4999945 C83.5808312,30.8350407 92.5568421,38.724494 99.6650023,53.1679674 C115.625169,85.5983336 129.494486,136.819826 147.809495,138.94048 C154.363142,139.699312 162.759977,133.202267 173,119.449344" id="Path-26" stroke="#878787" opacity="0.348051525" stroke-linecap="round"></path>
                <polygon id="Path-27" fill="#D5E8FF" opacity="0.521391369" points="0 87.9420015 0 8 135 84.8106746 135 166"></polygon>
                <polygon id="Path-27-Copy" stroke="#C1EAF1" fill="#C1EAF1" opacity="0.521391369" points="153 159 153 78.1133224 290 0 290 79.5"></polygon>
                <path d="M17,53.8285679 C19.1856266,43.942856 21.1649065,39 22.9378398,39 C25.5972396,39 28.8632443,48.1034628 31.0250487,48.1034628 C33.1868531,48.1034628 34.8185729,46.8195092 36.6003409,47.461486 C38.3821089,48.1034628 41.7421608,52.78642 43.756482,51.8168077 C45.7708032,50.8471954 48.5453199,42.5716053 51.9447889,41.1137054 C55.3442578,39.6558055 59.32515,73.15857 64.0215279,77.0777591 C68.7179058,80.9969483 69.0919574,79.168365 70.695463,81.2546824 C72.2989687,83.3409999 75.628669,89.9468856 77.5797221,90.8749001 C79.5307751,91.8029147 83.5196612,92.6627434 85.1441137,97.1926039 C86.7685663,101.722464 90.9023706,128.40803 94.7989194,129.368636 C98.6954681,130.329243 100.046329,119.624912 103.458107,119.624912 C106.869884,119.624912 108.088211,123.743991 110.349416,123.743991 C112.61062,123.743991 115.219604,122.22578 116.775483,122.984886 C118.331361,123.743991 122.263097,132.76252 123.953586,131.948036 C125.644075,131.133553 128.156242,125.644736 129,121.990637" id="Path-22" stroke="#2929B4"></path>
                <path d="M164,138 L287,68" id="Path-28" stroke="#979797"></path>
                <path d="M176.5,131 L176.5,68" id="Path-29" stroke="#4CC7DA"></path>
                <path d="M213.5,110.162566 L213.5,89.2353791" id="Path-29-Copy" stroke="#4CC7DA"></path>
                <path d="M250.5,89.1625656 L250.5,78.1125041" id="Path-29-Copy-2" stroke="#4CC7DA"></path>
                <text id="Time-domain" transform="translate(47.766660, 130.897114) rotate(30.000000) translate(-47.766660, -130.897114) " font-family="Merriweather-Regular, Merriweather" font-size="7" font-weight="normal" letter-spacing="0.5218182" fill="#000000">
                    <tspan x="21.7666605" y="133.397114">Time domain</tspan>
                </text>
                <text id="Frequency-domain" transform="translate(209.859927, 139.147114) rotate(-30.000000) translate(-209.859927, -139.147114) " font-family="Merriweather-Regular, Merriweather" font-size="7" font-weight="normal" letter-spacing="0.5218182" fill="#000000">
                    <tspan x="173.359927" y="141.647114">Frequency domain</tspan>
                </text>
                <path d="M91,26.5587678 C92.6847519,18.524778 95.0478327,15.5551171 98.0892423,17.6497851 C102.651357,20.7917872 108.102428,50.7943576 114.262621,50.7943576 C120.422814,50.7943576 122.000426,32.1865543 127.803452,34.9467462 C133.606478,37.7069382 138.664696,67.4972153 144.688084,67.4972153 C150.711473,67.4972153 151.710835,52.0261748 157.923432,52.0261748 C164.136028,52.0261748 168.090674,85.217954 174.554803,85.217954 C181.018933,85.217954 181.515571,69.2679721 187.984922,69.2679721 C194.454273,69.2679721 202.077427,100.564258 205.209544,102.590409 C207.297622,103.941176 209.227774,101.950982 211,96.6198294" id="Path-30" stroke="#878787" opacity="0.348051525" stroke-linecap="round"></path>
                <path d="M126,7.74155604 C127.389325,3.70014583 128.685053,2.2422224 129.887184,3.36778577 C131.69038,5.05613082 136.117431,21.278349 139.225585,21.278349 C142.333739,21.278349 143.454839,12.1895013 146.690094,13.8729199 C149.925348,15.5563386 152.420105,29.6852583 156.353888,31.2583266 C160.28767,32.8313948 160.790694,23.5182702 163.666254,23.5182702 C166.541814,23.5182702 170.035102,41.132232 173.710801,41.132232 C177.386499,41.132232 178.710372,32.8233894 181.358915,33.4750319 C184.007457,34.1266745 186.707377,51.1678473 190.965755,51.1678473 C195.224133,51.1678473 194.120906,43.7095823 197.889005,43.7095823 C201.657104,43.7095823 204.966147,59.5128661 207.96621,60.4644365 C210.966273,61.416007 210.966273,51.1678473 215.155907,53.3633383 C219.345541,55.5588293 221.519577,69.4070338 225.012467,70.8748306 C228.505357,72.3426274 229.519768,61.7522353 232.750592,62.873797 C235.981415,63.9953586 239.912807,79.1824724 241.726959,80.5794211 C242.936394,81.5107202 244.027407,80.895369 245,78.7333674" id="Path-31" stroke="#878787" opacity="0.348051525" stroke-linecap="round"></path>
            </g>
        </g>
    </g>
</svg>