<?xml version="1.0" encoding="UTF-8"?>
<svg width="173px" height="251px" viewBox="0 0 173 251" version="1.1" xmlns="http://www.w3.org/2000/svg" xmlns:xlink="http://www.w3.org/1999/xlink">
    <!-- Generator: Sketch 53.2 (72643) - https://sketchapp.com -->
    <title>Group 23</title>
    <desc>Created with Sketch.</desc>
    <g id="Page-1" stroke="none" stroke-width="1" fill="none" fill-rule="evenodd">
        <g id="Artboard-Copy-9" transform="translate(-517.000000, -2307.000000)">
            <g id="Group-23" transform="translate(518.000000, 2308.000000)">
                <g id="Group-22">
                    <g id="Group-21">
                        <path d="M0,87.572998 C42.4108098,87.572998 65.6111372,87.572998 69.6009822,87.572998 C75.5857496,87.572998 73.3585346,60 79.2407318,60 C85.1229289,60 84.2825352,97.0064682 89.9694725,97.0064682 C95.6564099,97.0064682 100.140983,82.5582885 105.093463,82.5582885 C110.045942,82.5582885 113.269893,89.4120614 118.372752,88.2774231 C121.774658,87.5209975 125.153753,87.0657587 128.510037,86.9117065 L170.928854,87.572998" id="Path-36" stroke="#2929B4"></path>
                        <g id="Group-19" transform="translate(0.000000, 194.000000)">
                            <path d="M0,28.7993299 C42.4108098,28.7993299 65.6111372,28.7993299 69.6009822,28.7993299 C75.5857496,28.7993299 73.3585346,1.22633193 79.2407318,1.22633193 C85.1229289,1.22633193 84.2825352,38.2328001 89.9694725,38.2328001 C95.6564099,38.2328001 100.140983,23.7846204 105.093463,23.7846204 C110.045942,23.7846204 113.269893,30.6383933 118.372752,29.503755 C121.774658,28.7473295 125.153753,28.2920906 128.510037,28.1380384 L170.928854,28.7993299" id="Path-36-Copy" stroke="#2929B4" stroke-width="2" stroke-linecap="round" stroke-linejoin="round" stroke-dasharray="1,4"></path>
                            <rect id="Rectangle" fill="#FFFFFF" x="72" y="17.2263319" width="4" height="4"></rect>
                            <rect id="Rectangle-Copy-4" fill="#FFFFFF" x="73" y="7.22633193" width="4" height="4"></rect>
                            <rect id="Rectangle-Copy-5" fill="#FFFFFF" x="83" y="18.2263319" width="4" height="4"></rect>
                            <rect id="Rectangle-Copy-6" fill="#FFFFFF" x="83" y="28.2263319" width="6" height="4"></rect>
                            <rect id="Rectangle-Copy-7" fill="#FFFFFF" x="95" y="29.2263319" width="6" height="4"></rect>
                            <rect id="Rectangle" fill="#2929B4" transform="translate(77.761327, 2.000000) rotate(-46.000000) translate(-77.761327, -2.000000) " x="76.2613274" y="1" width="3" height="2" rx="1"></rect>
                        </g>
                        <path d="M-1.13686838e-13,27.3035161 C1.48187095,27.3035161 2.56196091,27.3035161 3.24026989,27.3035161 C8.44421162,27.3035161 12.009884,27.3035161 13.9372871,27.3035161 C17.3936543,27.3035161 17.3936543,4.47641924e-13 21.4108437,4.47641924e-13 C25.4280331,4.47641924e-13 29.7797636,37.2045896 34.0815265,37.2045896 C38.3832894,37.2045896 41.3482998,23.2262315 46.9084058,23.2262315 C52.4685118,23.2262315 55.0186791,28.6716517 61.5852806,28.6716517 C68.1518821,28.6716517 69.9375397,28.6716517 70.8135049,28.2804191 C77.9053048,25.113006 75,4.47641924e-13 79.8174358,4.47641924e-13 C84.6348715,4.47641924e-13 85.0646569,37.2045896 90.6152779,37.2045896 C96.1658989,37.2045896 98.9443711,23.2262315 105.053975,23.2262315 C111.163578,23.2262315 111.163578,27.3035161 120.509608,27.3035161 C129.855637,27.3035161 118.205406,27.3035161 126.609754,27.3035161 C135.014102,27.3035161 131.292138,4.47641924e-13 136.244439,4.47641924e-13 C141.196739,4.47641924e-13 141.995514,37.2045896 147.219218,37.2045896 C152.442923,37.2045896 155.615339,22.35045 161.320249,22.35045 C165.123523,22.35045 168.326391,24.001472 170.928854,27.3035161" id="Path-37" stroke="#2929B4"></path>
                        <g id="Group-20" transform="translate(0.000000, 123.000000)">
                            <path d="M0,28.5394802 C1.48187095,28.5394802 2.56196091,28.5394802 3.24026989,28.5394802 C8.44421162,28.5394802 12.009884,28.5394802 13.9372871,28.5394802 C17.3936543,28.5394802 17.3936543,1.23596414 21.4108437,1.23596414 C25.4280331,1.23596414 29.7797636,38.4405537 34.0815265,38.4405537 C38.3832894,38.4405537 41.3482998,24.4621956 46.9084058,24.4621956 C52.4685118,24.4621956 56.4966534,29.9076158 63.0632549,29.9076158 C69.6298564,29.9076158 65.2614168,29.9076158 69.9237143,29.9076158 C74.5860119,29.9076158 73.6863906,1.23596414 78.0113177,1.23596414 C82.3362447,1.23596414 85.0646569,38.4405537 90.6152779,38.4405537 C96.1658989,38.4405537 98.9443711,24.4621956 105.053975,24.4621956 C111.163578,24.4621956 111.163578,28.5394802 120.509608,28.5394802 C129.855637,28.5394802 123.792848,28.5394802 127.921051,28.5394802 C132.049253,28.5394802 130.061802,1.23596414 135.014102,1.23596414 C139.966403,1.23596414 141.995514,38.4405537 147.219218,38.4405537 C152.442923,38.4405537 155.615339,23.5864141 161.320249,23.5864141 C165.123523,23.5864141 168.326391,25.2374361 170.928854,28.5394802" id="Path-37-Copy" stroke="#0000A6" stroke-width="2" stroke-linecap="round" stroke-linejoin="round" stroke-dasharray="1,4"></path>
                            <g id="Group-18" transform="translate(15.000000, 6.066974)" fill="#FFFFFF">
                                <rect id="Rectangle" x="0" y="10" width="4" height="4"></rect>
                                <rect id="Rectangle-Copy-4" x="1" y="0" width="4" height="4"></rect>
                                <rect id="Rectangle-Copy-5" x="11" y="9" width="4" height="4"></rect>
                                <rect id="Rectangle-Copy-6" x="11" y="19" width="6" height="4"></rect>
                                <rect id="Rectangle-Copy-7" x="23" y="25" width="6" height="4"></rect>
                            </g>
                            <g id="Group-18-Copy" transform="translate(72.000000, 10.066974)" fill="#FFFFFF">
                                <rect id="Rectangle" x="0" y="10" width="4" height="4"></rect>
                                <rect id="Rectangle-Copy-4" x="1" y="0" width="4" height="4"></rect>
                                <rect id="Rectangle-Copy-5" x="10" y="7" width="4" height="4"></rect>
                                <rect id="Rectangle-Copy-6" x="10" y="16" width="6" height="4"></rect>
                                <rect id="Rectangle-Copy-9" x="24" y="17" width="6" height="4"></rect>
                                <rect id="Rectangle-Copy-8" x="8" y="1" width="6" height="4"></rect>
                                <rect id="Rectangle-Copy-7" x="23" y="25" width="6" height="4"></rect>
                            </g>
                            <g id="Group-18-Copy-2" transform="translate(129.000000, 8.066974)" fill="#FFFFFF">
                                <rect id="Rectangle" x="0" y="10" width="4" height="4"></rect>
                                <rect id="Rectangle-Copy-4" x="1" y="0" width="4" height="4"></rect>
                                <rect id="Rectangle-Copy-5" x="10" y="10" width="4" height="4"></rect>
                                <rect id="Rectangle-Copy-6" x="10" y="14" width="6" height="5"></rect>
                                <rect id="Rectangle-Copy-8" x="8" y="0" width="6" height="4"></rect>
                                <rect id="Rectangle-Copy-7" x="22" y="21" width="6" height="4"></rect>
                            </g>
                            <rect id="Rectangle-Copy-10" fill="#0000A6" transform="translate(21.761327, 2.000000) rotate(2.000000) translate(-21.761327, -2.000000) " x="20.2613274" y="1" width="3" height="2" rx="1"></rect>
                            <rect id="Rectangle-Copy-11" fill="#0000A6" transform="translate(78.533986, 2.278072) rotate(19.000000) translate(-78.533986, -2.278072) " x="77.0339857" y="1.278072" width="3" height="2" rx="1"></rect>
                            <rect id="Rectangle-Copy-11" fill="#0000A6" transform="translate(91.743846, 38.660203) rotate(-10.000000) translate(-91.743846, -38.660203) " x="90.243846" y="37.6602027" width="3" height="2" rx="1"></rect>
                            <rect id="Rectangle-Copy-11" fill="#0000A6" transform="translate(34.650860, 38.471612) rotate(-10.000000) translate(-34.650860, -38.471612) " x="33.1508598" y="37.4716119" width="3" height="2" rx="1"></rect>
                            <rect id="Rectangle-Copy-11" fill="#0000A6" transform="translate(149.650860, 37.471612) rotate(-10.000000) translate(-149.650860, -37.471612) " x="148.15086" y="36.4716119" width="3" height="2" rx="1"></rect>
                            <rect id="Rectangle-Copy-12" fill="#0000A6" transform="translate(133.650860, 2.471612) rotate(-53.000000) translate(-133.650860, -2.471612) " x="132.15086" y="1.47161195" width="3" height="2" rx="1"></rect>
                        </g>
                        <text id="(2)-Continuous-Fouri" font-family="Merriweather-Regular, Merriweather" font-size="6" font-weight="normal" letter-spacing="0.447272718" fill="#000000">
                            <tspan x="0" y="109">(2) Continuous Fourier Transform</tspan>
                        </text>
                        <text id="(1)-Fourier-Series" font-family="Merriweather-Regular, Merriweather" font-size="6" font-weight="normal" letter-spacing="0.447272718" fill="#000000">
                            <tspan x="0" y="52">(1) Fourier Series</tspan>
                        </text>
                        <text id="(4)-Discrete-Time-Fo" font-family="Merriweather-Regular, Merriweather" font-size="6" font-weight="normal" letter-spacing="0.447272718" fill="#000000">
                            <tspan x="0" y="248">(4) Discrete Time Fourier Transform</tspan>
                        </text>
                        <text id="(3)-Discrete-Fourier" font-family="Merriweather-Regular, Merriweather" font-size="6" font-weight="normal" letter-spacing="0.447272718" fill="#000000">
                            <tspan x="0" y="178">(3) Discrete Fourier Transform</tspan>
                        </text>
                    </g>
                </g>
            </g>
        </g>
    </g>
</svg>