<?xml version="1.0" encoding="UTF-8"?>
<svg width="280px" height="87px" viewBox="0 0 280 87" version="1.1" xmlns="http://www.w3.org/2000/svg" xmlns:xlink="http://www.w3.org/1999/xlink">
    <!-- Generator: Sketch 53.2 (72643) - https://sketchapp.com -->
    <title>Group 26</title>
    <desc>Created with Sketch.</desc>
    <g id="Page-1" stroke="none" stroke-width="1" fill="none" fill-rule="evenodd">
        <g id="Artboard-Copy-9" transform="translate(-458.000000, -2665.000000)">
            <g id="Group-26" transform="translate(458.083323, 2665.000000)">
                <path d="M-1.13686838e-13,47.1683724 L262.721378,47.1683724" id="Path-45" stroke="#C9C9C9"></path>
                <path d="M59.9166766,84.5032686 L59.9166766,6" id="Path-45" stroke="#C9C9C9"></path>
                <polyline id="Path-46" stroke="#0000A6" points="10.9863566 17.3562057 14.7227984 17.3562057 14.7227984 77.3038758 59.9166766 77.3038758 59.9166766 17.3562057 109.670964 17.3562057 109.670964 77.3038758 156.38345 77.3038758 156.38345 17.3562057 203.878424 17.3562057 203.878424 77.3038758 250.72639 77.3038758 250.72639 17.3562057 257.813095 17.3562057"></polyline>
                <path d="M10.9863566,28.5188698 C14.4500516,63.1673111 17.4190128,80.963904 19.89324,81.9086484 C23.6045808,83.3257651 23.6045808,73.3023471 26.3202157,73.3023471 C29.0358505,73.3023471 29.0358505,80.4915317 31.4054187,80.4915317 C33.7749869,80.4915317 34.4459947,74.4444272 37.6660316,74.4444272 C40.8860684,74.4444272 41.2178244,80.4915317 43.698087,80.4915317 C46.1783495,80.4915317 46.0419883,73.3023471 49.0180261,73.3023471 C51.9940638,73.3023471 51.2199878,82.9218437 54.7622425,81.9086484 C58.3044973,80.8954532 65.3818254,14.7929416 68.1418081,12.030859 C70.9017907,9.26877651 70.6211256,20.9676976 73.5497101,20.9676976 C76.4782945,20.9676976 76.4782945,14.7929416 79.2067548,14.7929416 C81.935215,14.7929416 82.0773795,20.0344611 84.8012282,20.0344611 C87.5250769,20.0344611 87.5250769,14.7929416 90.5042029,14.7929416 C93.4833289,14.7929416 93.5069598,20.9676976 96.48775,20.9676976 C99.4685403,20.9676976 100.013044,10.1761529 102.84205,12.030859 C105.671056,13.8855652 111.581333,81.2617713 115.174295,82.9218437 C118.767257,84.5819161 117.678797,73.3023471 120.582744,73.3023471 C123.486691,73.3023471 124.438588,80.4915317 126.600646,80.4915317 C128.762705,80.4915317 130.290413,74.4444272 132.638501,74.4444272 C134.986589,74.4444272 136.294885,80.4915317 138.748014,80.4915317 C141.201143,80.4915317 141.247456,73.3023471 144.293084,73.3023471 C147.338712,73.3023471 147.338712,83.64139 150.044122,82.9218437 C152.749533,82.2022973 159.255182,14.0740762 162.901774,12.030859 C166.548366,9.98764187 165.730322,20.9676976 168.298904,20.9676976 C170.867486,20.9676976 171.042806,14.7929416 173.816381,14.7929416 C176.589955,14.7929416 177.183942,20.9676976 179.835023,20.9676976 C182.486104,20.9676976 183.492839,14.7929416 186.057824,14.7929416 C188.622809,14.7929416 189.641043,20.9676976 191.675505,20.9676976 C193.709967,20.9676976 194.486566,9.95953714 197.030537,12.030859 C199.574507,14.1021809 206.490868,81.3587873 209.716556,82.9218437 C212.942243,84.4849 212.921819,73.3023471 215.729928,73.3023471 C218.538037,73.3023471 218.538037,79.6411384 221.011856,79.6411384 C223.485674,79.6411384 224.216922,74.4444272 227.286162,74.4444272 C230.355402,74.4444272 230.731586,79.6411384 233.528014,79.6411384 C236.324443,79.6411384 235.793191,73.3023471 238.634942,73.3023471 C241.476693,73.3023471 241.624441,83.9350389 244.413247,82.9218437 C246.27245,82.2463802 249.19318,64.695062 253.175435,30.267889" id="Path-47" stroke="#979797" opacity="0.460565476" stroke-linecap="round" stroke-linejoin="round"></path>
                <path d="M8.25689391,36.1345858 C13.4242994,54.9129659 19.0866318,84.5032686 36.5323813,84.5032686 C53.9781308,84.5032686 70.0383667,9.31325591 85.8208333,9.31325591 C101.6033,9.31325591 116.245136,86.0889583 132.080896,86.0889583 C147.916655,86.0889583 163.13542,9.31325591 180.103197,9.31325591 C197.070973,9.31325591 211.318328,84.5032686 227.832306,84.5032686 C244.346285,84.5032686 257.212322,9.31325591 259.96685,9.31325591" id="Path-48" stroke="#979797" opacity="0.233026414" stroke-linecap="round" stroke-linejoin="round"></path>
                <path d="M10.1581405,29.6089394 C16.6357764,64.3189675 21.5662342,82.1455294 24.9495139,83.088625 C30.0244334,84.5032686 31.9286119,71.9407379 37.7893506,71.9407379 C43.6500893,71.9407379 45.2493713,85.1407514 50.5951529,83.088625 C55.9409345,81.0364987 66.3324504,14.2581519 71.0109318,11.6088054 C75.6894132,8.95945878 80.5175417,22.9618752 85.060495,22.9618752 C89.6034484,22.9618752 95.3345574,7.29190302 99.2361696,11.6088054 C103.137782,15.9257077 113.44397,83.088625 120.729374,83.088625 C128.014777,83.088625 127.384094,71.9407379 132.080896,71.9407379 C136.777697,71.9407379 140.118194,86.0889583 144.246322,83.088625 C148.374449,80.0882918 160.905988,14.0835648 166.533272,11.6088054 C172.160556,9.1340459 173.787497,22.9618752 179.537417,22.9618752 C185.287336,22.9618752 189.00416,8.69270468 193.329513,11.6088054 C197.654867,14.524906 207.643306,83.088625 214.726696,83.088625 C221.810086,83.088625 223.065035,71.9407379 227.557485,71.9407379 C232.049935,71.9407379 232.648413,83.088625 237.989365,83.088625 C241.55,83.088625 246.612023,65.481713 253.175435,30.267889" id="Path-49" stroke="#979797" opacity="0.643043155" stroke-linecap="round" stroke-linejoin="round"></path>
                <path d="M10.9863566,28.5188698 C15.7959371,63.5482551 19.5166488,81.5734631 22.1484918,82.5944938 C26.0962563,84.1260398 26.2137518,72.7637439 29.8682093,72.7637439 C33.5226669,72.7637439 34.3168418,80.2612134 37.655962,80.2612134 C40.9950822,80.2612134 42.6495234,73.1086711 45.8000891,72.7637439 C48.9506548,72.4188166 50.5113587,82.5944938 53.0424809,82.5944938 C55.5736031,82.5944938 64.2593567,11.6088054 69.0245935,11.6088054 C73.7898303,11.6088054 72.312914,21.3733536 76.6869108,21.3733536 C81.0609076,21.3733536 81.2772266,14.3032411 84.9478466,14.3032411 C88.6184667,14.3032411 89.2584832,21.3733536 92.7685646,21.3733536 C96.278646,21.3733536 98.0673105,11.562229 100.509402,11.9977823 C102.951494,12.4333356 113.327322,83.088625 117.028348,83.088625 C120.729374,83.088625 121.058969,72.737575 124.427108,73.0969433 C127.795247,73.4563117 128.756915,80.0334339 132.080896,80.0334339 C135.404876,80.0334339 136.819638,73.0969433 140.241412,73.0969433 C143.663186,73.0969433 144.869699,82.5944938 147.746917,82.5944938 C150.624135,82.5944938 159.156931,11.9977823 163.765951,11.9977823 C168.374971,11.9977823 167.643131,21.7406472 171.935217,21.3733536 C176.227302,21.0060601 175.99693,14.594195 180.024412,14.594195 C184.051895,14.594195 184.72747,21.3733536 187.776017,21.3733536 C190.824565,21.3733536 192.456057,11.9977823 195.019269,11.9977823 C197.58248,11.9977823 207.828523,83.088625 212.003795,83.088625 C216.179068,83.088625 215.68111,72.7637439 219.302483,72.7637439 C222.923856,72.7637439 223.259696,80.2612134 227.076295,80.2612134 C230.892893,80.2612134 230.601767,73.0969433 235.159689,73.0969433 C239.717611,73.0969433 239.412214,83.088625 242.203214,83.088625 C244.06388,83.088625 247.721287,65.481713 253.175435,30.267889" id="Path-50" stroke="#979797" opacity="0.370814732" stroke-linecap="round" stroke-linejoin="round"></path>
                <text id="t-(s)" font-family="Merriweather-Regular, Merriweather" font-size="6" font-weight="normal" letter-spacing="0.4472727" fill="#000000">
                    <tspan x="265.916677" y="49">t (s)</tspan>
                </text>
                <text id="$s_1$" font-family="Merriweather-Regular, Merriweather" font-size="6" font-weight="normal" letter-spacing="0.4472727" fill="#BABABA">
                    <tspan x="62.9166766" y="7">$s_1$</tspan>
                </text>
                <text id="y" font-family="Merriweather-Regular, Merriweather" font-size="6" font-weight="normal" letter-spacing="0.4472727" fill="#000000">
                    <tspan x="51.9166766" y="9">y</tspan>
                </text>
                <text id="$s_2$" font-family="Merriweather-Regular, Merriweather" font-size="6" font-weight="normal" letter-spacing="0.4472727" fill="#BCBCBC">
                    <tspan x="72.9166766" y="33">$s_2$</tspan>
                </text>
                <text id="$s_3$" font-family="Merriweather-Regular, Merriweather" font-size="6" font-weight="normal" letter-spacing="0.4472727" fill="#D7D1D1">
                    <tspan x="91.9166766" y="6">$s_3$</tspan>
                </text>
                <text id="$s_4$" font-family="Merriweather-Regular, Merriweather" font-size="6" font-weight="normal" letter-spacing="0.4472727" fill="#BCBCBC">
                    <tspan x="113.916677" y="37">$s_4$</tspan>
                </text>
                <polygon id="Path-52" fill="#C9C9C9" points="257.302049 44.477053 264.302049 47.3300407 257.302049 49.5248735"></polygon>
                <polygon id="Path-52" fill="#C9C9C9" transform="translate(59.894106, 5.402821) rotate(-90.000000) translate(-59.894106, -5.402821) " points="56.3941059 2.87891064 63.3941059 5.73189841 56.3941059 7.92673117"></polygon>
            </g>
        </g>
    </g>
</svg>