<?xml version="1.0" encoding="UTF-8"?>
<svg width="292px" height="191px" viewBox="0 0 292 191" version="1.1" xmlns="http://www.w3.org/2000/svg" xmlns:xlink="http://www.w3.org/1999/xlink">
    <!-- Generator: Sketch 53.2 (72643) - https://sketchapp.com -->
    <title>Group 59</title>
    <desc>Created with Sketch.</desc>
    <g id="Page-1" stroke="none" stroke-width="1" fill="none" fill-rule="evenodd">
        <g id="Artboard-Copy-9" transform="translate(-439.000000, -875.000000)">
            <g id="Group-59" transform="translate(440.000000, 876.000000)">
                <g id="Group-15">
                    <text id="Time-domain-Copy" transform="translate(40.413455, 157.547077) rotate(31.000000) translate(-40.413455, -157.547077) " font-family="Merriweather-Regular, Merriweather" font-size="7" font-weight="normal" letter-spacing="0.5218182" fill="#000000">
                        <tspan x="14.4134547" y="160.047077">Time domain</tspan>
                    </text>
                    <path d="" id="Path-32" stroke="#979797"></path>
                    <path d="M48,74.0976804 C50.9120027,29.5668391 55.4433301,9.7831571 61.5939822,14.7466344 C70.8199602,22.1918503 76.9835995,149.436324 84.9045466,139.008211 C92.8254936,128.580098 88.4109582,70.2606335 94.3664052,74.0976804 C100.321852,77.9347272 95.8911417,129.709153 101.846589,123.38396 C107.802036,117.058767 107.802036,102.865453 110.936901,98.4679536 C114.071767,94.0704541 115.482094,126.099699 119.5,117.66137 C123.517906,109.223041 123.564288,102.632598 128.095567,113.30958 C132.626845,123.986563 138.573336,127.750936 142.499819,127.750936 C146.426302,127.750936 152.684063,130.675038 156.237823,130.675038 C159.791583,130.675038 164.733937,135.724777 170.305587,135.724777 C175.877237,135.724777 184.479716,138.799766 185.299585,142.399883 C186.119455,146 181.429792,146 191,146" id="Path-33" stroke="#D5D5D5"></path>
                    <path d="M80,46.5457243 C82.9043555,10.2246872 86.5950754,-3.88516542 91.0721596,4.21616659 C97.787786,16.3681646 105.363422,101.000212 112.952021,88.7516684 C120.540621,76.5031246 120.845631,105.143687 126.551199,97.714308 C132.256767,90.2849292 136.162708,104.966516 139.166041,99.8013465 C142.169373,94.6361774 144.223136,106.014961 148.5,102.913398 C148.847837,102.661149 155.782568,102.944566 156.248248,102.913398 C161.50839,102.561342 167.078997,109.565205 170.534791,109.565205 C174.296527,109.565205 180.291725,112.999767 183.696376,112.999767 C187.101027,112.999767 191.836009,118.931035 197.173884,118.931035 C202.511758,118.931035 210.753294,122.542825 211.538764,126.771412 C212.324233,131 207.831339,131 217,131" id="Path-33-Copy-3" stroke="#D5D5D5"></path>
                    <path d="M76,46.6176185 C78.8407565,8.60723074 82.4506577,-6.15889404 86.8297036,2.31924411 C93.3982725,15.0364513 100.808018,103.604873 108.230444,90.7866297 C115.65287,77.9683862 116.313657,110.125178 121.894286,102.350246 C127.474914,94.575315 130.932868,107.755656 133.870434,102.350246 C136.808,96.9448368 138.81679,108.852866 143,105.607045 C143.34022,105.343063 150.123096,105.639662 150.578578,105.607045 C155.723534,105.238614 161.172158,112.568238 164.552278,112.568238 C168.231639,112.568238 174.095556,116.162547 177.425653,116.162547 C180.75575,116.162547 185.387046,122.369688 190.608032,122.369688 C195.829019,122.369688 203.890084,126.149468 204.658353,130.574734 C205.426622,135 201.032113,135 210,135" id="Path-33-Copy-4" stroke="#D5D5D5"></path>
                    <path d="M105,46.1863233 C107.101922,19.5739409 110.939094,8.96707277 116.511516,14.3657191 C124.870148,22.4636886 139.019494,91.3944845 142.4898,87.6677731 C145.960105,83.9410617 147.46453,81.1739672 149.130937,83.152372 C150.759523,85.0858759 150.647551,95.9801205 156.448432,90.7733083 C156.583143,90.6523928 159.378786,87.0355332 160.767706,92.0963686 C161.657298,95.3377967 163.445842,94.9719103 166.293849,92.0963686 C169.141855,89.2208268 170.793578,98.1973195 174.084256,95.5282511 C177.374935,92.8591828 179.743953,93.4302017 182.867061,96.1298211 C185.990169,98.8294404 191.180619,96.5231571 192.750326,97.1875896 C196.629161,98.8294404 198.474154,101.345981 202.477863,101.345981 C206.481573,101.345981 208.579159,100.515807 212.425798,102.364767 C216.272437,104.213726 224.029865,108.274908 229.711099,108.274908 C232.633774,108.274908 234.861664,110.923671 237.918932,112.213706 C240.804524,113.431301 244.594078,113.238851 245,115" id="Path-33-Copy-2" stroke="#D5D5D5"></path>
                    <polygon id="Path-27-Copy-2" stroke="#D5E8FF" fill="#D5E8FF" opacity="0.521391369" points="0 110.942002 0 31 135 107.810675 135 189"></polygon>
                    <path d="M17,76.8285679 C19.1856266,66.942856 21.1649065,62 22.9378398,62 C25.5972396,62 28.8632443,71.1034628 31.0250487,71.1034628 C33.1868531,71.1034628 34.8185729,69.8195092 36.6003409,70.461486 C38.3821089,71.1034628 41.7421608,75.78642 43.756482,74.8168077 C45.7708032,73.8471954 48.5453199,65.5716053 51.9447889,64.1137054 C55.3442578,62.6558055 59.32515,96.15857 64.0215279,100.077759 C68.7179058,103.996948 69.0919574,102.168365 70.695463,104.254682 C72.2989687,106.341 75.628669,112.946886 77.5797221,113.8749 C79.5307751,114.802915 83.5196612,115.662743 85.1441137,120.192604 C86.7685663,124.722464 90.9023706,151.40803 94.7989194,152.368636 C98.6954681,153.329243 100.046329,142.624912 103.458107,142.624912 C106.869884,142.624912 108.088211,146.743991 110.349416,146.743991 C112.61062,146.743991 115.219604,145.22578 116.775483,145.984886 C118.331361,146.743991 122.263097,155.76252 123.953586,154.948036 C125.644075,154.133553 128.156242,148.644736 129,144.990637" id="Path-22-Copy" stroke="#2325FF"></path>
                    <polygon id="Path-27-Copy-3" stroke="#C1EAF1" fill="#C1EAF1" opacity="0.521391369" points="153 182 153 101.113322 290 23 290 102.5"></polygon>
                    <text id="Frequency-domain-Copy" transform="translate(212.604278, 168.656143) rotate(-31.000000) translate(-212.604278, -168.656143) " font-family="Merriweather-Regular, Merriweather" font-size="7" font-weight="normal" letter-spacing="0.5218182" fill="#000000">
                        <tspan x="176.104278" y="171.156143">Frequency domain</tspan>
                    </text>
                    <path d="M148.524908,139.168536 C155.490887,138.370063 160.106048,137.797313 162.370389,137.450287 C165.766901,136.929748 172.566354,137.435343 176.300818,135.473844 C180.035282,133.512345 182.457686,135.975558 187.346593,126.234872 C196.379378,107.523981 201.32265,98.1685358 202.176408,98.1685358 C203.457045,98.1685358 188.734861,129.957512 193.988211,132.783148 C199.24156,135.608784 208.180286,121.776782 206.973142,126.796226 C205.765998,131.815671 204.567357,135.642035 207.104983,133.69416 C209.642609,131.746285 212.106621,128.092882 212.951043,128.092882 C213.336952,128.092882 212.343872,132.230372 212.733591,133.975366 C213.196628,136.048651 213.365921,136.403302 215.002003,136.78347 C218.015105,137.48361 222.979535,137.110202 223.888241,136.680155 C224.796947,136.250109 227.478446,137.379229 230.939429,131.320585 C234.400412,125.261941 236.053078,122.969687 236.136019,125.032239 C236.218959,127.094792 233.382446,131.502256 234.589318,133.283762 C235.796189,135.065268 238.743467,135.924369 242.481146,136.396203 C246.218824,136.868036 248.230873,136.359151 250.524908,136.927841" id="Path-25" stroke="#4CC7DA" transform="translate(199.524908, 118.668536) rotate(-29.000000) translate(-199.524908, -118.668536) "></path>
                    <path d="M164,161 L287,91" id="Path-28-Copy" stroke="#979797"></path>
                </g>
            </g>
        </g>
    </g>
</svg>