<svg xmlns="http://www.w3.org/2000/svg" width="921" height="590" xmlns:v="https://vecta.io/nano"><style><![CDATA[.B{font-family:Open Sans, verdana, arial, sans-serif}.C{font-size:12px}.D{fill:#2a3f5f}.E{text-anchor:middle}.F{text-anchor:end}]]></style><path d="M0 0h921v590H0z" fill="#fff"/><defs><clipPath id="A"><path d="M0 0h821v480H0z"/></clipPath></defs><path d="M50 60h821v480H50z" fill="#e5ecf6"/><g stroke="#fff"><path d="M206.67 60v480M363.34 60v480M520.02 60v480M676.69 60v480M833.36 60v480"/><path d="M50 518.63h821M50 404.35h821M50 175.79h821M50 61.51h821"/><path d="M50 290.07h821" stroke-width="2"/></g><g transform="translate(50 60)" clip-path="url(#A)"><path d="M0 233.32l.26-39.15.15 70.99.34-16.03.01.04.54.81.14-51 .07 24.36.01 2.27.09 39.95.18-77.4.48 53.76.01.8.48 14.03.21-61.06.06 27.92.01 2.72.09 38.39.18-75.89.48 34.51.01 1.47.53 42.36.17-88.76.05 32.02.01 2.58.1 61.51.22-86.09.43 25.29.01 2.1.53 58.29.17-99.36.05 19.73.01 1.16.33-27.08.17 116.91.25-89.25.01 2.63.12 83.95.58-109.69.05 2.85.01.75.16 118.43.16-135.57.43 18.12.01 1.92.12 113.34.62-128.35.01 1.87.01 1.11.36-10.28.19 143.49.2-138.77.01 1.29.17 136.81.17-143.98.41 3.83.01 1.69.55 144.21.2-153.52v.54l.01.62.36-4.9.19 156.86.2-154.85.01 1.38.56 155.43.19-161.71.01.09.56 166.43.19-169.46v.67l.01.62.56 168.7.19-173.47v.27l.01.13.37-.71.19 179.35.19-177.39.01.63.56 173.29.19-179.75v.09l.01.13.18 188.08.19-191.78.38 7.22.01 1.33.57 178.15.18-186.47.01.26.19 194.27.18-198.05.38 8.01.01.32.18 184.29.57-189.77.01-.09.19 194.89.18-199.52.38 6.1.01-.18.03 20.75v5.79l.35-30.15.19 198.41.09-152.18.01-7.75.1-38.7.18 205.67.47-156.23.01-7.26.47-46.9.19 209.1.09-155.17.01-7.75.1-48.81.18 212.44.47-156.5.01-7.39.48-49.93.19 216.85.08-159.17.01-8.38.1-52.46.18 217.69.47-162.96.01-6.19.48-45.2.19 217.96.08-155.97.01-8.46.1-58.79.18 221.3.47-161.8.01-6.94.49-48.06.18 219.97.08-154.45.01-8.64.1-61.55.19 225.44.46-164.52.01-7.39.49-51.22.18 222.5.08-154.36.01-9.04.11-61.5.18 224.77.46-156.81.01-7.84.48-62.79.19 229.98.08-150.71.01-9.35.1-70.82.61 227.45.04-149.42.01-8.99.49-72.87.18 237.6.08-151.37.01-10.65.1-74.42.61 233.64.04-151.25.01-9.57.49-77.18.22 243.65.04-163.62.01-9 .1-69.65.61 240.76.04-150.49.01-10.24.33 161.67.16-246.47.26 87.56.01-9.13.11-76.6.6 244.86.04-152.72.01-9.88.49-82.97.22 248.15.04-161.89.01-9.35.11-75.98.6 249.67.04-155.83.01-9.89.11-85.11.6 252.75.04-164.25.01-8.42.49-81.81.22 257.77.04-157.66.01-9.75.11-90.63.6 261.56.04-168.3.01-7.84.49-86.85.22 269.18.04-164.87.01-7.88.1-95.89.23 266.73.42-167.19.01-6.55.1-91.61.23 264.5.42-158.5.01-7.17.1-100.21.23 263.96.42-155.83.01-6.28.48-105.41.23 272.51.04-156.72.01-5.26.1-113.79.61 277.6.04-152.4.01-5.75.1-118.47.23 275.86.42-141.31.01-5.61.48-126.66.23 274.2.04-137.17.01-4.98.1-134.68.22 275.77.43-138.56.01-5.43.48-127.24.23 275.55.04-139.98.01-5.35.1-134.23.22 279.82.43-143.85.01-5.83L47.5 90l.23 287.13.05-144.7.01-4.9.32 149.73.15-289.48.28 139.88.01-5.74.32 151.24.15-286.19.28 145.59.01-5.56.32 147.63.15-290.6.28 144.7.01-5.43.32 150.26.15-293.09.28 147.68.01-7.92.09-137.35.6 287.08.06-134.41.01-7.04.08-146.88.23 286.81.44-133.12.01-8.64.09-144.83.22 283.43.44-122.43.01-8.55.31 132.23.15-289.44.29 157.79.01-9.98.08-147.06.61 287.31.06-128.31.01-9.22.31 139.09.15-284.19.29 148.39.01-11 .31 145.77.15-283.38.29 152.27.01-11.45.31 140.51.15-284.41.29 144.66.01-12.38.08-132.14.61 281.07.06-131.12.01-12.11.08-136.46.23 280.89.44-139 .01-13.32.3 148.8.15-279.69.3 136.95.01-14.03.3 154.14.15-280.35.3 144.83.01-14.07.07-127.02.23 277.55.45-145.19.01-14.3.07-114.41.61 272.25.07-137.75.01-15.5.45-119.62.23 275.99.07-140.11.01-16.88.07-116.33.23 271.8.45-130.04.01-15.63.07-123.64.23 267.18.45-131.3.01-16.07.07-114.15.23 259.15.45-121.53.01-15.28.45-121.85.23 259.6.07-127.55.01-15.99.07-119.31.61 261.96.07-124.52.01-15.32.07-119 .23 257.59.45-142.16.01-14.03.07-86.71.58 220.99.1-146.7.01-2.32.25 150.53.24-197.07.26 72.55.01-5.25.57 157.34.1-245.48.08 181.26.01 5.12.17 58.57.1-255.64.48 116.06.01-10.2.13 125.42.09-244.46.53 156.72.01 4.28.42 90.76.12-247.35.21 219.6.01 3.08.5-222.59.24 262.8.01-15.67.01.84.1-238.58.59 266.51.06-90.01.01-11.67.06-142.91.23 251.18.46-244.46.01-3.21.25 247.54.12-260.1.38 21.07.01 4.01.24 219.65.09-235.42.42 30.2.01 12.42.52 182.87.13-219.39.1 111.83.01-5.16.48 119.84.13-227.04.14 57.63.01 9.66.44 175.65.12-259.46.19 164.16.01 6.5.04 89.52.12-275.68.59 257.33.01.53.48-251.32.23 257.51.04-42.57.01-8.02.31 47.74.13-247.48.31 100.69.01-13.14.27 156.99.48-255.68h.01l.26 254.75.1-258.58.39 40.75.01-.98.22 215.07.46-254.66.07 134.36.01 10.96.18 95.53.1-240.85.47 92.68.01-3.83.46 156.77.13-239.16.16 123.76.01 7.22.45 118.6.1-259.29.2 208.69.01 7.66.15-220.85.26 271.76.34-20.71.01 2.36.01 10.87.1-263.7.64 222.23.01-.26.06-211.33.62 250.65.07-182.82.01-10.6.28 190.71.46-270.16.01 34.92.01 10.37.23 227.23.11-273.19.41 82.84.01 19.42.19 163.53.46-261.29.1 161.84.01-15.49.25-140.56.26 252.83.24-157.57.01 10.11.07 148.31.49-249.98.19 180.1.01 7.3.06 61.24.46-254.26.23 233.55.01-2.05.01 20.31.11-248.2.63 225.49.01 4.18.01 13.23.42-240.76.32 165.5.01-15.28.47 94.24.27-258.18.01 9.71.01 8.11.43 244.68.27-265.84.05 36.34.01 14.97.03 215.55.27-262.4.45 234.48.01-15.19.25-221.3.45 253.37.05-157.88.01 11.44.57-108.98.09 260.23.09-63.2.01 6.95.52-214.84.09 280.04.14-42.18.01-8.55.12-223.26.3 283.65.33-64.66.01 12.91.02 52.02.41-277.86.32 190.12.01-18.03.6 103.23.14-279.68.01 12.42.01 11.76.34-25.25.3 283.25.11-228.52.01 20.8.51 205.22.15-273.32.09 240.28.01-16.79.25-231.24.22 285.97.28-196.09.01 12.42.42 195.12.14-298.66.19 206.16.01 8.15.02 84.44.5-304.32.23 237.69.01-11.8.12-222.5.57 303.95.06-94.46.01 14.88.07-216.18.58 302.8.1-120.56.01-26.36.6 151.82.14-313.93.01 31.93.01 7.12.2 268.78.14-312.2.41 106.8.01 27.3.15 178.1.14-307.61.46 183.58.01-30.29.11 158.91.14-309.17.5 93.48.01 17.01.42 197.34.14-313.62.19 255.05.01 10.07.16-257.29.21 312.51.38-90.05.01-8.37.11-211.41.57 311.79.07-93.12.01 7.53.06-226.11.57 314.6.12-208.03.01-22.67.37-80.61.22 310.37.16-278.08.01.76.32-29.71.22 306.05.21-68.63.01 21.43.14 52.59.14-306.9.47 49.13.01-21.74.45 277.6.27-310.64.03 127.02.01 12.69.4 172 .27-318.12.08 306.09.01 9.93.36 1.25.27-318.61.12 177.88.01-7.08.23-171.07.44 312.02.08-82.48.01 6.55.18-235.51.09 309.17.48-251.98.01-9.13.14-50.82.08 306.54.53-264.1.01 4.5.45-45.52.08 299.11.22-24.14.01 8.77.41-284.71.08 305.38.26-259.16.01-18.7.45 279.91.27-309.93.03 141.49.01 14.57.4 157.97.28-311.62.07 290.55.01 6.99.36 22 .27-328.41.12 195.12.01-15.46.23-181.26.44 333.09.08-94.02.01 11.53.18-251.98.45 334.69.12-246.51.01-19.51.14-61.77.45 335.89.16-286.72.01-.93.1-43.65.08 331.39.57-99.71.01 18.97.14 74.15.27-318.03.34 62.66.01-20.89.1 270.83.27-309.08.38 113.74.01 13.27.05 173.61.63-298.17.07 267.48.01 10.73.01 13.9.26-289.71.48 90.68.01-11.85.18 126.93.4-178.81.17 160.33.01 5.34.61 65.51.08-249.71.06 178.95.01 7.97.51-198.28.2 262.81.04-108.18.01-14.16.06-120.25.47 278.98.22-161.09.01 2.05.35 140.06.4-265.88v1.83l.01 3.87.44 282.32.31-95.98.01-3.87.54 68.36.13-266.06.08 184.78.01-5.43.35 124.21.4-263.74.01-9.58.45 227.72.14-255.69.16 213.91.01.27.26 87.42.43-295 .06 163.22.01-6.95.08 101.59.42-264.19.25 93.08.01-.8.17 203.71.43-289.71.15 242.5.01-6.19.28 16.66.14-248.52.33 115.13.01 5.3.09 158.86.42-267.75.24 48.45.01 5.84.33-63.15.42 269.22.01 1.56.43-256.58.32 70.99.01 9.67.25-85.73.42 248.55.08-183.58.01-4.49.35-44.63.13 193.33.27-47.96.01 10.06.16-160.64.43 208.74.16-160.33.01 14.21.15 138.82.11-194.63.49 110.45.01-14.96.37-113.88.13 223.35.25-128.4.01 12.16.06 102.26.68-207.1.01 11.72.01 10.46.28-21.29.13 222.28.34-53.44.01-10.33.08-155.12.43 206.82.24-122.47.01 5.83.19-89.87.13 229.58.43-221.52.01 1.65.42 204.15.14-204.69.19 127.24.01-6.68.23 108.05.43-229.36.09 92.28.01 6.45.33 114.82.14-213.2.28 1.43.01-4.19v-2.31l.14 231.23.61-101.95.01-8.46.24 113.66.14-239.2.37 90.18.01 5.52.05 159.4.14-241.74.56 10.68.01-2.67.28-17.23.44 253.23.03-107.6.01-16.97.53 119.89.07-252.96.15 88.89.01 1.16.34 175.96.41-270.6.01-.89.5-7.35.22 282.41.03-100.43.01-22 .25 127.59.34-297.1.16 112.01.01 5.08.4-118.83.23 303.47.12-282.18.01-.71.15 284.27.06-310.37.54 141 .01-28.99.3-113.7.23 321.42.22-181.49.01 12.34.11-159.93.51 333 .13-273.01.01 12.56.14 269 .06-334.69.55 47.83.01-19.46.01-31.89.51 337.14.23-164.25.01 12.2.1-176.09.51 330.85.14-224.68.01 19.46.47-124.61.23 331.13.05-322.45.01-5.34v-1.96l.51 335.54.24-133.35.01 14.12.6 121.36.06-342.79.09 158.95.01 13.94.69 166.96.06-346.13v7.7l.01 7.66.27-17.01.23 351.88.25-108.85.01 15.28.03 92.23.05-355.66.67 189.23.01 2.1.69 150.22.05-345.74.01 25.57.01 13.14.21 294.25.35-321.69.19 271.54.01 11.04.02 39.19.06-318.96.67 170.61.01 4.77.11 124.92.35-280.84.29 7.17.01 7.84.49 251.31.26-30.86.01 7.84.01 14.7.14-235.91.6 89.92.01 16.48.11 105.01.15-210.3.49 49.75.01-4.72.07-38.04.43 192.27.25-69.97.01 11.71.17-131.6.15 182.15.43-162.82.01 7.17.27-11.45.16 166.7.32-27.48.01-10.51.24 39.42.43-171.73.08 36.83.01 5.65.48-48.99.15 181.35.12-148.12.01-9.67.58-45.42.17 210.79.01-.98.57 6.59.12-229.36.06 80.61.01-6.68.21-74.38.17 230.96.37-135.34.01-7.71.48 148.89.12-254.04.15 248.29h.01l.28 15.99.41-270.73.06 144.74.01-14.12.38 152.14.12-291.45.25 134.68.01-4.41.03-128.22.72 302.05.01-.76.29 7.3.12-307.48.34 147.06.01-11.84.22-128.89.44 308.19.09-207.14.01 1.52.32-96.65.43 313v-.53l.01-1.12.55 9.09.07-336.69.13 130.93.01-5.7.43-137.57.23 363.73.09-252.26.01-4.76.52-117.09.23 390.18v-5.65l.01-13.01.27 24.59.06-398.78.42 131.69.01 3.52.08 267.66.06-411.78.61 122.57.01-7.75.17 296.83.06-411.16.52 360.3.01-32.78.04-329.08.23 414.59.48-269.98.01 5.88.07 265.66.06-414.32.62 94.28.01 1.47.16 314.96.06-402.69.53 215.82.01-37.5.03-172.35.22 392.18.5-243.88.01 8.64.34 236.89.06-397.26.35 109.33.01 12.61.15 274.87.34-395.17.26 99.41.01-28.24.01-71.92.51 389.95.23-190.92.01 12.16.05 177.29.34-394.58.36 127.99.01 13.72.14 250.51.05-394.67.56 15.67.01-9.08.23 361.85.05-366.62.47 251.68.01 12.6.03 91.88.07-351.48.65 98.51.01 15.99.12 224.33.07-323.42.56 18.84.01-4.15.21 288.87.54-80.3.01 12.6.02 62.04.73-271.18v9.4l.01 12.38.12 229.67.15-252.03.48 110.85.01-11.36.09-91.38.12 212.34.54-84.48.01 7.75.03 68.32.16-185.85.56 19.68.01-1.11.14 152.85.61-20.85.01-1.82.1-104.97.44 121.94.21-57.05.01-5.17.21-46.36.47 114.99.07-90.41.01.89.32-33.98.17 125.1.26-2.31.01 1.69.58 9.93.13-156.81.04 103.68.01 1.83.53-116.33.15 173.15.07-88.45.01.18.49 98.2.13-194.8.13 163.32.01 6.86.15-174.27.44 207.89.16-106.26.01 11.44.53-110.05.15 213.87.07-127.42.01-4.9.49 137.53.14-224.2.12 172.54.01 10.19.3 50.02.43-240.05.02 68.58.01 18.84.54-93.52.14 256.53.07-208.43.01-.05.21 216.36.42-271.72.12 226.11.01 11.89.44-235.5.14 282.58.17-146.88.01 17.1.53-147.5.14 289.71.08-259.03.01 7.26.48 259.07.07-300.53.2 292.2.01 6.86.57 12.69.07-323.73.11 187.05.01.09.38 139.31.35-332.64.02 63.11.01 7.83.18 261.65.36-341.63.21 337.98.01-1.87.28 7.39.06-345.6.41 190.53.01-2.94.15-188.65.22 347.82.38-253.81.01 2.5.18 255.23.06-342.44.51 318.62.01-9.45.05-303.33.22 323.78.48-153.7.01-2 .64 150.97.07-318.12.04 90.72.01-2.98.23-82.53.51 309 .01-48.1.01-17.28.26 60.65.35-302.97.14 165.18.01-2.4.07 135.65.06-297.37.62 82.17.01-8.32.16 208.2.07-274.3.52 206.7.01-13.81.04-187.14.21 256.84.5-111.65.01-3.03.07 105.9.14-230.78.54 52.02.01-7.44.02-41.2.14 213.69.59-43.11.01-7.13.11-150.58.15 187.5.49-74.64.01-8.91.06 74.82.15-165.36.54 32.96.01-.89.02-26.95.43 143.27.3-13.22.01-2.59.12-117.57.15 120.78.48-30.15.01-6.64.09 34.65.12-110.49.54 12.83.01-.72.02-11.31.17 106.04.56-8.68.01 2.94.12-93.17.47 103.1.16-45.03.01.71.47-56.33.22 110.49.06-110.41.01-1.2.5 115.8.12-116.47.13 76.96.01 6.06.59 43.07.14-136.06.02 36.65.01 6.19.54-50.68.15 155.79.06-139.04.01-1.3.5 147.55.13-172.62.12 119.67.01 10.29.59 55.27.14-190.31.02 54.69.01 9.76.25-66.63.43 203.13.07-189.46.01 4.55.34-20.62.15 211.54.26-48.85.01 11.62.58 41.42.07-215.29.1 90.32.01 5.12.68 126.35.06-229.85.01 12.2.01 6.86.48 212.93.07-236.84.2 215.42.01 8.59.29 14.88.35-244.02.11 119.67.01-4.36.1 128.04.63-245.66.02 34.29.01 5.26.19 204.37.07-244.19.49 241.34.01 1.52.63-247.27.12 118.91.01-5.96.44-114.51.22 250.96.09-203.53.01 3.43.18 198.01.07-246.95.5 243.48.01-4.55.06-236.44.49 242.28.2-139.58.01-3.74.08 142.43.06-238.58.61 47.38.01-1.11.17 183.22.35-228.07.23 200.01.01-10.86.04-188.35.22 217.92.49-112.72.01-.22.07 110 .07-210.52.61 44.36.01-2.28.17 158.55.06-197.6.52 164.02.01-9.97.04-148.62.22 180.68.49-78.16.01 2.05.07 70.19.06-168.66.62 33.76.01-1.78.17 124.79.06-145.9.52 128.57.01-5.83.05-114.06.22 127.78.48-42.54.01-1.64.08 35.4.07-109.11.6 14.61.01-.05.02-10.11.16 95.53.57-4.05.01-1.96.12-87.82.16 88.62.47-18.03.01-3.08.09 17.55.12-82.75.54 15.81.01-.84.02-10.02.17 71.7.56-3.83.01.49.12-64.45.47 67.92.16-33.89.01-1.43.51-29.57.18 72.02.06-53.58.01-.53.5 57.05.12-76.87.13 57.81.01 2 .59 23.07.12-90.45.04 28.63.01-.04.52-32.29.17 103.01.06-72.68.01.58.49 79.05.13-114.5.13 92.54.01 4.5.59 23.47.12-126.17.04 41.15.01 2.14.52-46.45.16 141.8.07-114.01.01.27.48 120.51.13-155.74.14 143 .01 5.48.14-148.84.44 161.54.17-93.22.01-.13.51-67.74.15 168.43.09-146.83.01.31.32-24.85.15 176.63.28-.94.01.49.28.67.12-176.41.35 74.07.01-1.78.09 102.07.41-171.51.25 11.09.01-1.29.18 160.6.35-173.51.22 165.49.01-6.9.27 13.27.35-173.69.13 77.18.01.18.08 96.2.06-173.43.61 10.25.01-.89.17 157.79.07-161.62.51 139.04.01-8.95.26 26.9.41-156.59.08 79 .01 1.7.07 74.42.41-156.1.27 2.63.01-.81v-.49l.17 149.02.58-32.29.01-8.5.09-104.17.17 134.72.49-52.29.01.85.07 47.47.11-129.06.57 2.45.01.49.17 116.02.58-11.41.01-3.25.08-92.81.19 97.67.48-27.97h.01l.08 20.62.42-88.36.25 11.22.01.14.18 71.21.42-83.6.15 80.17.01.27.12-79.68.63 50.95.01.13.1 24.28.12-72.02.53 35.94.01-2.62.03-30.65.16 63.87.56-4.54.01.98.13-55.01.47 58.48.15-48.81.01.93.53-9.88.16 60.65.06-12.96.01-3.56.54 17.68.1-65.29.11 49.93.01 1.87.35 20.08.4-81.32v1.34l.01 1.11.56-6.32.17 91.83.02-15.14.01-4.01.54 23.56.12-103.73.09 76.65.01 2.54.63 30.02.12-113.79h0l.01.4.56-4.28.17 122.74.02-29.21.01-5.66.53 40.08.13-132.36.09 99.01.01 1.73.63 34.39.12-137.58.01-.66.57-1.47.15 140.69.03-41.73.01-6.06.25 47.92.41-141.45.09 106.4.01.31.19-108.09.15 144.52.41-143.72.01-.13.15 144.3.13-145.15.47 105.51.01-6.15.09-99.13.16 146.39.5-46.01.01.4.06 44.09.41-143.27.28 1.43.01-.14.72 143.41.03-39.59.01-6.15.09-94.42.16 139.13.5-58.61.01.76.05 55.36.14-131.43.56 1.43.01-.58.15 127.33.6-26.01.01-3.07.1-94.2.15 114.06.5-49.97.01 1.02.06 42.63.14-104.17.55 9.88.01-1.42.6-8.24.15 101.18.01.58v.18l.12-100.38.63 46.31.01 2.32.51-48.86.16 101.1.08-66.54.01-4.14.48 69.52.14-99.05.13 92.68.01 2.23.14-95.22.16 99.9.45-81.77.01 2.89.25-19.28.46 96.42.04-33.98.01-4.72.06-57.5.46 97.31.23-19.77.01 1.96.05 17.68.12-94.51.58 1.56.01.72.15 91.47.12-92.9.48 79.01.01-2.45.53 13.76.14-89.65.08 65.96.01 1.78.06 21.69.13-89.3.56 1.61.01-.67.58-1.52.14 87.96.03-9.48.01-1.65.25 11.27.43-89.7.07 60.52.01 1.61.06 26.85.14-88.8.55 9.22.01-1.92.16 79.5.14-85.73.45 76.64.01-1.51.11-73.26.43 82.79.21-33.54.01 1.3.21-50.69.42 83.24.12-73.13.01-2.45.02-7.12.14 82.66.59-5.93.01-1.42.11-73.62.15 79.99.49-44.58.01 1.33.07 42.45.14-77.1.54 19.82.01-3.11.02-15.28.15 74.42.58-2.85.01-.62.12-67.61.44 68.76.19-56.51.01 1.82.08 54.11.14-65.33.53 27.08.01-3.34.51 42.04.13-69.03.11 62.79.01.32.62 8.68.13-75.89v.85l.01.84.56-4.14.15 81.28.04-24.54.01-2.94.52 28.91.14-86.45.09 65.25.01 1.29.62 21.2.13-89.92.01-.62.57-1.3.15 93.66.03-7.66.01-1.87.53 9.76.14-95.85.08 64.23.01 2.58.34 29.61.15-96.77.26 8.19.01-2.18.59-9.22.14 100.56.02-2.85.01-1.02.54 4.72.15-103.1.06 63.33.01 3.61.07 35.94.43-104.4.25 22.01.01-3.61.17 85.82.14-106.22.44 102.57.01-.94.54 4.68.15-108.05.06 60.62.01 4.32.35 45.16.15-110.81.25 24.58.01-3.91.6-22.98.13 113.7.02-4.1.01-1.11.53 5.38.16-117.84.06 73 .01 4.9.5-80.08.12 122.79.13-95.45.01-4.54.59-24.8.13 127.41.03-5.25.01-1.12.4-123.36.15 132.76.2-54.69.01 6.15.21-82.88.44 133.78.1-118.38.01-3.56.02-10.51.73 135.7.01.05.11-132.41.17 132.59.47-70.33.01 4.77.09 62.66.11-119.4.55 16.21.01-2.4.01-6.15.18 105.24.56-5.03.01.17.06-43.64v-3.88l.07-44.4.15 88.54.49-52.2.01 3.74.06 44.32.17-81.37.52 18.88.01-1.64.04-14.52.11 70.59.6-9.18.01-.35.14-54.65.61 20.26.01 1.74.12 27.21.12-41.37.51 22.85.01-1.52.05-15.9.17 33.31.53-3.65.01.14.05 2.18.1-25.25.01.09.01.04.07 8.11v1.29l.1 15.09.43-25.56.22 8.06.01-.89.49 18.26.14-27.7.12 25.3.01.66.15-26.41.44 29.67.16-24.01.01.94.12 22.84.12-28.72.51 14.16.01-.94.06-12.06.44 26.67.25-2.54.01.45.58 2.4.13-26.98.04 6.23.01.8.24-6.9.43 27.3.08-15.72.01-.94.05-10.64.14 27.3.56-.94.01.23v.31l.14-24.14.61 3.65.01.54.09 18.48.44-21.38.22 7.8.01-.58.05-7.13.14 20.53.56-1.78.01.22.16-17.81.59 2.31.01.09.09 13.59.17-13.94.49 5.61.01-.09.07-4.23.09 10.42.59-.98.01-.13.18-7.75.07 7.79.5-6.28.01.05.06 5.56.69-3.43.01-.09.51-2.13.21 4.85.03-2.54.01-.4.23 2.76.38-5.43.14 4.23.01.18.41-5.35.12 5.97.12-2.27v-.22l.62-4.01.13 7.17v-.13l.01.13.15-7.04.07 5.97.01.36.2-6.37.38 7.62.17-6.95h.01l.39 7.39.12-4.85.01-.23.33-2.54.12 8.07.3-.94.01-.13.12-7.08.12 7.52.51-4.18.01.08.07 3.26.44-6.02.24 2.01.01-.22.42 4.49.16-6.28.08 3.03v.22l.21-3.91.11 8.19.43-7.57.01-.27.15 7.53.61-3.92v-.22l.54 4.41.14-8.38.05 4.01v.18l.09 4.59.13-8.73.27 1.24.01-.13.01-.76.13 8.11.61-1.96.01-.22.4-4.9.14 6.14.21-1.33.01.04.05.94.06-5.7.27 1.91v-.31l.02-1.87.17 5.48.26-.18.01.4.01.49.68-6.37.06 1.29.01-.35.08 5.61.14-7.26.53 4.94.01-.31.05-3.38.44 6.1.26-2.59.01.49.02 2.81.15-7.62.58.27.01.63.13 6.81.43-8.28.19 2.85.01-.32.2 4.64.15-7.26.27 1.64v-.62l.17 6.33.14-7.26.44 5.74.01-.09.5 2.01.14-7 .11 3.08.01.4.02 3.56.15-6.28.58.36.01.04.27-.53.42 6.59.06-2.45.01-.13.09-3.97.11 5.93.55-2.99.01.09.31 2.18.42-4.27.02 1.11.01-.13.25-1.38.45 4.41.07-2.45.01.08.07-2 .15 4.45.53-1.06h.01l.23-2.9.05 3.3.47-2.32.01-.04.04-.89.66 3.11.08-.93.01-.4.39-1.65.19 3.12.17-1.61h.01l.35-2.31.13 4.41.15-3.74v-.36l.47 4.19.13-3.08.01-.49v-1.07l.25 4.68.5-2.09.01-.45.59-1.87.15 4.01.02-1.47.01-.31.57 2.49.16-5.34.02 2.85.01.53.12 2.1.15-4.77.43 3.07v.27l.22.22.16-3.6.4 2.04v.23l.19-1.21.15 2.41.37-2.05.01-.13.31-.8.4 3.2.04-2.67.01-.09.23 3.3.48-3.74.04 1.6.01-.14.23-1.82.08 3.47.44-1.07v-.44l.36-2.58.06 4.32.22-4.06.01-.13v-.27l.16 4.77.59-1.38.01-.09.39-2.14.07 2.85.29-.94.01.09.72.49.03-2.27.01.18.01-.13.04 2.58.7-1.16.01-.09.48 1.52.19-2.76.08 1.78h.01l.23-1.96.45 2.76.09-1.69v.26l.08-1.6.15 3.39.52-2.01.01-.04.06 1.29.34-2.01.35 1.38h.01l.28-2.09.34 3.52.09-.36.01-.09.05-3.65.05 4.81.65-1.42.01-.63.03 1.34.68-3.34.04 1.65.01.18.01 1.29.47-3.08.27 1.43.01.36.05-1.83.12 2.85.58-1.92.01.27.52-1.07.16 3.25.07-1.69.01.18.43 1.87.33-4.32.02 1.43.01.08.37-1.02.36 3.3.02-1.47.01-.05.12-2.27.07 4.19.55-2.01v.23l.38 1.38.07-2.72.28 1.07v-.31l.25 1.91.15-3.29.37 1.91v-.18l.12-1.64.52 3.25.06-2.36V229l.11-.53.06 3.51.58-2.4.01-.14.37-1.29.37 3.48.01-.27.01-.09.24-2.76.16 2.98.35-2.4.01-.05v-.53l.05 3.25.7-1.42.01-.14.1-2.18.2 3.25.45-1.38.01.22.03-1.51.68 2.76.04-1.2h.01l.29-1.12.12 2.23.34-2.18.01.27.35 2.31.05-3.47.35 2.98.01.09.66-2.27.09.93.01.09.39 1.38.06-2.44.3.89.01.17.23 1.43.09-2.49.43 1.11.01.22.02.58.14-1.51.59.71.01.04.45 1.07.17-2.63.11 1.61.01.31.04.8.15-1.96.53 1.47.01.22.11.23.52-2.19.12 1.07.01-.22.25 1.51.06-2.31.42 1.2.01-.13.42 1.29.16-2.54.17 2 .01-.26.63.18.08-1.7.02.98.01.14.23-1.34.17 2.18.3-.44v.09l.01.26.36-1.64.34.71.01-.14.18.85.14-1.47.42.62.01.05.48-.71.24 1.56.03-.72h.01l.24.54.47-1.21.04.09.01.18.21-.22.56 1.34.01-.18.01-.09.13-1.12.07 1.16.57-.71v.09l.09.71.15-1.38.47.94.01.17.09.05.5-.98.11.8.01.05.19.26.16-.98.38.58v.18l.33-.67.33.71.1-.31.01-.04.31-.45.35.8.1-.4.01-.04.04-.36.46.98.27-.84v.17l.24-.17.24.71.28-.54.01.05.39-.27.14.8.24-.31v-.09l.21.23.45-.54.09.22.01.05.21-.27.45.62.09-.35v.04l.09-.4.15.63.5-.14.01.05.26-.49.12.58.38-.27v.13l.16-.44.15.58.45-.23v.05l.27.18.38-.54.1.27.01-.05.18-.22.06.54.51-.23v-.18l.09-.08.57.4.17-.32h.01l.15-.08.59.35.03-.22.01-.09.3.45.21-.54.24.18.01-.05.84.32.01-.14.27.23.53-.36.05.09v.04l.31.23.49-.41.02.14v.04l.38-.26.11.49.27-.45v.09l.2-.27.22.85.33-.45v-.09l.22-.66.07 1.2.41-.8.01-.14.49 1.65.2-2.58.09 1.51v-.04l.43 1.16.22-3.43.12 1.29.01.31.5 3.12.14-5.88.11 2.63.01.44.49 4.81.16-8.46.1 3.25.01.4.46 4.32.17-9.84.12 5.88.01-.14.49 5.88.19-11.93.07 4.41.01.49.45 8.01.19-14.34.11 7.17.01-.09.3-8.55.18 18.35.09-9.93.01-.76.46-11.35.18 25.83.11-13.99.01-.62.46-17.28.17 37.68.12-24.01.01-.62.49-20.58.18 53.8.08-31 .01-1.24.47-34.83.18 77.89.1-57.58.01-1.65.47-24.18.2 94.46.08-73.8.01-3.16.47-32.07.2 116.73.08-99 .01-2.36.47-24.99.2 137.04.08-118.55.01-2.32.47-26.41.19 157.48.09-140.02.01-1.29.47-24.23.18 170.08.1-154.18.01.45.46-26.5.18 186.2.11-169.68.01 1.47.26 168.75.2-190.89.29 18.53.01 1.78.46-24.98.17 199.92.12-183.8.01 2.09.46-17.81.17 200.95.12-184.74.01 2.72.08-19.51.54 203.93.13-190.21.01 2.98.07-18.57.17 207.23.51-189.1.01 3.6.45-21.24.16 208.34.14-194.31.01 4.85.07-17.59.16 206.43.52-189.46.01 4.32.07-21.02.16 203.17.52-186.43.01 3.66.23 183.53.22-206.69.3 19.06.01 4.54.07-24.14.6 207.54.08-188.21.01 5.43.44-27.74.23 214.66.08-186.25.01 5.39.06-33.71.6 216.93.09-185.31.01 5.79.44-38.3.22 221.34.09-187.72.01 6.15.43-40.22.23 225.18.09-182.02.01 5.61.43-51.84.23 230.38.09-183.53.01 5.3.43-54.91.22 234.03.1-176.76.01 3.65.05-62.17.6 238.62.1-176.85.01 2.99.04-65.29.6 238.44.11-171.6.01.63.42-68.99.22 245.04.11-173.25.01-.8.41-72.15.22 248.78.12-176.81.01-5.65.4-68.05.22 253.85.13-196.49.01-8.02.4-52.64.22 258.67.13-215.96.01-9.66.39-38.35.22 271.49.14-250.56.01-7.97.22 261.29.16-275.05.37 5.97.01-5.35.59 277.24.16-281.38v.31l.01 3.88.59 281.51.15-288.46.01 14.16.01 12.21.2 266.94.16-293.8.39 72.42.01 19.9.57 205.8.15-297.99.03 122.88.01 19.64.18 154.85.16-294.87.41 173.69.01 10.95.18 105.73.53-292.11.04 199.83.01.72.54 95.79.15-299.9.06 188.12.01-13.05.31-176.45.22 302.49.22-161.76.01-17.63.14 174.89.45-299.64.16 74.11.01-10.51.21-66.01.29 304.14.25-260.27.01 1.65.49 262.27.08-307.3.18 54.2.01 11.09.1 243.08.46-311.44.19 109.11.01 19.29.46 182.29.09-316.43.2 182.86.01 21.2.45 116.91.09-326.85.21 269.44.01 8.86.44 50.06.08-335.13.23 286.77.01-2.1.05 50.86.46-337.98.24 280.04.01-3.61.04 53.8.09-335.49.62 278.75.01.32.4 57.27.09-338.39.26 308.51.01 8.19.39 22.67.09-346.62.27 337 .01 3.52v1.6l.47-346.62.28 335.04.01-4.59.45-330.45.28 340.48.02-24.45.01-4.41.44-316.7.28 343.02.03-27.17.01 2.72.05-316.48.28 345.78.42-62.44.01-13.27.04-261.52.65 342.84.06-122.78.01-19.33.03-196 .65 343.32.07-219.25.01-23.51.29 246.64.27-340.39.19 55.62.01-16.65.54-46.01.11 347.7.1-322.58.01 4.63.53-36.56.11 356.78.11-294.88.01 10.78.52-75.09.11 360.92.12-244.54.01 11.22.13-125.28.48 366.71.14-222.55.01 3.21.22 212.21.27-358.56.26 143.41.01.18.11-133.79.1 345.51.54-203.71.01 3.83.2 204.56.27-367.82.28 189.99.01 10.82.46-200.06.1 372.5.19-136.95.01 8.42.07-241.52.48 366.22.2-99.31.01 3.34.06-270.43.1 372.24.59-102.79.01-4.5.42-260.14.11 363.42.22-119.67.01-15.54.41-229.5.11 371.39.23-211.9.01-27.44.02-133.78.11 368.84.62-293.4.01-22.98.38-52.51.11 370.05.26-364.97.01-5.39.48 372.72.27-355.4.01 13.63.09 338.97.27-359.63.39 100.16.01 19.33.34-107.87.11 346.62.3-174.84.01 8.9.42 175.3.09-360.88.24 285.61.01 14.92.11-315.76.63 391.56.01-24.4.01-6.46.07-334.47.27 361.1.41-219.12.01-24.14.02-81.59.3 268.2.43-191.19.01 5.52.59 180.15.08-273.99.08 148.8.01 18.97.54 151.2.09-358.43.12 189.59.01-24.76.14 195.56.08-350.9.53 95.31.01 10.2.17-76.87.27 299.15.31-130.99.01 7.58.04 124.74.43-277.06.28 267.22.01-2.63.58-302.67.13 307.88.04-186.34.01-21.29.18-110.98.47 344.98.1-265.48.01 14.07.6 270.69.08-347.87.07 90.85.01 11.05.2 231.94.08-338.29.47 277.06.01-21.92.03-230.34.12 266.51.6-231.55.01 10.78.45 246.82.08-306.59.22 153.74.01 1.61.05 155.6.44-333.53.26 326.72.01 3.47.24-331.88.47 361.77.04-111.16.01-22.85.31 136.73.44-348.95v11.05l.01 8.68.26 318.44.08-332.46.41 34.2.01-.94.22 269.54.23-304.85.3 282.4.01-3.16.51 41.59.24-316.25.01 4.55.47 317.9.08-342.44.2 143.63.01 5.92.08 191.28.06-337.4.6 256.08.01 15.54.38 70.81.07-342.7.3 333.75.01-3.34.4-342.88.28 343.91.07-336.7.01-9.08.28 356.87.43-364.84.04 103.1.01-6.77.22 274.47.08-378.51.45 323.78.01 10.42.17 31.22.08-335.09.5 64.4.01-10.78.15 281.03.41-329.84.19 112.5.01-.71.1 210.12.05-322 .6 273.85.01 10.6.46-298.34.27 354.82.02-19.02.01 1.96.05-339.68.66 356.2.04-338.03.01-11.13v-3.88l.3 350.73.45-315.99.01 3.43.25 287.97.1-294.78.4 282.49.01-5.21.56 19.82.06-311 .13 48.23.01-8.68.21-51.04.44 342.71.1-259.83.01-2.58.17-72.73.08 325.25.5-99.27.01 19.33.05 73.08.07-309.03.63 281.69.01 4.18.01 15.28.44-291.45.3 115.44.01-19.24.45 198.32.3-302.75.01.89.4 310.01.3-314.82.05 307.87.01 11.27.35 5.61.3-336.2.1 81.9.01-7.12.61-91.12.05 363.14.09-231.45.01-6.99.56-133.39.05 383.14.14-185.67.01 25.3.15-219.92.41 385.28.19-55.04.01 3.78.46-345.95.05 398.82.24-177.3.01-20.44.05-214 .06 416.37.64-394.59.01-4.54V30.86l.05 395.97.7-55.49.01 28.19.31-353.13.4 384.84.04-262.32.01-11.22.26-106.22.05 386.26.44-258.58.01 2.5.21-125.19.4 384.34.14-212.88.01 11 .16-178.68.05 374.64.54-92.68.01 5.97.11-276.53.41 358.12.23-190.97.01-23.38.11 208.34.63-338.57.01 10.56.01-1.29.06 325.11.62-342.39.07 236.44.01 30.02.01 76.24.27-340.12.47 147.06.01-20.27.17 207.1.41-327.34.17 46.58.01 9.84.18-58.96.09 320.08.48-154.54.01 11.53.43 127.73.21-307.56.11 255.19.01 4.41.18 44.58.05-307.66.52 145.01.01-11.09.17-106.17.06 226.2.52-84.76.01-5.07.12-121.94.2 191.19.43-74.73.01 3.87.36 91.26.08-252.16.31 216.31.01-3.61.67 61.91.07-276.04.01 21.65.01 12.82.23-27.79.19 268.55.33-189.63.01-8.91.46 243.04.07-335.9.22 238.18.01-8.99.59-209.19.16 299.59.01 2.63.07-293.27.19 295.77.49-137.8.01 4.99.31 134.05.07-293.18.37 99.01.01 5.74.46-102.52.15 273.9.14-152.23.01 6.15.11 162.33.64-279.86.01-4.19v-4.59l.41 283.74.34-213.1.01.31.31-84.66.41 302.75.03-89.2.01-11.09.51 80.7.1-269.76.14 261.83.01 7.26.07-272.96.2 295.27.48-112.81.01 4.86.38-191.38.2 317.99.17-222.77.01 3.52.36 200.37.1-289.57.29 125.01.01 5.97.12 176.49.63-310.68.01-3.79v-1.47l.43 308.06.32-260.09.01 1.38.31-54.6.43 314.47.01-62.22.01-17.99.51 48.01.1-277.42.14 241.3.01 4.19.08-235.42.2 294.74.47-119.09.01 8.55.38-191.95.2 302.49.17-186.92.01-.62.36 173.55.33-282.53.06 92.14.01 10.65.13 187.85.06-282.54.56 14.34.01-3.07.23-18.79.2 285.52.32-235.87.01-4.01.31-38.12.42 265.57.02-36.65.01-13.99.52 24.45.1-245.66.13 210.75.01 2.89.28 62.17.07-272.33.4 196.31.01 7.22.58 68.45.08-276.35.09 128.62.01.98.36 125.68.07-262.36.32 76.02.01 10.56.13 205.4.07-302.76.55 24.68.01 1.29.43 271.62.07-304.89.25 76.2.01-9.04.28-57.68.46 293.27.01-26.54.01-12.42.05-255.51.47 269.8.23-46.32.01.98.29 57.23.06-277.15.4 198.81.01 10.29.13-203.66.46 258.57.16-102.78.01 2.13.37 86.54.07-244.19.31 40.21.01 5.79.14 204.38.6-253.77.01 10.02.01 4.28.41 239.38.1-250.56.24 95.93.01-13.94.29-85.06.42 250.29.04-13.36.01-2.94.49 6.46.1-239.03.16 234.71.01-1.12.27 17.55.1-244.5.38 191.64.01.71.14-188.84.45 239.92.16-84.44.01 12.47.37 70.99.11-235.55.27 15.05.01 1.65.15 209.9.08-222.95.52 47.34.01-6.72.03-44 .09 213.46.63-121.54.01 1.65.17 109.87.11-153.03.47 69.34.01 2.1.18 77.89.14-138.95.43 81.1.01.76.51 50.46.13-136.55.11 112.85.01 3.07.55 25.26.1-146.26.1 96.69.01 5.21.56 61.68.08-171.69.11 127.56.01 4.49.55 39.06.15-167.14.05 83.99.01.98.1 82.44.15-178.01.5 98.6.01-1.02.16 86.13.08-185.63.51 101.28.01-4.14.16 99.31.45-202.55.14 138.91.01-6.32.17 79.27.14-221.61.44 173.02.01-7.35.53 62.71.15-224.64.07 141.76.01-6.15.53 84.58.16-232.3.06 118.02.01-3.7.08 113.34.6-228.6.07 84.04.01-10.15.14 164.51.15-228.65.46 63.87.01-7.57.14 176.63.15-240.05.46 43.38.01-9.85.13 194.14.15-231.81.47 63.59.01-2.36.5 178.99.15-241.29.1 51.08.01 5.61.36-32.87.13 216.27.26-181.13.01 9.85.2-60.04.29 216.8.26-155.03.01 16.39.18-80.07.3 242.81.27-152.05.01 15.45.09 131.83.63-239.83.03 121.19.01 15.59.09 118.86.45-249.58.21 137.62.01 8.77.08 93.26.46-245.26.21 182.73.01 4.14.32-184.42.13 243.61.3-65.47.01-2.98.16-172.67.28 232.66.31-64 .01-2.22.15-172.23.29 247.62.31-96.73.01-2 .05 99.58.1-244.06.6 147.15.01.27.19-145.9.23 235.28.33-115.26.01 8.02.41 118.2.1-258.18.24 165.59.01 10.55.4 77.63.15-252.92.2 202.64.01 12.02.16-203.93.23 240.05.36-6.46.01 6.1v6.19l.11-253.54.64 250.29.01 5.13v2.18l.14-265.93.61 246.69.01-.36.14-233.9.23 247.98.38-10.6.01-4.06.36 24.99.14-258.09.25 216.05.01-4.77.35 29.35.15-244.33.25 204.96.01.13.49-202.01.23 244.9.03-41.28.01-3.12.6-196.14.11 241.16.04-49.03.01-8.33.1-199.88.6 261.21.05-67.74.01-3.47.32 65.11.26-241.88.17 159.22.01-4.63.2-158.91.11 257.82.44-109.78.01-7.44.19-130.53.49 234.43.07-121.13.01-13.59.18-99.67.49 239.87.08-158.46.01-13.13.29 159.48.26-238.27.2 60.7.01-14.07.54-47.12.11 240.23.1-206.96.01-4.63.16-28.06.11 241.92.48-218.81.01.89.15-35 .11 245.53.49-195.69.01 2.13.49-49.88.11 254.26.15-169.46.01 8.15.66-131.11.08 327.74.01-28.24.01-19.33.26-277.64.08 343.69.41-278.8.01-3.87.21-41.46.09 295.05.45-226.56.01 5.66.51-59.95.09 254.53.15-12.79.01-.22.55 42.71.06-311.84.14 220.36.01-1.91.2-215.33.45 329.21.1-305.07.01-4.72.26 295.98.46-329.34.03 86.98.01 2.27.4 248.73.06-340.39.29 330.82.01 10.86v3.03l.06-330.28.69 55.9.01-14.08.66 272.12.06-313.94.03 74.2.01 8.42.31-103.46.3 363.41.14-41.15.01 5.17.21 37.59.06-346.54.48 271.49.01 2.14.42-258.04.09 302.35.24-190.97.01-12.64.47 220.23.05-342.44.23 78.87.01-3.03.06 268.24.41-328.05.28 189.15.01 30.37.42-230.38.3 351.07.03-235.37.01-27.35.02-94.86.3 360.21.43-325.69.01 2.98.23-7.12.04 305.38.48-97.89.01 13.98.58 100.39.05-334.96.12 246.82.01-1.69.17 92.77.06-337.67.52 188.16.01-6.23.12 126.39.62-290.29.01 1.43.01 1.51.43 310.2.05-339.1.27 94.19.01 29.8.08-122.52.3 348.05.37-128.44.01-29.22.62-185.89.07 355.44.06-329.35.01 5.26.28 317.05.3-369.96.17 172.18.01 20.93.18-190.53.05 360.43.52-81.41.01-4.67.48-244.55.06 312.69.21-93.84.01-6.86.44-231.54.06 354.77.25-238.27.01-26.32.04-89.2.06 353.7.65-337.45.01 1.96.05 304.58.64-309.34.06 274.03.01 12.11.36 11.22.28-302.66.11 52.1.01-15.94.23-39.01.08 296.12.44-260.23.01 6.99.27 247.27.28-299.11.2 216.32.01 5.34.14-223.57.08 285.61.53-37.01.01 5.03.03 21.51.07-262.36.65 235.95.01-7.21.32 40.13.23-243.17.2 6.5.01-7.04.36-9.3.27 252.96.12-179.61.01 7.39.1-56.29.14 211.45.51-104.57.01-1.82.06-83.6.12 181.75.57-150.66.01-4.1.01-10.37.12 134.49.62-68.45.01 3.88.08 51.66.24-121.18.43 74.46.01 2.09.59-78.38.16 150.98.01.4.18-160.6.54 175.52.03-29.17.01-1.07.47-167.77.19 218.14.09-163.32.01-5.7.07-47.69.18 222.85.5-115.83.01-7.75.34 57.67.41-121.23v1.21l.01 2.09.15 144.83.6-144.7.01-.44.12 120.82.63-172.48.01-1.96.4 236.13.33-255.6.02 85.91.01 17.15.22-109.29.14 278.71.39-145.64.01 10.96.2-140.38.39 276.61.16-135.34.01 1.42.33 137.35.11-301.82.31 178.99.01.98.42-192.97.15 352.95.18-208.92.01 1.2.3 200.9.1-311.62.35 151.34.01 12.47.04 142.51.35-282.76.36 201.57.01 13.01.02 63.68.61-296.65.12 250.38.01 9.84.51 62.62.1-322.08.14 282.85.01 5.56.5 25.97.07-309.35.18 282.05.01-1.47.24 31.04.31-304.14.2 279.42.01-2.98.23 31.31.08-306.1.44 258.84.01-11.58.29-253.99.44 288.02.02-70.59.01-17.41.04-205.36.43 292.69.28-139.98.01-19.64.21 156.28.32-288.68.22 132.18.01-16.21.2 184.42.08-311.3.47 140.15.01-18.84.27-103.01.43 277.1.05-207.71.01-14.48.01-39.72.43 248.29.31-206.65.01-7.26.43 218.89.08-237.86.24 45.91.01-4.63.19 184.65.1-229.85.46 34.38.01-6.81.16 201.34.09-235.28.5 9.35.01-4.63.53-7.44.15 235.87.07-231.28.01-2.05.42 241.48.08-245.4.25 13.72.01 1.02.16 243.57.1-262.45.49 23.52.01-.49.15 242.67.1-267.57.5 2.54.01-.31.65 279.5.1-256.48.01 7.04.39 232.52.09-294.34.27 89.74.01 4.19.13 175.83.09-234 .53 39.24.01 2.98.21-42.97.42 241.78.12-183.71.01 2.76.31-52.1.09 201.39.35-74.47.01-1.24.23 44.27.09-117 .43 38.26.01-3.48.41-39.77.08 113.61.26-99.53.01-1.3.11 119.63.09-150.89.55 31.53.01-1.87.24-34.38.49 155.21.02-43.03.01-8.1.27-142.87.09 243.08.39-.63h.01l.3-260.4.1 276.84.35-142.74.01 15.01.53-174.14.1 336.6.12-307.7.01 8.87.56-41.24.1 333.3.09-318.25.01-6.81.01-9.49.69 352.81.05-228.69.01-11.44.04-131.92.3 381.54.41-91.3.01-17.68.27-270.07.3 374.2.18-18.22.01 4.86.4 23.87.11-379.27.24 155.96.01 18.89.04 199.83.7-375.53.01 15.05.01 7.62.37-23.69.3 377.35.08-338.61.01-8.1.01-21.47.7 364.62.04-204.11.01-15.1.54 225.93.1-376.77.11 340.52.01-13.36.09-325.65.48 373.48.18-70.9.01 14.92.51-321.51.1 378.43.14-271.05.01 14.88.64 259.15.11-371.47v3.42l.01 4.86.19-8.24.49 363.64.07-292.2.01-9.94.23-70.45.09 382.92.43-184.83.01-14.2.36 196.45.1-376.78.29 362.35.01-1.61.39 19.02.11-368.49.25 171.11.01 17.5.03 166.7.71-347.74.01 19.64.01 7.88.07 315.1.11-349.39.57 67.96.01-8.37.11 285.34.11-327.96.53 162.56.01-12.16.06-114.42.1 249.81.59-142.61.01 10.65.58-97.27.09 198.99.08-165.72.01-9.58.44-64.26.31 297.19.01-2.63.31-317.68.1 350.5.34-290.69.01 7.75.07 272.48.11-314.56.57 56.25.01-7.62.15 200.01.09-232.25.51 117.26.01 5.21.66 125.01.09-253.05.01-5.21.43-32.25.11 330.37.21-20.84.01-11.85.08-293.93.11 326.98.56-247.71.01 11.27.07 206.51.1-263.25.58 71.92.01-7.57.58 175.79.1-230.48.07 145.1.01 11.63.03 82.3.11-237.33.61 7.25.01-2.58.42-34.74.11 299.02.22-22.27.01-7.53.62 5.04.1-259.87.03 60.92.01 7.31.07 196.76.09-268.82.59 90.9.01-8.73.57 159.08.1-213.55.08 139.26.01 9.98.57-164.96.1 254.12.08-230.56.01-4.28.66-23.73.09 258.79v-1.2l.01-4.18.1-263.48.31 275.41.34-229.32.01 3.26.5 206.11.11-230.03.14 89.65.01-7.44.06-89.87.09 225.44.6-89.92.01 6.28.46 108.49.12-262.49.17 41.06.01-3.83.65-46.5.1 285.84v-1.07l.01-4.37.1-275.05.1 279.55.55-240.27.01 3.25.4-16.88.1 219.74.25-115.3.01-10.33.05-95.67.53 212.39.17-92.1.01 7.4.37-139.4.29 251.18.09-225.39.01-4.68.03-27.79.3 253.72.42-9.35.01-5.84.1-221.47.1 234.92.55-228.78.01 2.85.2-1.73.51 208.74.04-107.34.01-11.13.5-115.13.08 249.18.17-88.58.01 8.51.03 75.66.13-231.36.59 12.56.01-.4.24-15.32.09 227.44.42-17.99.01-4.5.62 25.74.13-236.97.01 1.38.2-.58.08 247.53.47-133.92.01-13.45.24-101.67.12 247.08.39-75.35.01 9.62.02 62.35.31-221.12.42 11.53.01 2.45.53 194.04.14-236.13.08 222.28.01-.53.33-228.16.28 258.31.14-251.54.01 1.74.2-8.78.07 274.97.48-162.29.01-13.05.08-84.44.28 246.19.39-75.04.01 9.49.02 49.48.57-234.17.16 53.04.01 2.49.52 182.73.15-259.95.08 237.69.01-.49.12-237.6.49 266.32.14-255.37.01 5.08.2-3.61.07 254.44.48-131.3.01-11.13.35 123.54.36-235.73.04 189.68.01 8.69.58-224.38.08 288.95.09-279.41.01-1.52.02-8.91.48 300.44.25-157.92.01-5.48.05-100.34.1 215.6.6-160.2.01-4.4.21-39.2.11 189.06.43-116.77.01-4.41.61 139.75.11-212.17.03 26.63.01 4.86.09 163.85.08-167.15.58 8.6.01 2.76.23-40.48.12 216.75.4-162.82.01 12.16.09 129.78.65-201.98.01 18.53.01 9.22.1 218.67.11-263.07.54 103.86.01 9.84.6 127.73.11-236.4.04 76.29.01 8.33.09 153.56.12-244.28.54 158.5.01 8.15.45-179.17.14 276.62.16-91.79.01 15.77.07 72.32.11-267.57.57 173.38.01 5.39.57 99.76.12-291.4.06 238.44.01 1.92.58 25.7.11-241.61.06 177.92.01-5.43.06 97.62.37-293 .32 227.89.01-5.12.56 72.95.11-281.56.08 201.48.01-.8.05 65.24.12-260 .58 147.91.01-2.45.3 131.78.1-272.07.35 157.39.01-.54.14-140.19.15 226.37.46-104.57.01 6.19.28 114.15.11-258.53.36 164.56.01 6.99.53 72.01.11-228.2.11 180.55.01 12.65.02 52.06.11-266.19.62 182.06.01 10.16.51 68.54.12-246.69.12 222.68.01 7.57.01 7.22.11-237.78.63 213.15.01 5.79.5 41.69.11-279.47.14 245.22.01-2.1.61-216.49.14 244.86v-4l.01-4.86.24 22.22.11-283.56.4 220.1.01-13.23.6-189.72.14 257.73.01-47.61.01-17.1.09-210.97.13 257.6.53-80.61.01-16.17.47 109.07.12-256.84.16 121.09.01-16.3.07-99.93.65 240.4.03-123.32.01-13.58.21 151.78.36-256.09.18 54.16.01-9.62.05-27.92.66 234.43.04-187.85.01-5.79.19 194.49.11-265.39.45 45.03.01-.41.55-27.16.14 241.16.06-206.29.01-1.47.04-46.45.14 239.56.57-184.6.01-1.96.43 198.32.11-245.67.21 20.76.01-1.47.02-16.26.65 236.53.08-209.45.01-1.74.16 225.53.11-249.22.48 20.49.01-.09.51-18.66.15 255.9.09-247.71.01-2.58v-1.29l.4 243.34.35-228.87.01-1.16.64 243.57.11-261.83.01.49.64 251.68.11-236 .01 1.78.13 249.76.11-261.07.51 26.19.01 5.52.63 223.21.11-255.14.01 23.42.01 10.11.11 221.04.11-246.51.53 46.94.01 10.78.61 195.2.11-258.89.03 72.59.01 11.45.1 169.01.36-246.73.29 84.27.01 10.55.35 159.17.11-269.13.29 129.65.01 10.6.09 120.91.11-251.67.55 136.23.01 6.95.58 116.2.11-265.3.06 172.35.01 4.32.58 83.64.11-258.36.06 152.99.01-1.43.07 114.59.11-264.99.57 154.59.01-5.44.56 116.42.11-265.26.08 148.71.01-6.68.05 114.95.08-254.3.62 114.45.01-6.59.41-105.5.14 262 .2-149.46.01-1.92.1-115.7.45 261.6.2-160.33.01 3.26.04 168.97.32-275.99.39 121.49.01 9.84.09-121.67.45 255.86.21-123.14.01 15.05.02 114.68.32-268.77.41 168.25.01 17.6.52 83.81.07-261.2.16 201.97.01 15.1.01 36.12.06-263.66.68 106.89H821" vector-effect="non-scaling-stroke" fill="none" stroke="#636efa" stroke-width="2" stroke-miterlimit="2"/></g><text y="553" style="white-space:pre" x="50" class="B C D E">0</text><text y="553" style="white-space:pre" x="206.67" class="B C D E">50k</text><text y="553" style="white-space:pre" x="363.34" class="B C D E">100k</text><text y="553" style="white-space:pre" x="520.02" class="B C D E">150k</text><text y="553" style="white-space:pre" x="676.69" class="B C D E">200k</text><text y="553" style="white-space:pre" x="833.36" class="B C D E">250k</text><text x="49" y="522.83" style="white-space:pre" class="B C D F">−1</text><text x="49" y="408.55" style="white-space:pre" class="B C D F">−0.5</text><text x="49" y="294.27" style="white-space:pre" class="B C D F">0</text><text x="49" y="179.99" style="white-space:pre" class="B C D F">0.5</text><text x="49" y="65.71" style="white-space:pre" class="B C D F">1</text></svg>