<?xml version="1.0" encoding="UTF-8"?>
<svg width="921px" height="590px" viewBox="0 0 921 590" version="1.1" xmlns="http://www.w3.org/2000/svg" xmlns:xlink="http://www.w3.org/1999/xlink">
    <!-- Generator: Sketch 53.2 (72643) - https://sketchapp.com -->
    <title>Group 7</title>
    <desc>Created with Sketch.</desc>
    <defs>
        <rect id="path-1" x="0" y="0" width="821" height="480"></rect>
    </defs>
    <g id="Page-1" stroke="none" stroke-width="1" fill="none" fill-rule="evenodd">
        <g id="Group-7">
            <g id="audio_syrinx">
                <rect id="Rectangle" fill="#FFFFFF" fill-rule="nonzero" x="0" y="0" width="921" height="590"></rect>
                <rect id="Rectangle" fill="#E5ECF6" fill-rule="nonzero" x="50" y="60" width="821" height="480"></rect>
                <g id="Group">
                    <g transform="translate(50.000000, 60.000000)" fill="#000000" fill-rule="nonzero" id="Path" stroke="#FFFFFF">
                        <g transform="translate(156.000000, 0.000000)">
                            <path d="M0.67,0 L0.67,480"></path>
                            <path d="M157.34,0 L157.34,480"></path>
                            <path d="M314.02,0 L314.02,480"></path>
                            <path d="M470.69,0 L470.69,480"></path>
                            <path d="M627.36,0 L627.36,480"></path>
                        </g>
                        <g transform="translate(0.000000, 1.000000)">
                            <path d="M0,457.63 L821,457.63"></path>
                            <path d="M0,343.35 L821,343.35"></path>
                            <path d="M0,114.79 L821,114.79"></path>
                            <path d="M0,0.51 L821,0.51"></path>
                        </g>
                    </g>
                    <path d="M50,290.07 L871,290.07" id="Path" stroke="#FFFFFF" stroke-width="2" fill="#000000" fill-rule="nonzero"></path>
                    <g id="Clipped">
                        <mask id="mask-2" fill="white">
                            <use xlink:href="#path-1"></use>
                        </mask>
                        <g id="Rectangle"></g>
                        <g id="Group" mask="url(#mask-2)">
                            <g transform="translate(50.000000, 84.000000)">
                                <g>
                                    <polyline id="Path" stroke="#636EFA" stroke-width="2" points="0 209.32 0.26 170.17 0.41 241.16 0.75 225.13 0.76 225.17 1.3 225.98 1.44 174.98 1.51 199.34 1.52 201.61 1.61 241.56 1.79 164.16 2.27 217.92 2.28 218.72 2.76 232.75 2.97 171.69 3.03 199.61 3.04 202.33 3.13 240.72 3.31 164.83 3.79 199.34 3.8 200.81 4.33 243.17 4.5 154.41 4.55 186.43 4.56 189.01 4.66 250.52 4.88 164.43 5.31 189.72 5.32 191.82 5.85 250.11 6.02 150.75 6.07 170.48 6.08 171.64 6.41 144.56 6.58 261.47 6.83 172.22 6.84 174.85 6.96 258.8 7.54 149.11 7.59 151.96 7.6 152.71 7.76 271.14 7.92 135.57 8.35 153.69 8.36 155.61 8.48 268.95 9.1 140.6 9.11 142.47 9.12 143.58 9.48 133.3 9.67 276.79 9.87 138.02 9.88 139.31 10.05 276.12 10.22 132.14 10.63 135.97 10.64 137.66 11.19 281.87 11.39 128.35 11.39 128.89 11.4 129.51 11.76 124.61 11.95 281.47 12.15 126.62 12.16 128 12.72 283.43 12.91 121.72 12.92 121.81 13.48 288.24 13.67 118.78 13.67 119.45 13.68 120.07 14.24 288.77 14.43 115.3 14.43 115.57 14.44 115.7 14.81 114.99 15 294.34 15.19 116.95 15.2 117.58 15.76 290.87 15.95 111.12 15.95 111.21 15.96 111.34 16.14 299.42 16.33 107.64 16.71 114.86 16.72 116.19 17.29 294.34 17.47 107.87 17.48 108.13 17.67 302.4 17.85 104.35 18.23 112.36 18.24 112.68 18.42 296.97 18.99 107.2 19 107.11 19.19 302 19.37 102.48 19.75 108.58 19.76 108.4 19.79 129.15 19.79 134.94 20.14 104.79 20.33 303.2 20.42 151.02 20.43 143.27 20.53 104.57 20.71 310.24 21.18 154.01 21.19 146.75 21.66 99.85 21.85 308.95 21.94 153.78 21.95 146.03 22.05 97.22 22.23 309.66 22.7 153.16 22.71 145.77 23.19 95.84 23.38 312.69 23.46 153.52 23.47 145.14 23.57 92.68 23.75 310.37 24.22 147.41 24.23 141.22 24.71 96.02 24.9 313.98 24.98 158.01 24.99 149.55 25.09 90.76 25.27 312.06 25.74 150.26 25.75 143.32 26.24 95.26 26.42 315.23 26.5 160.78 26.51 152.14 26.61 90.59 26.8 316.03 27.26 151.51 27.27 144.12 27.76 92.9 27.94 315.4 28.02 161.04 28.03 152 28.14 90.5 28.32 315.27 28.78 158.46 28.79 150.62 29.27 87.83 29.46 317.81 29.54 167.1 29.55 157.75 29.65 86.93 30.26 314.38 30.3 164.96 30.31 155.97 30.8 83.1 30.98 320.7 31.06 169.33 31.07 158.68 31.17 84.26 31.78 317.9 31.82 166.65 31.83 157.08 32.32 79.9 32.54 323.55 32.58 159.93 32.59 150.93 32.69 81.28 33.3 322.04 33.34 171.55 33.35 161.31 33.68 322.98 33.84 76.51 34.1 164.07 34.11 154.94 34.22 78.34 34.82 323.2 34.86 170.48 34.87 160.6 35.36 77.63 35.58 325.78 35.62 163.89 35.63 154.54 35.74 78.56 36.34 328.23 36.38 172.4 36.39 162.51 36.5 77.4 37.1 330.15 37.14 165.9 37.15 157.48 37.64 75.67 37.86 333.44 37.9 175.78 37.91 166.03 38.02 75.4 38.62 336.96 38.66 168.66 38.67 160.82 39.16 73.97 39.38 343.15 39.42 178.28 39.43 170.4 39.53 74.51 39.76 341.24 40.18 174.05 40.19 167.5 40.29 75.89 40.52 340.39 40.94 181.89 40.95 174.72 41.05 74.51 41.28 338.47 41.7 182.64 41.71 176.36 42.19 70.95 42.42 343.46 42.46 186.74 42.47 181.48 42.57 67.69 43.18 345.29 43.22 192.89 43.23 187.14 43.33 68.67 43.56 344.53 43.98 203.22 43.99 197.61 44.47 70.95 44.7 345.15 44.74 207.98 44.75 203 44.85 68.32 45.07 344.09 45.5 205.53 45.51 200.1 45.99 72.86 46.22 348.41 46.26 208.43 46.27 203.08 46.37 68.85 46.59 348.67 47.02 204.82 47.03 198.99 47.5 66 47.73 353.13 47.78 208.43 47.79 203.53 48.11 353.26 48.26 63.78 48.54 203.66 48.55 197.92 48.87 349.16 49.02 62.97 49.3 208.56 49.31 203 49.63 350.63 49.78 60.03 50.06 204.73 50.07 199.3 50.39 349.56 50.54 56.47 50.82 204.15 50.83 196.23 50.92 58.88 51.52 345.96 51.58 211.55 51.59 204.51 51.67 57.63 51.9 344.44 52.34 211.32 52.35 202.68 52.44 57.85 52.66 341.28 53.1 218.85 53.11 210.3 53.42 342.53 53.57 53.09 53.86 210.88 53.87 200.9 53.95 53.84 54.56 341.15 54.62 212.84 54.63 203.62 54.94 342.71 55.09 58.52 55.38 206.91 55.39 195.91 55.7 341.68 55.85 58.3 56.14 210.57 56.15 199.12 56.46 339.63 56.61 55.22 56.9 199.88 56.91 187.5 56.99 55.36 57.6 336.43 57.66 205.31 57.67 193.2 57.75 56.74 57.98 337.63 58.42 198.63 58.43 185.31 58.73 334.11 58.88 54.42 59.18 191.37 59.19 177.34 59.49 331.48 59.64 51.13 59.94 195.96 59.95 181.89 60.02 54.87 60.25 332.42 60.7 187.23 60.71 172.93 60.78 58.52 61.39 330.77 61.46 193.02 61.47 177.52 61.92 57.9 62.15 333.89 62.22 193.78 62.23 176.9 62.3 60.57 62.53 332.37 62.98 202.33 62.99 186.7 63.06 63.06 63.29 330.24 63.74 198.94 63.75 182.87 63.82 68.72 64.05 327.87 64.5 206.34 64.51 191.06 64.96 69.21 65.19 328.81 65.26 201.26 65.27 185.27 65.34 65.96 65.95 327.92 66.02 203.4 66.03 188.08 66.1 69.08 66.33 326.67 66.78 184.51 66.79 170.48 66.86 83.77 67.44 304.76 67.54 158.06 67.55 155.74 67.8 306.27 68.04 109.2 68.3 181.75 68.31 176.5 68.88 333.84 68.98 88.36 69.06 269.62 69.07 274.74 69.24 333.31 69.34 77.67 69.82 193.73 69.83 183.53 69.96 308.95 70.05 64.49 70.58 221.21 70.59 225.49 71.01 316.25 71.13 68.9 71.34 288.5 71.35 291.58 71.85 68.99 72.09 331.79 72.1 316.12 72.11 316.96 72.21 78.38 72.8 344.89 72.86 254.88 72.87 243.21 72.93 100.3 73.16 351.48 73.62 107.02 73.63 103.81 73.88 351.35 74 91.25 74.38 112.32 74.39 116.33 74.63 335.98 74.72 100.56 75.14 130.76 75.15 143.18 75.67 326.05 75.8 106.66 75.9 218.49 75.91 213.33 76.39 333.17 76.52 106.13 76.66 163.76 76.67 173.42 77.11 349.07 77.23 89.61 77.42 253.77 77.43 260.27 77.47 349.79 77.59 74.11 78.18 331.44 78.19 331.97 78.67 80.65 78.9 338.16 78.94 295.59 78.95 287.57 79.26 335.31 79.39 87.83 79.7 188.52 79.71 175.38 79.98 332.37 80.46 76.69 80.47 76.69 80.73 331.44 80.83 72.86 81.22 113.61 81.23 112.63 81.45 327.7 81.91 73.04 81.98 207.4 81.99 218.36 82.17 313.89 82.27 73.04 82.74 165.72 82.75 161.89 83.21 318.66 83.34 79.5 83.5 203.26 83.51 210.48 83.96 329.08 84.06 69.79 84.26 278.48 84.27 286.14 84.42 65.29 84.68 337.05 85.02 316.34 85.03 318.7 85.04 329.57 85.14 65.87 85.78 288.1 85.79 287.84 85.85 76.51 86.47 327.16 86.54 144.34 86.55 133.74 86.83 324.45 87.29 54.29 87.3 89.21 87.31 99.58 87.54 326.81 87.65 53.62 88.06 136.46 88.07 155.88 88.26 319.41 88.72 58.12 88.82 219.96 88.83 204.47 89.08 63.91 89.34 316.74 89.58 159.17 89.59 169.28 89.66 317.59 90.15 67.61 90.34 247.71 90.35 255.01 90.41 316.25 90.87 61.99 91.1 295.54 91.11 293.49 91.12 313.8 91.23 65.6 91.86 291.09 91.87 295.27 91.88 308.5 92.3 67.74 92.62 233.24 92.63 217.96 93.1 312.2 93.37 54.02 93.38 63.73 93.39 71.84 93.82 316.52 94.09 50.68 94.14 87.02 94.15 101.99 94.18 317.54 94.45 55.14 94.9 289.62 94.91 274.43 95.16 53.13 95.61 306.5 95.66 148.62 95.67 160.06 96.24 51.08 96.33 311.31 96.42 248.11 96.43 255.06 96.95 40.22 97.04 320.26 97.18 278.08 97.19 269.53 97.31 46.27 97.61 329.92 97.94 265.26 97.95 278.17 97.97 330.19 98.38 52.33 98.7 242.45 98.71 224.42 99.31 327.65 99.45 47.97 99.46 60.39 99.47 72.15 99.81 46.9 100.11 330.15 100.22 101.63 100.23 122.43 100.74 327.65 100.89 54.33 100.98 294.61 100.99 277.82 101.24 46.58 101.46 332.55 101.74 136.46 101.75 148.88 102.17 344 102.31 45.34 102.5 251.5 102.51 259.65 102.53 344.09 103.03 39.77 103.26 277.46 103.27 265.66 103.39 43.16 103.96 347.11 104.02 252.65 104.03 267.53 104.1 51.35 104.68 354.15 104.78 233.59 104.79 207.23 105.39 359.05 105.53 45.12 105.54 77.05 105.55 84.17 105.75 352.95 105.89 40.75 106.3 147.55 106.31 174.85 106.46 352.95 106.6 45.34 107.06 228.92 107.07 198.63 107.18 357.54 107.32 48.37 107.82 141.85 107.83 158.86 108.25 356.2 108.39 42.58 108.58 297.63 108.59 307.7 108.75 50.41 108.96 362.92 109.34 272.87 109.35 264.5 109.46 53.09 110.03 364.88 110.1 271.76 110.11 279.29 110.17 53.18 110.74 367.78 110.86 159.75 110.87 137.08 111.24 56.47 111.46 366.84 111.62 88.76 111.63 89.52 111.95 59.81 112.17 365.86 112.38 297.23 112.39 318.66 112.53 371.25 112.67 64.35 113.14 113.48 113.15 91.74 113.6 369.34 113.87 58.7 113.9 185.72 113.91 198.41 114.31 370.41 114.58 52.29 114.66 358.38 114.67 368.31 115.03 369.56 115.3 50.95 115.42 228.83 115.43 221.75 115.66 50.68 116.1 362.7 116.18 280.22 116.19 286.77 116.37 51.26 116.46 360.43 116.94 108.45 116.95 99.32 117.09 48.5 117.17 355.04 117.7 90.94 117.71 95.44 118.16 49.92 118.24 349.03 118.46 324.89 118.47 333.66 118.88 48.95 118.96 354.33 119.22 95.17 119.23 76.47 119.68 356.38 119.95 46.45 119.98 187.94 119.99 202.51 120.39 360.48 120.67 48.86 120.74 339.41 120.75 346.4 121.11 368.4 121.38 39.99 121.5 235.11 121.51 219.65 121.74 38.39 122.18 371.48 122.26 277.46 122.27 288.99 122.45 37.01 122.9 371.7 123.02 125.19 123.03 105.68 123.17 43.91 123.62 379.8 123.78 93.08 123.79 92.15 123.89 48.5 123.97 379.89 124.54 280.18 124.55 299.15 124.69 373.3 124.96 55.27 125.3 117.93 125.31 97.04 125.41 367.87 125.68 58.79 126.06 172.53 126.07 185.8 126.12 359.41 126.75 61.24 126.82 328.72 126.83 339.45 126.84 353.35 127.1 63.64 127.58 154.32 127.59 142.47 127.77 269.4 128.17 90.59 128.34 250.92 128.35 256.26 128.96 321.77 129.04 72.06 129.1 251.01 129.11 258.98 129.62 60.7 129.82 323.51 129.86 215.33 129.87 201.17 129.93 80.92 130.4 359.9 130.62 198.81 130.63 200.86 130.98 340.92 131.38 75.04 131.38 76.87 131.39 80.74 131.83 363.06 132.14 267.08 132.15 263.21 132.69 331.57 132.82 65.51 132.9 250.29 132.91 244.86 133.26 369.07 133.66 105.33 133.67 95.75 134.12 323.47 134.26 67.78 134.42 281.69 134.43 281.96 134.69 369.38 135.12 74.38 135.18 237.6 135.19 230.65 135.27 332.24 135.69 68.05 135.94 161.13 135.95 160.33 136.12 364.04 136.55 74.33 136.7 316.83 136.71 310.64 136.99 327.3 137.13 78.78 137.46 193.91 137.47 199.21 137.56 358.07 137.98 90.32 138.22 138.77 138.23 144.61 138.56 81.46 138.98 350.68 138.99 352.24 139.42 95.66 139.74 166.65 139.75 176.32 140 90.59 140.42 339.14 140.5 155.56 140.51 151.07 140.86 106.44 140.99 299.77 141.26 251.81 141.27 261.87 141.43 101.23 141.86 309.97 142.02 149.64 142.03 163.85 142.18 302.67 142.29 108.04 142.78 218.49 142.79 203.53 143.16 89.65 143.29 313 143.54 184.6 143.55 196.76 143.61 299.02 144.29 91.92 144.3 103.64 144.31 114.1 144.59 92.81 144.72 315.09 145.06 261.65 145.07 251.32 145.15 96.2 145.58 303.02 145.82 180.55 145.83 186.38 146.02 96.51 146.15 326.09 146.58 104.57 146.59 106.22 147.01 310.37 147.15 105.68 147.34 232.92 147.35 226.24 147.58 334.29 148.01 104.93 148.1 197.21 148.11 203.66 148.44 318.48 148.58 105.28 148.86 106.71 148.87 102.52 148.87 100.21 149.01 331.44 149.62 229.49 149.63 221.03 149.87 334.69 150.01 95.49 150.38 185.67 150.39 191.19 150.44 350.59 150.58 108.85 151.14 119.53 151.15 116.86 151.43 99.63 151.87 352.86 151.9 245.26 151.91 228.29 152.44 348.18 152.51 95.22 152.66 184.11 152.67 185.27 153.01 361.23 153.42 90.63 153.43 89.74 153.93 82.39 154.15 364.8 154.18 264.37 154.19 242.37 154.44 369.96 154.78 72.86 154.94 184.87 154.95 189.95 155.35 71.12 155.58 374.59 155.7 92.41 155.71 91.7 155.86 375.97 155.92 65.6 156.46 206.6 156.47 177.61 156.77 63.91 157 385.33 157.22 203.84 157.23 216.18 157.34 56.25 157.85 389.25 157.98 116.24 157.99 128.8 158.13 397.8 158.19 63.11 158.74 110.94 158.75 91.48 158.76 59.59 159.27 396.73 159.5 232.48 159.51 244.68 159.61 68.59 160.12 399.44 160.26 174.76 160.27 194.22 160.74 69.61 160.97 400.74 161.02 78.29 161.03 72.95 161.03 70.99 161.54 406.53 161.78 273.18 161.79 287.3 162.39 408.66 162.45 65.87 162.54 224.82 162.55 238.76 163.24 405.72 163.3 59.59 163.3 67.29 163.31 74.95 163.58 57.94 163.81 409.82 164.06 300.97 164.07 316.25 164.1 408.48 164.15 52.82 164.82 242.05 164.83 244.15 165.52 394.37 165.57 48.63 165.58 74.2 165.59 87.34 165.8 381.59 166.15 59.9 166.34 331.44 166.35 342.48 166.37 381.67 166.43 62.71 167.1 233.32 167.11 238.09 167.22 363.01 167.57 82.17 167.86 89.34 167.87 97.18 168.36 348.49 168.62 317.63 168.63 325.47 168.64 340.17 168.78 104.26 169.38 194.18 169.39 210.66 169.5 315.67 169.65 105.37 170.14 155.12 170.15 150.4 170.22 112.36 170.65 304.63 170.9 234.66 170.91 246.37 171.08 114.77 171.23 296.92 171.66 134.1 171.67 141.27 171.94 129.82 172.1 296.52 172.42 269.04 172.43 258.53 172.67 297.95 173.1 126.22 173.18 163.05 173.19 168.7 173.67 119.71 173.82 301.06 173.94 152.94 173.95 143.27 174.53 97.85 174.7 308.64 174.71 307.66 175.28 314.25 175.4 84.89 175.46 165.5 175.47 158.82 175.68 84.44 175.85 315.4 176.22 180.06 176.23 172.35 176.71 321.24 176.83 67.2 176.98 315.49 176.99 315.49 177.27 331.48 177.68 60.75 177.74 205.49 177.75 191.37 178.13 343.51 178.25 52.06 178.5 186.74 178.51 182.33 178.54 54.11 179.26 356.16 179.27 355.4 179.56 362.7 179.68 55.22 180.02 202.28 180.03 190.44 180.25 61.55 180.69 369.74 180.78 162.6 180.79 164.12 181.11 67.47 181.54 380.47 181.54 379.94 181.55 378.82 182.1 387.91 182.17 51.22 182.3 182.15 182.31 176.45 182.74 38.88 182.97 402.61 183.06 150.35 183.07 145.59 183.59 28.5 183.82 418.68 183.82 413.03 183.83 400.02 184.1 424.61 184.16 25.83 184.58 157.52 184.59 161.04 184.67 428.7 184.73 16.92 185.34 139.49 185.35 131.74 185.52 428.57 185.58 17.41 186.1 377.71 186.11 344.93 186.15 15.85 186.38 430.44 186.86 160.46 186.87 166.34 186.94 432 187 17.68 187.62 111.96 187.63 113.43 187.79 428.39 187.85 25.7 188.38 241.52 188.39 204.02 188.42 31.67 188.64 423.85 189.14 179.97 189.15 188.61 189.49 425.5 189.55 28.24 189.9 137.57 189.91 150.18 190.06 425.05 190.4 29.88 190.66 129.29 190.67 101.05 190.68 29.13 191.19 419.08 191.42 228.16 191.43 240.32 191.48 417.61 191.82 23.03 192.18 151.02 192.19 164.74 192.33 415.25 192.38 20.58 192.94 36.25 192.95 27.17 193.18 389.02 193.23 22.4 193.7 274.08 193.71 286.68 193.74 378.56 193.81 27.08 194.46 125.59 194.47 141.58 194.59 365.91 194.66 42.49 195.22 61.33 195.23 57.18 195.44 346.05 195.98 265.75 195.99 278.35 196.01 340.39 196.74 69.21 196.74 78.61 196.75 90.99 196.87 320.66 197.02 68.63 197.5 179.48 197.51 168.12 197.6 76.74 197.72 289.08 198.26 204.6 198.27 212.35 198.3 280.67 198.46 94.82 199.02 114.5 199.03 113.39 199.17 266.24 199.78 245.39 199.79 243.57 199.89 138.6 200.33 260.54 200.54 203.49 200.55 198.32 200.76 151.96 201.23 266.95 201.3 176.54 201.31 177.43 201.63 143.45 201.8 268.55 202.06 266.24 202.07 267.93 202.65 277.86 202.78 121.05 202.82 224.73 202.83 226.56 203.36 110.23 203.51 283.38 203.58 194.93 203.59 195.11 204.08 293.31 204.21 98.51 204.34 261.83 204.35 268.69 204.5 94.42 204.94 302.31 205.1 196.05 205.11 207.49 205.64 97.44 205.79 311.31 205.86 183.89 205.87 178.99 206.36 316.52 206.5 92.32 206.62 264.86 206.63 275.05 206.93 325.07 207.36 85.02 207.38 153.6 207.39 172.44 207.93 78.92 208.07 335.45 208.14 127.02 208.15 126.97 208.36 343.33 208.78 71.61 208.9 297.72 208.91 309.61 209.35 74.11 209.49 356.69 209.66 209.81 209.67 226.91 210.2 79.41 210.34 369.12 210.42 110.09 210.43 117.35 210.91 376.42 210.98 75.89 211.18 368.09 211.19 374.95 211.76 387.64 211.83 63.91 211.94 250.96 211.95 251.05 212.33 390.36 212.68 57.72 212.7 120.83 212.71 128.66 212.89 390.31 213.25 48.68 213.46 386.66 213.47 384.79 213.75 392.18 213.81 46.58 214.22 237.11 214.23 234.17 214.38 45.52 214.6 393.34 214.98 139.53 214.99 142.03 215.17 397.26 215.23 54.82 215.74 373.44 215.75 363.99 215.8 60.66 216.02 384.44 216.5 230.74 216.51 228.74 217.15 379.71 217.22 61.59 217.26 152.31 217.27 149.33 217.5 66.8 218.01 375.8 218.02 327.7 218.03 310.42 218.29 371.07 218.64 68.1 218.78 233.28 218.79 230.88 218.86 366.53 218.92 69.16 219.54 151.33 219.55 143.01 219.71 351.21 219.78 76.91 220.3 283.61 220.31 269.8 220.35 82.66 220.56 339.5 221.06 227.85 221.07 224.82 221.14 330.72 221.28 99.94 221.82 151.96 221.83 144.52 221.85 103.32 221.99 317.01 222.58 273.9 222.59 266.77 222.7 116.19 222.85 303.69 223.34 229.05 223.35 220.14 223.41 294.96 223.56 129.6 224.1 162.56 224.11 161.67 224.13 134.72 224.56 277.99 224.86 264.77 224.87 262.18 224.99 144.61 225.14 265.39 225.62 235.24 225.63 228.6 225.72 263.25 225.84 152.76 226.38 165.59 226.39 164.87 226.41 153.56 226.58 259.6 227.14 250.92 227.15 253.86 227.27 160.69 227.74 263.79 227.9 218.76 227.91 219.47 228.38 163.14 228.6 273.63 228.66 163.22 228.67 162.02 229.17 277.82 229.29 161.35 229.42 238.31 229.43 244.37 230.02 287.44 230.16 151.38 230.18 188.03 230.19 194.22 230.73 143.54 230.88 299.33 230.94 160.29 230.95 158.99 231.45 306.54 231.58 133.92 231.7 253.59 231.71 263.88 232.3 319.15 232.44 128.84 232.46 183.53 232.47 193.29 232.72 126.66 233.15 329.79 233.22 140.33 233.23 144.88 233.57 124.26 233.72 335.8 233.98 286.95 233.99 298.57 234.57 339.99 234.64 124.7 234.74 215.02 234.75 220.14 235.43 346.49 235.49 116.64 235.5 128.84 235.51 135.7 235.99 348.63 236.06 111.79 236.26 327.21 236.27 335.8 236.56 350.68 236.91 106.66 237.02 226.33 237.03 221.97 237.13 350.01 237.76 104.35 237.78 138.64 237.79 143.9 237.98 348.27 238.05 104.08 238.54 345.42 238.55 346.94 239.18 99.67 239.3 218.58 239.31 212.62 239.75 98.11 239.97 349.07 240.06 145.54 240.07 148.97 240.25 346.98 240.32 100.03 240.82 343.51 240.83 338.96 240.89 102.52 241.38 344.8 241.58 205.22 241.59 201.48 241.67 343.91 241.73 105.33 242.34 152.71 242.35 151.6 242.52 334.82 242.87 106.75 243.1 306.76 243.11 295.9 243.15 107.55 243.37 325.47 243.86 212.75 243.87 212.53 243.94 322.53 244.01 112.01 244.62 156.37 244.63 154.09 244.8 312.64 244.86 115.04 245.38 279.06 245.39 269.09 245.43 120.47 245.65 301.15 246.14 222.99 246.15 225.04 246.22 295.23 246.28 126.57 246.9 160.33 246.91 158.55 247.08 283.34 247.14 137.44 247.66 266.01 247.67 260.18 247.72 146.12 247.94 273.9 248.42 231.36 248.43 229.72 248.51 265.12 248.58 156.01 249.18 170.62 249.19 170.57 249.21 160.46 249.37 255.99 249.94 251.94 249.95 249.98 250.07 162.16 250.23 250.78 250.7 232.75 250.71 229.67 250.8 247.22 250.92 164.47 251.46 180.28 251.47 179.44 251.49 169.42 251.66 241.12 252.22 237.29 252.23 237.78 252.35 173.33 252.82 241.25 252.98 207.36 252.99 205.93 253.5 176.36 253.68 248.38 253.74 194.8 253.75 194.27 254.25 251.32 254.37 174.45 254.5 232.26 254.51 234.26 255.1 257.33 255.22 166.88 255.26 195.51 255.27 195.47 255.79 163.18 255.96 266.19 256.02 193.51 256.03 194.09 256.52 273.14 256.65 158.64 256.78 251.18 256.79 255.68 257.38 279.15 257.5 152.98 257.54 194.13 257.55 196.27 258.07 149.82 258.23 291.62 258.3 177.61 258.31 177.88 258.79 298.39 258.92 142.65 259.06 285.65 259.07 291.13 259.21 142.29 259.65 303.83 259.82 210.61 259.83 210.48 260.34 142.74 260.49 311.17 260.58 164.34 260.59 164.65 260.91 139.8 261.06 316.43 261.34 315.49 261.35 315.98 261.63 316.65 261.75 140.24 262.1 214.31 262.11 212.53 262.2 314.6 262.61 143.09 262.86 154.18 262.87 152.89 263.05 313.49 263.4 139.98 263.62 305.47 263.63 298.57 263.9 311.84 264.25 138.15 264.38 215.33 264.39 215.51 264.47 311.71 264.53 138.28 265.14 148.53 265.15 147.64 265.32 305.43 265.39 143.81 265.9 282.85 265.91 273.9 266.17 300.8 266.58 144.21 266.66 223.21 266.67 224.91 266.74 299.33 267.15 143.23 267.42 145.86 267.43 145.05 267.43 144.56 267.6 293.58 268.18 261.29 268.19 252.79 268.28 148.62 268.45 283.34 268.94 231.05 268.95 231.9 269.02 279.37 269.13 150.31 269.7 152.76 269.71 153.25 269.88 269.27 270.46 257.86 270.47 254.61 270.55 161.8 270.74 259.47 271.22 231.5 271.23 231.5 271.31 252.12 271.73 163.76 271.98 174.98 271.99 175.12 272.17 246.33 272.59 162.73 272.74 242.9 272.75 243.17 272.87 163.49 273.5 214.44 273.51 214.57 273.61 238.85 273.73 166.83 274.26 202.77 274.27 200.15 274.3 169.5 274.46 233.37 275.02 228.83 275.03 229.81 275.16 174.8 275.63 233.28 275.78 184.47 275.79 185.4 276.32 175.52 276.48 236.17 276.54 223.21 276.55 219.65 277.09 237.33 277.19 172.04 277.3 221.97 277.31 223.84 277.66 243.92 278.06 162.6 278.06 163.94 278.07 165.05 278.63 158.73 278.8 250.56 278.82 235.42 278.83 231.41 279.37 254.97 279.49 151.24 279.58 227.89 279.59 230.43 280.22 260.45 280.34 146.66 280.34 146.66 280.35 147.06 280.91 142.78 281.08 265.52 281.1 236.31 281.11 230.65 281.64 270.73 281.77 138.37 281.86 237.38 281.87 239.11 282.5 273.5 282.62 135.92 282.63 135.26 283.2 133.79 283.35 274.48 283.38 232.75 283.39 226.69 283.64 274.61 284.05 133.16 284.14 239.56 284.15 239.87 284.34 131.78 284.49 276.3 284.9 132.58 284.91 132.45 285.06 276.75 285.19 131.6 285.66 237.11 285.67 230.96 285.76 131.83 285.92 278.22 286.42 232.21 286.43 232.61 286.49 276.7 286.9 133.43 287.18 134.86 287.19 134.72 287.91 278.13 287.94 238.54 287.95 232.39 288.04 137.97 288.2 277.1 288.7 218.49 288.71 219.25 288.76 274.61 288.9 143.18 289.46 144.61 289.47 144.03 289.62 271.36 290.22 245.35 290.23 242.28 290.33 148.08 290.48 262.14 290.98 212.17 290.99 213.19 291.05 255.82 291.19 151.65 291.74 161.53 291.75 160.11 292.35 151.87 292.5 253.05 292.51 253.63 292.51 253.81 292.63 153.43 293.26 199.74 293.27 202.06 293.78 153.2 293.94 254.3 294.02 187.76 294.03 183.62 294.51 253.14 294.65 154.09 294.78 246.77 294.79 249 294.93 153.78 295.09 253.68 295.54 171.91 295.55 174.8 295.8 155.52 296.26 251.94 296.3 217.96 296.31 213.24 296.37 155.74 296.83 253.05 297.06 233.28 297.07 235.24 297.12 252.92 297.24 158.41 297.82 159.97 297.83 160.69 297.98 252.16 298.1 159.26 298.58 238.27 298.59 235.82 299.12 249.58 299.26 159.93 299.34 225.89 299.35 227.67 299.41 249.36 299.54 160.06 300.1 161.67 300.11 161 300.69 159.48 300.83 247.44 300.86 237.96 300.87 236.31 301.12 247.58 301.55 157.88 301.62 218.4 301.63 220.01 301.69 246.86 301.83 158.06 302.38 167.28 302.39 165.36 302.55 244.86 302.69 159.13 303.14 235.77 303.15 234.26 303.26 161 303.69 243.79 303.9 210.25 303.91 211.55 304.12 160.86 304.54 244.1 304.66 170.97 304.67 168.52 304.69 161.4 304.83 244.06 305.42 238.13 305.43 236.71 305.54 163.09 305.69 243.08 306.18 198.5 306.19 199.83 306.26 242.28 306.4 165.18 306.94 185 306.95 181.89 306.97 166.61 307.12 241.03 307.7 238.18 307.71 237.56 307.83 169.95 308.27 238.71 308.46 182.2 308.47 184.02 308.55 238.13 308.69 172.8 309.22 199.88 309.23 196.54 309.74 238.58 309.87 169.55 309.98 232.34 309.99 232.66 310.61 241.34 310.74 165.45 310.74 166.3 310.75 167.14 311.31 163 311.46 244.28 311.5 219.74 311.51 216.8 312.03 245.71 312.17 159.26 312.26 224.51 312.27 225.8 312.89 247 313.02 157.08 313.03 156.46 313.6 155.16 313.75 248.82 313.78 241.16 313.79 239.29 314.32 249.05 314.46 153.2 314.54 217.43 314.55 220.01 314.89 249.62 315.04 152.85 315.3 161.04 315.31 158.86 315.9 149.64 316.04 250.2 316.06 247.35 316.07 246.33 316.61 251.05 316.76 147.95 316.82 211.28 316.83 214.89 316.9 250.83 317.33 146.43 317.58 168.44 317.59 164.83 317.76 250.65 317.9 144.43 318.34 247 318.35 246.06 318.89 250.74 319.04 142.69 319.1 203.31 319.11 207.63 319.46 252.79 319.61 141.98 319.86 166.56 319.87 162.65 320.47 139.67 320.6 253.37 320.62 249.27 320.63 248.16 321.16 253.54 321.32 135.7 321.38 208.7 321.39 213.6 321.89 133.52 322.01 256.31 322.14 160.86 322.15 156.32 322.74 131.52 322.87 258.93 322.9 253.68 322.91 252.56 323.31 129.2 323.46 261.96 323.66 207.27 323.67 213.42 323.88 130.54 324.32 264.32 324.42 145.94 324.43 142.38 324.45 131.87 325.18 267.57 325.19 267.62 325.3 135.21 325.47 267.8 325.94 197.47 325.95 202.24 326.04 264.9 326.15 145.5 326.7 161.71 326.71 159.31 326.72 153.16 326.9 258.4 327.46 253.37 327.47 253.54 327.53 209.9 327.53 206.02 327.6 161.62 327.75 250.16 328.24 197.96 328.25 201.7 328.31 246.02 328.48 164.65 329 183.53 329.01 181.89 329.05 167.37 329.16 237.96 329.76 228.78 329.77 228.43 329.91 173.78 330.52 194.04 330.53 195.78 330.65 222.99 330.77 181.62 331.28 204.47 331.29 202.95 331.34 187.05 331.51 220.36 332.04 216.71 332.05 216.85 332.1 219.03 332.2 193.78 332.21 193.87 332.22 193.91 332.29 202.02 332.29 203.31 332.39 218.4 332.82 192.84 333.04 200.9 333.05 200.01 333.54 218.27 333.68 190.57 333.8 215.87 333.81 216.53 333.96 190.12 334.4 219.79 334.56 195.78 334.57 196.72 334.69 219.56 334.81 190.84 335.32 205 335.33 204.06 335.39 192 335.83 218.67 336.08 216.13 336.09 216.58 336.67 218.98 336.8 192 336.84 198.23 336.85 199.03 337.09 192.13 337.52 219.43 337.6 203.71 337.61 202.77 337.66 192.13 337.8 219.43 338.36 218.49 338.37 218.72 338.37 219.03 338.51 194.89 339.12 198.54 339.13 199.08 339.22 217.56 339.66 196.18 339.88 203.98 339.89 203.4 339.94 196.27 340.08 216.8 340.64 215.02 340.65 215.24 340.81 197.43 341.4 199.74 341.41 199.83 341.5 213.42 341.67 199.48 342.16 205.09 342.17 205 342.24 200.77 342.33 211.19 342.92 210.21 342.93 210.08 343.11 202.33 343.18 210.12 343.68 203.84 343.69 203.89 343.75 209.45 344.44 206.02 344.45 205.93 344.96 203.8 345.17 208.65 345.2 206.11 345.21 205.71 345.44 208.47 345.82 203.04 345.96 207.27 345.97 207.45 346.38 202.1 346.5 208.07 346.62 205.8 346.62 205.58 347.24 201.57 347.37 208.74 347.37 208.61 347.38 208.74 347.53 201.7 347.6 207.67 347.61 208.03 347.81 201.66 348.19 209.28 348.36 202.33 348.37 202.33 348.76 209.72 348.88 204.87 348.89 204.64 349.22 202.1 349.34 210.17 349.64 209.23 349.65 209.1 349.77 202.02 349.89 209.54 350.4 205.36 350.41 205.44 350.48 208.7 350.92 202.68 351.16 204.69 351.17 204.47 351.59 208.96 351.75 202.68 351.83 205.71 351.83 205.93 352.04 202.02 352.15 210.21 352.58 202.64 352.59 202.37 352.74 209.9 353.35 205.98 353.35 205.76 353.89 210.17 354.03 201.79 354.08 205.8 354.08 205.98 354.17 210.57 354.3 201.84 354.57 203.08 354.58 202.95 354.59 202.19 354.72 210.3 355.33 208.34 355.34 208.12 355.74 203.22 355.88 209.36 356.09 208.03 356.1 208.07 356.15 209.01 356.21 203.31 356.48 205.22 356.48 204.91 356.5 203.04 356.67 208.52 356.93 208.34 356.94 208.74 356.95 209.23 357.63 202.86 357.69 204.15 357.7 203.8 357.78 209.41 357.92 202.15 358.45 207.09 358.46 206.78 358.51 203.4 358.95 209.5 359.21 206.91 359.22 207.4 359.24 210.21 359.39 202.59 359.97 202.86 359.98 203.49 360.11 210.3 360.54 202.02 360.73 204.87 360.74 204.55 360.94 209.19 361.09 201.93 361.36 203.57 361.36 202.95 361.53 209.28 361.67 202.02 362.11 207.76 362.12 207.67 362.62 209.68 362.76 202.68 362.87 205.76 362.88 206.16 362.9 209.72 363.05 203.44 363.63 203.8 363.64 203.84 363.91 203.31 364.33 209.9 364.39 207.45 364.4 207.32 364.49 203.35 364.6 209.28 365.15 206.29 365.16 206.38 365.47 208.56 365.89 204.29 365.91 205.4 365.92 205.27 366.17 203.89 366.62 208.3 366.69 205.85 366.7 205.93 366.77 203.93 366.92 208.38 367.45 207.32 367.46 207.32 367.69 204.42 367.74 207.72 368.21 205.4 368.22 205.36 368.26 204.47 368.92 207.58 369 206.65 369.01 206.25 369.4 204.6 369.59 207.72 369.76 206.11 369.77 206.11 370.12 203.8 370.25 208.21 370.4 204.47 370.4 204.11 370.87 208.3 371 205.22 371.01 204.73 371.01 203.66 371.26 208.34 371.76 206.25 371.77 205.8 372.36 203.93 372.51 207.94 372.53 206.47 372.54 206.16 373.11 208.65 373.27 203.31 373.29 206.16 373.3 206.69 373.42 208.79 373.57 204.02 374 207.09 374 207.36 374.22 207.58 374.38 203.98 374.78 206.02 374.78 206.25 374.97 205.04 375.12 207.45 375.49 205.4 375.5 205.27 375.81 204.47 376.21 207.67 376.25 205 376.26 204.91 376.49 208.21 376.97 204.47 377.01 206.07 377.02 205.93 377.25 204.11 377.33 207.58 377.77 206.51 377.77 206.07 378.13 203.49 378.19 207.81 378.41 203.75 378.42 203.62 378.42 203.35 378.58 208.12 379.17 206.74 379.18 206.65 379.57 204.51 379.64 207.36 379.93 206.42 379.94 206.51 380.66 207 380.69 204.73 380.7 204.91 380.71 204.78 380.75 207.36 381.45 206.2 381.46 206.11 381.94 207.63 382.13 204.87 382.21 206.65 382.22 206.65 382.45 204.69 382.9 207.45 382.99 205.76 382.99 206.02 383.07 204.42 383.22 207.81 383.74 205.8 383.75 205.76 383.81 207.05 384.15 205.04 384.5 206.42 384.51 206.42 384.79 204.33 385.13 207.85 385.22 207.49 385.23 207.4 385.28 203.75 385.33 208.56 385.98 207.14 385.99 206.51 386.02 207.85 386.7 204.51 386.74 206.16 386.75 206.34 386.76 207.63 387.23 204.55 387.5 205.98 387.51 206.34 387.56 204.51 387.68 207.36 388.26 205.44 388.27 205.71 388.79 204.64 388.95 207.89 389.02 206.2 389.03 206.38 389.46 208.25 389.79 203.93 389.81 205.36 389.82 205.44 390.19 204.42 390.55 207.72 390.57 206.25 390.58 206.2 390.7 203.93 390.77 208.12 391.32 206.11 391.32 206.34 391.7 207.72 391.77 205 392.05 206.07 392.05 205.76 392.3 207.67 392.45 204.38 392.82 206.29 392.82 206.11 392.94 204.47 393.46 207.72 393.52 205.36 393.52 205 393.63 204.47 393.69 207.98 394.27 205.58 394.28 205.44 394.65 204.15 395.02 207.63 395.03 207.36 395.04 207.27 395.28 204.51 395.44 207.49 395.79 205.09 395.8 205.04 395.8 204.51 395.85 207.76 396.55 206.34 396.56 206.2 396.66 204.02 396.86 207.27 397.31 205.89 397.32 206.11 397.35 204.6 398.03 207.36 398.07 206.16 398.08 206.16 398.37 205.04 398.49 207.27 398.83 205.09 398.84 205.36 399.19 207.67 399.24 204.2 399.59 207.18 399.6 207.27 400.26 205 400.35 205.93 400.36 206.02 400.75 207.4 400.81 204.96 401.11 205.85 401.12 206.02 401.35 207.45 401.44 204.96 401.87 206.07 401.88 206.29 401.9 206.87 402.04 205.36 402.63 206.07 402.64 206.11 403.09 207.18 403.26 204.55 403.37 206.16 403.38 206.47 403.42 207.27 403.57 205.31 404.1 206.78 404.11 207 404.22 207.23 404.74 205.04 404.86 206.11 404.87 205.89 405.12 207.4 405.18 205.09 405.6 206.29 405.61 206.16 406.03 207.45 406.19 204.91 406.36 206.91 406.37 206.65 407 206.83 407.08 205.13 407.1 206.11 407.11 206.25 407.34 204.91 407.51 207.09 407.81 206.65 407.81 206.74 407.82 207 408.18 205.36 408.52 206.07 408.53 205.93 408.71 206.78 408.85 205.31 409.27 205.93 409.28 205.98 409.76 205.27 410 206.83 410.03 206.11 410.04 206.11 410.28 206.65 410.75 205.44 410.79 205.53 410.8 205.71 411.01 205.49 411.57 206.83 411.58 206.65 411.59 206.56 411.72 205.44 411.79 206.6 412.36 205.89 412.36 205.98 412.45 206.69 412.6 205.31 413.07 206.25 413.08 206.42 413.17 206.47 413.67 205.49 413.78 206.29 413.79 206.34 413.98 206.6 414.14 205.62 414.52 206.2 414.52 206.38 414.85 205.71 415.18 206.42 415.28 206.11 415.29 206.07 415.6 205.62 415.95 206.42 416.05 206.02 416.06 205.98 416.1 205.62 416.56 206.6 416.83 205.76 416.83 205.93 417.07 205.76 417.31 206.47 417.59 205.93 417.6 205.98 417.99 205.71 418.13 206.51 418.37 206.2 418.37 206.11 418.58 206.34 419.03 205.8 419.12 206.02 419.13 206.07 419.34 205.8 419.79 206.42 419.88 206.07 419.88 206.11 419.97 205.71 420.12 206.34 420.62 206.2 420.63 206.25 420.89 205.76 421.01 206.34 421.39 206.07 421.39 206.2 421.55 205.76 421.7 206.34 422.15 206.11 422.15 206.16 422.42 206.34 422.8 205.8 422.9 206.07 422.91 206.02 423.09 205.8 423.15 206.34 423.66 206.11 423.66 205.93 423.75 205.85 424.32 206.25 424.49 205.93 424.5 205.93 424.65 205.85 425.24 206.2 425.27 205.98 425.28 205.89 425.58 206.34 425.79 205.8 426.03 205.98 426.04 205.93 426.88 206.25 426.89 206.11 427.16 206.34 427.69 205.98 427.74 206.07 427.74 206.11 428.05 206.34 428.54 205.93 428.56 206.07 428.56 206.11 428.94 205.85 429.05 206.34 429.32 205.89 429.32 205.98 429.52 205.71 429.74 206.56 430.07 206.11 430.07 206.02 430.29 205.36 430.36 206.56 430.77 205.76 430.78 205.62 431.27 207.27 431.47 204.69 431.56 206.2 431.56 206.16 431.99 207.32 432.21 203.89 432.33 205.18 432.34 205.49 432.84 208.61 432.98 202.73 433.09 205.36 433.1 205.8 433.59 210.61 433.75 202.15 433.85 205.4 433.86 205.8 434.32 210.12 434.49 200.28 434.61 206.16 434.62 206.02 435.11 211.9 435.3 199.97 435.37 204.38 435.38 204.87 435.83 212.88 436.02 198.54 436.13 205.71 436.14 205.62 436.44 197.07 436.62 215.42 436.71 205.49 436.72 204.73 437.18 193.38 437.36 219.21 437.47 205.22 437.48 204.6 437.94 187.32 438.11 225 438.23 200.99 438.24 200.37 438.73 179.79 438.91 233.59 438.99 202.59 439 201.35 439.47 166.52 439.65 244.41 439.75 186.83 439.76 185.18 440.23 161 440.43 255.46 440.51 181.66 440.52 178.5 440.99 146.43 441.19 263.16 441.27 164.16 441.28 161.8 441.75 136.81 441.95 273.85 442.03 155.3 442.04 152.98 442.51 126.57 442.7 284.05 442.79 144.03 442.8 142.74 443.27 118.51 443.45 288.59 443.55 134.41 443.56 134.86 444.02 108.36 444.2 294.56 444.31 124.88 444.32 126.35 444.58 295.1 444.78 104.21 445.07 122.74 445.08 124.52 445.54 99.54 445.71 299.46 445.83 115.66 445.84 117.75 446.3 99.94 446.47 300.89 446.59 116.15 446.6 118.87 446.68 99.36 447.22 303.29 447.35 113.08 447.36 116.06 447.43 97.49 447.6 304.72 448.11 115.62 448.12 119.22 448.57 97.98 448.73 306.32 448.87 112.01 448.88 116.86 448.95 99.27 449.11 305.7 449.63 116.24 449.64 120.56 449.71 99.54 449.87 302.71 450.39 116.28 450.4 119.94 450.63 303.47 450.85 96.78 451.15 115.84 451.16 120.38 451.23 96.24 451.83 303.78 451.91 115.57 451.92 121 452.36 93.26 452.59 307.92 452.67 121.67 452.68 127.06 452.74 93.35 453.34 310.28 453.43 124.97 453.44 130.76 453.88 92.46 454.1 313.8 454.19 126.08 454.2 132.23 454.63 92.01 454.86 317.19 454.95 135.17 454.96 140.78 455.39 88.94 455.62 319.32 455.71 135.79 455.72 141.09 456.15 86.18 456.37 320.21 456.47 143.45 456.48 147.1 456.53 84.93 457.13 323.55 457.23 146.7 457.24 149.69 457.28 84.4 457.88 322.84 457.99 151.24 458 151.87 458.42 82.88 458.64 327.92 458.75 154.67 458.76 153.87 459.17 81.72 459.39 330.5 459.51 153.69 459.52 148.04 459.92 79.99 460.14 333.84 460.27 137.35 460.28 129.33 460.68 76.69 460.9 335.36 461.03 119.4 461.04 109.74 461.43 71.39 461.65 342.88 461.79 92.32 461.8 84.35 462.02 345.64 462.18 70.59 462.55 76.56 462.56 71.21 463.15 348.45 463.31 67.07 463.31 67.38 463.32 71.26 463.91 352.77 464.06 64.31 464.07 78.47 464.08 90.68 464.28 357.62 464.44 63.82 464.83 136.24 464.84 156.14 465.41 361.94 465.56 63.95 465.59 186.83 465.6 206.47 465.78 361.32 465.94 66.45 466.35 240.14 466.36 251.09 466.54 356.82 467.07 64.71 467.11 264.54 467.12 265.26 467.66 361.05 467.81 61.15 467.87 249.27 467.88 236.22 468.19 59.77 468.41 362.26 468.63 200.5 468.64 182.87 468.78 357.76 469.23 58.12 469.39 132.23 469.4 121.72 469.61 55.71 469.9 359.85 470.15 99.58 470.16 101.23 470.65 363.5 470.73 56.2 470.91 110.4 470.92 121.49 471.02 364.57 471.48 53.13 471.67 162.24 471.68 181.53 472.14 363.82 472.23 47.39 472.43 230.25 472.44 251.45 472.89 368.36 472.98 41.51 473.19 310.95 473.2 319.81 473.64 369.87 473.72 34.74 473.95 321.51 473.96 319.41 474.01 370.27 474.47 32.29 474.71 312.33 474.72 308.72 474.76 362.52 474.85 27.03 475.47 305.78 475.48 306.1 475.88 363.37 475.97 24.98 476.23 333.49 476.24 341.68 476.63 364.35 476.72 17.73 476.99 354.73 477 358.25 477 359.85 477.47 13.23 477.75 348.27 477.76 343.68 478.21 13.23 478.49 353.71 478.51 329.26 478.52 324.85 478.96 8.15 479.24 351.17 479.27 324 479.28 326.72 479.33 10.24 479.61 356.02 480.03 293.58 480.04 280.31 480.08 18.79 480.73 361.63 480.79 238.85 480.8 219.52 480.83 23.52 481.48 366.84 481.55 147.59 481.56 124.08 481.85 370.72 482.12 30.33 482.31 85.95 482.32 69.3 482.86 23.29 482.97 370.99 483.07 48.41 483.08 53.04 483.61 16.48 483.72 373.26 483.83 78.38 483.84 89.16 484.36 14.07 484.47 374.99 484.59 130.45 484.6 141.67 484.73 16.39 485.21 383.1 485.35 160.55 485.36 163.76 485.58 375.97 485.85 17.41 486.11 160.82 486.12 161 486.23 27.21 486.33 372.72 486.87 169.01 486.88 172.84 487.08 377.4 487.35 9.58 487.63 199.57 487.64 210.39 488.1 10.33 488.2 382.83 488.39 245.88 488.4 254.3 488.47 12.78 488.95 379 489.15 279.69 489.16 283.03 489.22 12.6 489.32 384.84 489.91 282.05 489.92 277.55 490.34 17.41 490.45 380.83 490.67 261.16 490.68 245.62 491.09 16.12 491.2 387.51 491.43 175.61 491.44 148.17 491.46 14.39 491.57 383.23 492.19 89.83 492.2 66.85 492.58 14.34 492.69 384.39 492.95 19.42 492.96 14.03 493.44 386.75 493.71 31.35 493.72 44.98 493.81 383.95 494.08 24.32 494.47 124.48 494.48 143.81 494.82 35.94 494.93 382.56 495.23 207.72 495.24 216.62 495.66 391.92 495.75 31.04 495.99 316.65 496 331.57 496.11 15.81 496.74 407.37 496.75 382.97 496.76 376.51 496.83 42.04 497.1 403.14 497.51 184.02 497.52 159.88 497.54 78.29 497.84 346.49 498.27 155.3 498.28 160.82 498.87 340.97 498.95 66.98 499.03 215.78 499.04 234.75 499.58 385.95 499.67 27.52 499.79 217.11 499.8 192.35 499.94 387.91 500.02 37.01 500.55 132.32 500.56 142.52 500.73 65.65 501 364.8 501.31 233.81 501.32 241.39 501.36 366.13 501.79 89.07 502.07 356.29 502.08 353.66 502.66 50.99 502.79 358.87 502.83 172.53 502.84 151.24 503.02 40.26 503.49 385.24 503.59 119.76 503.6 133.83 504.2 404.52 504.28 56.65 504.35 147.5 504.36 158.55 504.56 390.49 504.64 52.2 505.11 329.26 505.12 307.34 505.15 77 505.27 343.51 505.87 111.96 505.88 122.74 506.33 369.56 506.41 62.97 506.63 216.71 506.64 218.32 506.69 373.92 507.13 40.39 507.39 367.11 507.4 370.58 507.64 38.7 508.11 400.47 508.15 289.31 508.16 266.46 508.47 403.19 508.91 54.24 508.91 65.29 508.92 73.97 509.18 392.41 509.26 59.95 509.67 94.15 509.68 93.21 509.9 362.75 510.13 57.9 510.43 340.3 510.44 337.14 510.95 378.73 511.19 62.48 511.2 67.03 511.67 384.93 511.75 42.49 511.95 186.12 511.96 192.04 512.04 383.32 512.1 45.92 512.7 302 512.71 317.54 513.09 388.35 513.16 45.65 513.46 379.4 513.47 376.06 513.87 33.18 514.15 377.09 514.22 40.39 514.23 31.31 514.51 388.18 514.94 23.34 514.98 126.44 514.99 119.67 515.21 394.14 515.29 15.63 515.74 339.41 515.75 349.83 515.92 381.05 516 45.96 516.5 110.36 516.51 99.58 516.66 380.61 517.07 50.77 517.26 163.27 517.27 162.56 517.37 372.68 517.42 50.68 518.02 324.53 518.03 335.13 518.49 36.79 518.76 391.61 518.78 372.59 518.79 374.55 518.84 34.87 519.5 391.07 519.54 53.04 519.55 41.91 519.55 38.03 519.85 388.76 520.3 72.77 520.31 76.2 520.56 364.17 520.66 69.39 521.06 351.88 521.07 346.67 521.63 366.49 521.69 55.49 521.82 103.72 521.83 95.04 522.04 44 522.48 386.71 522.58 126.88 522.59 124.3 522.76 51.57 522.84 376.82 523.34 277.55 523.35 296.88 523.4 369.96 523.47 60.93 524.1 342.62 524.11 346.8 524.12 362.08 524.56 70.63 524.86 186.07 524.87 166.83 525.32 365.15 525.62 62.4 525.63 63.29 526.03 373.3 526.33 58.48 526.38 366.35 526.39 377.62 526.74 383.23 527.04 47.03 527.14 128.93 527.15 121.81 527.76 30.69 527.81 393.83 527.9 162.38 527.91 155.39 528.47 22 528.52 405.14 528.66 219.47 528.67 244.77 528.82 24.85 529.23 410.13 529.42 355.09 529.43 358.87 529.89 12.92 529.94 411.74 530.18 234.44 530.19 214 530.24 0 530.3 416.37 530.94 21.78 530.95 17.24 530.95 6.86 531 402.83 531.7 347.34 531.71 375.53 532.02 22.4 532.42 407.24 532.46 144.92 532.47 133.7 532.73 27.48 532.78 413.74 533.22 155.16 533.23 157.66 533.44 32.47 533.84 416.81 533.98 203.93 533.99 214.93 534.15 36.25 534.2 410.89 534.74 318.21 534.75 324.18 534.86 47.65 535.27 405.77 535.5 214.8 535.51 191.42 535.62 399.76 536.25 61.19 536.26 71.75 536.27 70.46 536.33 395.57 536.95 53.18 537.02 289.62 537.03 319.64 537.04 395.88 537.31 55.76 537.78 202.82 537.79 182.55 537.96 389.65 538.37 62.31 538.54 108.89 538.55 118.73 538.73 59.77 538.82 379.85 539.3 225.31 539.31 236.84 539.74 364.57 539.95 57.01 540.06 312.2 540.07 316.61 540.25 361.19 540.3 53.53 540.82 198.54 540.83 187.45 541 81.28 541.06 307.48 541.58 222.72 541.59 217.65 541.71 95.71 541.91 286.9 542.34 212.17 542.35 216.04 542.71 307.3 542.79 55.14 543.1 271.45 543.11 267.84 543.78 329.75 543.85 53.71 543.86 75.36 543.87 88.18 544.1 60.39 544.29 328.94 544.62 139.31 544.63 130.4 545.09 373.44 545.16 37.54 545.38 275.72 545.39 266.73 545.98 57.54 546.14 357.13 546.15 359.76 546.22 66.49 546.41 362.26 546.9 224.46 546.91 229.45 547.22 363.5 547.29 70.32 547.66 169.33 547.67 175.07 548.13 72.55 548.28 346.45 548.42 194.22 548.43 200.37 548.54 362.7 549.18 82.84 549.19 78.65 549.19 74.06 549.6 357.8 549.94 144.7 549.95 145.01 550.26 60.35 550.67 363.1 550.7 273.9 550.71 262.81 551.22 343.51 551.32 73.75 551.46 335.58 551.47 342.84 551.54 69.88 551.74 365.15 552.22 252.34 552.23 257.2 552.61 65.82 552.81 383.81 552.98 161.04 552.99 164.56 553.35 364.93 553.45 75.36 553.74 200.37 553.75 206.34 553.87 382.83 554.5 72.15 554.51 68.36 554.51 66.89 554.94 374.95 555.26 114.86 555.27 116.24 555.58 61.64 556.01 376.11 556.02 313.89 556.03 295.9 556.54 343.91 556.64 66.49 556.78 307.79 556.79 311.98 556.87 76.56 557.07 371.3 557.54 252.21 557.55 260.76 557.93 68.81 558.13 371.3 558.3 184.38 558.31 183.76 558.67 357.31 559 74.78 559.06 166.92 559.07 177.57 559.2 365.42 559.26 82.88 559.82 97.22 559.83 94.15 560.06 75.36 560.26 360.88 560.58 125.01 560.59 121 560.9 82.88 561.32 348.45 561.34 311.8 561.35 297.81 561.87 322.26 561.97 76.6 562.1 287.35 562.11 290.24 562.39 352.41 562.46 80.08 562.86 276.39 562.87 283.61 563.45 352.06 563.53 75.71 563.62 204.33 563.63 205.31 563.99 330.99 564.06 68.63 564.38 144.65 564.39 155.21 564.52 360.61 564.59 57.85 565.14 82.53 565.15 83.82 565.58 355.44 565.65 50.55 565.9 126.75 565.91 117.71 566.19 60.03 566.65 353.3 566.66 326.76 566.67 314.34 566.72 58.83 567.19 328.63 567.42 282.31 567.43 283.29 567.72 340.52 567.78 63.37 568.18 262.18 568.19 272.47 568.32 68.81 568.78 327.38 568.94 224.6 568.95 226.73 569.32 313.27 569.39 69.08 569.7 109.29 569.71 115.08 569.85 319.46 570.45 65.69 570.46 75.71 570.47 79.99 570.88 319.37 570.98 68.81 571.22 164.74 571.23 150.8 571.52 65.74 571.94 316.03 571.98 302.67 571.99 299.73 572.48 306.19 572.58 67.16 572.74 301.87 572.75 300.75 573.02 318.3 573.12 73.8 573.5 265.44 573.51 266.15 573.65 77.31 574.1 317.23 574.26 232.79 574.27 245.26 574.64 316.25 574.75 80.7 575.02 95.75 575.03 97.4 575.18 307.3 575.26 84.35 575.78 131.69 575.79 124.97 575.82 80.97 575.91 294.43 576.54 172.89 576.55 174.54 576.72 284.41 576.83 131.38 577.3 200.72 577.31 202.82 577.49 280.71 577.63 141.76 578.06 222.86 578.07 223.62 578.58 274.08 578.71 137.53 578.82 250.38 578.83 253.45 579.38 278.71 579.48 132.45 579.58 229.14 579.59 234.35 580.15 296.03 580.23 124.34 580.34 251.9 580.35 256.39 580.9 295.45 581.05 128.31 581.1 212.3 581.11 213.28 581.21 295.72 581.36 117.71 581.86 216.31 581.87 215.29 582.03 301.42 582.11 115.79 582.62 217.07 582.63 212.93 582.79 312.24 583.24 109.69 583.38 248.6 583.39 242.28 583.56 321.55 583.7 99.94 584.14 272.96 584.15 265.61 584.68 328.32 584.83 103.68 584.9 245.44 584.91 239.29 585.44 323.87 585.6 91.57 585.66 209.59 585.67 205.89 585.75 319.23 586.35 90.63 586.42 174.67 586.43 164.52 586.57 329.03 586.72 100.38 587.18 164.25 587.19 156.68 587.33 333.31 587.48 93.26 587.94 136.64 587.95 126.79 588.08 320.93 588.23 89.12 588.7 152.71 588.71 150.35 589.21 329.34 589.36 88.05 589.46 139.13 589.47 144.74 589.83 111.87 589.96 328.14 590.22 147.01 590.23 156.86 590.43 96.82 590.72 313.62 590.98 158.59 590.99 174.98 591.17 94.91 591.47 337.72 591.74 185.67 591.75 201.12 591.84 332.95 592.47 93.12 592.5 214.31 592.51 229.9 592.6 348.76 593.05 99.18 593.26 236.8 593.27 245.57 593.35 338.83 593.81 93.57 594.02 276.3 594.03 280.44 594.35 96.02 594.48 339.63 594.78 274.16 594.79 271.18 594.95 98.51 595.23 331.17 595.54 267.17 595.55 264.95 595.7 92.72 595.99 340.34 596.3 243.61 596.31 241.61 596.36 341.19 596.46 97.13 597.06 244.28 597.07 244.55 597.26 98.65 597.49 333.93 597.82 218.67 597.83 226.69 598.24 344.89 598.34 86.71 598.58 252.3 598.59 262.85 598.99 340.48 599.14 87.56 599.34 290.2 599.35 302.22 599.51 98.29 599.74 338.34 600.1 331.88 600.11 337.98 600.11 344.17 600.22 90.63 600.86 340.92 600.87 346.05 600.87 348.23 601.01 82.3 601.62 328.99 601.63 328.63 601.77 94.73 602 342.71 602.38 332.11 602.39 328.05 602.75 353.04 602.89 94.95 603.14 311 603.15 306.23 603.5 335.58 603.65 91.25 603.9 296.21 603.91 296.34 604.4 94.33 604.63 339.23 604.66 297.95 604.67 294.83 605.27 98.69 605.38 339.85 605.42 290.82 605.43 282.49 605.53 82.61 606.13 343.82 606.18 276.08 606.19 272.61 606.51 337.72 606.77 95.84 606.94 255.06 606.95 250.43 607.15 91.52 607.26 349.34 607.7 239.56 607.71 232.12 607.9 101.59 608.39 336.02 608.46 214.89 608.47 201.3 608.65 101.63 609.14 341.5 609.22 183.04 609.23 169.91 609.52 329.39 609.78 91.12 609.98 151.82 609.99 137.75 610.53 90.63 610.64 330.86 610.74 123.9 610.75 119.27 610.91 91.21 611.02 333.13 611.5 114.32 611.51 115.21 611.66 80.21 611.77 325.74 612.26 130.05 612.27 132.18 612.76 82.3 612.87 336.56 613.02 167.1 613.03 175.25 613.69 44.14 613.77 371.88 613.78 343.64 613.79 324.31 614.05 46.67 614.13 390.36 614.54 111.56 614.55 107.69 614.76 66.23 614.85 361.28 615.3 134.72 615.31 140.38 615.82 80.43 615.91 334.96 616.06 322.17 616.07 321.95 616.62 364.66 616.68 52.82 616.82 273.18 616.83 271.27 617.03 55.94 617.48 385.15 617.58 80.08 617.59 75.36 617.85 371.34 618.31 42 618.34 128.98 618.35 131.25 618.75 379.98 618.81 39.59 619.1 370.41 619.11 381.27 619.11 384.3 619.17 54.02 619.86 109.92 619.87 95.84 620.53 367.96 620.59 54.02 620.62 128.22 620.63 136.64 620.94 33.18 621.24 396.59 621.38 355.44 621.39 360.61 621.6 398.2 621.66 51.66 622.14 323.15 622.15 325.29 622.57 67.25 622.66 369.6 622.9 178.63 622.91 165.99 623.38 386.22 623.43 43.78 623.66 122.65 623.67 119.62 623.73 387.86 624.14 59.81 624.42 248.96 624.43 279.33 624.85 48.95 625.15 400.02 625.18 164.65 625.19 137.3 625.21 42.44 625.51 402.65 625.94 76.96 625.95 79.94 626.18 72.82 626.22 378.2 626.7 280.31 626.71 294.29 627.29 394.68 627.34 59.72 627.46 306.54 627.47 304.85 627.64 397.62 627.7 59.95 628.22 248.11 628.23 241.88 628.35 368.27 628.97 77.98 628.98 79.41 628.99 80.92 629.42 391.12 629.47 52.02 629.74 146.21 629.75 176.01 629.83 53.49 630.13 401.54 630.5 273.1 630.51 243.88 631.13 57.99 631.2 413.43 631.26 84.08 631.27 89.34 631.55 406.39 631.85 36.43 632.02 208.61 632.03 229.54 632.21 39.01 632.26 399.44 632.78 318.03 632.79 313.36 633.27 68.81 633.33 381.5 633.54 287.66 633.55 280.8 633.99 49.26 634.05 404.03 634.3 165.76 634.31 139.44 634.35 50.24 634.41 403.94 635.06 66.49 635.07 68.45 635.12 373.03 635.76 63.69 635.82 337.72 635.83 349.83 636.19 361.05 636.47 58.39 636.58 110.49 636.59 94.55 636.82 55.54 636.9 351.66 637.34 91.43 637.35 98.42 637.62 345.69 637.9 46.58 638.1 262.9 638.11 268.24 638.25 44.67 638.33 330.28 638.86 293.27 638.87 298.3 638.9 319.81 638.97 57.45 639.62 293.4 639.63 286.19 639.95 326.32 640.18 83.15 640.38 89.65 640.39 82.61 640.75 73.31 641.02 326.27 641.14 146.66 641.15 154.05 641.25 97.76 641.39 309.21 641.9 204.64 641.91 202.82 641.97 119.22 642.09 300.97 642.66 150.31 642.67 146.21 642.68 135.84 642.8 270.33 643.42 201.88 643.43 205.76 643.51 257.42 643.75 136.24 644.18 210.7 644.19 212.79 644.78 134.41 644.94 285.39 644.95 285.79 645.13 125.19 645.67 300.71 645.7 271.54 645.71 270.47 646.18 102.7 646.37 320.84 646.46 157.52 646.47 151.82 646.54 104.13 646.72 326.98 647.22 211.15 647.23 203.4 647.57 261.07 647.98 139.84 647.98 141.05 647.99 143.14 648.14 287.97 648.74 143.27 648.75 142.83 648.87 263.65 649.5 91.17 649.51 89.21 649.91 325.34 650.24 69.74 650.26 155.65 650.27 172.8 650.49 63.51 650.63 342.22 651.02 196.58 651.03 207.54 651.23 67.16 651.62 343.77 651.78 208.43 651.79 209.85 652.12 347.2 652.23 45.38 652.54 224.37 652.55 225.35 652.97 32.38 653.12 385.33 653.3 176.41 653.31 177.61 653.61 378.51 653.71 66.89 654.06 218.23 654.07 230.7 654.11 373.21 654.46 90.45 654.82 292.02 654.83 305.03 654.85 368.71 655.46 72.06 655.58 322.44 655.59 332.28 656.1 394.9 656.2 72.82 656.34 355.67 656.35 361.23 656.85 387.2 656.92 77.85 657.1 359.9 657.11 358.43 657.35 389.47 657.66 85.33 657.86 364.75 657.87 361.77 658.1 393.08 658.18 86.98 658.62 345.82 658.63 334.24 658.92 80.25 659.36 368.27 659.38 297.68 659.39 280.27 659.43 74.91 659.86 367.6 660.14 227.62 660.15 207.98 660.36 364.26 660.68 75.58 660.9 207.76 660.91 191.55 661.11 375.97 661.19 64.67 661.66 204.82 661.67 185.98 661.94 82.97 662.37 360.07 662.42 152.36 662.43 137.88 662.44 98.16 662.87 346.45 663.18 139.8 663.19 132.54 663.62 351.43 663.7 113.57 663.94 159.48 663.95 154.85 664.14 339.5 664.24 109.65 664.7 144.03 664.71 137.22 664.87 338.56 664.96 103.28 665.46 112.63 665.47 108 666 100.56 666.15 336.43 666.22 105.15 666.23 103.1 666.65 344.58 666.73 99.18 666.98 112.9 666.99 113.92 667.15 357.49 667.25 95.04 667.74 118.56 667.75 118.07 667.9 360.74 668 93.17 668.5 95.71 668.51 95.4 669.16 374.9 669.26 118.42 669.27 125.46 669.66 357.98 669.75 63.64 670.02 153.38 670.03 157.57 670.16 333.4 670.25 99.4 670.78 138.64 670.79 141.62 671 98.65 671.42 340.43 671.54 156.72 671.55 159.48 671.86 107.38 671.95 308.77 672.3 234.3 672.31 233.06 672.54 277.33 672.63 160.33 673.06 198.59 673.07 195.11 673.48 155.34 673.56 268.95 673.82 169.42 673.83 168.12 673.94 287.75 674.03 136.86 674.58 168.39 674.59 166.52 674.83 132.14 675.32 287.35 675.34 244.32 675.35 236.22 675.62 93.35 675.71 336.43 676.1 335.8 676.11 335.8 676.41 75.4 676.51 352.24 676.86 209.5 676.87 224.51 677.4 50.37 677.5 386.97 677.62 79.27 677.63 88.14 678.19 46.9 678.29 380.2 678.38 61.95 678.39 55.14 678.4 45.65 679.09 398.46 679.14 169.77 679.15 158.33 679.19 26.41 679.49 407.95 679.9 316.65 679.91 298.97 680.18 28.9 680.48 403.1 680.66 384.88 680.67 389.74 681.07 413.61 681.18 34.34 681.42 190.3 681.43 209.19 681.47 409.02 682.17 33.49 682.18 48.54 682.19 56.16 682.56 32.47 682.86 409.82 682.94 71.21 682.95 63.11 682.96 41.64 683.66 406.26 683.7 202.15 683.71 187.05 684.25 412.98 684.35 36.21 684.46 376.73 684.47 363.37 684.56 37.72 685.04 411.2 685.22 340.3 685.23 355.22 685.74 33.71 685.84 412.14 685.98 141.09 685.99 155.97 686.63 415.12 686.74 43.65 686.74 47.07 686.75 51.93 686.94 43.69 687.43 407.33 687.5 115.13 687.51 105.19 687.74 34.74 687.83 417.66 688.26 232.83 688.27 218.63 688.63 415.08 688.73 38.3 689.02 400.65 689.03 399.04 689.42 418.06 689.53 49.57 689.78 220.68 689.79 238.18 689.82 404.88 690.53 57.14 690.54 76.78 690.55 84.66 690.62 399.76 690.73 50.37 691.3 118.33 691.31 109.96 691.42 395.3 691.53 67.34 692.06 229.9 692.07 217.74 692.13 103.32 692.23 353.13 692.82 210.52 692.83 221.17 693.41 123.9 693.5 322.89 693.58 157.17 693.59 147.59 694.03 83.33 694.34 380.52 694.35 377.89 694.66 60.21 694.76 410.71 695.1 120.02 695.11 127.77 695.18 400.25 695.29 85.69 695.86 141.94 695.87 134.32 696.02 334.33 696.11 102.08 696.62 219.34 696.63 224.55 697.29 349.56 697.38 96.51 697.39 91.3 697.82 59.05 697.93 389.42 698.14 368.58 698.15 356.73 698.23 62.8 698.34 389.78 698.9 142.07 698.91 153.34 698.98 359.85 699.08 96.6 699.66 168.52 699.67 160.95 700.25 336.74 700.35 106.26 700.42 251.36 700.43 262.99 700.46 345.29 700.57 107.96 701.18 115.21 701.19 112.63 701.61 77.89 701.72 376.91 701.94 354.64 701.95 347.11 702.57 352.15 702.67 92.28 702.7 153.2 702.71 160.51 702.78 357.27 702.87 88.45 703.46 179.35 703.47 170.62 704.04 329.7 704.14 116.15 704.22 255.41 704.23 265.39 704.8 100.43 704.9 354.55 704.98 123.99 704.99 119.71 705.65 95.98 705.74 354.77 705.74 353.57 705.75 349.39 705.85 85.91 706.16 361.32 706.5 132 706.51 135.26 707.01 341.37 707.12 111.34 707.26 200.99 707.27 193.55 707.33 103.68 707.42 329.12 708.02 239.2 708.03 245.48 708.49 353.97 708.61 91.48 708.78 132.54 708.79 128.71 709.44 82.21 709.54 368.05 709.54 366.98 709.55 362.61 709.65 87.56 709.75 367.11 710.3 126.84 710.31 130.09 710.71 113.21 710.81 332.95 711.06 217.65 711.07 207.32 711.12 111.65 711.65 324.04 711.82 231.94 711.83 239.34 712.2 99.94 712.49 351.12 712.58 125.73 712.59 121.05 712.62 93.26 712.92 346.98 713.34 337.63 713.35 331.79 713.45 110.32 713.55 345.24 714.1 116.46 714.11 119.31 714.31 117.58 714.82 326.32 714.86 218.98 714.87 207.85 715.37 92.72 715.45 341.9 715.62 253.32 715.63 261.83 715.66 337.49 715.79 106.13 716.38 118.69 716.39 118.29 716.63 102.97 716.72 330.41 717.14 312.42 717.15 307.92 717.77 333.66 717.9 96.69 717.91 98.07 718.11 97.49 718.19 345.02 718.66 211.1 718.67 197.65 718.91 95.98 719.03 343.06 719.42 267.71 719.43 277.33 719.45 339.68 719.76 118.56 720.18 130.09 720.19 132.54 720.72 326.58 720.86 90.45 720.94 312.73 720.95 312.2 721.28 84.04 721.56 342.35 721.7 90.81 721.71 92.55 721.91 83.77 721.98 358.74 722.46 196.45 722.47 183.4 722.55 98.96 722.83 345.15 723.22 270.11 723.23 279.6 723.25 329.08 723.82 94.91 723.98 147.95 723.99 150.44 724.51 333.17 724.66 73.22 724.74 310.91 724.75 310.42 724.87 72.82 725.36 339.14 725.5 83.77 725.51 88.85 725.71 85.24 725.78 339.68 726.26 208.38 726.27 197.25 726.62 320.79 726.98 85.06 727.02 274.74 727.03 283.43 727.61 59.05 727.69 348 727.78 68.59 727.79 67.07 727.81 58.16 728.29 358.6 728.54 200.68 728.55 195.2 728.6 94.86 728.7 310.46 729.3 150.26 729.31 145.86 729.52 106.66 729.63 295.72 730.06 178.95 730.07 174.54 730.68 314.29 730.79 102.12 730.82 128.75 730.83 133.61 730.92 297.46 731 130.31 731.58 138.91 731.59 141.67 731.82 101.19 731.94 317.94 732.34 155.12 732.35 167.28 732.44 297.06 733.09 95.08 733.1 113.61 733.11 122.83 733.21 341.5 733.32 78.43 733.86 182.29 733.87 192.13 734.47 319.86 734.58 83.46 734.62 159.75 734.63 168.08 734.72 321.64 734.84 77.36 735.38 235.86 735.39 244.01 735.84 64.84 735.98 341.46 736.14 249.67 736.15 265.44 736.22 337.76 736.33 70.19 736.9 243.57 736.91 248.96 737.48 348.72 737.6 57.32 737.66 295.76 737.67 297.68 738.25 323.38 738.36 81.77 738.42 259.69 738.43 254.26 738.49 351.88 738.86 58.88 739.18 286.77 739.19 281.65 739.75 354.6 739.86 73.04 739.94 274.52 739.95 273.72 740 338.96 740.12 78.96 740.7 226.87 740.71 224.42 741.01 356.2 741.11 84.13 741.46 241.52 741.47 240.98 741.61 100.79 741.76 327.16 742.22 222.59 742.23 228.78 742.51 342.93 742.62 84.4 742.98 248.96 742.99 255.95 743.52 327.96 743.63 99.76 743.74 280.31 743.75 292.96 743.77 345.02 743.88 78.83 744.5 260.89 744.51 271.05 745.02 339.59 745.14 92.9 745.26 315.58 745.27 323.15 745.28 330.37 745.39 92.59 746.02 305.74 746.03 311.53 746.53 353.22 746.64 73.75 746.78 318.97 746.79 316.87 747.4 100.38 747.54 345.24 747.54 341.24 747.55 336.38 747.79 358.6 747.9 75.04 748.3 295.14 748.31 281.91 748.91 92.19 749.05 349.92 749.06 302.31 749.07 285.21 749.16 74.24 749.29 331.84 749.82 251.23 749.83 235.06 750.3 344.13 750.42 87.29 750.58 208.38 750.59 192.08 750.66 92.15 751.31 332.55 751.34 209.23 751.35 195.65 751.56 347.43 751.92 91.34 752.1 145.5 752.11 135.88 752.16 107.96 752.82 342.39 752.86 154.54 752.87 148.75 753.06 343.24 753.17 77.85 753.62 122.88 753.63 122.47 754.18 95.31 754.32 336.47 754.38 130.18 754.39 128.71 754.43 82.26 754.57 321.82 755.14 137.22 755.15 135.26 755.58 333.58 755.69 87.91 755.9 108.67 755.91 107.2 755.93 90.94 756.58 327.47 756.66 118.02 756.67 116.28 756.83 341.81 756.94 92.59 757.42 113.08 757.43 112.99 757.94 94.33 758.09 350.23 758.18 102.52 758.19 99.94 758.19 98.65 758.59 341.99 758.94 113.12 758.95 111.96 759.59 355.53 759.7 93.7 759.71 94.19 760.35 345.87 760.46 109.87 760.47 111.65 760.6 361.41 760.71 100.34 761.22 126.53 761.23 132.05 761.86 355.26 761.97 100.12 761.98 123.54 761.99 133.65 762.1 354.69 762.21 108.18 762.74 155.12 762.75 165.9 763.36 361.1 763.47 102.21 763.5 174.8 763.51 186.25 763.61 355.26 763.97 108.53 764.26 192.8 764.27 203.35 764.62 362.52 764.73 93.39 765.02 223.04 765.03 233.64 765.12 354.55 765.23 102.88 765.78 239.11 765.79 246.06 766.37 362.26 766.48 96.96 766.54 269.31 766.55 273.63 767.13 357.27 767.24 98.91 767.3 251.9 767.31 250.47 767.38 365.06 767.49 100.07 768.06 254.66 768.07 249.22 768.63 365.64 768.74 100.38 768.82 249.09 768.83 242.41 768.88 357.36 768.96 103.06 769.58 217.51 769.59 210.92 770 105.42 770.14 367.42 770.34 217.96 770.35 216.04 770.45 100.34 770.9 361.94 771.1 201.61 771.11 204.87 771.15 373.84 771.47 97.85 771.86 219.34 771.87 229.18 771.96 107.51 772.41 363.37 772.62 240.23 772.63 255.28 772.65 369.96 772.97 101.19 773.38 269.44 773.39 287.04 773.91 370.85 773.98 109.65 774.14 311.62 774.15 326.72 774.16 362.84 774.22 99.18 774.9 206.07 774.91 206.07 821 206.07 821 206.07"></polyline>
                                </g>
                            </g>
                        </g>
                    </g>
                    <g transform="translate(46.000000, 541.000000)" fill="#2A3F5F" font-family="Verdana" font-size="12" font-weight="normal">
                        <text id="0">
                            <tspan x="0" y="12">0</tspan>
                        </text>
                        <text id="50k">
                            <tspan x="149.17" y="12">50k</tspan>
                        </text>
                        <text id="100k">
                            <tspan x="302.34" y="12">100k</tspan>
                        </text>
                        <text id="150k">
                            <tspan x="459.02" y="12">150k</tspan>
                        </text>
                        <text id="200k">
                            <tspan x="615.69" y="12">200k</tspan>
                        </text>
                        <text id="250k">
                            <tspan x="772.36" y="12">250k</tspan>
                        </text>
                    </g>
                    <g transform="translate(19.000000, 53.000000)" fill="#2A3F5F" font-family="Verdana" font-size="12" font-weight="normal">
                        <text id="1">
                            <tspan x="12" y="469.83">1</tspan>
                        </text>
                        <text id="0.5">
                            <tspan x="0" y="355.55">0.5</tspan>
                        </text>
                        <text id="0">
                            <tspan x="22" y="241.27">0</tspan>
                        </text>
                        <text id="0.5">
                            <tspan x="10" y="126.99">0.5</tspan>
                        </text>
                        <text id="1">
                            <tspan x="22" y="12.71">1</tspan>
                        </text>
                    </g>
                </g>
            </g>
            <g id="Group-6" transform="translate(48.000000, 61.000000)"></g>
            <g id="Group-5" transform="translate(48.000000, 61.000000)" stroke="#41446C">
                <g id="Group-4" transform="translate(0.000000, 0.000000)">
                    <path d="M1.12669562,478.759063 L1.12669562,0.923773815" id="Path-2"></path>
                    <path d="M104.782692,478.759063 L104.782692,0.923773815" id="Path-2-Copy-5"></path>
                    <path d="M21.4072167,478.759063 L21.4072167,0.923773815" id="Path-2-Copy"></path>
                    <path d="M127.316605,478.759063 L127.316605,0.923773815" id="Path-2-Copy-6"></path>
                    <path d="M61.9682589,478.759063 L61.9682589,0.923773815" id="Path-2-Copy-3"></path>
                    <path d="M167.877647,478.759063 L167.877647,0.923773815" id="Path-2-Copy-7"></path>
                    <path d="M41.6877378,478.759063 L41.6877378,0.923773815" id="Path-2-Copy-2"></path>
                    <path d="M147.597126,478.759063 L147.597126,0.923773815" id="Path-2-Copy-8"></path>
                    <path d="M84.5021712,478.759063 L84.5021712,0.923773815" id="Path-2-Copy-4"></path>
                    <path d="M188.158168,478.759063 L188.158168,0.923773815" id="Path-2-Copy-9"></path>
                </g>
                <g id="Group-4-Copy" transform="translate(211.916749, 0.000000)">
                    <path d="M1.12669562,478.759063 L1.12669562,0.923773815" id="Path-2"></path>
                    <path d="M104.782692,478.759063 L104.782692,0.923773815" id="Path-2-Copy-5"></path>
                    <path d="M21.4072167,478.759063 L21.4072167,0.923773815" id="Path-2-Copy"></path>
                    <path d="M127.316605,478.759063 L127.316605,0.923773815" id="Path-2-Copy-6"></path>
                    <path d="M61.9682589,478.759063 L61.9682589,0.923773815" id="Path-2-Copy-3"></path>
                    <path d="M167.877647,478.759063 L167.877647,0.923773815" id="Path-2-Copy-7"></path>
                    <path d="M41.6877378,478.759063 L41.6877378,0.923773815" id="Path-2-Copy-2"></path>
                    <path d="M147.597126,478.759063 L147.597126,0.923773815" id="Path-2-Copy-8"></path>
                    <path d="M84.5021712,478.759063 L84.5021712,0.923773815" id="Path-2-Copy-4"></path>
                    <path d="M188.158168,478.759063 L188.158168,0.923773815" id="Path-2-Copy-9"></path>
                </g>
                <g id="Group-4-Copy-2" transform="translate(421.776055, 0.000000)">
                    <path d="M1.12669562,478.759063 L1.12669562,0.923773815" id="Path-2"></path>
                    <path d="M104.782692,478.759063 L104.782692,0.923773815" id="Path-2-Copy-5"></path>
                    <path d="M21.4072167,478.759063 L21.4072167,0.923773815" id="Path-2-Copy"></path>
                    <path d="M127.316605,478.759063 L127.316605,0.923773815" id="Path-2-Copy-6"></path>
                    <path d="M61.9682589,478.759063 L61.9682589,0.923773815" id="Path-2-Copy-3"></path>
                    <path d="M167.877647,478.759063 L167.877647,0.923773815" id="Path-2-Copy-7"></path>
                    <path d="M41.6877378,478.759063 L41.6877378,0.923773815" id="Path-2-Copy-2"></path>
                    <path d="M147.597126,478.759063 L147.597126,0.923773815" id="Path-2-Copy-8"></path>
                    <path d="M84.5021712,478.759063 L84.5021712,0.923773815" id="Path-2-Copy-4"></path>
                    <path d="M188.158168,478.759063 L188.158168,0.923773815" id="Path-2-Copy-9"></path>
                </g>
                <g id="Group-4-Copy-3" transform="translate(633.692804, 0.000000)">
                    <path d="M1.12669562,478.759063 L1.12669562,0.923773815" id="Path-2"></path>
                    <path d="M104.782692,478.759063 L104.782692,0.923773815" id="Path-2-Copy-5"></path>
                    <path d="M21.4072167,478.759063 L21.4072167,0.923773815" id="Path-2-Copy"></path>
                    <path d="M127.316605,478.759063 L127.316605,0.923773815" id="Path-2-Copy-6"></path>
                    <path d="M61.9682589,478.759063 L61.9682589,0.923773815" id="Path-2-Copy-3"></path>
                    <path d="M167.877647,478.759063 L167.877647,0.923773815" id="Path-2-Copy-7"></path>
                    <path d="M41.6877378,478.759063 L41.6877378,0.923773815" id="Path-2-Copy-2"></path>
                    <path d="M147.597126,478.759063 L147.597126,0.923773815" id="Path-2-Copy-8"></path>
                    <path d="M84.5021712,478.759063 L84.5021712,0.923773815" id="Path-2-Copy-4"></path>
                    <path d="M188.158168,478.759063 L188.158168,0.923773815" id="Path-2-Copy-9"></path>
                </g>
            </g>
        </g>
    </g>
</svg>