<?xml version="1.0" encoding="UTF-8"?>
<svg width="176px" height="263px" viewBox="0 0 176 263" version="1.1" xmlns="http://www.w3.org/2000/svg" xmlns:xlink="http://www.w3.org/1999/xlink">
    <!-- Generator: Sketch 53.2 (72643) - https://sketchapp.com -->
    <title>Group 7</title>
    <desc>Created with Sketch.</desc>
    <g id="Page-1" stroke="none" stroke-width="1" fill="none" fill-rule="evenodd">
        <g id="Artboard" transform="translate(-1101.000000, -115.000000)">
            <g id="Group-7" transform="translate(1099.500000, 115.000000)">
                <g id="Group-6" transform="translate(13.632581, 0.000000)">
                    <g id="Group-16-Copy-6" transform="translate(1.867419, 0.000000)">
                        <g id="Group-11-Copy" transform="translate(0.867419, 0.000000)">
                            <g id="Group-9" stroke="#E2E2E2" stroke-linecap="round">
                                <path d="M1.4216178,97.9067375 L159.865569,97.9067375" id="Line"></path>
                                <path d="M1.4216178,97.9067375 L1.4216178,0.578707572" id="Line"></path>
                            </g>
                            <path d="" id="Path-24" stroke="#979797"></path>
                        </g>
                        <path d="M5.86741932,75 C12.6344104,44.0862102 20.2342414,30.2378204 28.6669125,33.4548306 C41.315919,38.2803458 38.9103784,60.951452 51.5178502,60.951452 C64.1253219,60.951452 70.138598,50.5649627 80.6070277,56.0428924 C91.0754574,61.5208221 96.7838214,70.7293234 106.451412,64.0292032 C116.119002,57.329083 117.356272,39.0246371 128.650792,40.8853831 C139.945312,42.746129 137.872857,69.8972444 149.867419,69.8972444" id="Path-35" stroke="#0000A6"></path>
                    </g>
                    <g id="Group-16-Copy-2" transform="translate(8.867419, 146.000000)" stroke="#0000A6">
                        <path d="M0.867419325,27 C13.0873903,27 11.0586887,0.0023324818 24.8062381,0.294698311 C38.5537875,0.587064141 36.5889352,27 49.2470615,27 C61.9051878,27 60.3636415,-0.290033348 74.3674193,0.0023324818 C88.3711971,0.294698311 86.1213555,27 101.563002,27 C117.004648,27 110.230217,0.294698311 124.556473,0.0023324818 C138.882728,-0.290033348 135.824665,27 147.867419,27" id="Path-35"></path>
                    </g>
                    <g id="Group-16-Copy-4" transform="translate(4.867419, 232.000000)" stroke="#0000A6">
                        <path d="M0.867419325,28.8046571 C7.22993306,28.8046571 6.17365875,0.00248838291 13.3315295,0.314395697 C20.4894001,0.626303011 19.4663699,28.8046571 26.0570159,28.8046571 C32.6476619,28.8046571 31.8450324,-0.309418931 39.1363123,0.00248838291 C46.4275922,0.314395697 45.2561779,28.8046571 53.2961059,28.8046571 C61.3360339,28.8046571 57.8088235,0.314395697 65.2680062,0.00248838291 C72.7271889,-0.309418931 71.597176,29 77.8674193,29" id="Path-35"></path>
                        <path d="M77.8674193,30 C84.2683565,30 83.2057033,1.00250526 90.4068006,1.31652782 C97.6078979,1.63055037 96.5786895,30 103.209137,30 C109.839584,30 109.032107,0.688482701 116.367419,1.00250526 C123.702732,1.31652782 122.524243,30 130.612724,30 C138.701206,30 135.152694,1.31652782 142.656923,1.00250526 C150.161152,0.688482701 148.55931,30 154.867419,30" id="Path-35-Copy-2"></path>
                    </g>
                    <g id="Group-16-Copy-3" transform="translate(5.000000, 187.000000)">
                        <g id="Group-11-Copy" transform="translate(11.000000, 74.000000)" stroke="#979797">
                            <path d="" id="Path-24"></path>
                        </g>
                        <path d="M0.867419325,28.8046571 C10.4272605,28.8046571 8.84018111,0.00248838291 19.5950667,0.314395697 C30.3499523,0.626303011 28.8128229,28.8046571 38.7154387,28.8046571 C48.6180545,28.8046571 47.412083,-0.309418931 58.3674193,0.00248838291 C69.3227557,0.314395697 67.5626755,28.8046571 79.642875,28.8046571 C91.7230744,28.8046571 86.4233497,0.314395697 97.6309644,0.00248838291 C108.838579,-0.309418931 106.911222,29 116.332425,29" id="Path-35" stroke="#0000A6"></path>
                        <path d="M116.332425,29 C125.892266,29 124.305187,0.695958696 135.060072,1.00247164 C145.814958,1.30898458 144.277828,29 154.180444,29" id="Path-35-Copy" stroke="#0000A6"></path>
                    </g>
                    <text id="+" font-family="Merriweather-Regular, Merriweather" font-size="19" font-weight="normal" letter-spacing="1.416363" fill="#4E586A">
                        <tspan x="75.8920563" y="187">+</tspan>
                    </text>
                    <text id="$e_1$" font-family="Merriweather-Regular, Merriweather" font-size="10" font-weight="normal" letter-spacing="0.7454544" fill="#4E586A">
                        <tspan x="1.77014732" y="160">$e_1$</tspan>
                    </text>
                    <text id="$f$" font-family="Merriweather-Regular, Merriweather" font-size="10" font-weight="normal" letter-spacing="0.7454544" fill="#4E586A">
                        <tspan x="9.45105612" y="42">$f$</tspan>
                    </text>
                    <text id="$e_2$" font-family="Merriweather-Regular, Merriweather" font-size="10" font-weight="normal" letter-spacing="0.7454544" fill="#4E586A">
                        <tspan x="1.19014732" y="202">$e_2$</tspan>
                    </text>
                    <text id="$e_3$" font-family="Merriweather-Regular, Merriweather" font-size="10" font-weight="normal" letter-spacing="0.7454544" fill="#4E586A">
                        <tspan x="1.57014732" y="248">$e_3$</tspan>
                    </text>
                    <text id="=" font-family="Merriweather-Regular, Merriweather" font-size="24" font-weight="normal" letter-spacing="1.789091" fill="#4E586A">
                        <tspan x="74.538909" y="133">=</tspan>
                    </text>
                    <text id="+-copy" font-family="Merriweather-Regular, Merriweather" font-size="19" font-weight="normal" letter-spacing="1.416363" fill="#4E586A">
                        <tspan x="75.8920563" y="233">+</tspan>
                    </text>
                </g>
                <text id="Time" font-family="Merriweather-Regular, Merriweather" font-size="8" font-weight="normal" letter-spacing="0.5963634" fill="#4E586A">
                    <tspan x="83.7351271" y="110">Time</tspan>
                </text>
                <text id="Amplitude" transform="translate(5.500000, 49.500000) rotate(-90.000000) translate(-5.500000, -49.500000) " font-family="Merriweather-Regular, Merriweather" font-size="8" font-weight="normal" letter-spacing="0.5963634" fill="#4E586A">
                    <tspan x="-17.8472706" y="52.5">Amplitude</tspan>
                </text>
            </g>
        </g>
    </g>
</svg>