<svg xmlns="http://www.w3.org/2000/svg" xmlns:xlink="http://www.w3.org/1999/xlink" width="600" height="400" viewBox="0 0 2400 1600">
<defs>
  <clipPath id="clip920">
    <rect x="0" y="0" width="2400" height="1600"></rect>
  </clipPath>
</defs>
<path clip-path="url(#clip920)" d="M0 1600 L2400 1600 L2400 0 L0 0  Z" fill="#ffffff" fill-rule="evenodd" fill-opacity="1"></path>
<defs>
  <clipPath id="clip921">
    <rect x="480" y="0" width="1681" height="1600"></rect>
  </clipPath>
</defs>
<path clip-path="url(#clip920)" d="M242.135 1423.18 L2352.76 1423.18 L2352.76 47.2441 L242.135 47.2441  Z" fill="#ffffff" fill-rule="evenodd" fill-opacity="1"></path>
<defs>
  <clipPath id="clip922">
    <rect x="242" y="47" width="2112" height="1377"></rect>
  </clipPath>
</defs>
<polyline clip-path="url(#clip922)" style="stroke:#000000; stroke-linecap:round; stroke-linejoin:round; stroke-width:2; stroke-opacity:0.1; fill:none" points="301.869,1423.18 301.869,47.2441 "></polyline>
<polyline clip-path="url(#clip922)" style="stroke:#000000; stroke-linecap:round; stroke-linejoin:round; stroke-width:2; stroke-opacity:0.1; fill:none" points="700.1,1423.18 700.1,47.2441 "></polyline>
<polyline clip-path="url(#clip922)" style="stroke:#000000; stroke-linecap:round; stroke-linejoin:round; stroke-width:2; stroke-opacity:0.1; fill:none" points="1098.33,1423.18 1098.33,47.2441 "></polyline>
<polyline clip-path="url(#clip922)" style="stroke:#000000; stroke-linecap:round; stroke-linejoin:round; stroke-width:2; stroke-opacity:0.1; fill:none" points="1496.56,1423.18 1496.56,47.2441 "></polyline>
<polyline clip-path="url(#clip922)" style="stroke:#000000; stroke-linecap:round; stroke-linejoin:round; stroke-width:2; stroke-opacity:0.1; fill:none" points="1894.79,1423.18 1894.79,47.2441 "></polyline>
<polyline clip-path="url(#clip922)" style="stroke:#000000; stroke-linecap:round; stroke-linejoin:round; stroke-width:2; stroke-opacity:0.1; fill:none" points="2293.02,1423.18 2293.02,47.2441 "></polyline>
<polyline clip-path="url(#clip920)" style="stroke:#000000; stroke-linecap:round; stroke-linejoin:round; stroke-width:4; stroke-opacity:1; fill:none" points="242.135,1423.18 2352.76,1423.18 "></polyline>
<polyline clip-path="url(#clip920)" style="stroke:#000000; stroke-linecap:round; stroke-linejoin:round; stroke-width:4; stroke-opacity:1; fill:none" points="301.869,1423.18 301.869,1404.28 "></polyline>
<polyline clip-path="url(#clip920)" style="stroke:#000000; stroke-linecap:round; stroke-linejoin:round; stroke-width:4; stroke-opacity:1; fill:none" points="700.1,1423.18 700.1,1404.28 "></polyline>
<polyline clip-path="url(#clip920)" style="stroke:#000000; stroke-linecap:round; stroke-linejoin:round; stroke-width:4; stroke-opacity:1; fill:none" points="1098.33,1423.18 1098.33,1404.28 "></polyline>
<polyline clip-path="url(#clip920)" style="stroke:#000000; stroke-linecap:round; stroke-linejoin:round; stroke-width:4; stroke-opacity:1; fill:none" points="1496.56,1423.18 1496.56,1404.28 "></polyline>
<polyline clip-path="url(#clip920)" style="stroke:#000000; stroke-linecap:round; stroke-linejoin:round; stroke-width:4; stroke-opacity:1; fill:none" points="1894.79,1423.18 1894.79,1404.28 "></polyline>
<polyline clip-path="url(#clip920)" style="stroke:#000000; stroke-linecap:round; stroke-linejoin:round; stroke-width:4; stroke-opacity:1; fill:none" points="2293.02,1423.18 2293.02,1404.28 "></polyline>
<path clip-path="url(#clip920)" d="M279.254 1454.1 Q275.643 1454.1 273.814 1457.66 Q272.008 1461.2 272.008 1468.33 Q272.008 1475.44 273.814 1479.01 Q275.643 1482.55 279.254 1482.55 Q282.888 1482.55 284.693 1479.01 Q286.522 1475.44 286.522 1468.33 Q286.522 1461.2 284.693 1457.66 Q282.888 1454.1 279.254 1454.1 M279.254 1450.39 Q285.064 1450.39 288.119 1455 Q291.198 1459.58 291.198 1468.33 Q291.198 1477.06 288.119 1481.67 Q285.064 1486.25 279.254 1486.25 Q273.443 1486.25 270.365 1481.67 Q267.309 1477.06 267.309 1468.33 Q267.309 1459.58 270.365 1455 Q273.443 1450.39 279.254 1450.39 Z" fill="#000000" fill-rule="evenodd" fill-opacity="1"></path><path clip-path="url(#clip920)" d="M299.416 1479.7 L304.3 1479.7 L304.3 1485.58 L299.416 1485.58 L299.416 1479.7 Z" fill="#000000" fill-rule="evenodd" fill-opacity="1"></path><path clip-path="url(#clip920)" d="M324.485 1454.1 Q320.874 1454.1 319.045 1457.66 Q317.24 1461.2 317.24 1468.33 Q317.24 1475.44 319.045 1479.01 Q320.874 1482.55 324.485 1482.55 Q328.119 1482.55 329.925 1479.01 Q331.753 1475.44 331.753 1468.33 Q331.753 1461.2 329.925 1457.66 Q328.119 1454.1 324.485 1454.1 M324.485 1450.39 Q330.295 1450.39 333.351 1455 Q336.429 1459.58 336.429 1468.33 Q336.429 1477.06 333.351 1481.67 Q330.295 1486.25 324.485 1486.25 Q318.675 1486.25 315.596 1481.67 Q312.54 1477.06 312.54 1468.33 Q312.54 1459.58 315.596 1455 Q318.675 1450.39 324.485 1450.39 Z" fill="#000000" fill-rule="evenodd" fill-opacity="1"></path><path clip-path="url(#clip920)" d="M678.097 1454.1 Q674.486 1454.1 672.658 1457.66 Q670.852 1461.2 670.852 1468.33 Q670.852 1475.44 672.658 1479.01 Q674.486 1482.55 678.097 1482.55 Q681.732 1482.55 683.537 1479.01 Q685.366 1475.44 685.366 1468.33 Q685.366 1461.2 683.537 1457.66 Q681.732 1454.1 678.097 1454.1 M678.097 1450.39 Q683.908 1450.39 686.963 1455 Q690.042 1459.58 690.042 1468.33 Q690.042 1477.06 686.963 1481.67 Q683.908 1486.25 678.097 1486.25 Q672.287 1486.25 669.209 1481.67 Q666.153 1477.06 666.153 1468.33 Q666.153 1459.58 669.209 1455 Q672.287 1450.39 678.097 1450.39 Z" fill="#000000" fill-rule="evenodd" fill-opacity="1"></path><path clip-path="url(#clip920)" d="M698.259 1479.7 L703.144 1479.7 L703.144 1485.58 L698.259 1485.58 L698.259 1479.7 Z" fill="#000000" fill-rule="evenodd" fill-opacity="1"></path><path clip-path="url(#clip920)" d="M714.139 1481.64 L721.778 1481.64 L721.778 1455.28 L713.468 1456.95 L713.468 1452.69 L721.731 1451.02 L726.407 1451.02 L726.407 1481.64 L734.046 1481.64 L734.046 1485.58 L714.139 1485.58 L714.139 1481.64 Z" fill="#000000" fill-rule="evenodd" fill-opacity="1"></path><path clip-path="url(#clip920)" d="M1076.51 1454.1 Q1072.9 1454.1 1071.07 1457.66 Q1069.27 1461.2 1069.27 1468.33 Q1069.27 1475.44 1071.07 1479.01 Q1072.9 1482.55 1076.51 1482.55 Q1080.15 1482.55 1081.95 1479.01 Q1083.78 1475.44 1083.78 1468.33 Q1083.78 1461.2 1081.95 1457.66 Q1080.15 1454.1 1076.51 1454.1 M1076.51 1450.39 Q1082.32 1450.39 1085.38 1455 Q1088.46 1459.58 1088.46 1468.33 Q1088.46 1477.06 1085.38 1481.67 Q1082.32 1486.25 1076.51 1486.25 Q1070.7 1486.25 1067.62 1481.67 Q1064.57 1477.06 1064.57 1468.33 Q1064.57 1459.58 1067.62 1455 Q1070.7 1450.39 1076.51 1450.39 Z" fill="#000000" fill-rule="evenodd" fill-opacity="1"></path><path clip-path="url(#clip920)" d="M1096.67 1479.7 L1101.56 1479.7 L1101.56 1485.58 L1096.67 1485.58 L1096.67 1479.7 Z" fill="#000000" fill-rule="evenodd" fill-opacity="1"></path><path clip-path="url(#clip920)" d="M1115.77 1481.64 L1132.09 1481.64 L1132.09 1485.58 L1110.15 1485.58 L1110.15 1481.64 Q1112.81 1478.89 1117.39 1474.26 Q1122 1469.61 1123.18 1468.27 Q1125.42 1465.74 1126.3 1464.01 Q1127.21 1462.25 1127.21 1460.56 Q1127.21 1457.8 1125.26 1456.07 Q1123.34 1454.33 1120.24 1454.33 Q1118.04 1454.33 1115.59 1455.09 Q1113.16 1455.86 1110.38 1457.41 L1110.38 1452.69 Q1113.2 1451.55 1115.66 1450.97 Q1118.11 1450.39 1120.15 1450.39 Q1125.52 1450.39 1128.71 1453.08 Q1131.91 1455.77 1131.91 1460.26 Q1131.91 1462.39 1131.1 1464.31 Q1130.31 1466.2 1128.2 1468.8 Q1127.62 1469.47 1124.52 1472.69 Q1121.42 1475.88 1115.77 1481.64 Z" fill="#000000" fill-rule="evenodd" fill-opacity="1"></path><path clip-path="url(#clip920)" d="M1474.27 1454.1 Q1470.66 1454.1 1468.83 1457.66 Q1467.02 1461.2 1467.02 1468.33 Q1467.02 1475.44 1468.83 1479.01 Q1470.66 1482.55 1474.27 1482.55 Q1477.9 1482.55 1479.71 1479.01 Q1481.54 1475.44 1481.54 1468.33 Q1481.54 1461.2 1479.71 1457.66 Q1477.9 1454.1 1474.27 1454.1 M1474.27 1450.39 Q1480.08 1450.39 1483.13 1455 Q1486.21 1459.58 1486.21 1468.33 Q1486.21 1477.06 1483.13 1481.67 Q1480.08 1486.25 1474.27 1486.25 Q1468.46 1486.25 1465.38 1481.67 Q1462.32 1477.06 1462.32 1468.33 Q1462.32 1459.58 1465.38 1455 Q1468.46 1450.39 1474.27 1450.39 Z" fill="#000000" fill-rule="evenodd" fill-opacity="1"></path><path clip-path="url(#clip920)" d="M1494.43 1479.7 L1499.32 1479.7 L1499.32 1485.58 L1494.43 1485.58 L1494.43 1479.7 Z" fill="#000000" fill-rule="evenodd" fill-opacity="1"></path><path clip-path="url(#clip920)" d="M1523.67 1466.95 Q1527.02 1467.66 1528.9 1469.93 Q1530.8 1472.2 1530.8 1475.53 Q1530.8 1480.65 1527.28 1483.45 Q1523.76 1486.25 1517.28 1486.25 Q1515.1 1486.25 1512.79 1485.81 Q1510.5 1485.39 1508.04 1484.54 L1508.04 1480.02 Q1509.99 1481.16 1512.3 1481.74 Q1514.62 1482.32 1517.14 1482.32 Q1521.54 1482.32 1523.83 1480.58 Q1526.14 1478.84 1526.14 1475.53 Q1526.14 1472.48 1523.99 1470.77 Q1521.86 1469.03 1518.04 1469.03 L1514.01 1469.03 L1514.01 1465.19 L1518.23 1465.19 Q1521.68 1465.19 1523.5 1463.82 Q1525.33 1462.43 1525.33 1459.84 Q1525.33 1457.18 1523.44 1455.77 Q1521.56 1454.33 1518.04 1454.33 Q1516.12 1454.33 1513.92 1454.75 Q1511.72 1455.16 1509.08 1456.04 L1509.08 1451.88 Q1511.75 1451.14 1514.06 1450.77 Q1516.4 1450.39 1518.46 1450.39 Q1523.78 1450.39 1526.88 1452.83 Q1529.99 1455.23 1529.99 1459.35 Q1529.99 1462.22 1528.34 1464.21 Q1526.7 1466.18 1523.67 1466.95 Z" fill="#000000" fill-rule="evenodd" fill-opacity="1"></path><path clip-path="url(#clip920)" d="M1871.93 1454.1 Q1868.32 1454.1 1866.49 1457.66 Q1864.69 1461.2 1864.69 1468.33 Q1864.69 1475.44 1866.49 1479.01 Q1868.32 1482.55 1871.93 1482.55 Q1875.57 1482.55 1877.37 1479.01 Q1879.2 1475.44 1879.2 1468.33 Q1879.2 1461.2 1877.37 1457.66 Q1875.57 1454.1 1871.93 1454.1 M1871.93 1450.39 Q1877.74 1450.39 1880.8 1455 Q1883.88 1459.58 1883.88 1468.33 Q1883.88 1477.06 1880.8 1481.67 Q1877.74 1486.25 1871.93 1486.25 Q1866.12 1486.25 1863.04 1481.67 Q1859.99 1477.06 1859.99 1468.33 Q1859.99 1459.58 1863.04 1455 Q1866.12 1450.39 1871.93 1450.39 Z" fill="#000000" fill-rule="evenodd" fill-opacity="1"></path><path clip-path="url(#clip920)" d="M1892.09 1479.7 L1896.98 1479.7 L1896.98 1485.58 L1892.09 1485.58 L1892.09 1479.7 Z" fill="#000000" fill-rule="evenodd" fill-opacity="1"></path><path clip-path="url(#clip920)" d="M1920.01 1455.09 L1908.21 1473.54 L1920.01 1473.54 L1920.01 1455.09 M1918.78 1451.02 L1924.66 1451.02 L1924.66 1473.54 L1929.59 1473.54 L1929.59 1477.43 L1924.66 1477.43 L1924.66 1485.58 L1920.01 1485.58 L1920.01 1477.43 L1904.41 1477.43 L1904.41 1472.92 L1918.78 1451.02 Z" fill="#000000" fill-rule="evenodd" fill-opacity="1"></path><path clip-path="url(#clip920)" d="M2270.9 1454.1 Q2267.29 1454.1 2265.46 1457.66 Q2263.66 1461.2 2263.66 1468.33 Q2263.66 1475.44 2265.46 1479.01 Q2267.29 1482.55 2270.9 1482.55 Q2274.54 1482.55 2276.34 1479.01 Q2278.17 1475.44 2278.17 1468.33 Q2278.17 1461.2 2276.34 1457.66 Q2274.54 1454.1 2270.9 1454.1 M2270.9 1450.39 Q2276.71 1450.39 2279.77 1455 Q2282.85 1459.58 2282.85 1468.33 Q2282.85 1477.06 2279.77 1481.67 Q2276.71 1486.25 2270.9 1486.25 Q2265.09 1486.25 2262.01 1481.67 Q2258.96 1477.06 2258.96 1468.33 Q2258.96 1459.58 2262.01 1455 Q2265.09 1450.39 2270.9 1450.39 Z" fill="#000000" fill-rule="evenodd" fill-opacity="1"></path><path clip-path="url(#clip920)" d="M2291.07 1479.7 L2295.95 1479.7 L2295.95 1485.58 L2291.07 1485.58 L2291.07 1479.7 Z" fill="#000000" fill-rule="evenodd" fill-opacity="1"></path><path clip-path="url(#clip920)" d="M2306.18 1451.02 L2324.54 1451.02 L2324.54 1454.96 L2310.46 1454.96 L2310.46 1463.43 Q2311.48 1463.08 2312.5 1462.92 Q2313.52 1462.73 2314.54 1462.73 Q2320.32 1462.73 2323.7 1465.9 Q2327.08 1469.08 2327.08 1474.49 Q2327.08 1480.07 2323.61 1483.17 Q2320.14 1486.25 2313.82 1486.25 Q2311.64 1486.25 2309.38 1485.88 Q2307.13 1485.51 2304.72 1484.77 L2304.72 1480.07 Q2306.81 1481.2 2309.03 1481.76 Q2311.25 1482.32 2313.73 1482.32 Q2317.73 1482.32 2320.07 1480.21 Q2322.41 1478.1 2322.41 1474.49 Q2322.41 1470.88 2320.07 1468.77 Q2317.73 1466.67 2313.73 1466.67 Q2311.85 1466.67 2309.98 1467.08 Q2308.13 1467.5 2306.18 1468.38 L2306.18 1451.02 Z" fill="#000000" fill-rule="evenodd" fill-opacity="1"></path><path clip-path="url(#clip920)" d="M1057.67 1520.52 L1084.97 1520.52 L1084.97 1525.93 L1064.09 1525.93 L1064.09 1539.94 L1082.94 1539.94 L1082.94 1545.35 L1064.09 1545.35 L1064.09 1568.04 L1057.67 1568.04 L1057.67 1520.52 Z" fill="#000000" fill-rule="evenodd" fill-opacity="1"></path><path clip-path="url(#clip920)" d="M1110.82 1537.87 Q1109.83 1537.3 1108.65 1537.04 Q1107.51 1536.76 1106.11 1536.76 Q1101.14 1536.76 1098.47 1540 Q1095.83 1543.22 1095.83 1549.27 L1095.83 1568.04 L1089.94 1568.04 L1089.94 1532.4 L1095.83 1532.4 L1095.83 1537.93 Q1097.67 1534.69 1100.63 1533.13 Q1103.59 1531.54 1107.83 1531.54 Q1108.43 1531.54 1109.16 1531.63 Q1109.9 1531.7 1110.79 1531.85 L1110.82 1537.87 Z" fill="#000000" fill-rule="evenodd" fill-opacity="1"></path><path clip-path="url(#clip920)" d="M1146.02 1548.76 L1146.02 1551.62 L1119.09 1551.62 Q1119.48 1557.67 1122.72 1560.85 Q1126 1564 1131.83 1564 Q1135.2 1564 1138.35 1563.17 Q1141.53 1562.35 1144.65 1560.69 L1144.65 1566.23 Q1141.5 1567.57 1138.19 1568.27 Q1134.88 1568.97 1131.48 1568.97 Q1122.95 1568.97 1117.95 1564 Q1112.98 1559.04 1112.98 1550.57 Q1112.98 1541.82 1117.69 1536.69 Q1122.44 1531.54 1130.46 1531.54 Q1137.65 1531.54 1141.82 1536.18 Q1146.02 1540.8 1146.02 1548.76 M1140.16 1547.04 Q1140.1 1542.23 1137.46 1539.37 Q1134.85 1536.5 1130.52 1536.5 Q1125.62 1536.5 1122.66 1539.27 Q1119.73 1542.04 1119.29 1547.07 L1140.16 1547.04 Z" fill="#000000" fill-rule="evenodd" fill-opacity="1"></path><path clip-path="url(#clip920)" d="M1159.13 1550.25 Q1159.13 1556.71 1161.78 1560.4 Q1164.45 1564.07 1169.1 1564.07 Q1173.74 1564.07 1176.42 1560.4 Q1179.09 1556.71 1179.09 1550.25 Q1179.09 1543.79 1176.42 1540.13 Q1173.74 1536.44 1169.1 1536.44 Q1164.45 1536.44 1161.78 1540.13 Q1159.13 1543.79 1159.13 1550.25 M1179.09 1562.7 Q1177.24 1565.88 1174.41 1567.44 Q1171.61 1568.97 1167.66 1568.97 Q1161.2 1568.97 1157.13 1563.81 Q1153.09 1558.65 1153.09 1550.25 Q1153.09 1541.85 1157.13 1536.69 Q1161.2 1531.54 1167.66 1531.54 Q1171.61 1531.54 1174.41 1533.1 Q1177.24 1534.62 1179.09 1537.81 L1179.09 1532.4 L1184.95 1532.4 L1184.95 1581.6 L1179.09 1581.6 L1179.09 1562.7 Z" fill="#000000" fill-rule="evenodd" fill-opacity="1"></path><path clip-path="url(#clip920)" d="M1196.41 1553.98 L1196.41 1532.4 L1202.26 1532.4 L1202.26 1553.75 Q1202.26 1558.81 1204.24 1561.36 Q1206.21 1563.87 1210.16 1563.87 Q1214.9 1563.87 1217.64 1560.85 Q1220.4 1557.83 1220.4 1552.61 L1220.4 1532.4 L1226.26 1532.4 L1226.26 1568.04 L1220.4 1568.04 L1220.4 1562.57 Q1218.27 1565.82 1215.44 1567.41 Q1212.64 1568.97 1208.91 1568.97 Q1202.77 1568.97 1199.59 1565.15 Q1196.41 1561.33 1196.41 1553.98 M1211.14 1531.54 L1211.14 1531.54 Z" fill="#000000" fill-rule="evenodd" fill-opacity="1"></path><path clip-path="url(#clip920)" d="M1268.82 1548.76 L1268.82 1551.62 L1241.89 1551.62 Q1242.27 1557.67 1245.52 1560.85 Q1248.8 1564 1254.62 1564 Q1257.99 1564 1261.14 1563.17 Q1264.33 1562.35 1267.45 1560.69 L1267.45 1566.23 Q1264.3 1567.57 1260.99 1568.27 Q1257.68 1568.97 1254.27 1568.97 Q1245.74 1568.97 1240.74 1564 Q1235.78 1559.04 1235.78 1550.57 Q1235.78 1541.82 1240.49 1536.69 Q1245.23 1531.54 1253.25 1531.54 Q1260.44 1531.54 1264.61 1536.18 Q1268.82 1540.8 1268.82 1548.76 M1262.96 1547.04 Q1262.9 1542.23 1260.25 1539.37 Q1257.64 1536.5 1253.32 1536.5 Q1248.41 1536.5 1245.45 1539.27 Q1242.53 1542.04 1242.08 1547.07 L1262.96 1547.04 Z" fill="#000000" fill-rule="evenodd" fill-opacity="1"></path><path clip-path="url(#clip920)" d="M1308.06 1546.53 L1308.06 1568.04 L1302.2 1568.04 L1302.2 1546.72 Q1302.2 1541.66 1300.23 1539.14 Q1298.26 1536.63 1294.31 1536.63 Q1289.57 1536.63 1286.83 1539.65 Q1284.09 1542.68 1284.09 1547.9 L1284.09 1568.04 L1278.2 1568.04 L1278.2 1532.4 L1284.09 1532.4 L1284.09 1537.93 Q1286.19 1534.72 1289.03 1533.13 Q1291.89 1531.54 1295.62 1531.54 Q1301.76 1531.54 1304.91 1535.36 Q1308.06 1539.14 1308.06 1546.53 Z" fill="#000000" fill-rule="evenodd" fill-opacity="1"></path><path clip-path="url(#clip920)" d="M1345.39 1533.76 L1345.39 1539.24 Q1342.91 1537.87 1340.4 1537.2 Q1337.92 1536.5 1335.37 1536.5 Q1329.67 1536.5 1326.52 1540.13 Q1323.37 1543.73 1323.37 1550.25 Q1323.37 1556.78 1326.52 1560.4 Q1329.67 1564 1335.37 1564 Q1337.92 1564 1340.4 1563.33 Q1342.91 1562.63 1345.39 1561.26 L1345.39 1566.68 Q1342.94 1567.82 1340.3 1568.39 Q1337.69 1568.97 1334.73 1568.97 Q1326.68 1568.97 1321.94 1563.91 Q1317.19 1558.85 1317.19 1550.25 Q1317.19 1541.53 1321.97 1536.53 Q1326.78 1531.54 1335.11 1531.54 Q1337.82 1531.54 1340.4 1532.11 Q1342.98 1532.65 1345.39 1533.76 Z" fill="#000000" fill-rule="evenodd" fill-opacity="1"></path><path clip-path="url(#clip920)" d="M1370.41 1571.35 Q1367.93 1577.72 1365.57 1579.66 Q1363.22 1581.6 1359.27 1581.6 L1354.59 1581.6 L1354.59 1576.7 L1358.03 1576.7 Q1360.45 1576.7 1361.79 1575.56 Q1363.12 1574.41 1364.75 1570.14 L1365.8 1567.47 L1351.38 1532.4 L1357.59 1532.4 L1368.73 1560.28 L1379.87 1532.4 L1386.07 1532.4 L1370.41 1571.35 Z" fill="#000000" fill-rule="evenodd" fill-opacity="1"></path><path clip-path="url(#clip920)" d="M1428.94 1518.58 Q1424.68 1525.9 1422.61 1533.06 Q1420.54 1540.23 1420.54 1547.58 Q1420.54 1554.93 1422.61 1562.16 Q1424.71 1569.35 1428.94 1576.64 L1423.85 1576.64 Q1419.08 1569.16 1416.69 1561.93 Q1414.34 1554.71 1414.34 1547.58 Q1414.34 1540.48 1416.69 1533.29 Q1419.05 1526.09 1423.85 1518.58 L1428.94 1518.58 Z" fill="#000000" fill-rule="evenodd" fill-opacity="1"></path><path clip-path="url(#clip920)" d="M1440.56 1520.52 L1446.99 1520.52 L1446.99 1540 L1470.35 1540 L1470.35 1520.52 L1476.78 1520.52 L1476.78 1568.04 L1470.35 1568.04 L1470.35 1545.41 L1446.99 1545.41 L1446.99 1568.04 L1440.56 1568.04 L1440.56 1520.52 Z" fill="#000000" fill-rule="evenodd" fill-opacity="1"></path><path clip-path="url(#clip920)" d="M1486.78 1532.4 L1514.6 1532.4 L1514.6 1537.74 L1492.57 1563.37 L1514.6 1563.37 L1514.6 1568.04 L1485.98 1568.04 L1485.98 1562.7 L1508.01 1537.07 L1486.78 1537.07 L1486.78 1532.4 Z" fill="#000000" fill-rule="evenodd" fill-opacity="1"></path><path clip-path="url(#clip920)" d="M1522.62 1518.58 L1527.71 1518.58 Q1532.48 1526.09 1534.84 1533.29 Q1537.23 1540.48 1537.23 1547.58 Q1537.23 1554.71 1534.84 1561.93 Q1532.48 1569.16 1527.71 1576.64 L1522.62 1576.64 Q1526.85 1569.35 1528.92 1562.16 Q1531.02 1554.93 1531.02 1547.58 Q1531.02 1540.23 1528.92 1533.06 Q1526.85 1525.9 1522.62 1518.58 Z" fill="#000000" fill-rule="evenodd" fill-opacity="1"></path><polyline clip-path="url(#clip922)" style="stroke:#000000; stroke-linecap:round; stroke-linejoin:round; stroke-width:2; stroke-opacity:0.1; fill:none" points="242.135,1423.18 2352.76,1423.18 "></polyline>
<polyline clip-path="url(#clip922)" style="stroke:#000000; stroke-linecap:round; stroke-linejoin:round; stroke-width:2; stroke-opacity:0.1; fill:none" points="242.135,1147.99 2352.76,1147.99 "></polyline>
<polyline clip-path="url(#clip922)" style="stroke:#000000; stroke-linecap:round; stroke-linejoin:round; stroke-width:2; stroke-opacity:0.1; fill:none" points="242.135,872.806 2352.76,872.806 "></polyline>
<polyline clip-path="url(#clip922)" style="stroke:#000000; stroke-linecap:round; stroke-linejoin:round; stroke-width:2; stroke-opacity:0.1; fill:none" points="242.135,597.618 2352.76,597.618 "></polyline>
<polyline clip-path="url(#clip922)" style="stroke:#000000; stroke-linecap:round; stroke-linejoin:round; stroke-width:2; stroke-opacity:0.1; fill:none" points="242.135,322.431 2352.76,322.431 "></polyline>
<polyline clip-path="url(#clip922)" style="stroke:#000000; stroke-linecap:round; stroke-linejoin:round; stroke-width:2; stroke-opacity:0.1; fill:none" points="242.135,47.2441 2352.76,47.2441 "></polyline>
<polyline clip-path="url(#clip920)" style="stroke:#000000; stroke-linecap:round; stroke-linejoin:round; stroke-width:4; stroke-opacity:1; fill:none" points="242.135,1423.18 242.135,47.2441 "></polyline>
<polyline clip-path="url(#clip920)" style="stroke:#000000; stroke-linecap:round; stroke-linejoin:round; stroke-width:4; stroke-opacity:1; fill:none" points="242.135,1423.18 261.032,1423.18 "></polyline>
<polyline clip-path="url(#clip920)" style="stroke:#000000; stroke-linecap:round; stroke-linejoin:round; stroke-width:4; stroke-opacity:1; fill:none" points="242.135,1147.99 261.032,1147.99 "></polyline>
<polyline clip-path="url(#clip920)" style="stroke:#000000; stroke-linecap:round; stroke-linejoin:round; stroke-width:4; stroke-opacity:1; fill:none" points="242.135,872.806 261.032,872.806 "></polyline>
<polyline clip-path="url(#clip920)" style="stroke:#000000; stroke-linecap:round; stroke-linejoin:round; stroke-width:4; stroke-opacity:1; fill:none" points="242.135,597.618 261.032,597.618 "></polyline>
<polyline clip-path="url(#clip920)" style="stroke:#000000; stroke-linecap:round; stroke-linejoin:round; stroke-width:4; stroke-opacity:1; fill:none" points="242.135,322.431 261.032,322.431 "></polyline>
<polyline clip-path="url(#clip920)" style="stroke:#000000; stroke-linecap:round; stroke-linejoin:round; stroke-width:4; stroke-opacity:1; fill:none" points="242.135,47.2441 261.032,47.2441 "></polyline>
<path clip-path="url(#clip920)" d="M114.26 1423.63 L143.936 1423.63 L143.936 1427.57 L114.26 1427.57 L114.26 1423.63 Z" fill="#000000" fill-rule="evenodd" fill-opacity="1"></path><path clip-path="url(#clip920)" d="M166.876 1409.97 L155.07 1428.42 L166.876 1428.42 L166.876 1409.97 M165.649 1405.9 L171.528 1405.9 L171.528 1428.42 L176.459 1428.42 L176.459 1432.31 L171.528 1432.31 L171.528 1440.46 L166.876 1440.46 L166.876 1432.31 L151.274 1432.31 L151.274 1427.8 L165.649 1405.9 Z" fill="#000000" fill-rule="evenodd" fill-opacity="1"></path><path clip-path="url(#clip920)" d="M194.19 1408.98 Q190.579 1408.98 188.75 1412.54 Q186.945 1416.08 186.945 1423.21 Q186.945 1430.32 188.75 1433.89 Q190.579 1437.43 194.19 1437.43 Q197.825 1437.43 199.63 1433.89 Q201.459 1430.32 201.459 1423.21 Q201.459 1416.08 199.63 1412.54 Q197.825 1408.98 194.19 1408.98 M194.19 1405.27 Q200 1405.27 203.056 1409.88 Q206.135 1414.46 206.135 1423.21 Q206.135 1431.94 203.056 1436.55 Q200 1441.13 194.19 1441.13 Q188.38 1441.13 185.301 1436.55 Q182.246 1431.94 182.246 1423.21 Q182.246 1414.46 185.301 1409.88 Q188.38 1405.27 194.19 1405.27 Z" fill="#000000" fill-rule="evenodd" fill-opacity="1"></path><path clip-path="url(#clip920)" d="M114.26 1148.44 L143.936 1148.44 L143.936 1152.38 L114.26 1152.38 L114.26 1148.44 Z" fill="#000000" fill-rule="evenodd" fill-opacity="1"></path><path clip-path="url(#clip920)" d="M168.195 1146.64 Q171.552 1147.36 173.427 1149.62 Q175.325 1151.89 175.325 1155.23 Q175.325 1160.34 171.806 1163.14 Q168.288 1165.94 161.806 1165.94 Q159.63 1165.94 157.315 1165.5 Q155.024 1165.09 152.57 1164.23 L152.57 1159.72 Q154.515 1160.85 156.829 1161.43 Q159.144 1162.01 161.667 1162.01 Q166.065 1162.01 168.357 1160.27 Q170.672 1158.54 170.672 1155.23 Q170.672 1152.17 168.519 1150.46 Q166.39 1148.72 162.57 1148.72 L158.542 1148.72 L158.542 1144.88 L162.755 1144.88 Q166.204 1144.88 168.033 1143.51 Q169.862 1142.12 169.862 1139.53 Q169.862 1136.87 167.964 1135.46 Q166.089 1134.02 162.57 1134.02 Q160.649 1134.02 158.45 1134.44 Q156.251 1134.86 153.612 1135.74 L153.612 1131.57 Q156.274 1130.83 158.589 1130.46 Q160.927 1130.09 162.987 1130.09 Q168.311 1130.09 171.413 1132.52 Q174.514 1134.93 174.514 1139.05 Q174.514 1141.92 172.871 1143.91 Q171.227 1145.87 168.195 1146.64 Z" fill="#000000" fill-rule="evenodd" fill-opacity="1"></path><path clip-path="url(#clip920)" d="M194.19 1133.79 Q190.579 1133.79 188.75 1137.36 Q186.945 1140.9 186.945 1148.03 Q186.945 1155.13 188.75 1158.7 Q190.579 1162.24 194.19 1162.24 Q197.825 1162.24 199.63 1158.7 Q201.459 1155.13 201.459 1148.03 Q201.459 1140.9 199.63 1137.36 Q197.825 1133.79 194.19 1133.79 M194.19 1130.09 Q200 1130.09 203.056 1134.69 Q206.135 1139.28 206.135 1148.03 Q206.135 1156.75 203.056 1161.36 Q200 1165.94 194.19 1165.94 Q188.38 1165.94 185.301 1161.36 Q182.246 1156.75 182.246 1148.03 Q182.246 1139.28 185.301 1134.69 Q188.38 1130.09 194.19 1130.09 Z" fill="#000000" fill-rule="evenodd" fill-opacity="1"></path><path clip-path="url(#clip920)" d="M114.26 873.257 L143.936 873.257 L143.936 877.192 L114.26 877.192 L114.26 873.257 Z" fill="#000000" fill-rule="evenodd" fill-opacity="1"></path><path clip-path="url(#clip920)" d="M158.056 886.15 L174.376 886.15 L174.376 890.086 L152.431 890.086 L152.431 886.15 Q155.093 883.396 159.677 878.766 Q164.283 874.113 165.464 872.771 Q167.709 870.248 168.589 868.512 Q169.491 866.752 169.491 865.063 Q169.491 862.308 167.547 860.572 Q165.626 858.836 162.524 858.836 Q160.325 858.836 157.871 859.6 Q155.44 860.363 152.663 861.914 L152.663 857.192 Q155.487 856.058 157.94 855.479 Q160.394 854.901 162.431 854.901 Q167.802 854.901 170.996 857.586 Q174.19 860.271 174.19 864.762 Q174.19 866.891 173.38 868.813 Q172.593 870.711 170.487 873.303 Q169.908 873.975 166.806 877.192 Q163.704 880.387 158.056 886.15 Z" fill="#000000" fill-rule="evenodd" fill-opacity="1"></path><path clip-path="url(#clip920)" d="M194.19 858.604 Q190.579 858.604 188.75 862.169 Q186.945 865.711 186.945 872.84 Q186.945 879.947 188.75 883.512 Q190.579 887.053 194.19 887.053 Q197.825 887.053 199.63 883.512 Q201.459 879.947 201.459 872.84 Q201.459 865.711 199.63 862.169 Q197.825 858.604 194.19 858.604 M194.19 854.901 Q200 854.901 203.056 859.507 Q206.135 864.09 206.135 872.84 Q206.135 881.567 203.056 886.174 Q200 890.757 194.19 890.757 Q188.38 890.757 185.301 886.174 Q182.246 881.567 182.246 872.84 Q182.246 864.09 185.301 859.507 Q188.38 854.901 194.19 854.901 Z" fill="#000000" fill-rule="evenodd" fill-opacity="1"></path><path clip-path="url(#clip920)" d="M114.26 598.07 L143.936 598.07 L143.936 602.005 L114.26 602.005 L114.26 598.07 Z" fill="#000000" fill-rule="evenodd" fill-opacity="1"></path><path clip-path="url(#clip920)" d="M154.839 610.963 L162.477 610.963 L162.477 584.598 L154.167 586.264 L154.167 582.005 L162.431 580.338 L167.107 580.338 L167.107 610.963 L174.746 610.963 L174.746 614.898 L154.839 614.898 L154.839 610.963 Z" fill="#000000" fill-rule="evenodd" fill-opacity="1"></path><path clip-path="url(#clip920)" d="M194.19 583.417 Q190.579 583.417 188.75 586.982 Q186.945 590.524 186.945 597.653 Q186.945 604.76 188.75 608.324 Q190.579 611.866 194.19 611.866 Q197.825 611.866 199.63 608.324 Q201.459 604.76 201.459 597.653 Q201.459 590.524 199.63 586.982 Q197.825 583.417 194.19 583.417 M194.19 579.713 Q200 579.713 203.056 584.32 Q206.135 588.903 206.135 597.653 Q206.135 606.38 203.056 610.986 Q200 615.57 194.19 615.57 Q188.38 615.57 185.301 610.986 Q182.246 606.38 182.246 597.653 Q182.246 588.903 185.301 584.32 Q188.38 579.713 194.19 579.713 Z" fill="#000000" fill-rule="evenodd" fill-opacity="1"></path><path clip-path="url(#clip920)" d="M194.19 308.23 Q190.579 308.23 188.75 311.795 Q186.945 315.336 186.945 322.466 Q186.945 329.572 188.75 333.137 Q190.579 336.679 194.19 336.679 Q197.825 336.679 199.63 333.137 Q201.459 329.572 201.459 322.466 Q201.459 315.336 199.63 311.795 Q197.825 308.23 194.19 308.23 M194.19 304.526 Q200 304.526 203.056 309.133 Q206.135 313.716 206.135 322.466 Q206.135 331.193 203.056 335.799 Q200 340.383 194.19 340.383 Q188.38 340.383 185.301 335.799 Q182.246 331.193 182.246 322.466 Q182.246 313.716 185.301 309.133 Q188.38 304.526 194.19 304.526 Z" fill="#000000" fill-rule="evenodd" fill-opacity="1"></path><path clip-path="url(#clip920)" d="M154.839 60.5889 L162.477 60.5889 L162.477 34.2233 L154.167 35.89 L154.167 31.6308 L162.431 29.9641 L167.107 29.9641 L167.107 60.5889 L174.746 60.5889 L174.746 64.5241 L154.839 64.5241 L154.839 60.5889 Z" fill="#000000" fill-rule="evenodd" fill-opacity="1"></path><path clip-path="url(#clip920)" d="M194.19 33.0428 Q190.579 33.0428 188.75 36.6076 Q186.945 40.1492 186.945 47.2788 Q186.945 54.3853 188.75 57.9501 Q190.579 61.4917 194.19 61.4917 Q197.825 61.4917 199.63 57.9501 Q201.459 54.3853 201.459 47.2788 Q201.459 40.1492 199.63 36.6076 Q197.825 33.0428 194.19 33.0428 M194.19 29.3391 Q200 29.3391 203.056 33.9456 Q206.135 38.5289 206.135 47.2788 Q206.135 56.0056 203.056 60.6121 Q200 65.1954 194.19 65.1954 Q188.38 65.1954 185.301 60.6121 Q182.246 56.0056 182.246 47.2788 Q182.246 38.5289 185.301 33.9456 Q188.38 29.3391 194.19 29.3391 Z" fill="#000000" fill-rule="evenodd" fill-opacity="1"></path><path clip-path="url(#clip920)" d="M21.7677 1223.83 L39.6235 1223.83 L39.6235 1215.74 Q39.6235 1211.26 37.3 1208.8 Q34.9765 1206.35 30.6797 1206.35 Q26.4147 1206.35 24.0912 1208.8 Q21.7677 1211.26 21.7677 1215.74 L21.7677 1223.83 M16.4842 1230.26 L16.4842 1215.74 Q16.4842 1207.75 20.1126 1203.68 Q23.7092 1199.57 30.6797 1199.57 Q37.7138 1199.57 41.3104 1203.68 Q44.907 1207.75 44.907 1215.74 L44.907 1223.83 L64.0042 1223.83 L64.0042 1230.26 L16.4842 1230.26 Z" fill="#000000" fill-rule="evenodd" fill-opacity="1"></path><path clip-path="url(#clip920)" d="M32.4621 1179.71 Q32.4621 1184.42 36.1542 1187.16 Q39.8145 1189.9 46.212 1189.9 Q52.6095 1189.9 56.3017 1187.19 Q59.9619 1184.46 59.9619 1179.71 Q59.9619 1175.03 56.2698 1172.3 Q52.5777 1169.56 46.212 1169.56 Q39.8781 1169.56 36.186 1172.3 Q32.4621 1175.03 32.4621 1179.71 M27.4968 1179.71 Q27.4968 1172.07 32.4621 1167.71 Q37.4273 1163.35 46.212 1163.35 Q54.9649 1163.35 59.9619 1167.71 Q64.9272 1172.07 64.9272 1179.71 Q64.9272 1187.38 59.9619 1191.74 Q54.9649 1196.07 46.212 1196.07 Q37.4273 1196.07 32.4621 1191.74 Q27.4968 1187.38 27.4968 1179.71 Z" fill="#000000" fill-rule="evenodd" fill-opacity="1"></path><path clip-path="url(#clip920)" d="M28.3562 1157.05 L28.3562 1151.19 L56.1743 1143.87 L28.3562 1136.59 L28.3562 1129.68 L56.1743 1122.36 L28.3562 1115.07 L28.3562 1109.21 L64.0042 1118.54 L64.0042 1125.45 L34.7856 1133.12 L64.0042 1140.82 L64.0042 1147.73 L28.3562 1157.05 Z" fill="#000000" fill-rule="evenodd" fill-opacity="1"></path><path clip-path="url(#clip920)" d="M44.7161 1069.84 L47.5806 1069.84 L47.5806 1096.77 Q53.6281 1096.39 56.8109 1093.14 Q59.9619 1089.86 59.9619 1084.04 Q59.9619 1080.66 59.1344 1077.51 Q58.3069 1074.33 56.6518 1071.21 L62.1899 1071.21 Q63.5267 1074.36 64.227 1077.67 Q64.9272 1080.98 64.9272 1084.39 Q64.9272 1092.92 59.9619 1097.91 Q54.9967 1102.88 46.5303 1102.88 Q37.7774 1102.88 32.6531 1098.17 Q27.4968 1093.43 27.4968 1085.41 Q27.4968 1078.21 32.1438 1074.04 Q36.7589 1069.84 44.7161 1069.84 M42.9973 1075.7 Q38.1912 1075.76 35.3266 1078.4 Q32.4621 1081.01 32.4621 1085.34 Q32.4621 1090.24 35.2312 1093.2 Q38.0002 1096.13 43.0292 1096.58 L42.9973 1075.7 Z" fill="#000000" fill-rule="evenodd" fill-opacity="1"></path><path clip-path="url(#clip920)" d="M33.8307 1039.57 Q33.2578 1040.56 33.0032 1041.74 Q32.7167 1042.88 32.7167 1044.28 Q32.7167 1049.25 35.9632 1051.92 Q39.1779 1054.56 45.2253 1054.56 L64.0042 1054.56 L64.0042 1060.45 L28.3562 1060.45 L28.3562 1054.56 L33.8944 1054.56 Q30.6479 1052.72 29.0883 1049.76 Q27.4968 1046.8 27.4968 1042.56 Q27.4968 1041.96 27.5923 1041.23 Q27.656 1040.5 27.8151 1039.6 L33.8307 1039.57 Z" fill="#000000" fill-rule="evenodd" fill-opacity="1"></path><path clip-path="url(#clip920)" d="M29.4065 989.983 L34.9447 989.983 Q33.6716 992.466 33.035 995.14 Q32.3984 997.813 32.3984 1000.68 Q32.3984 1005.04 33.7352 1007.23 Q35.072 1009.4 37.7456 1009.4 Q39.7826 1009.4 40.9603 1007.84 Q42.1061 1006.28 43.1565 1001.57 L43.6021 999.564 Q44.9389 993.325 47.3897 990.716 Q49.8086 988.074 54.1691 988.074 Q59.1344 988.074 62.0308 992.02 Q64.9272 995.935 64.9272 1002.81 Q64.9272 1005.67 64.3543 1008.79 Q63.8132 1011.88 62.6992 1015.32 L56.6518 1015.32 Q58.3387 1012.07 59.198 1008.92 Q60.0256 1005.77 60.0256 1002.68 Q60.0256 998.545 58.6251 996.317 Q57.1929 994.089 54.6147 994.089 Q52.2276 994.089 50.9545 995.713 Q49.6813 997.304 48.5037 1002.75 L48.0262 1004.78 Q46.8804 1010.23 44.5251 1012.65 Q42.138 1015.06 38.0002 1015.06 Q32.9713 1015.06 30.2341 1011.5 Q27.4968 1007.93 27.4968 1001.38 Q27.4968 998.132 27.9743 995.267 Q28.4517 992.402 29.4065 989.983 Z" fill="#000000" fill-rule="evenodd" fill-opacity="1"></path><path clip-path="url(#clip920)" d="M58.657 973.083 L77.5631 973.083 L77.5631 978.971 L28.3562 978.971 L28.3562 973.083 L33.7671 973.083 Q30.5842 971.236 29.0564 968.436 Q27.4968 965.603 27.4968 961.688 Q27.4968 955.195 32.6531 951.153 Q37.8093 947.079 46.212 947.079 Q54.6147 947.079 59.771 951.153 Q64.9272 955.195 64.9272 961.688 Q64.9272 965.603 63.3994 968.436 Q61.8398 971.236 58.657 973.083 M46.212 953.158 Q39.7508 953.158 36.0905 955.831 Q32.3984 958.473 32.3984 963.12 Q32.3984 967.767 36.0905 970.441 Q39.7508 973.083 46.212 973.083 Q52.6732 973.083 56.3653 970.441 Q60.0256 967.767 60.0256 963.12 Q60.0256 958.473 56.3653 955.831 Q52.6732 953.158 46.212 953.158 Z" fill="#000000" fill-rule="evenodd" fill-opacity="1"></path><path clip-path="url(#clip920)" d="M44.7161 906.879 L47.5806 906.879 L47.5806 933.806 Q53.6281 933.424 56.8109 930.178 Q59.9619 926.899 59.9619 921.075 Q59.9619 917.701 59.1344 914.55 Q58.3069 911.367 56.6518 908.248 L62.1899 908.248 Q63.5267 911.399 64.227 914.709 Q64.9272 918.019 64.9272 921.425 Q64.9272 929.955 59.9619 934.952 Q54.9967 939.917 46.5303 939.917 Q37.7774 939.917 32.6531 935.207 Q27.4968 930.464 27.4968 922.443 Q27.4968 915.25 32.1438 911.081 Q36.7589 906.879 44.7161 906.879 M42.9973 912.736 Q38.1912 912.799 35.3266 915.441 Q32.4621 918.051 32.4621 922.38 Q32.4621 927.281 35.2312 930.241 Q38.0002 933.17 43.0292 933.615 L42.9973 912.736 Z" fill="#000000" fill-rule="evenodd" fill-opacity="1"></path><path clip-path="url(#clip920)" d="M29.7248 871.613 L35.1993 871.613 Q33.8307 874.096 33.1623 876.61 Q32.4621 879.093 32.4621 881.639 Q32.4621 887.336 36.0905 890.487 Q39.6872 893.638 46.212 893.638 Q52.7369 893.638 56.3653 890.487 Q59.9619 887.336 59.9619 881.639 Q59.9619 879.093 59.2935 876.61 Q58.5933 874.096 57.2247 871.613 L62.6355 871.613 Q63.7814 874.064 64.3543 876.706 Q64.9272 879.316 64.9272 882.276 Q64.9272 890.328 59.8664 895.071 Q54.8057 899.813 46.212 899.813 Q37.491 899.813 32.4939 895.039 Q27.4968 890.233 27.4968 881.894 Q27.4968 879.188 28.0697 876.61 Q28.6108 874.032 29.7248 871.613 Z" fill="#000000" fill-rule="evenodd" fill-opacity="1"></path><path clip-path="url(#clip920)" d="M18.2347 855.635 L28.3562 855.635 L28.3562 843.572 L32.9077 843.572 L32.9077 855.635 L52.2594 855.635 Q56.6199 855.635 57.8613 854.458 Q59.1026 853.248 59.1026 849.588 L59.1026 843.572 L64.0042 843.572 L64.0042 849.588 Q64.0042 856.367 61.4897 858.945 Q58.9434 861.524 52.2594 861.524 L32.9077 861.524 L32.9077 865.82 L28.3562 865.82 L28.3562 861.524 L18.2347 861.524 L18.2347 855.635 Z" fill="#000000" fill-rule="evenodd" fill-opacity="1"></path><path clip-path="url(#clip920)" d="M33.8307 815.213 Q33.2578 816.2 33.0032 817.377 Q32.7167 818.523 32.7167 819.924 Q32.7167 824.889 35.9632 827.562 Q39.1779 830.204 45.2253 830.204 L64.0042 830.204 L64.0042 836.093 L28.3562 836.093 L28.3562 830.204 L33.8944 830.204 Q30.6479 828.358 29.0883 825.398 Q27.4968 822.438 27.4968 818.205 Q27.4968 817.6 27.5923 816.868 Q27.656 816.136 27.8151 815.245 L33.8307 815.213 Z" fill="#000000" fill-rule="evenodd" fill-opacity="1"></path><path clip-path="url(#clip920)" d="M46.0847 792.869 Q46.0847 799.967 47.7079 802.704 Q49.3312 805.442 53.2461 805.442 Q56.3653 805.442 58.2114 803.405 Q60.0256 801.336 60.0256 797.803 Q60.0256 792.933 56.5881 790.005 Q53.1188 787.045 47.3897 787.045 L46.0847 787.045 L46.0847 792.869 M43.6657 781.188 L64.0042 781.188 L64.0042 787.045 L58.5933 787.045 Q61.8398 789.05 63.3994 792.042 Q64.9272 795.034 64.9272 799.362 Q64.9272 804.837 61.8716 808.083 Q58.7843 811.298 53.6281 811.298 Q47.6125 811.298 44.5569 807.288 Q41.5014 803.245 41.5014 795.256 L41.5014 787.045 L40.9285 787.045 Q36.8862 787.045 34.6901 789.718 Q32.4621 792.36 32.4621 797.166 Q32.4621 800.222 33.1941 803.118 Q33.9262 806.015 35.3903 808.688 L29.9795 808.688 Q28.7381 805.473 28.1334 802.45 Q27.4968 799.426 27.4968 796.561 Q27.4968 788.827 31.5072 785.008 Q35.5176 781.188 43.6657 781.188 Z" fill="#000000" fill-rule="evenodd" fill-opacity="1"></path><path clip-path="url(#clip920)" d="M14.479 769.125 L14.479 763.269 L64.0042 763.269 L64.0042 769.125 L14.479 769.125 Z" fill="#000000" fill-rule="evenodd" fill-opacity="1"></path><path clip-path="url(#clip920)" d="M33.7671 706.837 L14.479 706.837 L14.479 700.98 L64.0042 700.98 L64.0042 706.837 L58.657 706.837 Q61.8398 708.683 63.3994 711.516 Q64.9272 714.317 64.9272 718.263 Q64.9272 724.724 59.771 728.799 Q54.6147 732.841 46.212 732.841 Q37.8093 732.841 32.6531 728.799 Q27.4968 724.724 27.4968 718.263 Q27.4968 714.317 29.0564 711.516 Q30.5842 708.683 33.7671 706.837 M46.212 726.793 Q52.6732 726.793 56.3653 724.152 Q60.0256 721.478 60.0256 716.831 Q60.0256 712.184 56.3653 709.51 Q52.6732 706.837 46.212 706.837 Q39.7508 706.837 36.0905 709.51 Q32.3984 712.184 32.3984 716.831 Q32.3984 721.478 36.0905 724.152 Q39.7508 726.793 46.212 726.793 Z" fill="#000000" fill-rule="evenodd" fill-opacity="1"></path><path clip-path="url(#clip920)" d="M44.7161 658.426 L47.5806 658.426 L47.5806 685.353 Q53.6281 684.971 56.8109 681.724 Q59.9619 678.446 59.9619 672.621 Q59.9619 669.247 59.1344 666.096 Q58.3069 662.913 56.6518 659.794 L62.1899 659.794 Q63.5267 662.945 64.227 666.255 Q64.9272 669.566 64.9272 672.971 Q64.9272 681.501 59.9619 686.498 Q54.9967 691.464 46.5303 691.464 Q37.7774 691.464 32.6531 686.753 Q27.4968 682.011 27.4968 673.99 Q27.4968 666.797 32.1438 662.627 Q36.7589 658.426 44.7161 658.426 M42.9973 664.282 Q38.1912 664.346 35.3266 666.988 Q32.4621 669.597 32.4621 673.926 Q32.4621 678.828 35.2312 681.788 Q38.0002 684.716 43.0292 685.162 L42.9973 664.282 Z" fill="#000000" fill-rule="evenodd" fill-opacity="1"></path><path clip-path="url(#clip920)" d="M42.4881 619.181 L64.0042 619.181 L64.0042 625.038 L42.679 625.038 Q37.6183 625.038 35.1038 627.011 Q32.5894 628.984 32.5894 632.931 Q32.5894 637.673 35.6131 640.411 Q38.6368 643.148 43.8567 643.148 L64.0042 643.148 L64.0042 649.036 L28.3562 649.036 L28.3562 643.148 L33.8944 643.148 Q30.6797 641.047 29.0883 638.215 Q27.4968 635.35 27.4968 631.626 Q27.4968 625.483 31.3163 622.332 Q35.1038 619.181 42.4881 619.181 Z" fill="#000000" fill-rule="evenodd" fill-opacity="1"></path><path clip-path="url(#clip920)" d="M29.4065 584.774 L34.9447 584.774 Q33.6716 587.257 33.035 589.931 Q32.3984 592.604 32.3984 595.469 Q32.3984 599.829 33.7352 602.025 Q35.072 604.19 37.7456 604.19 Q39.7826 604.19 40.9603 602.63 Q42.1061 601.071 43.1565 596.36 L43.6021 594.355 Q44.9389 588.116 47.3897 585.506 Q49.8086 582.865 54.1691 582.865 Q59.1344 582.865 62.0308 586.811 Q64.9272 590.726 64.9272 597.601 Q64.9272 600.466 64.3543 603.585 Q63.8132 606.672 62.6992 610.11 L56.6518 610.11 Q58.3387 606.863 59.198 603.712 Q60.0256 600.561 60.0256 597.474 Q60.0256 593.336 58.6251 591.108 Q57.1929 588.88 54.6147 588.88 Q52.2276 588.88 50.9545 590.504 Q49.6813 592.095 48.5037 597.538 L48.0262 599.575 Q46.8804 605.017 44.5251 607.436 Q42.138 609.855 38.0002 609.855 Q32.9713 609.855 30.2341 606.29 Q27.4968 602.726 27.4968 596.169 Q27.4968 592.923 27.9743 590.058 Q28.4517 587.193 29.4065 584.774 Z" fill="#000000" fill-rule="evenodd" fill-opacity="1"></path><path clip-path="url(#clip920)" d="M28.3562 573.539 L28.3562 567.682 L64.0042 567.682 L64.0042 573.539 L28.3562 573.539 M14.479 573.539 L14.479 567.682 L21.895 567.682 L21.895 573.539 L14.479 573.539 Z" fill="#000000" fill-rule="evenodd" fill-opacity="1"></path><path clip-path="url(#clip920)" d="M18.2347 549.636 L28.3562 549.636 L28.3562 537.573 L32.9077 537.573 L32.9077 549.636 L52.2594 549.636 Q56.6199 549.636 57.8613 548.458 Q59.1026 547.249 59.1026 543.588 L59.1026 537.573 L64.0042 537.573 L64.0042 543.588 Q64.0042 550.368 61.4897 552.946 Q58.9434 555.524 52.2594 555.524 L32.9077 555.524 L32.9077 559.821 L28.3562 559.821 L28.3562 555.524 L18.2347 555.524 L18.2347 549.636 Z" fill="#000000" fill-rule="evenodd" fill-opacity="1"></path><path clip-path="url(#clip920)" d="M67.3143 515.038 Q73.68 517.521 75.6216 519.876 Q77.5631 522.231 77.5631 526.178 L77.5631 530.857 L72.6615 530.857 L72.6615 527.419 Q72.6615 525 71.5157 523.664 Q70.3699 522.327 66.1048 520.704 L63.4312 519.653 L28.3562 534.072 L28.3562 527.865 L56.238 516.725 L28.3562 505.585 L28.3562 499.378 L67.3143 515.038 Z" fill="#000000" fill-rule="evenodd" fill-opacity="1"></path><path clip-path="url(#clip920)" d="M14.5426 456.505 Q21.8632 460.77 29.0246 462.839 Q36.186 464.908 43.5384 464.908 Q50.8908 464.908 58.1159 462.839 Q65.3091 460.739 72.5979 456.505 L72.5979 461.598 Q65.1182 466.372 57.8931 468.759 Q50.668 471.115 43.5384 471.115 Q36.4406 471.115 29.2474 468.759 Q22.0542 466.404 14.5426 461.598 L14.5426 456.505 Z" fill="#000000" fill-rule="evenodd" fill-opacity="1"></path><path clip-path="url(#clip920)" d="M33.7671 421.685 L14.479 421.685 L14.479 415.829 L64.0042 415.829 L64.0042 421.685 L58.657 421.685 Q61.8398 423.531 63.3994 426.364 Q64.9272 429.165 64.9272 433.111 Q64.9272 439.573 59.771 443.647 Q54.6147 447.689 46.212 447.689 Q37.8093 447.689 32.6531 443.647 Q27.4968 439.573 27.4968 433.111 Q27.4968 429.165 29.0564 426.364 Q30.5842 423.531 33.7671 421.685 M46.212 441.641 Q52.6732 441.641 56.3653 439 Q60.0256 436.326 60.0256 431.679 Q60.0256 427.032 56.3653 424.359 Q52.6732 421.685 46.212 421.685 Q39.7508 421.685 36.0905 424.359 Q32.3984 427.032 32.3984 431.679 Q32.3984 436.326 36.0905 439 Q39.7508 441.641 46.212 441.641 Z" fill="#000000" fill-rule="evenodd" fill-opacity="1"></path><path clip-path="url(#clip920)" d="M41.3104 397.082 L58.7206 397.082 L58.7206 386.769 Q58.7206 381.581 56.5881 379.098 Q54.4238 376.584 49.9996 376.584 Q45.5436 376.584 43.4429 379.098 Q41.3104 381.581 41.3104 386.769 L41.3104 397.082 M21.7677 397.082 L36.0905 397.082 L36.0905 387.565 Q36.0905 382.854 34.34 380.563 Q32.5576 378.239 28.9291 378.239 Q25.3325 378.239 23.5501 380.563 Q21.7677 382.854 21.7677 387.565 L21.7677 397.082 M16.4842 403.511 L16.4842 387.087 Q16.4842 379.735 19.5397 375.756 Q22.5952 371.778 28.2289 371.778 Q32.5894 371.778 35.1675 373.815 Q37.7456 375.852 38.3822 379.799 Q39.4007 375.056 42.6472 372.446 Q45.8619 369.804 50.6998 369.804 Q57.0655 369.804 60.5348 374.133 Q64.0042 378.462 64.0042 386.451 L64.0042 403.511 L16.4842 403.511 Z" fill="#000000" fill-rule="evenodd" fill-opacity="1"></path><path clip-path="url(#clip920)" d="M16.4842 348.639 L16.4842 343.228 L70.0516 359.779 L70.0516 365.189 L16.4842 348.639 Z" fill="#000000" fill-rule="evenodd" fill-opacity="1"></path><path clip-path="url(#clip920)" d="M16.4842 336.83 L16.4842 330.401 L35.9632 330.401 L35.9632 307.039 L16.4842 307.039 L16.4842 300.609 L64.0042 300.609 L64.0042 307.039 L41.3741 307.039 L41.3741 330.401 L64.0042 330.401 L64.0042 336.83 L16.4842 336.83 Z" fill="#000000" fill-rule="evenodd" fill-opacity="1"></path><path clip-path="url(#clip920)" d="M28.3562 290.615 L28.3562 262.797 L33.7034 262.797 L59.3254 284.822 L59.3254 262.797 L64.0042 262.797 L64.0042 291.411 L58.657 291.411 L33.035 269.385 L33.035 290.615 L28.3562 290.615 Z" fill="#000000" fill-rule="evenodd" fill-opacity="1"></path><path clip-path="url(#clip920)" d="M14.5426 254.776 L14.5426 249.684 Q22.0542 244.909 29.2474 242.554 Q36.4406 240.167 43.5384 240.167 Q50.668 240.167 57.8931 242.554 Q65.1182 244.909 72.5979 249.684 L72.5979 254.776 Q65.3091 250.543 58.1159 248.474 Q50.8908 246.373 43.5384 246.373 Q36.186 246.373 29.0246 248.474 Q21.8632 250.543 14.5426 254.776 Z" fill="#000000" fill-rule="evenodd" fill-opacity="1"></path><polyline clip-path="url(#clip922)" style="stroke:#009af9; stroke-linecap:round; stroke-linejoin:round; stroke-width:4; stroke-opacity:1; fill:none" points="301.869,1181.75 309.647,1106.18 317.425,1107.88 325.203,442.269 332.981,100.585 340.759,101.585 348.537,86.0827 356.315,179.036 364.093,115.604 371.871,83.8759 379.649,300.97 387.427,289.888 395.204,300.262 402.982,238.549 410.76,292.228 418.538,613.721 426.316,444.283 434.094,269.34 441.872,364.907 449.65,465.522 457.428,624.843 465.206,573.288 472.984,383.924 480.762,390.856 488.54,648.261 496.318,698.486 504.096,662.282 511.874,628.974 519.651,808.134 527.429,855.085 535.207,788.31 542.985,865.462 550.763,886.726 558.541,1010.94 566.319,875.598 574.097,1013.64 581.875,966.971 589.653,1113.44 597.431,1028.86 605.209,1098.01 612.987,1061.31 620.765,1082.62 628.543,1168.63 636.321,1110.09 644.098,1194.25 651.876,1078.5 659.654,1223.86 667.432,1345.12 675.21,1384.07 682.988,1295.31 690.766,1267.13 698.544,1255.81 706.322,1390.74 714.1,1439.47 721.878,1320.13 729.656,1384.18 737.434,1375.78 745.212,1422.31 752.99,1307.47 760.768,1283.78 768.546,1368.06 776.323,1468.94 784.101,1362.77 791.879,1301.54 799.657,1365.53 807.435,1514.61 815.213,1531.96 822.991,1425.44 830.769,1389.7 838.547,1500.44 846.325,1558.8 854.103,1505.54 861.881,1406.42 869.659,1463 877.437,1547.07 885.215,1575.2 892.993,1467.92 900.77,1451.33 908.548,1564.29 916.326,1568.13 924.104,1546.22 931.882,1477.42 939.66,1544.38 947.438,1607.1 955.216,1590.49 962.994,1492.49 970.772,1450.75 978.55,1596.03 986.328,1599.58 994.106,1554.62 1001.88,1483.78 1009.66,1546.48 1017.44,1599 1025.22,1590.32 1033,1525.65 1040.77,1500.13 1048.55,1594.05 1056.33,1595.84 1064.11,1570.77 1071.89,1555.42 1079.66,1577.83 1087.44,1640.36 1095.22,1613.9 1103,1548.37 1110.77,1540.38 1118.55,1635.5 1126.33,1655.26 1134.11,1624.07 1141.89,1591.83 1149.66,1614.89 1157.44,1656.4 1165.22,1605.17 1173,1525.59 1180.78,1573.91 1188.55,1641.09 1196.33,1649 1204.11,1651.44 1211.89,1656.04 1219.67,1625.73 1227.44,1580.21 1235.22,1607.09 1243,1586.25 1250.78,1599.24 1258.56,1532.9 1266.33,1439.35 1274.11,1405.99 1281.89,1345.28 1289.67,1398.6 1297.45,1404.21 1305.22,1326.4 1313,1313.29 1320.78,1382.3 1328.56,1499.16 1336.33,1510.89 1344.11,1532.74 1351.89,1536.6 1359.67,1573.13 1367.45,1606.73 1375.22,1605.03 1383,1597.18 1390.78,1596.51 1398.56,1641.55 1406.34,1669.03 1414.11,1653.87 1421.89,1641.87 1429.67,1679.58 1437.45,1701.38 1445.23,1691.42 1453,1694.81 1460.78,1718.7 1468.56,1748.48 1476.34,1736.45 1484.12,1746.68 1491.89,1754.38 1499.67,1755.8 1507.45,1761.29 1515.23,1764.52 1523.01,1766.11 1530.78,1763.44 1538.56,1766.17 1546.34,1767.82 1554.12,1766.47 1561.9,1768.83 1569.67,1772.03 1577.45,1772.8 1585.23,1768.43 1593.01,1773.03 1600.78,1774.65 1608.56,1775.88 1616.34,1774.23 1624.12,1778.83 1631.9,1777.36 1639.67,1775.32 1647.45,1779.1 1655.23,1780.85 1663.01,1777.74 1670.79,1780.24 1678.56,1785.62 1686.34,1783.67 1694.12,1784.41 1701.9,1785.54 1709.68,1786.71 1717.45,1787.3 1725.23,1788.96 1733.01,1790.03 1740.79,1788.51 1748.57,1790.86 1756.34,1794.15 1764.12,1792.58 1771.9,1791.94 1779.68,1794.39 1787.46,1795.37 1795.23,1794.58 1803.01,1796.56 1810.79,1797.39 1818.57,1795.5 1826.35,1797.39 1834.12,1800.87 1841.9,1798.42 1849.68,1798.03 1857.46,1800.42 1865.23,1801.81 1873.01,1800.51 1880.79,1801.88 1888.57,1802.64 1896.35,1801.15 1904.12,1803.02 1911.9,1805.45 1919.68,1803.85 1927.46,1802.45 1935.24,1805.33 1943.01,1806.39 1950.79,1805.8 1958.57,1805.62 1966.35,1807.23 1974.13,1805.73 1981.9,1806.9 1989.68,1809.72 1997.46,1808.27 2005.24,1806.54 2013.02,1808.85 2020.79,1811.04 2028.57,1809.08 2036.35,1809.14 2044.13,1810.98 2051.91,1809.83 2059.68,1809.81 2067.46,1812.64 2075.24,1811.55 2083.02,1809.66 2090.79,1811.62 2098.57,1813.73 2106.35,1811.51 2114.13,1811.85 2121.91,1812.85 2129.68,1812.81 2137.46,1812.3 2145.24,1814.81 2153.02,1813.55 2160.8,1811.72 2168.57,1813.18 2176.35,1816.08 2184.13,1813.11 2191.91,1812.99 2199.69,1814.81 2207.46,1814.31 2215.24,1813.68 2223.02,1815.73 2230.8,1814.61 2238.58,1813.08 2246.35,1814.21 2254.13,1816.6 2261.91,1814.75 2269.69,1813.32 2277.47,1815.33 2285.24,1815.5 2293.02,1896.85 "></polyline>
</svg>