<svg xmlns="http://www.w3.org/2000/svg" xmlns:xlink="http://www.w3.org/1999/xlink" width="954" height="1204" xmlns:v="https://vecta.io/nano"><style><![CDATA[.B{fill:#fff}.C{fill:#000}.D{stroke-linecap:round}.E{stroke-linejoin:round}.F{stroke:#000}.G{stroke-opacity:.1}.H{stroke-width:.5}.I{font-family:Merriweather-Regular, Merriweather}]]></style><defs><path id="A" d="M0 0h821v480H0z"/><path id="B" d="M0 0h921v614H0z"/><path id="C" d="M0 0h810v528H0z"/></defs><g fill="none" fill-rule="evenodd"><g transform="translate(33)"><g fill-rule="nonzero"><path d="M0 0h921v590H0z" class="B"/><path fill="#e5ecf6" d="M50 60h821v480H50z"/><g stroke="#fff" class="C"><path d="M206.67 60v480M363.34 60v480M520.02 60v480M676.69 60v480M833.36 60v480"/><path d="M50 518.63h821M50 404.35h821M50 175.79h821M50 61.51h821"/><path d="M50 290.07h821" stroke-width="2"/></g></g><mask id="D" class="B"><use xlink:href="#A"/></mask><g mask="url(#D)"><path stroke="#636efa" stroke-width="2" d="M0 209.32l.26-39.15.15 70.99.34-16.03.01.04.54.81.14-51 .07 24.36.01 2.27.09 39.95.18-77.4.48 53.76.01.8.48 14.03.21-61.06.06 27.92.01 2.72.09 38.39.18-75.89.48 34.51.01 1.47.53 42.36.17-88.76.05 32.02.01 2.58.1 61.51.22-86.09.43 25.29.01 2.1.53 58.29.17-99.36.05 19.73.01 1.16.33-27.08.17 116.91.25-89.25.01 2.63.12 83.95.58-109.69.05 2.85.01.75.16 118.43.16-135.57.43 18.12.01 1.92.12 113.34.62-128.35.01 1.87.01 1.11.36-10.28.19 143.49.2-138.77.01 1.29.17 136.81.17-143.98.41 3.83.01 1.69.55 144.21.2-153.52v.54l.01.62.36-4.9.19 156.86.2-154.85.01 1.38.56 155.43.19-161.71.01.09.56 166.43.19-169.46v.67l.01.62.56 168.7.19-173.47v.27l.01.13.37-.71.19 179.35.19-177.39.01.63.56 173.29.19-179.75v.09l.01.13.18 188.08.19-191.78.38 7.22.01 1.33.57 178.15.18-186.47.01.26.19 194.27.18-198.05.38 8.01.01.32.18 184.29.57-189.77.01-.09.19 194.89.18-199.52.38 6.1.01-.18.03 20.75v5.79l.35-30.15.19 198.41.09-152.18.01-7.75.1-38.7.18 205.67.47-156.23.01-7.26.47-46.9.19 209.1.09-155.17.01-7.75.1-48.81.18 212.44.47-156.5.01-7.39.48-49.93.19 216.85.08-159.17.01-8.38.1-52.46.18 217.69.47-162.96.01-6.19.48-45.2.19 217.96.08-155.97.01-8.46.1-58.79.18 221.3.47-161.8.01-6.94.49-48.06.18 219.97.08-154.45.01-8.64.1-61.55.19 225.44.46-164.52.01-7.39.49-51.22.18 222.5.08-154.36.01-9.04.11-61.5.18 224.77.46-156.81.01-7.84.48-62.79.19 229.98.08-150.71.01-9.35.1-70.82.61 227.45.04-149.42.01-8.99.49-72.87.18 237.6.08-151.37.01-10.65.1-74.42.61 233.64.04-151.25.01-9.57.49-77.18.22 243.65.04-163.62.01-9 .1-69.65.61 240.76.04-150.49.01-10.24.33 161.67.16-246.47.26 87.56.01-9.13.11-76.6.6 244.86.04-152.72.01-9.88.49-82.97.22 248.15.04-161.89.01-9.35.11-75.98.6 249.67.04-155.83.01-9.89.11-85.11.6 252.75.04-164.25.01-8.42.49-81.81.22 257.77.04-157.66.01-9.75.11-90.63.6 261.56.04-168.3.01-7.84.49-86.85.22 269.18.04-164.87.01-7.88.1-95.89.23 266.73.42-167.19.01-6.55.1-91.61.23 264.5.42-158.5.01-7.17.1-100.21.23 263.96.42-155.83.01-6.28.48-105.41.23 272.51.04-156.72.01-5.26.1-113.79.61 277.6.04-152.4.01-5.75.1-118.47.23 275.86.42-141.31.01-5.61.48-126.66.23 274.2.04-137.17.01-4.98.1-134.68.22 275.77.43-138.56.01-5.43.48-127.24.23 275.55.04-139.98.01-5.35.1-134.23.22 279.82.43-143.85.01-5.83L47.5 66l.23 287.13.05-144.7.01-4.9.32 149.73.15-289.48.28 139.88.01-5.74.32 151.24.15-286.19.28 145.59.01-5.56.32 147.63.15-290.6.28 144.7.01-5.43.32 150.26.15-293.09.28 147.68.01-7.92.09-137.35.6 287.08.06-134.41.01-7.04.08-146.88.23 286.81.44-133.12.01-8.64.09-144.83.22 283.43.44-122.43.01-8.55.31 132.23.15-289.44.29 157.79.01-9.98.08-147.06.61 287.31.06-128.31.01-9.22.31 139.09.15-284.19.29 148.39.01-11 .31 145.77.15-283.38.29 152.27.01-11.45.31 140.51.15-284.41.29 144.66.01-12.38.08-132.14.61 281.07.06-131.12.01-12.11.08-136.46.23 280.89.44-139 .01-13.32.3 148.8.15-279.69.3 136.95.01-14.03.3 154.14.15-280.35.3 144.83.01-14.07.07-127.02.23 277.55.45-145.19.01-14.3.07-114.41.61 272.25.07-137.75.01-15.5.45-119.62.23 275.99.07-140.11.01-16.88.07-116.33.23 271.8.45-130.04.01-15.63.07-123.64.23 267.18.45-131.3.01-16.07.07-114.15.23 259.15.45-121.53.01-15.28.45-121.85.23 259.6.07-127.55.01-15.99.07-119.31.61 261.96.07-124.52.01-15.32.07-119 .23 257.59.45-142.16.01-14.03.07-86.71.58 220.99.1-146.7.01-2.32.25 150.53.24-197.07.26 72.55.01-5.25.57 157.34.1-245.48.08 181.26.01 5.12.17 58.57.1-255.64.48 116.06.01-10.2.13 125.42.09-244.46.53 156.72.01 4.28.42 90.76.12-247.35.21 219.6.01 3.08.5-222.59.24 262.8.01-15.67.01.84.1-238.58.59 266.51.06-90.01.01-11.67.06-142.91.23 251.18.46-244.46.01-3.21.25 247.54.12-260.1.38 21.07.01 4.01.24 219.65.09-235.42.42 30.2.01 12.42.52 182.87.13-219.39.1 111.83.01-5.16.48 119.84.13-227.04.14 57.63.01 9.66.44 175.65.12-259.46.19 164.16.01 6.5.04 89.52.12-275.68.59 257.33.01.53.48-251.32.23 257.51.04-42.57.01-8.02.31 47.74.13-247.48.31 100.69.01-13.14.27 156.99.48-255.68h.01l.26 254.75.1-258.58.39 40.75.01-.98.22 215.07.46-254.66.07 134.36.01 10.96.18 95.53.1-240.85.47 92.68.01-3.83.46 156.77.13-239.16.16 123.76.01 7.22.45 118.6.1-259.29.2 208.69.01 7.66.15-220.85.26 271.76.34-20.71.01 2.36.01 10.87.1-263.7.64 222.23.01-.26.06-211.33.62 250.65.07-182.82.01-10.6.28 190.71.46-270.16.01 34.92.01 10.37.23 227.23.11-273.19.41 82.84.01 19.42.19 163.53.46-261.29.1 161.84.01-15.49.25-140.56.26 252.83.24-157.57.01 10.11.07 148.31.49-249.98.19 180.1.01 7.3.06 61.24.46-254.26.23 233.55.01-2.05.01 20.31.11-248.2.63 225.49.01 4.18.01 13.23.42-240.76.32 165.5.01-15.28.47 94.24.27-258.18.01 9.71.01 8.11.43 244.68.27-265.84.05 36.34.01 14.97.03 215.55.27-262.4.45 234.48.01-15.19.25-221.3.45 253.37.05-157.88.01 11.44.57-108.98.09 260.23.09-63.2.01 6.95.52-214.84.09 280.04.14-42.18.01-8.55.12-223.26.3 283.65.33-64.66.01 12.91.02 52.02.41-277.86.32 190.12.01-18.03.6 103.23.14-279.68.01 12.42.01 11.76.34-25.25.3 283.25.11-228.52.01 20.8.51 205.22.15-273.32.09 240.28.01-16.79.25-231.24.22 285.97.28-196.09.01 12.42.42 195.12.14-298.66.19 206.16.01 8.15.02 84.44.5-304.32.23 237.69.01-11.8.12-222.5.57 303.95.06-94.46.01 14.88.07-216.18.58 302.8.1-120.56.01-26.36.6 151.82.14-313.93.01 31.93.01 7.12.2 268.78.14-312.2.41 106.8.01 27.3.15 178.1.14-307.61.46 183.58.01-30.29.11 158.91.14-309.17.5 93.48.01 17.01.42 197.34.14-313.62.19 255.05.01 10.07.16-257.29.21 312.51.38-90.05.01-8.37.11-211.41.57 311.79.07-93.12.01 7.53.06-226.11.57 314.6.12-208.03.01-22.67.37-80.61.22 310.37.16-278.08.01.76.32-29.71.22 306.05.21-68.63.01 21.43.14 52.59.14-306.9.47 49.13.01-21.74.45 277.6.27-310.64.03 127.02.01 12.69.4 172 .27-318.12.08 306.09.01 9.93.36 1.25.27-318.61.12 177.88.01-7.08.23-171.07.44 312.02.08-82.48.01 6.55.18-235.51.09 309.17.48-251.98.01-9.13.14-50.82.08 306.54.53-264.1.01 4.5.45-45.52.08 299.11.22-24.14.01 8.77.41-284.71.08 305.38.26-259.16.01-18.7.45 279.91.27-309.93.03 141.49.01 14.57.4 157.97.28-311.62.07 290.55.01 6.99.36 22 .27-328.41.12 195.12.01-15.46.23-181.26.44 333.09.08-94.02.01 11.53.18-251.98.45 334.69.12-246.51.01-19.51.14-61.77.45 335.89.16-286.72.01-.93.1-43.65.08 331.39.57-99.71.01 18.97.14 74.15.27-318.03.34 62.66.01-20.89.1 270.83.27-309.08.38 113.74.01 13.27.05 173.61.63-298.17.07 267.48.01 10.73.01 13.9.26-289.71.48 90.68.01-11.85.18 126.93.4-178.81.17 160.33.01 5.34.61 65.51.08-249.71.06 178.95.01 7.97.51-198.28.2 262.81.04-108.18.01-14.16.06-120.25.47 278.98.22-161.09.01 2.05.35 140.06.4-265.88v1.83l.01 3.87.44 282.32.31-95.98.01-3.87.54 68.36.13-266.06.08 184.78.01-5.43.35 124.21.4-263.74.01-9.58.45 227.72.14-255.69.16 213.91.01.27.26 87.42.43-295 .06 163.22.01-6.95.08 101.59.42-264.19.25 93.08.01-.8.17 203.71.43-289.71.15 242.5.01-6.19.28 16.66.14-248.52.33 115.13.01 5.3.09 158.86.42-267.75.24 48.45.01 5.84.33-63.15.42 269.22.01 1.56.43-256.58.32 70.99.01 9.67.25-85.73.42 248.55.08-183.58.01-4.49.35-44.63.13 193.33.27-47.96.01 10.06.16-160.64.43 208.74.16-160.33.01 14.21.15 138.82.11-194.63.49 110.45.01-14.96.37-113.88.13 223.35.25-128.4.01 12.16.06 102.26.68-207.1.01 11.72.01 10.46.28-21.29.13 222.28.34-53.44.01-10.33.08-155.12.43 206.82.24-122.47.01 5.83.19-89.87.13 229.58.43-221.52.01 1.65.42 204.15.14-204.69.19 127.24.01-6.68.23 108.05.43-229.36.09 92.28.01 6.45.33 114.82.14-213.2.28 1.43.01-4.19v-2.31l.14 231.23.61-101.95.01-8.46.24 113.66.14-239.2.37 90.18.01 5.52.05 159.4.14-241.74.56 10.68.01-2.67.28-17.23.44 253.23.03-107.6.01-16.97.53 119.89.07-252.96.15 88.89.01 1.16.34 175.96.41-270.6.01-.89.5-7.35.22 282.41.03-100.43.01-22 .25 127.59.34-297.1.16 112.01.01 5.08.4-118.83.23 303.47.12-282.18.01-.71.15 284.27.06-310.37.54 141 .01-28.99.3-113.7.23 321.42.22-181.49.01 12.34.11-159.93.51 333 .13-273.01.01 12.56.14 269 .06-334.69.55 47.83.01-19.46.01-31.89.51 337.14.23-164.25.01 12.2.1-176.09.51 330.85.14-224.68.01 19.46.47-124.61.23 331.13.05-322.45.01-5.34v-1.96l.51 335.54.24-133.35.01 14.12.6 121.36.06-342.79.09 158.95.01 13.94.69 166.96.06-346.13v7.7l.01 7.66.27-17.01.23 351.88.25-108.85.01 15.28.03 92.23.05-355.66.67 189.23.01 2.1.69 150.22.05-345.74.01 25.57.01 13.14.21 294.25.35-321.69.19 271.54.01 11.04.02 39.19.06-318.96.67 170.61.01 4.77.11 124.92.35-280.84.29 7.17.01 7.84.49 251.31.26-30.86.01 7.84.01 14.7.14-235.91.6 89.92.01 16.48.11 105.01.15-210.3.49 49.75.01-4.72.07-38.04.43 192.27.25-69.97.01 11.71.17-131.6.15 182.15.43-162.82.01 7.17.27-11.45.16 166.7.32-27.48.01-10.51.24 39.42.43-171.73.08 36.83.01 5.65.48-48.99.15 181.35.12-148.12.01-9.67.58-45.42.17 210.79.01-.98.57 6.59.12-229.36.06 80.61.01-6.68.21-74.38.17 230.96.37-135.34.01-7.71.48 148.89.12-254.04.15 248.29h.01l.28 15.99.41-270.73.06 144.74.01-14.12.38 152.14.12-291.45.25 134.68.01-4.41.03-128.22.72 302.05.01-.76.29 7.3.12-307.48.34 147.06.01-11.84.22-128.89.44 308.19.09-207.14.01 1.52.32-96.65.43 313v-.53l.01-1.12.55 9.09.07-336.69.13 130.93.01-5.7.43-137.57.23 363.73.09-252.26.01-4.76.52-117.09.23 390.18v-5.65l.01-13.01.27 24.59.06-398.78.42 131.69.01 3.52.08 267.66.06-411.78.61 122.57.01-7.75.17 296.83.06-411.16.52 360.3.01-32.78.04-329.08.23 414.59.48-269.98.01 5.88.07 265.66.06-414.32.62 94.28.01 1.47.16 314.96.06-402.69.53 215.82.01-37.5.03-172.35.22 392.18.5-243.88.01 8.64.34 236.89.06-397.26.35 109.33.01 12.61.15 274.87.34-395.17.26 99.41.01-28.24.01-71.92.51 389.95.23-190.92.01 12.16.05 177.29.34-394.58.36 127.99.01 13.72.14 250.51.05-394.67.56 15.67.01-9.08.23 361.85.05-366.62.47 251.68.01 12.6.03 91.88.07-351.48.65 98.51.01 15.99.12 224.33.07-323.42.56 18.84.01-4.15.21 288.87.54-80.3.01 12.6.02 62.04.73-271.18v9.4l.01 12.38.12 229.67.15-252.03.48 110.85.01-11.36.09-91.38.12 212.34.54-84.48.01 7.75.03 68.32.16-185.85.56 19.68.01-1.11.14 152.85.61-20.85.01-1.82.1-104.97.44 121.94.21-57.05.01-5.17.21-46.36.47 114.99.07-90.41.01.89.32-33.98.17 125.1.26-2.31.01 1.69.58 9.93.13-156.81.04 103.68.01 1.83.53-116.33.15 173.15.07-88.45.01.18.49 98.2.13-194.8.13 163.32.01 6.86.15-174.27.44 207.89.16-106.26.01 11.44.53-110.05.15 213.87.07-127.42.01-4.9.49 137.53.14-224.2.12 172.54.01 10.19.3 50.02.43-240.05.02 68.58.01 18.84.54-93.52.14 256.53.07-208.43.01-.05.21 216.36.42-271.72.12 226.11.01 11.89.44-235.5.14 282.58.17-146.88.01 17.1.53-147.5.14 289.71.08-259.03.01 7.26.48 259.07.07-300.53.2 292.2.01 6.86.57 12.69.07-323.73.11 187.05.01.09.38 139.31.35-332.64.02 63.11.01 7.83.18 261.65.36-341.63.21 337.98.01-1.87.28 7.39.06-345.6.41 190.53.01-2.94.15-188.65.22 347.82.38-253.81.01 2.5.18 255.23.06-342.44.51 318.62.01-9.45.05-303.33.22 323.78.48-153.7.01-2 .64 150.97.07-318.12.04 90.72.01-2.98.23-82.53.51 309 .01-48.1.01-17.28.26 60.65.35-302.97.14 165.18.01-2.4.07 135.65.06-297.37.62 82.17.01-8.32.16 208.2.07-274.3.52 206.7.01-13.81.04-187.14.21 256.84.5-111.65.01-3.03.07 105.9.14-230.78.54 52.02.01-7.44.02-41.2.14 213.69.59-43.11.01-7.13.11-150.58.15 187.5.49-74.64.01-8.91.06 74.82.15-165.36.54 32.96.01-.89.02-26.95.43 143.27.3-13.22.01-2.59.12-117.57.15 120.78.48-30.15.01-6.64.09 34.65.12-110.49.54 12.83.01-.72.02-11.31.17 106.04.56-8.68.01 2.94.12-93.17.47 103.1.16-45.03.01.71.47-56.33.22 110.49.06-110.41.01-1.2.5 115.8.12-116.47.13 76.96.01 6.06.59 43.07.14-136.06.02 36.65.01 6.19.54-50.68.15 155.79.06-139.04.01-1.3.5 147.55.13-172.62.12 119.67.01 10.29.59 55.27.14-190.31.02 54.69.01 9.76.25-66.63.43 203.13.07-189.46.01 4.55.34-20.62.15 211.54.26-48.85.01 11.62.58 41.42.07-215.29.1 90.32.01 5.12.68 126.35.06-229.85.01 12.2.01 6.86.48 212.93.07-236.84.2 215.42.01 8.59.29 14.88.35-244.02.11 119.67.01-4.36.1 128.04.63-245.66.02 34.29.01 5.26.19 204.37.07-244.19.49 241.34.01 1.52.63-247.27.12 118.91.01-5.96.44-114.51.22 250.96.09-203.53.01 3.43.18 198.01.07-246.95.5 243.48.01-4.55.06-236.44.49 242.28.2-139.58.01-3.74.08 142.43.06-238.58.61 47.38.01-1.11.17 183.22.35-228.07.23 200.01.01-10.86.04-188.35.22 217.92.49-112.72.01-.22.07 110 .07-210.52.61 44.36.01-2.28.17 158.55.06-197.6.52 164.02.01-9.97.04-148.62.22 180.68.49-78.16.01 2.05.07 70.19.06-168.66.62 33.76.01-1.78.17 124.79.06-145.9.52 128.57.01-5.83.05-114.06.22 127.78.48-42.54.01-1.64.08 35.4.07-109.11.6 14.61.01-.05.02-10.11.16 95.53.57-4.05.01-1.96.12-87.82.16 88.62.47-18.03.01-3.08.09 17.55.12-82.75.54 15.81.01-.84.02-10.02.17 71.7.56-3.83.01.49.12-64.45.47 67.92.16-33.89.01-1.43.51-29.57.18 72.02.06-53.58.01-.53.5 57.05.12-76.87.13 57.81.01 2 .59 23.07.12-90.45.04 28.63.01-.04.52-32.29.17 103.01.06-72.68.01.58.49 79.05.13-114.5.13 92.54.01 4.5.59 23.47.12-126.17.04 41.15.01 2.14.52-46.45.16 141.8.07-114.01.01.27.48 120.51.13-155.74.14 143 .01 5.48.14-148.84.44 161.54.17-93.22.01-.13.51-67.74.15 168.43.09-146.83.01.31.32-24.85.15 176.63.28-.94.01.49.28.67.12-176.41.35 74.07.01-1.78.09 102.07.41-171.51.25 11.09.01-1.29.18 160.6.35-173.51.22 165.49.01-6.9.27 13.27.35-173.69.13 77.18.01.18.08 96.2.06-173.43.61 10.25.01-.89.17 157.79.07-161.62.51 139.04.01-8.95.26 26.9.41-156.59.08 79 .01 1.7.07 74.42.41-156.1.27 2.63.01-.81v-.49l.17 149.02.58-32.29.01-8.5.09-104.17.17 134.72.49-52.29.01.85.07 47.47.11-129.06.57 2.45.01.49.17 116.02.58-11.41.01-3.25.08-92.81.19 97.67.48-27.97h.01l.08 20.62.42-88.36.25 11.22.01.14.18 71.21.42-83.6.15 80.17.01.27.12-79.68.63 50.95.01.13.1 24.28.12-72.02.53 35.94.01-2.62.03-30.65.16 63.87.56-4.54.01.98.13-55.01.47 58.48.15-48.81.01.93.53-9.88.16 60.65.06-12.96.01-3.56.54 17.68.1-65.29.11 49.93.01 1.87.35 20.08.4-81.32v1.34l.01 1.11.56-6.32.17 91.83.02-15.14.01-4.01.54 23.56.12-103.73.09 76.65.01 2.54.63 30.02.12-113.79h0l.01.4.56-4.28.17 122.74.02-29.21.01-5.66.53 40.08.13-132.36.09 99.01.01 1.73.63 34.39.12-137.58.01-.66.57-1.47.15 140.69.03-41.73.01-6.06.25 47.92.41-141.45.09 106.4.01.31.19-108.09.15 144.52.41-143.72.01-.13.15 144.3.13-145.15.47 105.51.01-6.15.09-99.13.16 146.39.5-46.01.01.4.06 44.09.41-143.27.28 1.43.01-.14.72 143.41.03-39.59.01-6.15.09-94.42.16 139.13.5-58.61.01.76.05 55.36.14-131.43.56 1.43.01-.58.15 127.33.6-26.01.01-3.07.1-94.2.15 114.06.5-49.97.01 1.02.06 42.63.14-104.17.55 9.88.01-1.42.6-8.24.15 101.18.01.58v.18l.12-100.38.63 46.31.01 2.32.51-48.86.16 101.1.08-66.54.01-4.14.48 69.52.14-99.05.13 92.68.01 2.23.14-95.22.16 99.9.45-81.77.01 2.89.25-19.28.46 96.42.04-33.98.01-4.72.06-57.5.46 97.31.23-19.77.01 1.96.05 17.68.12-94.51.58 1.56.01.72.15 91.47.12-92.9.48 79.01.01-2.45.53 13.76.14-89.65.08 65.96.01 1.78.06 21.69.13-89.3.56 1.61.01-.67.58-1.52.14 87.96.03-9.48.01-1.65.25 11.27.43-89.7.07 60.52.01 1.61.06 26.85.14-88.8.55 9.22.01-1.92.16 79.5.14-85.73.45 76.64.01-1.51.11-73.26.43 82.79.21-33.54.01 1.3.21-50.69.42 83.24.12-73.13.01-2.45.02-7.12.14 82.66.59-5.93.01-1.42.11-73.62.15 79.99.49-44.58.01 1.33.07 42.45.14-77.1.54 19.82.01-3.11.02-15.28.15 74.42.58-2.85.01-.62.12-67.61.44 68.76.19-56.51.01 1.82.08 54.11.14-65.33.53 27.08.01-3.34.51 42.04.13-69.03.11 62.79.01.32.62 8.68.13-75.89v.85l.01.84.56-4.14.15 81.28.04-24.54.01-2.94.52 28.91.14-86.45.09 65.25.01 1.29.62 21.2.13-89.92.01-.62.57-1.3.15 93.66.03-7.66.01-1.87.53 9.76.14-95.85.08 64.23.01 2.58.34 29.61.15-96.77.26 8.19.01-2.18.59-9.22.14 100.56.02-2.85.01-1.02.54 4.72.15-103.1.06 63.33.01 3.61.07 35.94.43-104.4.25 22.01.01-3.61.17 85.82.14-106.22.44 102.57.01-.94.54 4.68.15-108.05.06 60.62.01 4.32.35 45.16.15-110.81.25 24.58.01-3.91.6-22.98.13 113.7.02-4.1.01-1.11.53 5.38.16-117.84.06 73 .01 4.9.5-80.08.12 122.79.13-95.45.01-4.54.59-24.8.13 127.41.03-5.25.01-1.12.4-123.36.15 132.76.2-54.69.01 6.15.21-82.88.44 133.78.1-118.38.01-3.56.02-10.51.73 135.7.01.05.11-132.41.17 132.59.47-70.33.01 4.77.09 62.66.11-119.4.55 16.21.01-2.4.01-6.15.18 105.24.56-5.03.01.17.06-43.64v-3.88l.07-44.4.15 88.54.49-52.2.01 3.74.06 44.32.17-81.37.52 18.88.01-1.64.04-14.52.11 70.59.6-9.18.01-.35.14-54.65.61 20.26.01 1.74.12 27.21.12-41.37.51 22.85.01-1.52.05-15.9.17 33.31.53-3.65.01.14.05 2.18.1-25.25.01.09.01.04.07 8.11v1.29l.1 15.09.43-25.56.22 8.06.01-.89.49 18.26.14-27.7.12 25.3.01.66.15-26.41.44 29.67.16-24.01.01.94.12 22.84.12-28.72.51 14.16.01-.94.06-12.06.44 26.67.25-2.54.01.45.58 2.4.13-26.98.04 6.23.01.8.24-6.9.43 27.3.08-15.72.01-.94.05-10.64.14 27.3.56-.94.01.23v.31l.14-24.14.61 3.65.01.54.09 18.48.44-21.38.22 7.8.01-.58.05-7.13.14 20.53.56-1.78.01.22.16-17.81.59 2.31.01.09.09 13.59.17-13.94.49 5.61.01-.09.07-4.23.09 10.42.59-.98.01-.13.18-7.75.07 7.79.5-6.28.01.05.06 5.56.69-3.43.01-.09.51-2.13.21 4.85.03-2.54.01-.4.23 2.76.38-5.43.14 4.23.01.18.41-5.35.12 5.97.12-2.27v-.22l.62-4.01.13 7.17v-.13l.01.13.15-7.04.07 5.97.01.36.2-6.37.38 7.62.17-6.95h.01l.39 7.39.12-4.85.01-.23.33-2.54.12 8.07.3-.94.01-.13.12-7.08.12 7.52.51-4.18.01.08.07 3.26.44-6.02.24 2.01.01-.22.42 4.49.16-6.28.08 3.03v.22l.21-3.91.11 8.19.43-7.57.01-.27.15 7.53.61-3.92v-.22l.54 4.41.14-8.38.05 4.01v.18l.09 4.59.13-8.73.27 1.24.01-.13.01-.76.13 8.11.61-1.96.01-.22.4-4.9.14 6.14.21-1.33.01.04.05.94.06-5.7.27 1.91v-.31l.02-1.87.17 5.48.26-.18.01.4.01.49.68-6.37.06 1.29.01-.35.08 5.61.14-7.26.53 4.94.01-.31.05-3.38.44 6.1.26-2.59.01.49.02 2.81.15-7.62.58.27.01.63.13 6.81.43-8.28.19 2.85.01-.32.2 4.64.15-7.26.27 1.64v-.62l.17 6.33.14-7.26.44 5.74.01-.09.5 2.01.14-7 .11 3.08.01.4.02 3.56.15-6.28.58.36.01.04.27-.53.42 6.59.06-2.45.01-.13.09-3.97.11 5.93.55-2.99.01.09.31 2.18.42-4.27.02 1.11.01-.13.25-1.38.45 4.41.07-2.45.01.08.07-2 .15 4.45.53-1.06h.01l.23-2.9.05 3.3.47-2.32.01-.04.04-.89.66 3.11.08-.93.01-.4.39-1.65.19 3.12.17-1.61h.01l.35-2.31.13 4.41.15-3.74v-.36l.47 4.19.13-3.08.01-.49v-1.07l.25 4.68.5-2.09.01-.45.59-1.87.15 4.01.02-1.47.01-.31.57 2.49.16-5.34.02 2.85.01.53.12 2.1.15-4.77.43 3.07v.27l.22.22.16-3.6.4 2.04v.23l.19-1.21.15 2.41.37-2.05.01-.13.31-.8.4 3.2.04-2.67.01-.09.23 3.3.48-3.74.04 1.6.01-.14.23-1.82.08 3.47.44-1.07v-.44l.36-2.58.06 4.32.22-4.06.01-.13v-.27l.16 4.77.59-1.38.01-.09.39-2.14.07 2.85.29-.94.01.09.72.49.03-2.27.01.18.01-.13.04 2.58.7-1.16.01-.09.48 1.52.19-2.76.08 1.78h.01l.23-1.96.45 2.76.09-1.69v.26l.08-1.6.15 3.39.52-2.01.01-.04.06 1.29.34-2.01.35 1.38h.01l.28-2.09.34 3.52.09-.36.01-.09.05-3.65.05 4.81.65-1.42.01-.63.03 1.34.68-3.34.04 1.65.01.18.01 1.29.47-3.08.27 1.43.01.36.05-1.83.12 2.85.58-1.92.01.27.52-1.07.16 3.25.07-1.69.01.18.43 1.87.33-4.32.02 1.43.01.08.37-1.02.36 3.3.02-1.47.01-.05.12-2.27.07 4.19.55-2.01v.23l.38 1.38.07-2.72.28 1.07v-.31l.25 1.91.15-3.29.37 1.91v-.18l.12-1.64.52 3.25.06-2.36V205l.11-.53.06 3.51.58-2.4.01-.14.37-1.29.37 3.48.01-.27.01-.09.24-2.76.16 2.98.35-2.4.01-.05v-.53l.05 3.25.7-1.42.01-.14.1-2.18.2 3.25.45-1.38.01.22.03-1.51.68 2.76.04-1.2h.01l.29-1.12.12 2.23.34-2.18.01.27.35 2.31.05-3.47.35 2.98.01.09.66-2.27.09.93.01.09.39 1.38.06-2.44.3.89.01.17.23 1.43.09-2.49.43 1.11.01.22.02.58.14-1.51.59.71.01.04.45 1.07.17-2.63.11 1.61.01.31.04.8.15-1.96.53 1.47.01.22.11.23.52-2.19.12 1.07.01-.22.25 1.51.06-2.31.42 1.2.01-.13.42 1.29.16-2.54.17 2 .01-.26.63.18.08-1.7.02.98.01.14.23-1.34.17 2.18.3-.44v.09l.01.26.36-1.64.34.71.01-.14.18.85.14-1.47.42.62.01.05.48-.71.24 1.56.03-.72h.01l.24.54.47-1.21.04.09.01.18.21-.22.56 1.34.01-.18.01-.09.13-1.12.07 1.16.57-.71v.09l.09.71.15-1.38.47.94.01.17.09.05.5-.98.11.8.01.05.19.26.16-.98.38.58v.18l.33-.67.33.71.1-.31.01-.04.31-.45.35.8.1-.4.01-.04.04-.36.46.98.27-.84v.17l.24-.17.24.71.28-.54.01.05.39-.27.14.8.24-.31v-.09l.21.23.45-.54.09.22.01.05.21-.27.45.62.09-.35v.04l.09-.4.15.63.5-.14.01.05.26-.49.12.58.38-.27v.13l.16-.44.15.58.45-.23v.05l.27.18.38-.54.1.27.01-.05.18-.22.06.54.51-.23v-.18l.09-.08.57.4.17-.32h.01l.15-.08.59.35.03-.22.01-.09.3.45.21-.54.24.18.01-.05.84.32.01-.14.27.23.53-.36.05.09v.04l.31.23.49-.41.02.14v.04l.38-.26.11.49.27-.45v.09l.2-.27.22.85.33-.45v-.09l.22-.66.07 1.2.41-.8.01-.14.49 1.65.2-2.58.09 1.51v-.04l.43 1.16.22-3.43.12 1.29.01.31.5 3.12.14-5.88.11 2.63.01.44.49 4.81.16-8.46.1 3.25.01.4.46 4.32.17-9.84.12 5.88.01-.14.49 5.88.19-11.93.07 4.41.01.49.45 8.01.19-14.34.11 7.17.01-.09.3-8.55.18 18.35.09-9.93.01-.76.46-11.35.18 25.83.11-13.99.01-.62.46-17.28.17 37.68.12-24.01.01-.62.49-20.58.18 53.8.08-31 .01-1.24.47-34.83.18 77.89.1-57.58.01-1.65.47-24.18.2 94.46.08-73.8.01-3.16.47-32.07.2 116.73.08-99 .01-2.36.47-24.99.2 137.04.08-118.55.01-2.32.47-26.41.19 157.48.09-140.02.01-1.29.47-24.23.18 170.08.1-154.18.01.45.46-26.5.18 186.2.11-169.68.01 1.47.26 168.75.2-190.89.29 18.53.01 1.78.46-24.98.17 199.92.12-183.8.01 2.09.46-17.81.17 200.95.12-184.74.01 2.72.08-19.51.54 203.93.13-190.21.01 2.98.07-18.57.17 207.23.51-189.1.01 3.6.45-21.24.16 208.34.14-194.31.01 4.85.07-17.59.16 206.43.52-189.46.01 4.32.07-21.02.16 203.17.52-186.43.01 3.66.23 183.53.22-206.69.3 19.06.01 4.54.07-24.14.6 207.54.08-188.21.01 5.43.44-27.74.23 214.66.08-186.25.01 5.39.06-33.71.6 216.93.09-185.31.01 5.79.44-38.3.22 221.34.09-187.72.01 6.15.43-40.22.23 225.18.09-182.02.01 5.61.43-51.84.23 230.38.09-183.53.01 5.3.43-54.91.22 234.03.1-176.76.01 3.65.05-62.17.6 238.62.1-176.85.01 2.99.04-65.29.6 238.44.11-171.6.01.63.42-68.99.22 245.04.11-173.25.01-.8.41-72.15.22 248.78.12-176.81.01-5.65.4-68.05.22 253.85.13-196.49.01-8.02.4-52.64.22 258.67.13-215.96.01-9.66.39-38.35.22 271.49.14-250.56.01-7.97.22 261.29.16-275.05.37 5.97.01-5.35.59 277.24.16-281.38v.31l.01 3.88.59 281.51.15-288.46.01 14.16.01 12.21.2 266.94.16-293.8.39 72.42.01 19.9.57 205.8.15-297.99.03 122.88.01 19.64.18 154.85.16-294.87.41 173.69.01 10.95.18 105.73.53-292.11.04 199.83.01.72.54 95.79.15-299.9.06 188.12.01-13.05.31-176.45.22 302.49.22-161.76.01-17.63.14 174.89.45-299.64.16 74.11.01-10.51.21-66.01.29 304.14.25-260.27.01 1.65.49 262.27.08-307.3.18 54.2.01 11.09.1 243.08.46-311.44.19 109.11.01 19.29.46 182.29.09-316.43.2 182.86.01 21.2.45 116.91.09-326.85.21 269.44.01 8.86.44 50.06.08-335.13.23 286.77.01-2.1.05 50.86.46-337.98.24 280.04.01-3.61.04 53.8.09-335.49.62 278.75.01.32.4 57.27.09-338.39.26 308.51.01 8.19.39 22.67.09-346.62.27 337 .01 3.52v1.6l.47-346.62.28 335.04.01-4.59.45-330.45.28 340.48.02-24.45.01-4.41.44-316.7.28 343.02.03-27.17.01 2.72.05-316.48.28 345.78.42-62.44.01-13.27.04-261.52.65 342.84.06-122.78.01-19.33.03-196 .65 343.32.07-219.25.01-23.51.29 246.64.27-340.39.19 55.62.01-16.65.54-46.01.11 347.7.1-322.58.01 4.63.53-36.56.11 356.78.11-294.88.01 10.78.52-75.09.11 360.92.12-244.54.01 11.22.13-125.28.48 366.71.14-222.55.01 3.21.22 212.21.27-358.56.26 143.41.01.18.11-133.79.1 345.51.54-203.71.01 3.83.2 204.56.27-367.82.28 189.99.01 10.82.46-200.06.1 372.5.19-136.95.01 8.42.07-241.52.48 366.22.2-99.31.01 3.34.06-270.43.1 372.24.59-102.79.01-4.5.42-260.14.11 363.42.22-119.67.01-15.54.41-229.5.11 371.39.23-211.9.01-27.44.02-133.78.11 368.84.62-293.4.01-22.98.38-52.51.11 370.05.26-364.97.01-5.39.48 372.72.27-355.4.01 13.63.09 338.97.27-359.63.39 100.16.01 19.33.34-107.87.11 346.62.3-174.84.01 8.9.42 175.3.09-360.88.24 285.61.01 14.92.11-315.76.63 391.56.01-24.4.01-6.46.07-334.47.27 361.1.41-219.12.01-24.14.02-81.59.3 268.2.43-191.19.01 5.52.59 180.15.08-273.99.08 148.8.01 18.97.54 151.2.09-358.43.12 189.59.01-24.76.14 195.56.08-350.9.53 95.31.01 10.2.17-76.87.27 299.15.31-130.99.01 7.58.04 124.74.43-277.06.28 267.22.01-2.63.58-302.67.13 307.88.04-186.34.01-21.29.18-110.98.47 344.98.1-265.48.01 14.07.6 270.69.08-347.87.07 90.85.01 11.05.2 231.94.08-338.29.47 277.06.01-21.92.03-230.34.12 266.51.6-231.55.01 10.78.45 246.82.08-306.59.22 153.74.01 1.61.05 155.6.44-333.53.26 326.72.01 3.47.24-331.88.47 361.77.04-111.16.01-22.85.31 136.73.44-348.95v11.05l.01 8.68.26 318.44.08-332.46.41 34.2.01-.94.22 269.54.23-304.85.3 282.4.01-3.16.51 41.59.24-316.25.01 4.55.47 317.9.08-342.44.2 143.63.01 5.92.08 191.28.06-337.4.6 256.08.01 15.54.38 70.81.07-342.7.3 333.75.01-3.34.4-342.88.28 343.91.07-336.7.01-9.08.28 356.87.43-364.84.04 103.1.01-6.77.22 274.47.08-378.51.45 323.78.01 10.42.17 31.22.08-335.09.5 64.4.01-10.78.15 281.03.41-329.84.19 112.5.01-.71.1 210.12.05-322 .6 273.85.01 10.6.46-298.34.27 354.82.02-19.02.01 1.96.05-339.68.66 356.2.04-338.03.01-11.13v-3.88l.3 350.73.45-315.99.01 3.43.25 287.97.1-294.78.4 282.49.01-5.21.56 19.82.06-311 .13 48.23.01-8.68.21-51.04.44 342.71.1-259.83.01-2.58.17-72.73.08 325.25.5-99.27.01 19.33.05 73.08.07-309.03.63 281.69.01 4.18.01 15.28.44-291.45.3 115.44.01-19.24.45 198.32.3-302.75.01.89.4 310.01.3-314.82.05 307.87.01 11.27.35 5.61.3-336.2.1 81.9.01-7.12.61-91.12.05 363.14.09-231.45.01-6.99.56-133.39.05 383.14.14-185.67.01 25.3.15-219.92.41 385.28.19-55.04.01 3.78.46-345.95.05 398.82.24-177.3.01-20.44.05-214 .06 416.37.64-394.59.01-4.54V6.86l.05 395.97.7-55.49.01 28.19.31-353.13.4 384.84.04-262.32.01-11.22.26-106.22.05 386.26.44-258.58.01 2.5.21-125.19.4 384.34.14-212.88.01 11 .16-178.68.05 374.64.54-92.68.01 5.97.11-276.53.41 358.12.23-190.97.01-23.38.11 208.34.63-338.57.01 10.56.01-1.29.06 325.11.62-342.39.07 236.44.01 30.02.01 76.24.27-340.12.47 147.06.01-20.27.17 207.1.41-327.34.17 46.58.01 9.84.18-58.96.09 320.08.48-154.54.01 11.53.43 127.73.21-307.56.11 255.19.01 4.41.18 44.58.05-307.66.52 145.01.01-11.09.17-106.17.06 226.2.52-84.76.01-5.07.12-121.94.2 191.19.43-74.73.01 3.87.36 91.26.08-252.16.31 216.31.01-3.61.67 61.91.07-276.04.01 21.65.01 12.82.23-27.79.19 268.55.33-189.63.01-8.91.46 243.04.07-335.9.22 238.18.01-8.99.59-209.19.16 299.59.01 2.63.07-293.27.19 295.77.49-137.8.01 4.99.31 134.05.07-293.18.37 99.01.01 5.74.46-102.52.15 273.9.14-152.23.01 6.15.11 162.33.64-279.86.01-4.19v-4.59l.41 283.74.34-213.1.01.31.31-84.66.41 302.75.03-89.2.01-11.09.51 80.7.1-269.76.14 261.83.01 7.26.07-272.96.2 295.27.48-112.81.01 4.86.38-191.38.2 317.99.17-222.77.01 3.52.36 200.37.1-289.57.29 125.01.01 5.97.12 176.49.63-310.68.01-3.79v-1.47l.43 308.06.32-260.09.01 1.38.31-54.6.43 314.47.01-62.22.01-17.99.51 48.01.1-277.42.14 241.3.01 4.19.08-235.42.2 294.74.47-119.09.01 8.55.38-191.95.2 302.49.17-186.92.01-.62.36 173.55.33-282.53.06 92.14.01 10.65.13 187.85.06-282.54.56 14.34.01-3.07.23-18.79.2 285.52.32-235.87.01-4.01.31-38.12.42 265.57.02-36.65.01-13.99.52 24.45.1-245.66.13 210.75.01 2.89.28 62.17.07-272.33.4 196.31.01 7.22.58 68.45.08-276.35.09 128.62.01.98.36 125.68.07-262.36.32 76.02.01 10.56.13 205.4.07-302.76.55 24.68.01 1.29.43 271.62.07-304.89.25 76.2.01-9.04.28-57.68.46 293.27.01-26.54.01-12.42.05-255.51.47 269.8.23-46.32.01.98.29 57.23.06-277.15.4 198.81.01 10.29.13-203.66.46 258.57.16-102.78.01 2.13.37 86.54.07-244.19.31 40.21.01 5.79.14 204.38.6-253.77.01 10.02.01 4.28.41 239.38.1-250.56.24 95.93.01-13.94.29-85.06.42 250.29.04-13.36.01-2.94.49 6.46.1-239.03.16 234.71.01-1.12.27 17.55.1-244.5.38 191.64.01.71.14-188.84.45 239.92.16-84.44.01 12.47.37 70.99.11-235.55.27 15.05.01 1.65.15 209.9.08-222.95.52 47.34.01-6.72.03-44 .09 213.46.63-121.54.01 1.65.17 109.87.11-153.03.47 69.34.01 2.1.18 77.89.14-138.95.43 81.1.01.76.51 50.46.13-136.55.11 112.85.01 3.07.55 25.26.1-146.26.1 96.69.01 5.21.56 61.68.08-171.69.11 127.56.01 4.49.55 39.06.15-167.14.05 83.99.01.98.1 82.44.15-178.01.5 98.6.01-1.02.16 86.13.08-185.63.51 101.28.01-4.14.16 99.31.45-202.55.14 138.91.01-6.32.17 79.27.14-221.61.44 173.02.01-7.35.53 62.71.15-224.64.07 141.76.01-6.15.53 84.58.16-232.3.06 118.02.01-3.7.08 113.34.6-228.6.07 84.04.01-10.15.14 164.51.15-228.65.46 63.87.01-7.57.14 176.63.15-240.05.46 43.38.01-9.85.13 194.14.15-231.81.47 63.59.01-2.36.5 178.99.15-241.29.1 51.08.01 5.61.36-32.87.13 216.27.26-181.13.01 9.85.2-60.04.29 216.8.26-155.03.01 16.39.18-80.07.3 242.81.27-152.05.01 15.45.09 131.83.63-239.83.03 121.19.01 15.59.09 118.86.45-249.58.21 137.62.01 8.77.08 93.26.46-245.26.21 182.73.01 4.14.32-184.42.13 243.61.3-65.47.01-2.98.16-172.67.28 232.66.31-64 .01-2.22.15-172.23.29 247.62.31-96.73.01-2 .05 99.58.1-244.06.6 147.15.01.27.19-145.9.23 235.28.33-115.26.01 8.02.41 118.2.1-258.18.24 165.59.01 10.55.4 77.63.15-252.92.2 202.64.01 12.02.16-203.93.23 240.05.36-6.46.01 6.1v6.19l.11-253.54.64 250.29.01 5.13v2.18l.14-265.93.61 246.69.01-.36.14-233.9.23 247.98.38-10.6.01-4.06.36 24.99.14-258.09.25 216.05.01-4.77.35 29.35.15-244.33.25 204.96.01.13.49-202.01.23 244.9.03-41.28.01-3.12.6-196.14.11 241.16.04-49.03.01-8.33.1-199.88.6 261.21.05-67.74.01-3.47.32 65.11.26-241.88.17 159.22.01-4.63.2-158.91.11 257.82.44-109.78.01-7.44.19-130.53.49 234.43.07-121.13.01-13.59.18-99.67.49 239.87.08-158.46.01-13.13.29 159.48.26-238.27.2 60.7.01-14.07.54-47.12.11 240.23.1-206.96.01-4.63.16-28.06.11 241.92.48-218.81.01.89.15-35 .11 245.53.49-195.69.01 2.13.49-49.88.11 254.26.15-169.46.01 8.15.66-131.11.08 327.74.01-28.24.01-19.33.26-277.64.08 343.69.41-278.8.01-3.87.21-41.46.09 295.05.45-226.56.01 5.66.51-59.95.09 254.53.15-12.79.01-.22.55 42.71.06-311.84.14 220.36.01-1.91.2-215.33.45 329.21.1-305.07.01-4.72.26 295.98.46-329.34.03 86.98.01 2.27.4 248.73.06-340.39.29 330.82.01 10.86v3.03l.06-330.28.69 55.9.01-14.08.66 272.12.06-313.94.03 74.2.01 8.42.31-103.46.3 363.41.14-41.15.01 5.17.21 37.59.06-346.54.48 271.49.01 2.14.42-258.04.09 302.35.24-190.97.01-12.64.47 220.23.05-342.44.23 78.87.01-3.03.06 268.24.41-328.05.28 189.15.01 30.37.42-230.38.3 351.07.03-235.37.01-27.35.02-94.86.3 360.21.43-325.69.01 2.98.23-7.12.04 305.38.48-97.89.01 13.98.58 100.39.05-334.96.12 246.82.01-1.69.17 92.77.06-337.67.52 188.16.01-6.23.12 126.39.62-290.29.01 1.43.01 1.51.43 310.2.05-339.1.27 94.19.01 29.8.08-122.52.3 348.05.37-128.44.01-29.22.62-185.89.07 355.44.06-329.35.01 5.26.28 317.05.3-369.96.17 172.18.01 20.93.18-190.53.05 360.43.52-81.41.01-4.67.48-244.55.06 312.69.21-93.84.01-6.86.44-231.54.06 354.77.25-238.27.01-26.32.04-89.2.06 353.7.65-337.45.01 1.96.05 304.58.64-309.34.06 274.03.01 12.11.36 11.22.28-302.66.11 52.1.01-15.94.23-39.01.08 296.12.44-260.23.01 6.99.27 247.27.28-299.11.2 216.32.01 5.34.14-223.57.08 285.61.53-37.01.01 5.03.03 21.51.07-262.36.65 235.95.01-7.21.32 40.13.23-243.17.2 6.5.01-7.04.36-9.3.27 252.96.12-179.61.01 7.39.1-56.29.14 211.45.51-104.57.01-1.82.06-83.6.12 181.75.57-150.66.01-4.1.01-10.37.12 134.49.62-68.45.01 3.88.08 51.66.24-121.18.43 74.46.01 2.09.59-78.38.16 150.98.01.4.18-160.6.54 175.52.03-29.17.01-1.07.47-167.77.19 218.14.09-163.32.01-5.7.07-47.69.18 222.85.5-115.83.01-7.75.34 57.67.41-121.23v1.21l.01 2.09.15 144.83.6-144.7.01-.44.12 120.82.63-172.48.01-1.96.4 236.13.33-255.6.02 85.91.01 17.15.22-109.29.14 278.71.39-145.64.01 10.96.2-140.38.39 276.61.16-135.34.01 1.42.33 137.35.11-301.82.31 178.99.01.98.42-192.97.15 352.95.18-208.92.01 1.2.3 200.9.1-311.62.35 151.34.01 12.47.04 142.51.35-282.76.36 201.57.01 13.01.02 63.68.61-296.65.12 250.38.01 9.84.51 62.62.1-322.08.14 282.85.01 5.56.5 25.97.07-309.35.18 282.05.01-1.47.24 31.04.31-304.14.2 279.42.01-2.98.23 31.31.08-306.1.44 258.84.01-11.58.29-253.99.44 288.02.02-70.59.01-17.41.04-205.36.43 292.69.28-139.98.01-19.64.21 156.28.32-288.68.22 132.18.01-16.21.2 184.42.08-311.3.47 140.15.01-18.84.27-103.01.43 277.1.05-207.71.01-14.48.01-39.72.43 248.29.31-206.65.01-7.26.43 218.89.08-237.86.24 45.91.01-4.63.19 184.65.1-229.85.46 34.38.01-6.81.16 201.34.09-235.28.5 9.35.01-4.63.53-7.44.15 235.87.07-231.28.01-2.05.42 241.48.08-245.4.25 13.72.01 1.02.16 243.57.1-262.45.49 23.52.01-.49.15 242.67.1-267.57.5 2.54.01-.31.65 279.5.1-256.48.01 7.04.39 232.52.09-294.34.27 89.74.01 4.19.13 175.83.09-234 .53 39.24.01 2.98.21-42.97.42 241.78.12-183.71.01 2.76.31-52.1.09 201.39.35-74.47.01-1.24.23 44.27.09-117 .43 38.26.01-3.48.41-39.77.08 113.61.26-99.53.01-1.3.11 119.63.09-150.89.55 31.53.01-1.87.24-34.38.49 155.21.02-43.03.01-8.1.27-142.87.09 243.08.39-.63h.01l.3-260.4.1 276.84.35-142.74.01 15.01.53-174.14.1 336.6.12-307.7.01 8.87.56-41.24.1 333.3.09-318.25.01-6.81.01-9.49.69 352.81.05-228.69.01-11.44.04-131.92.3 381.54.41-91.3.01-17.68.27-270.07.3 374.2.18-18.22.01 4.86.4 23.87.11-379.27.24 155.96.01 18.89.04 199.83.7-375.53.01 15.05.01 7.62.37-23.69.3 377.35.08-338.61.01-8.1.01-21.47.7 364.62.04-204.11.01-15.1.54 225.93.1-376.77.11 340.52.01-13.36.09-325.65.48 373.48.18-70.9.01 14.92.51-321.51.1 378.43.14-271.05.01 14.88.64 259.15.11-371.47v3.42l.01 4.86.19-8.24.49 363.64.07-292.2.01-9.94.23-70.45.09 382.92.43-184.83.01-14.2.36 196.45.1-376.78.29 362.35.01-1.61.39 19.02.11-368.49.25 171.11.01 17.5.03 166.7.71-347.74.01 19.64.01 7.88.07 315.1.11-349.39.57 67.96.01-8.37.11 285.34.11-327.96.53 162.56.01-12.16.06-114.42.1 249.81.59-142.61.01 10.65.58-97.27.09 198.99.08-165.72.01-9.58.44-64.26.31 297.19.01-2.63.31-317.68.1 350.5.34-290.69.01 7.75.07 272.48.11-314.56.57 56.25.01-7.62.15 200.01.09-232.25.51 117.26.01 5.21.66 125.01.09-253.05.01-5.21.43-32.25.11 330.37.21-20.84.01-11.85.08-293.93.11 326.98.56-247.71.01 11.27.07 206.51.1-263.25.58 71.92.01-7.57.58 175.79.1-230.48.07 145.1.01 11.63.03 82.3.11-237.33.61 7.25.01-2.58.42-34.74.11 299.02.22-22.27.01-7.53.62 5.04.1-259.87.03 60.92.01 7.31.07 196.76.09-268.82.59 90.9.01-8.73.57 159.08.1-213.55.08 139.26.01 9.98.57-164.96.1 254.12.08-230.56.01-4.28.66-23.73.09 258.79v-1.2l.01-4.18.1-263.48.31 275.41.34-229.32.01 3.26.5 206.11.11-230.03.14 89.65.01-7.44.06-89.87.09 225.44.6-89.92.01 6.28.46 108.49.12-262.49.17 41.06.01-3.83.65-46.5.1 285.84v-1.07l.01-4.37.1-275.05.1 279.55.55-240.27.01 3.25.4-16.88.1 219.74.25-115.3.01-10.33.05-95.67.53 212.39.17-92.1.01 7.4.37-139.4.29 251.18.09-225.39.01-4.68.03-27.79.3 253.72.42-9.35.01-5.84.1-221.47.1 234.92.55-228.78.01 2.85.2-1.73.51 208.74.04-107.34.01-11.13.5-115.13.08 249.18.17-88.58.01 8.51.03 75.66.13-231.36.59 12.56.01-.4.24-15.32.09 227.44.42-17.99.01-4.5.62 25.74.13-236.97.01 1.38.2-.58.08 247.53.47-133.92.01-13.45.24-101.67.12 247.08.39-75.35.01 9.62.02 62.35.31-221.12.42 11.53.01 2.45.53 194.04.14-236.13.08 222.28.01-.53.33-228.16.28 258.31.14-251.54.01 1.74.2-8.78.07 274.97.48-162.29.01-13.05.08-84.44.28 246.19.39-75.04.01 9.49.02 49.48.57-234.17.16 53.04.01 2.49.52 182.73.15-259.95.08 237.69.01-.49.12-237.6.49 266.32.14-255.37.01 5.08.2-3.61.07 254.44.48-131.3.01-11.13.35 123.54.36-235.73.04 189.68.01 8.69.58-224.38.08 288.95.09-279.41.01-1.52.02-8.91.48 300.44.25-157.92.01-5.48.05-100.34.1 215.6.6-160.2.01-4.4.21-39.2.11 189.06.43-116.77.01-4.41.61 139.75.11-212.17.03 26.63.01 4.86.09 163.85.08-167.15.58 8.6.01 2.76.23-40.48.12 216.75.4-162.82.01 12.16.09 129.78.65-201.98.01 18.53.01 9.22.1 218.67.11-263.07.54 103.86.01 9.84.6 127.73.11-236.4.04 76.29.01 8.33.09 153.56.12-244.28.54 158.5.01 8.15.45-179.17.14 276.62.16-91.79.01 15.77.07 72.32.11-267.57.57 173.38.01 5.39.57 99.76.12-291.4.06 238.44.01 1.92.58 25.7.11-241.61.06 177.92.01-5.43.06 97.62.37-293 .32 227.89.01-5.12.56 72.95.11-281.56.08 201.48.01-.8.05 65.24.12-260 .58 147.91.01-2.45.3 131.78.1-272.07.35 157.39.01-.54.14-140.19.15 226.37.46-104.57.01 6.19.28 114.15.11-258.53.36 164.56.01 6.99.53 72.01.11-228.2.11 180.55.01 12.65.02 52.06.11-266.19.62 182.06.01 10.16.51 68.54.12-246.69.12 222.68.01 7.57.01 7.22.11-237.78.63 213.15.01 5.79.5 41.69.11-279.47.14 245.22.01-2.1.61-216.49.14 244.86v-4l.01-4.86.24 22.22.11-283.56.4 220.1.01-13.23.6-189.72.14 257.73.01-47.61.01-17.1.09-210.97.13 257.6.53-80.61.01-16.17.47 109.07.12-256.84.16 121.09.01-16.3.07-99.93.65 240.4.03-123.32.01-13.58.21 151.78.36-256.09.18 54.16.01-9.62.05-27.92.66 234.43.04-187.85.01-5.79.19 194.49.11-265.39.45 45.03.01-.41.55-27.16.14 241.16.06-206.29.01-1.47.04-46.45.14 239.56.57-184.6.01-1.96.43 198.32.11-245.67.21 20.76.01-1.47.02-16.26.65 236.53.08-209.45.01-1.74.16 225.53.11-249.22.48 20.49.01-.09.51-18.66.15 255.9.09-247.71.01-2.58v-1.29l.4 243.34.35-228.87.01-1.16.64 243.57.11-261.83.01.49.64 251.68.11-236 .01 1.78.13 249.76.11-261.07.51 26.19.01 5.52.63 223.21.11-255.14.01 23.42.01 10.11.11 221.04.11-246.51.53 46.94.01 10.78.61 195.2.11-258.89.03 72.59.01 11.45.1 169.01.36-246.73.29 84.27.01 10.55.35 159.17.11-269.13.29 129.65.01 10.6.09 120.91.11-251.67.55 136.23.01 6.95.58 116.2.11-265.3.06 172.35.01 4.32.58 83.64.11-258.36.06 152.99.01-1.43.07 114.59.11-264.99.57 154.59.01-5.44.56 116.42.11-265.26.08 148.71.01-6.68.05 114.95.08-254.3.62 114.45.01-6.59.41-105.5.14 262 .2-149.46.01-1.92.1-115.7.45 261.6.2-160.33.01 3.26.04 168.97.32-275.99.39 121.49.01 9.84.09-121.67.45 255.86.21-123.14.01 15.05.02 114.68.32-268.77.41 168.25.01 17.6.52 83.81.07-261.2.16 201.97.01 15.1.01 36.12.06-263.66.68 106.89H821" transform="translate(50 84)"/></g><text fill="#2a3f5f" font-family="Verdana" font-size="12"><tspan y="553" x="46">0</tspan><tspan x="203" y="553">2</tspan><tspan x="360" y="553">4</tspan><tspan x="515" y="553">6</tspan><tspan x="673" y="553">8</tspan><tspan x="825" y="553">10</tspan><tspan x="31" y="522.83">−1</tspan><tspan y="408.55" x="19">−0.5</tspan><tspan x="41" y="294.27">0</tspan><tspan x="29" y="179.99">0.5</tspan><tspan x="41" y="65.71">1</tspan></text></g><text font-size="23" letter-spacing="1.715" class="C I"><tspan x="439.466" y="590">Time (s)</tspan></text><text transform="matrix(0 -1 1 0 -305 338)" font-size="26" letter-spacing="1.938" class="C I"><tspan x="-59.254" y="331">Amplitude</tspan></text><g transform="translate(0 590)"><mask id="E" class="B"><use xlink:href="#B"/></mask><path mask="url(#E)" d="M0 614h921V0H0z" class="B"/><mask id="F" class="B"><use xlink:href="#C" href="#B"/></mask><path mask="url(#F)" d="M92.919 546.145h809.952V18.13H92.919z" class="B"/><g transform="translate(93 18)"><mask id="G" class="B"><use xlink:href="#C"/></mask><path d="M22.961 527.686V.094" mask="url(#G)" class="D E F G H"/><mask id="H" class="B"><use xlink:href="#E" href="#C"/></mask><path d="M175.692 527.686V.094" mask="url(#H)" class="D E F G H"/><mask id="I" class="B"><use xlink:href="#F" href="#C"/></mask><path d="M328.422 527.686V.094" mask="url(#I)" class="D E F G H"/><mask id="J" class="B"><use xlink:href="#G" href="#C"/></mask><path d="M481.152 527.686V.094" mask="url(#J)" class="D E F G H"/><mask id="K" class="B"><use xlink:href="#H" href="#C"/></mask><path d="M633.883 527.686V.094" mask="url(#K)" class="D E F G H"/><mask id="L" class="B"><use xlink:href="#I" href="#C"/></mask><path d="M786.613 527.686V.094" mask="url(#L)" class="D E F G H"/></g><mask id="M" class="B"><use xlink:href="#J" href="#B"/></mask><path d="M92.919 546.145h809.952" mask="url(#M)" class="D E F"/><mask id="N" class="B"><use xlink:href="#K" href="#B"/></mask><path d="M115.842 546.145v-7.253" mask="url(#N)" class="D E F"/><mask id="O" class="B"><use xlink:href="#L" href="#B"/></mask><path d="M268.663 546.145v-7.253" mask="url(#O)" class="D E F"/><mask id="P" class="B"><use xlink:href="#M" href="#B"/></mask><path d="M421.484 546.145v-7.253" mask="url(#P)" class="D E F"/><mask id="Q" class="B"><use xlink:href="#N" href="#B"/></mask><path d="M574.305 546.145v-7.253" mask="url(#Q)" class="D E F"/><mask id="R" class="B"><use xlink:href="#O" href="#B"/></mask><path d="M727.126 546.145v-7.253" mask="url(#R)" class="D E F"/><mask id="S" class="B"><use xlink:href="#P" href="#B"/></mask><path d="M879.946 546.145v-7.253" mask="url(#S)" class="D E F"/><mask id="T" class="B"><use xlink:href="#Q" href="#B"/></mask><path d="M107.164 558.011c-.924 0-1.62.455-2.088 1.366-.462.906-.693 2.271-.693 4.095 0 1.819.231 3.185.693 4.098.468.906 1.164 1.358 2.088 1.358.93 0 1.625-.453 2.087-1.358.468-.913.702-2.279.702-4.098 0-1.824-.234-3.189-.702-4.095-.462-.911-1.158-1.366-2.087-1.366h0zm0-1.424c1.486 0 2.62.59 3.402 1.769.788 1.172 1.182 2.877 1.182 5.115 0 2.233-.394 3.94-1.182 5.119-.782 1.172-1.916 1.758-3.402 1.758s-2.624-.586-3.411-1.758c-.782-1.179-1.173-2.886-1.173-5.119 0-2.239.391-3.944 1.173-5.115.787-1.179 1.925-1.769 3.411-1.769z" mask="url(#T)" class="C"/><mask id="U" class="B"><use xlink:href="#R" href="#B"/></mask><path mask="url(#U)" d="M114.901 567.835h1.874v2.256h-1.874z" class="C"/><mask id="V" class="B"><use xlink:href="#S" href="#B"/></mask><path d="M124.521 558.011c-.924 0-1.62.455-2.088 1.366-.462.906-.693 2.271-.693 4.095 0 1.819.231 3.185.693 4.098.468.906 1.164 1.358 2.088 1.358.93 0 1.626-.453 2.088-1.358.468-.913.701-2.279.701-4.098 0-1.824-.234-3.189-.701-4.095-.462-.911-1.158-1.366-2.088-1.366h0zm0-1.424c1.486 0 2.621.59 3.402 1.769.787 1.172 1.181 2.877 1.181 5.115 0 2.233-.394 3.94-1.181 5.119-.782 1.172-1.916 1.758-3.402 1.758s-2.623-.586-3.411-1.758c-.782-1.179-1.173-2.886-1.173-5.119 0-2.239.391-3.944 1.173-5.115.788-1.179 1.925-1.769 3.411-1.769z" mask="url(#V)" class="C"/><mask id="W" class="B"><use xlink:href="#T" href="#B"/></mask><path d="M260.22 558.011c-.924 0-1.62.455-2.087 1.366-.462.906-.693 2.271-.693 4.095 0 1.819.231 3.185.693 4.098.468.906 1.163 1.358 2.087 1.358.93 0 1.626-.453 2.088-1.358.468-.913.702-2.279.702-4.098 0-1.824-.234-3.189-.702-4.095-.462-.911-1.158-1.366-2.088-1.366h0zm0-1.424c1.487 0 2.621.59 3.402 1.769.788 1.172 1.182 2.877 1.182 5.115 0 2.233-.394 3.94-1.182 5.119-.782 1.172-1.916 1.758-3.402 1.758s-2.623-.586-3.411-1.758c-.782-1.179-1.173-2.886-1.173-5.119 0-2.239.391-3.944 1.173-5.115.787-1.179 1.924-1.769 3.411-1.769z" mask="url(#W)" class="C"/><mask id="X" class="B"><use xlink:href="#U" href="#B"/></mask><path mask="url(#X)" d="M267.957 567.835h1.875v2.256h-1.875z" class="C"/><mask id="Y" class="B"><use xlink:href="#V" href="#B"/></mask><path mask="url(#Y)" d="M274.051 568.579h2.931v-10.116l-3.189.641v-1.635l3.171-.641h1.794v11.75h2.931v1.512h-7.639z" class="C"/><mask id="Z" class="B"><use xlink:href="#W" href="#B"/></mask><path d="M413.111 558.011c-.924 0-1.619.455-2.088 1.366-.461.906-.691 2.271-.691 4.095 0 1.819.23 3.185.691 4.098.468.906 1.164 1.358 2.088 1.358.931 0 1.627-.453 2.088-1.358.468-.913.702-2.279.702-4.098 0-1.824-.234-3.189-.702-4.095-.46-.911-1.156-1.366-2.088-1.366h0zm0-1.424c1.486 0 2.621.59 3.404 1.769.788 1.172 1.182 2.877 1.182 5.115 0 2.233-.394 3.94-1.182 5.119-.783 1.172-1.917 1.758-3.404 1.758s-2.624-.586-3.412-1.758c-.78-1.179-1.17-2.886-1.17-5.119 0-2.239.39-3.944 1.17-5.115.788-1.179 1.925-1.769 3.412-1.769z" mask="url(#Z)" class="C"/><mask id="a" class="B"><use xlink:href="#X" href="#B"/></mask><path mask="url(#a)" d="M420.847 567.835h1.877v2.256h-1.877z" class="C"/><mask id="b" class="B"><use xlink:href="#Y" href="#B"/></mask><path d="M428.177 568.579h6.263v1.512h-8.419v-1.512l2.778-2.832 2.222-2.299c.573-.647.972-1.192 1.197-1.635.233-.45.349-.892.349-1.324 0-.706-.249-1.28-.748-1.723-.491-.445-1.133-.668-1.926-.668-.563 0-1.158.097-1.784.292-.622.197-1.288.494-1.999.89v-1.811c.721-.292 1.397-.512 2.026-.66s1.201-.223 1.723-.223c1.374 0 2.469.344 3.285 1.032s1.228 1.607 1.228 2.755c0 .545-.104 1.063-.311 1.554-.202.484-.573 1.058-1.113 1.723l-1.412 1.493-3.358 3.435z" mask="url(#b)" class="C"/><mask id="c" class="B"><use xlink:href="#Z" href="#B"/></mask><path d="M565.751 558.011c-.924 0-1.619.455-2.088 1.366-.463.906-.695 2.271-.695 4.095 0 1.819.232 3.185.695 4.098.468.906 1.164 1.358 2.088 1.358.929 0 1.625-.453 2.088-1.358.468-.913.702-2.279.702-4.098 0-1.824-.234-3.189-.702-4.095-.463-.911-1.159-1.366-2.088-1.366h0zm0-1.424c1.486 0 2.62.59 3.4 1.769.788 1.172 1.182 2.877 1.182 5.115 0 2.233-.394 3.94-1.182 5.119-.78 1.172-1.914 1.758-3.4 1.758s-2.624-.586-3.412-1.758c-.783-1.179-1.174-2.886-1.174-5.119 0-2.239.391-3.944 1.174-5.115.788-1.179 1.925-1.769 3.412-1.769z" mask="url(#c)" class="C"/><mask id="d" class="B"><use xlink:href="#a" href="#B"/></mask><path mask="url(#d)" d="M573.488 567.835h1.877v2.256h-1.877z" class="C"/><mask id="e" class="B"><use xlink:href="#b" href="#B"/></mask><path d="M584.708 562.942c.857.182 1.526.563 2.007 1.144.486.581.729 1.297.729 2.149 0 1.31-.45 2.323-1.351 3.039s-2.18 1.074-3.837 1.074a9.2 9.2 0 0 1-1.723-.169c-.586-.107-1.193-.27-1.823-.487v-1.735c.499.292 1.044.512 1.635.66a7.63 7.63 0 0 0 1.857.223c1.126 0 1.981-.223 2.567-.668.591-.445.886-1.091.886-1.938 0-.78-.275-1.389-.825-1.827-.545-.445-1.306-.668-2.283-.668h-1.547v-1.474h1.619c.883 0 1.557-.175 2.022-.526.468-.356.702-.865.702-1.527 0-.681-.242-1.201-.725-1.562-.481-.368-1.172-.553-2.072-.553-.491 0-1.018.054-1.581.161a14.1 14.1 0 0 0-1.857.495v-1.596c.683-.189 1.32-.331 1.911-.426a10.56 10.56 0 0 1 1.688-.146c1.361 0 2.438.312 3.231.936.796.614 1.193 1.448 1.193 2.502 0 .734-.211 1.356-.633 1.865-.42.504-1.017.854-1.792 1.051z" mask="url(#e)" class="C"/><mask id="f" class="B"><use xlink:href="#c" href="#B"/></mask><path d="M718.353 558.011c-.924 0-1.619.455-2.088 1.366-.461.906-.691 2.271-.691 4.095 0 1.819.23 3.185.691 4.098.468.906 1.164 1.358 2.088 1.358.931 0 1.627-.453 2.088-1.358.468-.913.702-2.279.702-4.098 0-1.824-.234-3.189-.702-4.095-.461-.911-1.156-1.366-2.088-1.366h0zm0-1.424c1.486 0 2.621.59 3.404 1.769.788 1.172 1.182 2.877 1.182 5.115 0 2.233-.394 3.94-1.182 5.119-.783 1.172-1.917 1.758-3.404 1.758s-2.624-.586-3.412-1.758c-.78-1.179-1.17-2.886-1.17-5.119 0-2.239.39-3.944 1.17-5.115.788-1.179 1.925-1.769 3.412-1.769z" mask="url(#f)" class="C"/><mask id="g" class="B"><use xlink:href="#d" href="#B"/></mask><path mask="url(#g)" d="M726.09 567.835h1.877v2.256h-1.877z" class="C"/><mask id="h" class="B"><use xlink:href="#e" href="#B"/></mask><path d="M736.804 558.391l-4.528 7.08h4.528v-7.08h0zm-.472-1.562h2.256v8.642h1.892v1.493h-1.892v3.128h-1.784v-3.128h-5.987v-1.731l5.514-8.404z" mask="url(#h)" class="C"/><mask id="i" class="B"><use xlink:href="#f" href="#B"/></mask><path d="M871.458 558.011c-.924 0-1.619.455-2.088 1.366-.461.906-.691 2.271-.691 4.095 0 1.819.23 3.185.691 4.098.468.906 1.164 1.358 2.088 1.358.931 0 1.627-.453 2.088-1.358.468-.913.702-2.279.702-4.098 0-1.824-.234-3.189-.702-4.095-.461-.911-1.156-1.366-2.088-1.366h0zm0-1.424c1.486 0 2.621.59 3.404 1.769.788 1.172 1.182 2.877 1.182 5.115 0 2.233-.394 3.94-1.182 5.119-.783 1.172-1.917 1.758-3.404 1.758s-2.624-.586-3.412-1.758c-.78-1.179-1.17-2.886-1.17-5.119 0-2.239.39-3.944 1.17-5.115.788-1.179 1.925-1.769 3.412-1.769z" mask="url(#i)" class="C"/><mask id="j" class="B"><use xlink:href="#g" href="#B"/></mask><path mask="url(#j)" d="M879.198 567.835h1.873v2.256h-1.873z" class="C"/><mask id="k" class="B"><use xlink:href="#h" href="#B"/></mask><path d="M884.997 556.829h7.046v1.512h-5.403v3.25a4.61 4.61 0 0 1 .783-.196c.261-.049.522-.073.783-.073 1.479 0 2.65.405 3.515 1.216s1.297 1.912 1.297 3.296c0 1.428-.444 2.538-1.332 3.331-.888.788-2.14 1.182-3.757 1.182-.558 0-1.126-.047-1.704-.142s-1.172-.237-1.788-.426v-1.804a7.14 7.14 0 0 0 1.654.649 7.35 7.35 0 0 0 1.804.215c1.023 0 1.834-.27 2.433-.81s.898-1.271.898-2.195-.299-1.655-.898-2.195-1.41-.806-2.433-.806a6.7 6.7 0 0 0-1.439.157c-.473.107-.959.274-1.458.499v-6.662z" mask="url(#k)" class="C"/><mask id="l" class="B"><use xlink:href="#i" href="#B"/></mask><path mask="url(#l)" d="M405.881 583.5h10.476v2.076h-8.013v5.376h7.234v2.076h-7.234v8.707h-2.464z" class="C"/><mask id="m" class="B"><use xlink:href="#j" href="#B"/></mask><path d="M426.277 590.158c-.253-.146-.531-.252-.833-.319a4.09 4.09 0 0 0-.975-.107c-1.271 0-2.249.414-2.932 1.243-.675.824-1.013 2.01-1.013 3.557v7.203h-2.26v-13.677h2.26v2.122c.471-.829 1.085-1.443 1.842-1.842.757-.407 1.678-.61 2.763-.61a4.2 4.2 0 0 1 .51.035l.626.084.012 2.31z" mask="url(#m)" class="C"/><mask id="n" class="B"><use xlink:href="#k" href="#B"/></mask><path d="M439.785 594.337v1.098h-10.334c.1 1.548.564 2.728 1.393 3.542.839.806 2.004 1.209 3.496 1.209a9.78 9.78 0 0 0 2.502-.319 10.98 10.98 0 0 0 2.418-.952v2.126c-.806.343-1.632.604-2.479.783a12.41 12.41 0 0 1-2.575.269c-2.182 0-3.913-.636-5.192-1.907-1.271-1.269-1.907-2.987-1.907-5.154 0-2.239.602-4.014 1.807-5.326 1.215-1.318 2.849-1.976 4.9-1.976 1.839 0 3.293.594 4.359 1.781 1.075 1.182 1.612 2.791 1.612 4.828h0zm-2.249-.66c-.015-1.231-.361-2.212-1.036-2.943-.668-.734-1.555-1.101-2.663-1.101-1.254 0-2.259.354-3.016 1.063-.75.709-1.181 1.706-1.293 2.993l8.009-.012z" mask="url(#n)" class="C"/><mask id="o" class="B"><use xlink:href="#l" href="#B"/></mask><path d="M444.816 594.908c0 1.653.339 2.951 1.017 3.895.683.939 1.619 1.408 2.809 1.408s2.123-.469 2.809-1.408c.683-.944 1.025-2.242 1.025-3.895s-.342-2.947-1.025-3.884c-.686-.944-1.622-1.416-2.809-1.416s-2.126.472-2.809 1.416c-.678.936-1.017 2.231-1.017 3.884h0zm7.66 4.778c-.473.814-1.072 1.42-1.796 1.819-.716.391-1.58.587-2.59.587-1.653 0-3-.66-4.041-1.98-1.034-1.32-1.55-3.055-1.55-5.204s.517-3.884 1.55-5.204c1.041-1.318 2.388-1.976 4.041-1.976 1.011 0 1.874.2 2.59.599.724.389 1.323.991 1.796 1.807v-2.076h2.249v18.88h-2.249v-7.253z" mask="url(#o)" class="C"/><mask id="p" class="B"><use xlink:href="#m" href="#B"/></mask><path d="M459.122 596.34v-8.281h2.245v8.193c0 1.295.253 2.268.76 2.92.504.642 1.261.963 2.272.963 1.213 0 2.169-.386 2.87-1.159.706-.773 1.059-1.827 1.059-3.162v-7.756h2.249v13.677h-2.249v-2.099c-.545.831-1.179 1.451-1.903 1.857-.716.399-1.552.599-2.506.599-1.571 0-2.763-.489-3.577-1.466s-1.22-2.406-1.22-4.286h0z" mask="url(#p)" class="C"/><mask id="q" class="B"><use xlink:href="#n" href="#B"/></mask><path d="M486.91 594.337v1.098h-10.334c.097 1.548.562 2.728 1.393 3.542.839.806 2.003 1.209 3.492 1.209a9.78 9.78 0 0 0 2.502-.319 10.96 10.96 0 0 0 2.421-.952v2.126c-.806.343-1.632.604-2.479.783a12.43 12.43 0 0 1-2.579.269c-2.182 0-3.913-.636-5.192-1.907-1.269-1.269-1.903-2.987-1.903-5.154 0-2.239.602-4.014 1.807-5.326 1.213-1.318 2.845-1.976 4.897-1.976 1.839 0 3.293.594 4.359 1.781 1.077 1.182 1.616 2.791 1.616 4.828h0zm-2.249-.66c-.015-1.231-.362-2.212-1.04-2.943-.668-.734-1.554-1.101-2.659-1.101-1.256 0-2.263.354-3.02 1.063-.747.709-1.178 1.706-1.293 2.993l8.013-.012z" mask="url(#q)" class="C"/><mask id="r" class="B"><use xlink:href="#o" href="#B"/></mask><path d="M501.968 593.481v8.254h-2.249v-8.182c0-1.295-.252-2.264-.756-2.909s-1.261-.963-2.272-.963c-1.213 0-2.169.386-2.87 1.159s-1.051 1.83-1.051 3.166v7.729h-2.26v-13.677h2.26v2.122c.537-.821 1.169-1.435 1.896-1.842.732-.407 1.575-.61 2.529-.61 1.571 0 2.759.489 3.565 1.466.806.967 1.209 2.396 1.209 4.286z" mask="url(#r)" class="C"/><mask id="s" class="B"><use xlink:href="#p" href="#B"/></mask><path d="M516.293 588.58v2.103c-.634-.35-1.273-.611-1.915-.783-.634-.179-1.278-.269-1.93-.269-1.458 0-2.59.464-3.396 1.393-.806.921-1.209 2.216-1.209 3.884s.403 2.969 1.209 3.895c.806.921 1.938 1.381 3.396 1.381a7.37 7.37 0 0 0 1.93-.257 8.91 8.91 0 0 0 1.915-.794v2.08c-.627.292-1.278.51-1.953.656-.668.148-1.38.223-2.137.223-2.059 0-3.696-.647-4.908-1.942s-1.823-3.042-1.823-5.242c0-2.231.611-3.986 1.834-5.265 1.231-1.277 2.911-1.915 5.042-1.915a9.38 9.38 0 0 1 2.03.219c.66.138 1.298.349 1.915.633z" mask="url(#s)" class="C"/><mask id="t" class="B"><use xlink:href="#q" href="#B"/></mask><path d="M525.895 603.006c-.634 1.63-1.254 2.693-1.857 3.189s-1.407.744-2.418.744h-1.796v-1.88h1.32c.619 0 1.1-.146 1.443-.437s.719-.988 1.136-2.08l.403-1.025-5.534-13.458h2.383l4.275 10.699 4.275-10.699h2.379l-6.01 14.947z" mask="url(#t)" class="C"/><mask id="u" class="B"><use xlink:href="#r" href="#B"/></mask><path d="M548.356 582.755c-1.09 1.873-1.9 3.725-2.429 5.557s-.794 3.692-.794 5.572.265 3.745.794 5.595c.537 1.839 1.347 3.692 2.429 5.557h-1.953c-1.22-1.914-2.136-3.795-2.748-5.645-.601-1.847-.902-3.683-.902-5.507 0-1.816.301-3.644.902-5.484s1.52-3.724 2.748-5.645h1.953z" mask="url(#u)" class="C"/><mask id="v" class="B"><use xlink:href="#s" href="#B"/></mask><path mask="url(#v)" d="M552.815 583.5h2.468v7.475h8.964V583.5h2.468v18.236h-2.468v-8.684h-8.964v8.684h-2.468z" class="C"/><mask id="w" class="B"><use xlink:href="#t" href="#B"/></mask><path mask="url(#w)" d="M570.552 588.059h10.676v2.049l-8.454 9.836h8.454v1.792h-10.983v-2.049l8.454-9.836h-8.147z" class="C"/><mask id="x" class="B"><use xlink:href="#u" href="#B"/></mask><path d="M584.305 582.755h1.953c1.22 1.921 2.132 3.803 2.736 5.645.611 1.839.917 3.667.917 5.484 0 1.824-.306 3.66-.917 5.507-.604 1.85-1.516 3.731-2.736 5.645h-1.953c1.082-1.865 1.888-3.717 2.418-5.557.537-1.85.806-3.715.806-5.595s-.269-3.738-.806-5.572c-.53-1.832-1.335-3.684-2.418-5.557z" mask="url(#x)" class="C"/><g transform="translate(93 18)"><mask id="y" class="B"><use xlink:href="#v" href="#C"/></mask><path d="M.052 527.686h809.473" mask="url(#y)" class="D E F G H"/><mask id="z" class="B"><use xlink:href="#w" href="#C"/></mask><path d="M.052 422.166h809.473" mask="url(#z)" class="D E F G H"/><mask id="AA" class="B"><use xlink:href="#x" href="#C"/></mask><path d="M.052 316.649h809.473" mask="url(#AA)" class="D E F G H"/><mask id="AB" class="B"><use xlink:href="#y" href="#C"/></mask><path d="M.052 211.13h809.473" mask="url(#AB)" class="D E F G H"/><mask id="AC" class="B"><use xlink:href="#z" href="#C"/></mask><path d="M.052 105.612h809.473" mask="url(#AC)" class="D E F G H"/><mask id="AD" class="B"><use xlink:href="#AA" href="#C"/></mask><path d="M.052.094h809.473" mask="url(#AD)" class="D E F G H"/></g><mask id="AE" class="B"><use xlink:href="#AB" href="#B"/></mask><path d="M92.919 546.145V18.13" mask="url(#AE)" class="D E F"/><mask id="AF" class="B"><use xlink:href="#AC" href="#B"/></mask><path d="M92.919 546.145h7.252" mask="url(#AF)" class="D E F"/><mask id="AG" class="B"><use xlink:href="#AD" href="#B"/></mask><path d="M92.919 440.541h7.252" mask="url(#AG)" class="D E F"/><mask id="AH" class="B"><use xlink:href="#AE" href="#B"/></mask><path d="M92.919 334.939h7.252" mask="url(#AH)" class="D E F"/><mask id="AI" class="B"><use xlink:href="#AF" href="#B"/></mask><path d="M92.919 229.336h7.252" mask="url(#AI)" class="D E F"/><mask id="AJ" class="B"><use xlink:href="#AG" href="#B"/></mask><path d="M92.919 123.733h7.252" mask="url(#AJ)" class="D E F"/><mask id="AK" class="B"><use xlink:href="#AH" href="#B"/></mask><path d="M92.919 18.13h7.252" mask="url(#AK)" class="D E F"/><mask id="AL" class="B"><use xlink:href="#AI" href="#B"/></mask><path mask="url(#AL)" d="M43.847 546.318h11.388v1.512H43.847z" class="C"/><mask id="AM" class="B"><use xlink:href="#AJ" href="#B"/></mask><path d="M64.039 541.076l-4.531 7.08h4.531v-7.08h0zm-.471-1.562h2.256v8.642h1.892v1.493h-1.892v3.128h-1.785v-3.128h-5.987v-1.731l5.516-8.404z" mask="url(#AM)" class="C"/><mask id="AN" class="B"><use xlink:href="#AK" href="#B"/></mask><path d="M74.52 540.696c-.924 0-1.62.455-2.088 1.366-.462.906-.693 2.271-.693 4.095 0 1.819.231 3.185.693 4.098.468.906 1.164 1.358 2.088 1.358.93 0 1.626-.453 2.088-1.358.468-.913.702-2.279.702-4.098 0-1.824-.234-3.189-.702-4.095-.462-.911-1.158-1.366-2.088-1.366h0zm0-1.424c1.486 0 2.621.59 3.402 1.769.788 1.172 1.182 2.877 1.182 5.115 0 2.233-.394 3.94-1.182 5.119-.782 1.172-1.916 1.758-3.402 1.758s-2.623-.586-3.411-1.758c-.782-1.179-1.172-2.886-1.172-5.119 0-2.239.391-3.944 1.172-5.115.788-1.179 1.925-1.769 3.411-1.769z" mask="url(#AN)" class="C"/><mask id="AO" class="B"><use xlink:href="#AL" href="#B"/></mask><path mask="url(#AO)" d="M43.847 440.714h11.388v1.512H43.847z" class="C"/><mask id="AP" class="B"><use xlink:href="#AM" href="#B"/></mask><path d="M64.545 440.023c.859.184 1.528.565 2.008 1.144.486.581.728 1.298.728 2.153 0 1.307-.45 2.319-1.35 3.035s-2.179 1.075-3.838 1.075c-.557 0-1.131-.056-1.723-.169-.586-.105-1.193-.267-1.821-.487v-1.731c.498.289 1.042.508 1.634.656s1.211.223 1.857.223c1.125 0 1.981-.223 2.567-.668.592-.443.888-1.087.888-1.934 0-.783-.275-1.393-.826-1.83-.545-.445-1.306-.668-2.283-.668H60.84v-1.474h1.617c.882 0 1.558-.175 2.025-.526.468-.356.702-.865.702-1.527 0-.681-.243-1.201-.728-1.562-.48-.368-1.17-.553-2.07-.553-.491 0-1.018.054-1.581.161s-1.181.274-1.857.499v-1.6c.681-.189 1.318-.331 1.91-.426.598-.095 1.161-.142 1.688-.142 1.362 0 2.44.311 3.233.933.793.617 1.19 1.452 1.19 2.506 0 .734-.21 1.356-.631 1.865-.421.501-1.019.851-1.794 1.048z" mask="url(#AP)" class="C"/><mask id="AQ" class="B"><use xlink:href="#AN" href="#B"/></mask><path d="M74.52 435.092c-.924 0-1.62.457-2.088 1.37-.462.906-.693 2.271-.693 4.095 0 1.816.231 3.181.693 4.095.468.906 1.164 1.358 2.088 1.358.93 0 1.626-.453 2.088-1.358.468-.913.702-2.278.702-4.095 0-1.824-.234-3.189-.702-4.095-.462-.913-1.158-1.37-2.088-1.37h0zm0-1.42c1.486 0 2.621.588 3.402 1.765.788 1.174 1.182 2.881 1.182 5.119 0 2.231-.394 3.936-1.182 5.115-.782 1.172-1.916 1.758-3.402 1.758s-2.623-.586-3.411-1.758c-.782-1.179-1.172-2.885-1.172-5.115 0-2.239.391-3.945 1.172-5.119.788-1.177 1.925-1.765 3.411-1.765z" mask="url(#AQ)" class="C"/><mask id="AR" class="B"><use xlink:href="#AO" href="#B"/></mask><path mask="url(#AR)" d="M43.847 335.112h11.388v1.51H43.847z" class="C"/><mask id="AS" class="B"><use xlink:href="#AP" href="#B"/></mask><path d="M60.654 340.06h6.263v1.51h-8.421v-1.51l2.781-2.834 2.221-2.301c.574-.645.974-1.19 1.199-1.634.231-.45.346-.891.346-1.324 0-.705-.249-1.279-.746-1.723-.491-.444-1.134-.666-1.928-.666-.563 0-1.158.098-1.786.293-.622.195-1.288.491-1.999.888v-1.812c.722-.29 1.397-.509 2.025-.657s1.202-.222 1.723-.222c1.374 0 2.47.343 3.287 1.03s1.226 1.605 1.226 2.754c0 .545-.104 1.063-.311 1.555-.201.486-.571 1.06-1.11 1.723l-1.413 1.492-3.358 3.438z" mask="url(#AS)" class="C"/><mask id="AT" class="B"><use xlink:href="#AQ" href="#B"/></mask><path d="M74.52 329.489c-.924 0-1.62.456-2.088 1.368-.462.906-.693 2.271-.693 4.095 0 1.818.231 3.183.693 4.095.468.906 1.164 1.359 2.088 1.359.93 0 1.626-.453 2.088-1.359.468-.912.702-2.277.702-4.095 0-1.824-.234-3.189-.702-4.095-.462-.912-1.158-1.368-2.088-1.368h0zm0-1.421c1.486 0 2.621.589 3.402 1.768.788 1.172 1.182 2.878 1.182 5.117 0 2.233-.394 3.938-1.182 5.117-.782 1.172-1.916 1.759-3.402 1.759s-2.623-.586-3.411-1.759c-.782-1.179-1.172-2.884-1.172-5.117 0-2.239.391-3.944 1.172-5.117.788-1.178 1.925-1.768 3.411-1.768z" mask="url(#AT)" class="C"/><mask id="AU" class="B"><use xlink:href="#AR" href="#B"/></mask><path mask="url(#AU)" d="M43.847 229.509h11.388v1.51H43.847z" class="C"/><mask id="AV" class="B"><use xlink:href="#AS" href="#B"/></mask><path mask="url(#AV)" d="M59.419 234.457h2.931v-10.118l-3.189.639v-1.634l3.171-.64h1.794v11.752h2.931v1.51h-7.639z" class="C"/><mask id="AW" class="B"><use xlink:href="#AT" href="#B"/></mask><path d="M74.52 223.886c-.924 0-1.62.456-2.088 1.368-.462.906-.693 2.271-.693 4.095 0 1.818.231 3.183.693 4.095.468.906 1.164 1.359 2.088 1.359.93 0 1.626-.453 2.088-1.359.468-.912.702-2.277.702-4.095 0-1.824-.234-3.189-.702-4.095-.462-.912-1.158-1.368-2.088-1.368h0zm0-1.421c1.486 0 2.621.589 3.402 1.768.788 1.172 1.182 2.878 1.182 5.117 0 2.233-.394 3.938-1.182 5.117-.782 1.173-1.916 1.759-3.402 1.759s-2.623-.586-3.411-1.759c-.782-1.178-1.172-2.884-1.172-5.117 0-2.239.391-3.944 1.172-5.117.788-1.179 1.925-1.768 3.411-1.768z" mask="url(#AW)" class="C"/><mask id="AX" class="B"><use xlink:href="#AU" href="#B"/></mask><path d="M74.52 118.283c-.924 0-1.62.456-2.088 1.368-.462.906-.693 2.271-.693 4.095 0 1.818.231 3.183.693 4.095.468.906 1.164 1.359 2.088 1.359.93 0 1.626-.453 2.088-1.359.468-.912.702-2.277.702-4.095 0-1.824-.234-3.189-.702-4.095-.462-.912-1.158-1.368-2.088-1.368h0zm0-1.421c1.486 0 2.621.589 3.402 1.768.788 1.172 1.182 2.878 1.182 5.117 0 2.233-.394 3.938-1.182 5.117-.782 1.173-1.916 1.759-3.402 1.759s-2.623-.586-3.411-1.759c-.782-1.178-1.172-2.884-1.172-5.117 0-2.239.391-3.944 1.172-5.117.788-1.179 1.925-1.768 3.411-1.768z" mask="url(#AX)" class="C"/><mask id="AY" class="B"><use xlink:href="#AV" href="#B"/></mask><path mask="url(#AY)" d="M59.419 23.251h2.931V13.133l-3.189.64v-1.634l3.171-.64h1.794v11.752h2.931v1.51h-7.639z" class="C"/><mask id="AZ" class="B"><use xlink:href="#AW" href="#B"/></mask><path d="M74.52 12.68c-.924 0-1.62.456-2.088 1.368-.462.906-.693 2.271-.693 4.095 0 1.818.231 3.183.693 4.095.468.906 1.164 1.359 2.088 1.359.93 0 1.626-.453 2.088-1.359.468-.912.702-2.277.702-4.095 0-1.824-.234-3.189-.702-4.095-.462-.912-1.158-1.368-2.088-1.368h0zm0-1.421c1.486 0 2.621.589 3.402 1.768.788 1.173 1.182 2.878 1.182 5.117 0 2.233-.394 3.938-1.182 5.117-.782 1.173-1.916 1.759-3.402 1.759s-2.623-.586-3.411-1.759c-.782-1.178-1.172-2.884-1.172-5.117 0-2.239.391-3.944 1.172-5.117.788-1.178 1.925-1.768 3.411-1.768z" mask="url(#AZ)" class="C"/><mask id="Aa" class="B"><use xlink:href="#AX" href="#B"/></mask><path d="M8.353 469.645h6.852v-3.105c0-1.146-.297-2.034-.892-2.663s-1.441-.94-2.541-.94c-1.091 0-1.934.313-2.528.94s-.892 1.517-.892 2.663v3.105h0zm-2.028 2.468v-5.572c0-2.044.464-3.587 1.392-4.628.92-1.051 2.272-1.577 4.055-1.577 1.8 0 3.159.526 4.08 1.577.92 1.041 1.38 2.584 1.38 4.628v3.105h7.329v2.468H6.326z" mask="url(#Aa)" class="C"/><mask id="Ab" class="B"><use xlink:href="#AY" href="#B"/></mask><path d="M12.457 452.714c0 1.205.472 2.158 1.417 2.859.936.701 2.223 1.051 3.86 1.051s2.927-.347 3.872-1.04c.936-.698 1.405-1.655 1.405-2.87 0-1.197-.472-2.145-1.417-2.844s-2.231-1.051-3.86-1.051c-1.62 0-2.903.35-3.847 1.051-.953.698-1.429 1.646-1.429 2.844h0zm-1.905 0c0-1.955.635-3.49 1.905-4.605s3.029-1.673 5.277-1.673c2.239 0 3.998.558 5.277 1.673 1.27 1.115 1.905 2.65 1.905 4.605 0 1.962-.635 3.501-1.905 4.617-1.278 1.108-3.037 1.662-5.277 1.662-2.247 0-4.006-.554-5.277-1.662-1.27-1.115-1.905-2.654-1.905-4.617z" mask="url(#Ab)" class="C"/><mask id="Ac" class="B"><use xlink:href="#AZ" href="#B"/></mask><path mask="url(#Ac)" d="M10.882 444.018v-2.249l10.675-2.809-10.675-2.794v-2.652l10.675-2.809-10.675-2.798v-2.249l13.68 3.58v2.652l-11.213 2.943 11.213 2.955v2.652z" class="C"/><mask id="Ad" class="B"><use xlink:href="#Aa" href="#B"/></mask><path d="M17.16 410.551h1.099v10.334c1.547-.097 2.728-.562 3.542-1.393.806-.839 1.209-2.003 1.209-3.492a9.82 9.82 0 0 0-.318-2.506c-.212-.814-.529-1.619-.953-2.418h2.125a13.47 13.47 0 0 1 .782 2.479c.179.847.269 1.706.269 2.579 0 2.182-.635 3.912-1.905 5.188-1.27 1.271-2.988 1.907-5.154 1.907-2.239 0-4.014-.602-5.325-1.807-1.319-1.213-1.979-2.845-1.979-4.897 0-1.842.594-3.296 1.783-4.363 1.181-1.075 2.789-1.612 4.825-1.612h0zm-.66 2.249c-1.23.015-2.211.361-2.944 1.036-.733.668-1.099 1.555-1.099 2.663 0 1.254.354 2.259 1.063 3.016.708.75 1.706 1.182 2.992 1.297L16.5 412.8z" mask="url(#Ad)" class="C"/><mask id="Ae" class="B"><use xlink:href="#Ab" href="#B"/></mask><path d="M12.983 398.935a2.85 2.85 0 0 0-.318.833c-.073.292-.11.617-.11.975 0 1.271.415 2.249 1.246 2.932.822.675 2.007 1.013 3.554 1.013h7.206v2.26h-13.68v-2.26h2.125c-.831-.471-1.445-1.085-1.844-1.842-.407-.757-.611-1.678-.611-2.763 0-.154.012-.324.037-.51l.085-.626 2.308-.012z" mask="url(#Ae)" class="C"/><mask id="Af" class="B"><use xlink:href="#Ac" href="#B"/></mask><path d="M11.285 379.906h2.125a8.78 8.78 0 0 0-.733 1.979c-.163.684-.244 1.393-.244 2.126 0 1.115.171 1.953.513 2.514.342.555.855.833 1.539.833a1.46 1.46 0 0 0 1.234-.599c.293-.399.574-1.201.843-2.406l.171-.77c.342-1.596.826-2.728 1.453-3.395.619-.676 1.486-1.014 2.602-1.014 1.27 0 2.276.505 3.017 1.514.741 1.002 1.111 2.382 1.111 4.141 0 .732-.073 1.497-.22 2.295a18.55 18.55 0 0 1-.635 2.506H21.74a12.46 12.46 0 0 0 .977-2.456c.212-.806.318-1.604.318-2.395 0-1.058-.179-1.872-.537-2.442a1.73 1.73 0 0 0-1.539-.855c-.611 0-1.079.208-1.405.623-.326.407-.639 1.307-.94 2.7l-.183.779c-.293 1.394-.741 2.401-1.344 3.02-.611.617-1.445.925-2.504.925-1.287 0-2.28-.455-2.98-1.366s-1.05-2.208-1.05-3.884c0-.831.061-1.613.183-2.346a9.98 9.98 0 0 1 .55-2.028z" mask="url(#Af)" class="C"/><mask id="Ag" class="B"><use xlink:href="#Ad" href="#B"/></mask><path d="M22.51 373.421h7.255v2.26H10.882v-2.26h2.076c-.814-.473-1.417-1.067-1.808-1.783-.399-.725-.598-1.588-.598-2.59 0-1.661.66-3.009 1.979-4.043 1.319-1.042 3.054-1.563 5.203-1.563s3.884.521 5.203 1.563c1.319 1.034 1.979 2.382 1.979 4.043 0 1.002-.195 1.865-.586 2.59-.399.716-1.006 1.311-1.82 1.783h0zm-4.776-7.646c-1.653 0-2.948.342-3.884 1.026-.945.676-1.417 1.608-1.417 2.797s.472 2.125 1.417 2.809c.936.676 2.231 1.014 3.884 1.014s2.952-.338 3.896-1.014c.936-.684 1.405-1.621 1.405-2.809s-.468-2.121-1.405-2.797c-.945-.684-2.243-1.026-3.896-1.026z" mask="url(#Ag)" class="C"/><mask id="Ah" class="B"><use xlink:href="#Ae" href="#B"/></mask><path d="M17.16 348.015h1.099v10.333c1.547-.098 2.728-.562 3.542-1.392.806-.839 1.209-2.003 1.209-3.493 0-.863-.106-1.698-.318-2.504a11.13 11.13 0 0 0-.953-2.418h2.125a13.48 13.48 0 0 1 .782 2.479 12.42 12.42 0 0 1 .269 2.577c0 2.182-.635 3.913-1.905 5.191-1.27 1.27-2.988 1.905-5.154 1.905-2.239 0-4.014-.602-5.325-1.807-1.319-1.213-1.979-2.846-1.979-4.898 0-1.84.594-3.294 1.783-4.36 1.181-1.075 2.789-1.613 4.825-1.613h0zm-.66 2.248c-1.23.016-2.211.362-2.944 1.038-.733.668-1.099 1.555-1.099 2.663 0 1.254.354 2.259 1.063 3.017.708.749 1.706 1.181 2.992 1.295l-.012-8.012z" mask="url(#Ah)" class="C"/><mask id="Ai" class="B"><use xlink:href="#Af" href="#B"/></mask><path d="M11.407 334.481h2.101c-.35.635-.611 1.274-.782 1.918a7.08 7.08 0 0 0-.269 1.93c0 1.457.464 2.589 1.392 3.395.92.806 2.215 1.209 3.884 1.209s2.968-.403 3.896-1.209c.92-.806 1.38-1.938 1.38-3.395 0-.651-.085-1.295-.256-1.93-.179-.643-.444-1.282-.794-1.918h2.076a9.21 9.21 0 0 1 .66 1.954c.147.668.22 1.38.22 2.137 0 2.06-.647 3.697-1.942 4.91s-3.041 1.82-5.24 1.82c-2.231 0-3.986-.611-5.264-1.832-1.278-1.23-1.918-2.911-1.918-5.044a9.32 9.32 0 0 1 .22-2.028 8.98 8.98 0 0 1 .635-1.918z" mask="url(#Ai)" class="C"/><mask id="Aj" class="B"><use xlink:href="#Ag" href="#B"/></mask><path d="M6.998 328.35h3.884v-4.629h1.747v4.629h7.426c1.116 0 1.832-.151 2.15-.452.318-.31.476-.933.476-1.869v-2.309h1.881v2.309c0 1.734-.322 2.931-.965 3.591-.651.66-1.832.99-3.542.99h-7.426v1.649h-1.747v-1.649H6.998v-2.26z" mask="url(#Aj)" class="C"/><mask id="Ak" class="B"><use xlink:href="#Ah" href="#B"/></mask><path d="M12.983 312.838c-.147.253-.252.529-.318.83-.073.293-.11.619-.11.977 0 1.27.415 2.247 1.246 2.931.822.676 2.007 1.014 3.554 1.014h7.206v2.26h-13.68v-2.26h2.125c-.831-.472-1.445-1.087-1.844-1.844-.407-.757-.611-1.677-.611-2.76 0-.155.012-.326.037-.513a7.05 7.05 0 0 1 .085-.623l2.308-.012z" mask="url(#Ak)" class="C"/><mask id="Al" class="B"><use xlink:href="#Ai" href="#B"/></mask><path d="M17.685 304.263c0 1.816.208 3.074.623 3.774s1.124 1.051 2.125 1.051c.798 0 1.433-.261 1.905-.782.464-.529.696-1.246.696-2.15 0-1.246-.44-2.243-1.319-2.992-.888-.757-2.064-1.136-3.53-1.136h-.501v2.235h0zm-.928-4.483h7.805v2.248h-2.076c.831.513 1.445 1.152 1.844 1.918.391.765.586 1.702.586 2.809 0 1.401-.391 2.516-1.173 3.347-.79.823-1.844 1.234-3.163 1.234-1.539 0-2.699-.513-3.481-1.539-.782-1.034-1.173-2.573-1.173-4.617v-3.151h-.22c-1.034 0-1.832.342-2.394 1.026-.57.676-.855 1.629-.855 2.858 0 .782.094 1.543.281 2.284a9.05 9.05 0 0 0 .843 2.137h-2.076a14.62 14.62 0 0 1-.708-2.394c-.163-.774-.244-1.527-.244-2.26 0-1.979.513-3.456 1.539-4.433s2.581-1.466 4.666-1.466z" mask="url(#Al)" class="C"/><mask id="Am" class="B"><use xlink:href="#Aj" href="#B"/></mask><path mask="url(#Am)" d="M5.556 295.152v-2.247h19.005v2.247z" class="C"/><mask id="An" class="B"><use xlink:href="#Ak" href="#B"/></mask><path d="M12.958 271.249H5.556v-2.248h19.005v2.248H22.51c.814.472 1.421 1.071 1.82 1.796.391.717.586 1.58.586 2.589 0 1.653-.66 3.001-1.979 4.043-1.319 1.034-3.054 1.551-5.203 1.551s-3.884-.517-5.203-1.551c-1.319-1.043-1.979-2.39-1.979-4.043 0-1.01.199-1.873.598-2.589.391-.725.993-1.323 1.808-1.796h0zm4.776 7.658c1.653 0 2.952-.338 3.896-1.013.936-.684 1.405-1.621 1.405-2.809s-.468-2.125-1.405-2.809c-.945-.684-2.243-1.026-3.896-1.026s-2.948.342-3.884 1.026c-.945.684-1.417 1.621-1.417 2.809s.472 2.125 1.417 2.809c.936.676 2.231 1.013 3.884 1.013z" mask="url(#An)" class="C"/><mask id="Ao" class="B"><use xlink:href="#Al" href="#B"/></mask><path d="M17.16 252.671h1.099v10.333c1.547-.098 2.728-.562 3.542-1.393.806-.839 1.209-2.003 1.209-3.493 0-.863-.106-1.698-.318-2.504a11.13 11.13 0 0 0-.953-2.418h2.125a13.48 13.48 0 0 1 .782 2.479c.179.847.269 1.706.269 2.577 0 2.182-.635 3.913-1.905 5.191-1.27 1.27-2.988 1.906-5.154 1.906-2.239 0-4.014-.603-5.325-1.808-1.319-1.213-1.979-2.846-1.979-4.898 0-1.84.594-3.294 1.783-4.361 1.181-1.075 2.789-1.612 4.825-1.612h0zm-.66 2.247c-1.23.016-2.211.363-2.944 1.038-.733.667-1.099 1.555-1.099 2.662 0 1.254.354 2.26 1.063 3.017.708.749 1.706 1.181 2.992 1.295l-.012-8.013z" mask="url(#Ao)" class="C"/><mask id="Ap" class="B"><use xlink:href="#Am" href="#B"/></mask><path d="M16.305 237.611h8.257v2.248h-8.184c-1.295 0-2.264.252-2.907.757s-.965 1.262-.965 2.272c0 1.213.387 2.17 1.16 2.87s1.828 1.05 3.163 1.05h7.732v2.26h-13.68v-2.26h2.125c-.822-.538-1.437-1.169-1.844-1.893-.407-.733-.611-1.576-.611-2.529 0-1.572.489-2.76 1.466-3.567.969-.806 2.398-1.209 4.287-1.209z" mask="url(#Ap)" class="C"/><mask id="Aq" class="B"><use xlink:href="#An" href="#B"/></mask><path d="M11.285 224.407h2.125a8.78 8.78 0 0 0-.733 1.979c-.163.684-.244 1.392-.244 2.125 0 1.115.171 1.954.513 2.516.342.554.855.831 1.539.831a1.46 1.46 0 0 0 1.234-.599c.293-.399.574-1.201.843-2.406l.171-.769c.342-1.596.826-2.728 1.453-3.396.619-.676 1.486-1.013 2.602-1.013 1.27 0 2.276.505 3.017 1.514.741 1.002 1.111 2.382 1.111 4.141 0 .733-.073 1.498-.22 2.296-.138.79-.35 1.624-.635 2.504H21.74a12.43 12.43 0 0 0 .977-2.455c.212-.806.318-1.604.318-2.394 0-1.059-.179-1.873-.537-2.443a1.73 1.73 0 0 0-1.539-.855c-.611 0-1.079.208-1.405.623-.326.407-.639 1.307-.94 2.699l-.183.782c-.293 1.392-.741 2.398-1.344 3.017-.611.619-1.445.928-2.504.928-1.287 0-2.28-.456-2.98-1.368s-1.05-2.206-1.05-3.884c0-.83.061-1.612.183-2.345a9.98 9.98 0 0 1 .55-2.028z" mask="url(#Aq)" class="C"/><mask id="Ar" class="B"><use xlink:href="#Ao" href="#B"/></mask><path d="M10.882 220.096v-2.248h13.68v2.248h-13.68 0zm-5.325 0v-2.248h2.846v2.248H5.556z" mask="url(#Ar)" class="C"/><mask id="As" class="B"><use xlink:href="#Ap" href="#B"/></mask><path d="M6.998 210.923h3.884v-4.629h1.747v4.629h7.426c1.116 0 1.832-.151 2.15-.452.318-.309.476-.932.476-1.869v-2.308h1.881v2.308c0 1.735-.322 2.932-.965 3.591-.651.66-1.832.989-3.542.989h-7.426v1.649h-1.747v-1.649H6.998v-2.26z" mask="url(#As)" class="C"/><mask id="At" class="B"><use xlink:href="#Aq" href="#B"/></mask><path d="M25.832 197.646c1.629.635 2.691 1.254 3.188 1.857s.745 1.409.745 2.418v1.796h-1.881v-1.319c0-.619-.147-1.099-.44-1.441s-.985-.721-2.076-1.136l-1.026-.403-13.46 5.533v-2.382l10.7-4.275-10.7-4.275v-2.382l14.95 6.01z" mask="url(#At)" class="C"/><mask id="Au" class="B"><use xlink:href="#Ar" href="#B"/></mask><path d="M5.581 175.184c1.873 1.091 3.725 1.901 5.557 2.431a19.97 19.97 0 0 0 5.57.794c1.881 0 3.746-.265 5.594-.794 1.84-.537 3.693-1.347 5.557-2.431v1.954c-1.914 1.221-3.795 2.137-5.643 2.748-1.848.603-3.685.904-5.509.904-1.816 0-3.644-.301-5.484-.904s-3.721-1.518-5.643-2.748v-1.954z" mask="url(#Au)" class="C"/><mask id="Av" class="B"><use xlink:href="#As" href="#B"/></mask><path d="M12.958 161.822H5.556v-2.247h19.005v2.247H22.51c.814.472 1.421 1.071 1.82 1.796.391.717.586 1.58.586 2.589 0 1.653-.66 3.001-1.979 4.043-1.319 1.034-3.054 1.551-5.203 1.551s-3.884-.517-5.203-1.551c-1.319-1.042-1.979-2.39-1.979-4.043 0-1.01.199-1.873.598-2.589.391-.725.993-1.323 1.808-1.796h0zm4.776 7.658c1.653 0 2.952-.338 3.896-1.013.936-.684 1.405-1.621 1.405-2.809s-.468-2.125-1.405-2.809c-.945-.684-2.243-1.026-3.896-1.026s-2.948.342-3.884 1.026c-.945.684-1.417 1.62-1.417 2.809s.472 2.125 1.417 2.809c.936.676 2.231 1.013 3.884 1.013z" mask="url(#Av)" class="C"/><mask id="Aw" class="B"><use xlink:href="#At" href="#B"/></mask><path d="M15.853 152.38h6.681v-3.958c0-1.327-.273-2.309-.818-2.944-.554-.643-1.396-.965-2.528-.965-1.14 0-1.979.322-2.516.965-.546.635-.818 1.616-.818 2.944v3.958h0zm-7.5 0h5.496v-3.652c0-1.205-.224-2.101-.672-2.687-.456-.595-1.148-.892-2.076-.892-.92 0-1.608.297-2.064.892-.456.586-.684 1.482-.684 2.687v3.652h0zm-2.028 2.467v-6.303c0-1.881.391-3.33 1.173-4.348s1.893-1.527 3.334-1.527c1.116 0 2.003.261 2.663.782s1.071 1.287 1.234 2.296c.261-1.213.806-2.154 1.637-2.822.822-.676 1.852-1.014 3.09-1.014 1.629 0 2.887.554 3.774 1.661s1.331 2.683 1.331 4.727v6.547H6.326z" mask="url(#Aw)" class="C"/><mask id="Ax" class="B"><use xlink:href="#Au" href="#B"/></mask><path mask="url(#Ax)" d="M6.326 133.79v-2.076l20.556 6.351v2.076z" class="C"/><mask id="Ay" class="B"><use xlink:href="#Av" href="#B"/></mask><path mask="url(#Ay)" d="M6.326 129.259v-2.467h7.475v-8.965H6.326v-2.468h18.236v2.468h-8.684v8.965h8.684v2.467z" class="C"/><mask id="Az" class="B"><use xlink:href="#Aw" href="#B"/></mask><path mask="url(#Az)" d="M10.882 111.524v-10.675h2.052l9.832 8.452v-8.452h1.795v10.981H22.51l-9.832-8.452v8.147z" class="C"/><mask id="BA" class="B"><use xlink:href="#Ax" href="#B"/></mask><path d="M5.581 97.77v-1.954c1.922-1.222 3.803-2.134 5.643-2.736 1.84-.611 3.668-.916 5.484-.916 1.824 0 3.66.305 5.509.916 1.848.602 3.729 1.515 5.643 2.736v1.954c-1.865-1.083-3.717-1.889-5.557-2.418a19.94 19.94 0 0 0-5.594-.806 19.69 19.69 0 0 0-5.57.806c-1.832.529-3.685 1.335-5.557 2.418z" mask="url(#BA)" class="C"/><g transform="translate(93 18)"><mask id="BB" class="B"><use xlink:href="#Ay" href="#C"/></mask><path stroke="#009af9" mask="url(#BB)" d="M22.961 435.111l2.983-28.977 2.983.652 2.983-255.223 2.983-131.016 2.983.383 2.983-5.944 2.983 35.642 2.983-24.323 2.983-12.166 2.983 83.243 2.983-4.249 2.983 3.978 2.983-23.663 2.983 20.583 2.983 123.274 2.983-64.97 2.983-67.081 2.983 36.644 2.983 38.58 2.983 61.09 2.983-19.768 2.983-72.61 2.983 2.658 2.983 98.7 2.983 19.258 2.983-13.882 2.983-12.772 2.983 68.698 2.983 18.003 2.983-25.604 2.983 29.583 2.983 8.154 2.983 47.629 2.983-51.896 2.983 52.931 2.983-17.895 2.983 56.162 2.983-32.432 2.983 26.515 2.983-14.072 2.983 8.171 2.983 32.98 2.983-22.447 2.983 32.271 2.983-44.383 2.983 55.737 2.983 46.496 2.983 14.935 2.983-34.034 2.983-10.805 2.983-4.341 2.983 51.738 2.983 18.685 2.983-45.76 2.983 24.559 2.983-3.221 2.983 17.842 2.983-44.035 2.983-9.084 2.983 32.317 2.983 38.682 2.983-40.71 2.983-23.478 2.983 24.536 2.983 57.164 2.983 6.653 2.983-40.844 2.983-13.704 2.983 42.462 2.983 22.378 2.983-20.422 2.983-38.007 2.983 21.695 2.983 32.236 2.983 10.786 2.983-41.136 2.983-6.361 2.983 43.314 2.983 1.472 2.983-8.401 2.983-26.381 2.983 25.675 2.983 24.049 2.983-6.369 2.983-37.577 2.983-16.005 2.983 55.706 2.983 1.361 2.983-17.24 2.982-27.163 2.984 24.042 2.984 20.138 2.984-3.328 2.984-24.797 2.98-9.785 2.984 36.013 2.984.686 2.984-9.613 2.984-5.886 2.98 8.593 2.984 23.977 2.984-10.146 2.984-25.127 2.98-3.064 2.984 36.473 2.984 7.577 2.984-11.96 2.984-12.362 2.98 8.842 2.984 15.917 2.984-19.644 2.984-30.514 2.984 18.528 2.98 25.76 2.984 3.033 2.984.936 2.984 1.764 2.984-11.622 2.98-17.454 2.984 10.307 2.984-7.991 2.984 4.981 2.984-25.438 2.98-35.871 2.984-12.792 2.984-23.279 2.984 20.445 2.984 2.151 2.98-29.836 2.984-5.027 2.984 26.461 2.984 44.809 2.98 4.498 2.984 8.378 2.984 1.48 2.984 14.007 2.984 12.884 2.98-.652 2.984-3.01 2.984-.257 2.984 17.27 2.984 10.537 2.98-5.813 2.984-4.601 2.984 14.46 2.984 8.359 2.984-3.819 2.98 1.3 2.984 9.16 2.984 11.419 2.984-4.613 2.984 3.923 2.98 2.953 2.984.544 2.984 2.105 2.984 1.239 2.984.61 2.98-1.024 2.984 1.047 2.984.633 2.984-.518 2.984.905 2.98 1.227 2.984.295 2.984-1.676 2.984 1.764 2.98.621 2.984.472 2.984-.633 2.984 1.764 2.984-.564 2.98-.782 2.984 1.449 2.984.671 2.984-1.193 2.984.959 2.98 2.063 2.984-.748 2.984.284 2.984.433 2.984.449 2.98.226 2.984.637 2.984.41 2.984-.583 2.984.901 2.98 1.262 2.984-.602 2.984-.245 2.984.939 2.984.376 2.98-.303 2.984.759 2.984.318 2.984-.725 2.984.725 2.98 1.334 2.984-.939 2.984-.15 2.984.916 2.98.533 2.984-.498 2.984.525 2.984.291 2.984-.571 2.98.717 2.984.932 2.984-.614 2.984-.537 2.984 1.104 2.98.406 2.984-.226 2.984-.069 2.984.617 2.984-.575 2.98.449 2.984 1.081 2.984-.556 2.984-.663 2.984.886 2.98.84 2.984-.752 2.984.023 2.984.706 2.984-.441 2.98-.008 2.984 1.085 2.984-.418 2.984-.725 2.98.752 2.984.809 2.984-.851 2.984.13 2.984.383 2.98-.015 2.984-.196 2.984.962 2.984-.483 2.984-.702 2.98.56 2.984 1.112 2.984-1.139 2.984-.046 2.984.698 2.98-.192 2.984-.242 2.984.786 2.984-.429 2.984-.587 2.98.433 2.984.916 2.984-.709 2.984-.548 2.984.771 2.98.065 2.984 31.193" class="D E"/></g></g></g></svg>